%
M48
M72
T01C0.03200
T02C0.04000
T03C0.05118
T04C0.05200
%
T01
X73211Y31557
X83211Y31557
X93211Y31557
X93211Y51557
X83211Y51557
X73211Y51557
X53172Y74628
X43172Y74628
X43566Y99038
X53566Y99038
X178093Y98329
X193054Y98329
X235416Y99825
X235416Y109825
X235416Y119825
X235416Y129825
X235416Y139825
X235416Y149825
X238841Y166439
X255928Y166439
X265416Y149825
X265416Y139825
X265416Y129825
X265416Y119825
X265416Y109825
X265416Y99825
X265416Y89825
X265416Y73487
X265416Y63487
X265416Y53487
X265416Y43487
X235416Y43487
X235416Y53487
X235416Y63487
X235416Y73487
X235416Y89825
X193054Y138329
X178093Y138329
X238841Y206439
X255928Y206439
T02
X219825Y198880
X219825Y188880
X219825Y178880
X219825Y168880
X219825Y158880
X219825Y148880
X219825Y138880
X219825Y128880
X219825Y118880
X219825Y108880
X219825Y98880
X219825Y88880
X219825Y78880
X219825Y68880
X219825Y58880
X219825Y48880
X219825Y38880
X219825Y28880
X219825Y18880
X119432Y18880
X119432Y28880
X119432Y38880
X119432Y48880
X119432Y58880
X119432Y68880
X119432Y78880
X119432Y88880
X119432Y98880
X119432Y108880
X119432Y118880
X119432Y128880
X119432Y138880
X119432Y148880
X119432Y158880
X119432Y168880
X119432Y178880
X119432Y188880
X119432Y198880
X22739Y94077
X22739Y84077
X22739Y74077
T03
X23566Y40298
X43251Y40298
X30652Y122266
X30652Y141951
X293448Y128959
X293448Y109274
X293448Y76203
X293448Y56518
X293448Y36833
X293448Y170298
X293448Y189983
T04
X87148Y165661
X87148Y67061
M30
