G75*
%MOIN*%
%OFA0B0*%
%FSLAX25Y25*%
%IPPOS*%
%LPD*%
%AMOC8*
5,1,8,0,0,1.08239X$1,22.5*
%
%ADD10C,0.05200*%
%ADD11C,0.06000*%
%ADD12C,0.07677*%
%ADD13OC8,0.05200*%
%ADD14C,0.10000*%
%ADD15OC8,0.06300*%
%ADD16C,0.06300*%
%ADD17C,0.01200*%
%ADD18C,0.00800*%
%ADD19C,0.02400*%
D10*
X0073211Y0028957D02*
X0073211Y0034157D01*
X0083211Y0034157D02*
X0083211Y0028957D01*
X0093211Y0028957D02*
X0093211Y0034157D01*
X0093211Y0048957D02*
X0093211Y0054157D01*
X0083211Y0054157D02*
X0083211Y0048957D01*
X0073211Y0048957D02*
X0073211Y0054157D01*
X0232816Y0053487D02*
X0238016Y0053487D01*
X0238016Y0063487D02*
X0232816Y0063487D01*
X0232816Y0073487D02*
X0238016Y0073487D01*
X0238016Y0089825D02*
X0232816Y0089825D01*
X0232816Y0099825D02*
X0238016Y0099825D01*
X0238016Y0109825D02*
X0232816Y0109825D01*
X0232816Y0119825D02*
X0238016Y0119825D01*
X0238016Y0129825D02*
X0232816Y0129825D01*
X0232816Y0139825D02*
X0238016Y0139825D01*
X0238016Y0149825D02*
X0232816Y0149825D01*
X0262816Y0149825D02*
X0268016Y0149825D01*
X0268016Y0139825D02*
X0262816Y0139825D01*
X0262816Y0129825D02*
X0268016Y0129825D01*
X0268016Y0119825D02*
X0262816Y0119825D01*
X0262816Y0109825D02*
X0268016Y0109825D01*
X0268016Y0099825D02*
X0262816Y0099825D01*
X0262816Y0089825D02*
X0268016Y0089825D01*
X0268016Y0073487D02*
X0262816Y0073487D01*
X0262816Y0063487D02*
X0268016Y0063487D01*
X0268016Y0053487D02*
X0262816Y0053487D01*
X0262816Y0043487D02*
X0268016Y0043487D01*
X0238016Y0043487D02*
X0232816Y0043487D01*
D11*
X0222825Y0038880D02*
X0216825Y0038880D01*
X0216825Y0028880D02*
X0222825Y0028880D01*
X0222825Y0018880D02*
X0216825Y0018880D01*
X0216825Y0048880D02*
X0222825Y0048880D01*
X0222825Y0058880D02*
X0216825Y0058880D01*
X0216825Y0068880D02*
X0222825Y0068880D01*
X0222825Y0078880D02*
X0216825Y0078880D01*
X0216825Y0088880D02*
X0222825Y0088880D01*
X0222825Y0098880D02*
X0216825Y0098880D01*
X0216825Y0108880D02*
X0222825Y0108880D01*
X0222825Y0118880D02*
X0216825Y0118880D01*
X0216825Y0128880D02*
X0222825Y0128880D01*
X0222825Y0138880D02*
X0216825Y0138880D01*
X0216825Y0148880D02*
X0222825Y0148880D01*
X0222825Y0158880D02*
X0216825Y0158880D01*
X0216825Y0168880D02*
X0222825Y0168880D01*
X0222825Y0178880D02*
X0216825Y0178880D01*
X0216825Y0188880D02*
X0222825Y0188880D01*
X0222825Y0198880D02*
X0216825Y0198880D01*
X0122432Y0198880D02*
X0116432Y0198880D01*
X0116432Y0188880D02*
X0122432Y0188880D01*
X0122432Y0178880D02*
X0116432Y0178880D01*
X0116432Y0168880D02*
X0122432Y0168880D01*
X0122432Y0158880D02*
X0116432Y0158880D01*
X0116432Y0148880D02*
X0122432Y0148880D01*
X0122432Y0138880D02*
X0116432Y0138880D01*
X0116432Y0128880D02*
X0122432Y0128880D01*
X0122432Y0118880D02*
X0116432Y0118880D01*
X0116432Y0108880D02*
X0122432Y0108880D01*
X0122432Y0098880D02*
X0116432Y0098880D01*
X0116432Y0088880D02*
X0122432Y0088880D01*
X0122432Y0078880D02*
X0116432Y0078880D01*
X0116432Y0068880D02*
X0122432Y0068880D01*
X0122432Y0058880D02*
X0116432Y0058880D01*
X0116432Y0048880D02*
X0122432Y0048880D01*
X0122432Y0038880D02*
X0116432Y0038880D01*
X0116432Y0028880D02*
X0122432Y0028880D01*
X0122432Y0018880D02*
X0116432Y0018880D01*
X0025739Y0074077D02*
X0019739Y0074077D01*
X0019739Y0084077D02*
X0025739Y0084077D01*
X0025739Y0094077D02*
X0019739Y0094077D01*
D12*
X0030652Y0122266D03*
X0030652Y0141951D03*
X0023566Y0040298D03*
X0043251Y0040298D03*
X0293448Y0036833D03*
X0293448Y0056518D03*
X0293448Y0076203D03*
X0293448Y0109274D03*
X0293448Y0128959D03*
X0293448Y0170298D03*
X0293448Y0189983D03*
D13*
X0255928Y0206439D03*
X0238841Y0206439D03*
X0238841Y0166439D03*
X0255928Y0166439D03*
X0193054Y0138329D03*
X0178093Y0138329D03*
X0178093Y0098329D03*
X0193054Y0098329D03*
D14*
X0092148Y0067061D02*
X0082148Y0067061D01*
X0082148Y0165661D02*
X0092148Y0165661D01*
D15*
X0053566Y0099038D03*
X0053172Y0074628D03*
D16*
X0043172Y0074628D03*
X0043566Y0099038D03*
D17*
X0119432Y0118880D02*
X0129432Y0118880D01*
X0134392Y0123841D01*
X0229432Y0123841D01*
X0235416Y0129825D01*
X0225810Y0134865D02*
X0287542Y0134865D01*
X0293448Y0128959D01*
X0287936Y0114786D02*
X0223920Y0114786D01*
X0219825Y0118880D01*
X0219825Y0128880D02*
X0225810Y0134865D01*
X0235416Y0139825D02*
X0241322Y0139825D01*
X0249353Y0147857D01*
X0249353Y0195928D01*
X0238841Y0206439D01*
X0287936Y0114786D02*
X0293448Y0109274D01*
D18*
X0006524Y0209616D02*
X0006900Y0006223D01*
X0125849Y0006806D01*
X0124860Y0007796D01*
X0119575Y0013080D01*
X0115278Y0013080D01*
X0113146Y0013963D01*
X0112229Y0014880D01*
X0109817Y0014880D01*
X0108347Y0015489D01*
X0101867Y0021969D01*
X0101259Y0023439D01*
X0101259Y0149743D01*
X0093141Y0157861D01*
X0080597Y0157861D01*
X0077730Y0159048D01*
X0075536Y0161242D01*
X0074348Y0164109D01*
X0074348Y0167212D01*
X0075536Y0170079D01*
X0077730Y0172273D01*
X0080597Y0173461D01*
X0093700Y0173461D01*
X0096567Y0172273D01*
X0098761Y0170079D01*
X0099948Y0167212D01*
X0099948Y0164109D01*
X0099438Y0162877D01*
X0108650Y0153666D01*
X0109259Y0152196D01*
X0109259Y0025891D01*
X0112250Y0022900D01*
X0113146Y0023797D01*
X0113347Y0023880D01*
X0113146Y0023963D01*
X0111515Y0025595D01*
X0110632Y0027727D01*
X0110632Y0030034D01*
X0111515Y0032166D01*
X0113146Y0033797D01*
X0113347Y0033880D01*
X0113146Y0033963D01*
X0111515Y0035595D01*
X0110632Y0037727D01*
X0110632Y0040034D01*
X0111515Y0042166D01*
X0113146Y0043797D01*
X0113347Y0043880D01*
X0113146Y0043963D01*
X0111515Y0045595D01*
X0110632Y0047727D01*
X0110632Y0050034D01*
X0111515Y0052166D01*
X0113146Y0053797D01*
X0113347Y0053880D01*
X0113146Y0053963D01*
X0111515Y0055595D01*
X0110632Y0057727D01*
X0110632Y0060034D01*
X0111515Y0062166D01*
X0113146Y0063797D01*
X0115208Y0064651D01*
X0114743Y0064803D01*
X0114126Y0065117D01*
X0113565Y0065524D01*
X0113076Y0066014D01*
X0112669Y0066574D01*
X0112354Y0067191D01*
X0112140Y0067850D01*
X0112040Y0068480D01*
X0119032Y0068480D01*
X0119032Y0069280D01*
X0112040Y0069280D01*
X0112140Y0069911D01*
X0112354Y0070569D01*
X0112669Y0071186D01*
X0113076Y0071747D01*
X0113565Y0072236D01*
X0114126Y0072644D01*
X0114743Y0072958D01*
X0115208Y0073109D01*
X0113146Y0073963D01*
X0111515Y0075595D01*
X0110632Y0077727D01*
X0110632Y0080034D01*
X0111515Y0082166D01*
X0113146Y0083797D01*
X0113347Y0083880D01*
X0113146Y0083963D01*
X0111515Y0085595D01*
X0110632Y0087727D01*
X0110632Y0090034D01*
X0111515Y0092166D01*
X0113146Y0093797D01*
X0113347Y0093880D01*
X0113146Y0093963D01*
X0111515Y0095595D01*
X0110632Y0097727D01*
X0110632Y0100034D01*
X0111515Y0102166D01*
X0113146Y0103797D01*
X0113347Y0103880D01*
X0113146Y0103963D01*
X0111515Y0105595D01*
X0110632Y0107727D01*
X0110632Y0110034D01*
X0111515Y0112166D01*
X0113146Y0113797D01*
X0113347Y0113880D01*
X0113146Y0113963D01*
X0111515Y0115595D01*
X0110632Y0117727D01*
X0110632Y0120034D01*
X0111515Y0122166D01*
X0113146Y0123797D01*
X0113347Y0123880D01*
X0113146Y0123963D01*
X0111515Y0125595D01*
X0110632Y0127727D01*
X0110632Y0130034D01*
X0111515Y0132166D01*
X0113146Y0133797D01*
X0113347Y0133880D01*
X0113146Y0133963D01*
X0111515Y0135595D01*
X0110632Y0137727D01*
X0110632Y0140034D01*
X0111515Y0142166D01*
X0113146Y0143797D01*
X0113347Y0143880D01*
X0113146Y0143963D01*
X0111515Y0145595D01*
X0110632Y0147727D01*
X0110632Y0150034D01*
X0111515Y0152166D01*
X0113146Y0153797D01*
X0113347Y0153880D01*
X0113146Y0153963D01*
X0111515Y0155595D01*
X0110632Y0157727D01*
X0110632Y0160034D01*
X0111515Y0162166D01*
X0113146Y0163797D01*
X0113347Y0163880D01*
X0113146Y0163963D01*
X0111515Y0165595D01*
X0110632Y0167727D01*
X0110632Y0170034D01*
X0111515Y0172166D01*
X0113146Y0173797D01*
X0113347Y0173880D01*
X0113146Y0173963D01*
X0111515Y0175595D01*
X0110632Y0177727D01*
X0110632Y0180034D01*
X0111515Y0182166D01*
X0113146Y0183797D01*
X0113347Y0183880D01*
X0113146Y0183963D01*
X0111515Y0185595D01*
X0110632Y0187727D01*
X0110632Y0190034D01*
X0111515Y0192166D01*
X0113146Y0193797D01*
X0113347Y0193880D01*
X0113146Y0193963D01*
X0111515Y0195595D01*
X0110632Y0197727D01*
X0110632Y0200034D01*
X0111515Y0202166D01*
X0113146Y0203797D01*
X0115278Y0204680D01*
X0123585Y0204680D01*
X0125717Y0203797D01*
X0127349Y0202166D01*
X0128232Y0200034D01*
X0128232Y0197727D01*
X0127349Y0195595D01*
X0125717Y0193963D01*
X0125517Y0193880D01*
X0125717Y0193797D01*
X0127349Y0192166D01*
X0128232Y0190034D01*
X0128232Y0187727D01*
X0127349Y0185595D01*
X0125717Y0183963D01*
X0125517Y0183880D01*
X0125717Y0183797D01*
X0127349Y0182166D01*
X0128232Y0180034D01*
X0128232Y0177727D01*
X0127349Y0175595D01*
X0125717Y0173963D01*
X0125517Y0173880D01*
X0125717Y0173797D01*
X0127349Y0172166D01*
X0128232Y0170034D01*
X0128232Y0167727D01*
X0127349Y0165595D01*
X0125717Y0163963D01*
X0125517Y0163880D01*
X0125717Y0163797D01*
X0127349Y0162166D01*
X0128232Y0160034D01*
X0128232Y0157727D01*
X0127349Y0155595D01*
X0125717Y0153963D01*
X0125517Y0153880D01*
X0125717Y0153797D01*
X0127349Y0152166D01*
X0128232Y0150034D01*
X0128232Y0147727D01*
X0127349Y0145595D01*
X0125717Y0143963D01*
X0125517Y0143880D01*
X0125717Y0143797D01*
X0127349Y0142166D01*
X0128232Y0140034D01*
X0128232Y0137727D01*
X0127349Y0135595D01*
X0125717Y0133963D01*
X0125517Y0133880D01*
X0125717Y0133797D01*
X0127349Y0132166D01*
X0128232Y0130034D01*
X0128232Y0127727D01*
X0127349Y0125595D01*
X0125717Y0123963D01*
X0125517Y0123880D01*
X0125717Y0123797D01*
X0127234Y0122280D01*
X0128023Y0122280D01*
X0132466Y0126723D01*
X0133716Y0127241D01*
X0211227Y0127241D01*
X0211025Y0127727D01*
X0211025Y0130034D01*
X0211908Y0132166D01*
X0213540Y0133797D01*
X0215602Y0134651D01*
X0215136Y0134803D01*
X0214519Y0135117D01*
X0213959Y0135524D01*
X0213469Y0136014D01*
X0213062Y0136574D01*
X0212748Y0137191D01*
X0212534Y0137850D01*
X0212434Y0138480D01*
X0219425Y0138480D01*
X0219425Y0139280D01*
X0212434Y0139280D01*
X0212534Y0139911D01*
X0212748Y0140569D01*
X0213062Y0141186D01*
X0213469Y0141747D01*
X0213959Y0142236D01*
X0214519Y0142644D01*
X0215136Y0142958D01*
X0215602Y0143109D01*
X0213540Y0143963D01*
X0211908Y0145595D01*
X0211025Y0147727D01*
X0211025Y0150034D01*
X0211908Y0152166D01*
X0213540Y0153797D01*
X0213740Y0153880D01*
X0213540Y0153963D01*
X0211908Y0155595D01*
X0211025Y0157727D01*
X0211025Y0160034D01*
X0211908Y0162166D01*
X0213540Y0163797D01*
X0213740Y0163880D01*
X0213540Y0163963D01*
X0211908Y0165595D01*
X0211025Y0167727D01*
X0211025Y0170034D01*
X0211908Y0172166D01*
X0213540Y0173797D01*
X0213740Y0173880D01*
X0213540Y0173963D01*
X0211908Y0175595D01*
X0211025Y0177727D01*
X0211025Y0180034D01*
X0211908Y0182166D01*
X0213540Y0183797D01*
X0213740Y0183880D01*
X0213540Y0183963D01*
X0211908Y0185595D01*
X0211025Y0187727D01*
X0211025Y0190034D01*
X0211908Y0192166D01*
X0213540Y0193797D01*
X0215602Y0194651D01*
X0215136Y0194803D01*
X0214519Y0195117D01*
X0213959Y0195524D01*
X0213469Y0196014D01*
X0213062Y0196574D01*
X0212748Y0197191D01*
X0212534Y0197850D01*
X0212434Y0198480D01*
X0219425Y0198480D01*
X0219425Y0199280D01*
X0212434Y0199280D01*
X0212534Y0199911D01*
X0212748Y0200569D01*
X0213062Y0201186D01*
X0213469Y0201747D01*
X0213959Y0202236D01*
X0214519Y0202644D01*
X0215136Y0202958D01*
X0215795Y0203172D01*
X0216479Y0203280D01*
X0219425Y0203280D01*
X0219425Y0199280D01*
X0220225Y0199280D01*
X0220225Y0203280D01*
X0223172Y0203280D01*
X0223856Y0203172D01*
X0224514Y0202958D01*
X0225132Y0202644D01*
X0225692Y0202236D01*
X0226182Y0201747D01*
X0226589Y0201186D01*
X0226903Y0200569D01*
X0227117Y0199911D01*
X0227217Y0199280D01*
X0220226Y0199280D01*
X0220226Y0198480D01*
X0227217Y0198480D01*
X0227117Y0197850D01*
X0226903Y0197191D01*
X0226589Y0196574D01*
X0226182Y0196014D01*
X0225692Y0195524D01*
X0225132Y0195117D01*
X0224514Y0194803D01*
X0224049Y0194651D01*
X0226111Y0193797D01*
X0227742Y0192166D01*
X0228625Y0190034D01*
X0228625Y0187727D01*
X0227742Y0185595D01*
X0226111Y0183963D01*
X0225910Y0183880D01*
X0226111Y0183797D01*
X0227742Y0182166D01*
X0228625Y0180034D01*
X0228625Y0177727D01*
X0227742Y0175595D01*
X0226111Y0173963D01*
X0225910Y0173880D01*
X0226111Y0173797D01*
X0227742Y0172166D01*
X0228625Y0170034D01*
X0228625Y0167727D01*
X0227742Y0165595D01*
X0226111Y0163963D01*
X0225910Y0163880D01*
X0226111Y0163797D01*
X0227742Y0162166D01*
X0228625Y0160034D01*
X0228625Y0157727D01*
X0227742Y0155595D01*
X0226111Y0153963D01*
X0225910Y0153880D01*
X0226111Y0153797D01*
X0227742Y0152166D01*
X0227842Y0151927D01*
X0228238Y0152884D01*
X0229757Y0154403D01*
X0231742Y0155225D01*
X0239090Y0155225D01*
X0241075Y0154403D01*
X0242594Y0152884D01*
X0243416Y0150899D01*
X0243416Y0148751D01*
X0242594Y0146766D01*
X0241075Y0145247D01*
X0240056Y0144825D01*
X0241075Y0144403D01*
X0241083Y0144395D01*
X0245953Y0149265D01*
X0245953Y0194519D01*
X0239433Y0201039D01*
X0236604Y0201039D01*
X0233441Y0204203D01*
X0233441Y0208676D01*
X0235502Y0210737D01*
X0006524Y0209616D01*
X0006525Y0209307D02*
X0234072Y0209307D01*
X0233441Y0208508D02*
X0006526Y0208508D01*
X0006528Y0207710D02*
X0233441Y0207710D01*
X0233441Y0206911D02*
X0006529Y0206911D01*
X0006531Y0206113D02*
X0233441Y0206113D01*
X0233441Y0205314D02*
X0006532Y0205314D01*
X0006533Y0204516D02*
X0114880Y0204516D01*
X0113066Y0203717D02*
X0006535Y0203717D01*
X0006536Y0202919D02*
X0112268Y0202919D01*
X0111496Y0202120D02*
X0006538Y0202120D01*
X0006539Y0201322D02*
X0111165Y0201322D01*
X0110834Y0200523D02*
X0006541Y0200523D01*
X0006542Y0199725D02*
X0110632Y0199725D01*
X0110632Y0198926D02*
X0006544Y0198926D01*
X0006545Y0198127D02*
X0110632Y0198127D01*
X0110796Y0197329D02*
X0006547Y0197329D01*
X0006548Y0196530D02*
X0111127Y0196530D01*
X0111458Y0195732D02*
X0006550Y0195732D01*
X0006551Y0194933D02*
X0112176Y0194933D01*
X0112975Y0194135D02*
X0006553Y0194135D01*
X0006554Y0193336D02*
X0112685Y0193336D01*
X0111887Y0192538D02*
X0006556Y0192538D01*
X0006557Y0191739D02*
X0111338Y0191739D01*
X0111007Y0190941D02*
X0006559Y0190941D01*
X0006560Y0190142D02*
X0110677Y0190142D01*
X0110632Y0189344D02*
X0006562Y0189344D01*
X0006563Y0188545D02*
X0110632Y0188545D01*
X0110632Y0187747D02*
X0006564Y0187747D01*
X0006566Y0186948D02*
X0110954Y0186948D01*
X0111285Y0186150D02*
X0006567Y0186150D01*
X0006569Y0185351D02*
X0111758Y0185351D01*
X0112557Y0184553D02*
X0006570Y0184553D01*
X0006572Y0183754D02*
X0113103Y0183754D01*
X0112305Y0182956D02*
X0006573Y0182956D01*
X0006575Y0182157D02*
X0111511Y0182157D01*
X0111180Y0181359D02*
X0006576Y0181359D01*
X0006578Y0180560D02*
X0110850Y0180560D01*
X0110632Y0179762D02*
X0006579Y0179762D01*
X0006581Y0178963D02*
X0110632Y0178963D01*
X0110632Y0178165D02*
X0006582Y0178165D01*
X0006584Y0177366D02*
X0110781Y0177366D01*
X0111112Y0176568D02*
X0006585Y0176568D01*
X0006587Y0175769D02*
X0111443Y0175769D01*
X0112139Y0174971D02*
X0006588Y0174971D01*
X0006590Y0174172D02*
X0112937Y0174172D01*
X0112723Y0173374D02*
X0093910Y0173374D01*
X0095838Y0172575D02*
X0111924Y0172575D01*
X0111354Y0171777D02*
X0097063Y0171777D01*
X0097862Y0170978D02*
X0111023Y0170978D01*
X0110692Y0170180D02*
X0098660Y0170180D01*
X0099050Y0169381D02*
X0110632Y0169381D01*
X0110632Y0168583D02*
X0099381Y0168583D01*
X0099711Y0167784D02*
X0110632Y0167784D01*
X0110939Y0166986D02*
X0099948Y0166986D01*
X0099948Y0166187D02*
X0111269Y0166187D01*
X0111721Y0165389D02*
X0099948Y0165389D01*
X0099948Y0164590D02*
X0112520Y0164590D01*
X0113141Y0163792D02*
X0099817Y0163792D01*
X0099486Y0162993D02*
X0112342Y0162993D01*
X0111543Y0162194D02*
X0100121Y0162194D01*
X0100919Y0161396D02*
X0111196Y0161396D01*
X0110865Y0160597D02*
X0101718Y0160597D01*
X0102516Y0159799D02*
X0110632Y0159799D01*
X0110632Y0159000D02*
X0103315Y0159000D01*
X0104113Y0158202D02*
X0110632Y0158202D01*
X0110766Y0157403D02*
X0104912Y0157403D01*
X0105710Y0156605D02*
X0111096Y0156605D01*
X0111427Y0155806D02*
X0106509Y0155806D01*
X0107307Y0155008D02*
X0112102Y0155008D01*
X0112900Y0154209D02*
X0108106Y0154209D01*
X0108755Y0153411D02*
X0112760Y0153411D01*
X0111961Y0152612D02*
X0109086Y0152612D01*
X0109259Y0151814D02*
X0111369Y0151814D01*
X0111038Y0151015D02*
X0109259Y0151015D01*
X0109259Y0150217D02*
X0110707Y0150217D01*
X0110632Y0149418D02*
X0109259Y0149418D01*
X0109259Y0148620D02*
X0110632Y0148620D01*
X0110632Y0147821D02*
X0109259Y0147821D01*
X0109259Y0147023D02*
X0110923Y0147023D01*
X0111254Y0146224D02*
X0109259Y0146224D01*
X0109259Y0145426D02*
X0111684Y0145426D01*
X0112482Y0144627D02*
X0109259Y0144627D01*
X0109259Y0143829D02*
X0113222Y0143829D01*
X0112379Y0143030D02*
X0109259Y0143030D01*
X0109259Y0142232D02*
X0111581Y0142232D01*
X0111211Y0141433D02*
X0109259Y0141433D01*
X0109259Y0140635D02*
X0110881Y0140635D01*
X0110632Y0139836D02*
X0109259Y0139836D01*
X0109259Y0139038D02*
X0110632Y0139038D01*
X0110632Y0138239D02*
X0109259Y0138239D01*
X0109259Y0137441D02*
X0110750Y0137441D01*
X0111081Y0136642D02*
X0109259Y0136642D01*
X0109259Y0135844D02*
X0111412Y0135844D01*
X0112065Y0135045D02*
X0109259Y0135045D01*
X0109259Y0134247D02*
X0112863Y0134247D01*
X0112797Y0133448D02*
X0109259Y0133448D01*
X0109259Y0132650D02*
X0111999Y0132650D01*
X0111384Y0131851D02*
X0109259Y0131851D01*
X0109259Y0131053D02*
X0111054Y0131053D01*
X0110723Y0130254D02*
X0109259Y0130254D01*
X0109259Y0129456D02*
X0110632Y0129456D01*
X0110632Y0128657D02*
X0109259Y0128657D01*
X0109259Y0127859D02*
X0110632Y0127859D01*
X0110908Y0127060D02*
X0109259Y0127060D01*
X0109259Y0126261D02*
X0111239Y0126261D01*
X0111647Y0125463D02*
X0109259Y0125463D01*
X0109259Y0124664D02*
X0112445Y0124664D01*
X0113312Y0123866D02*
X0109259Y0123866D01*
X0109259Y0123067D02*
X0112416Y0123067D01*
X0111618Y0122269D02*
X0109259Y0122269D01*
X0109259Y0121470D02*
X0111227Y0121470D01*
X0110896Y0120672D02*
X0109259Y0120672D01*
X0109259Y0119873D02*
X0110632Y0119873D01*
X0110632Y0119075D02*
X0109259Y0119075D01*
X0109259Y0118276D02*
X0110632Y0118276D01*
X0110735Y0117478D02*
X0109259Y0117478D01*
X0109259Y0116679D02*
X0111066Y0116679D01*
X0111396Y0115881D02*
X0109259Y0115881D01*
X0109259Y0115082D02*
X0112027Y0115082D01*
X0112826Y0114284D02*
X0109259Y0114284D01*
X0109259Y0113485D02*
X0112834Y0113485D01*
X0112036Y0112687D02*
X0109259Y0112687D01*
X0109259Y0111888D02*
X0111400Y0111888D01*
X0111069Y0111090D02*
X0109259Y0111090D01*
X0109259Y0110291D02*
X0110738Y0110291D01*
X0110632Y0109493D02*
X0109259Y0109493D01*
X0109259Y0108694D02*
X0110632Y0108694D01*
X0110632Y0107896D02*
X0109259Y0107896D01*
X0109259Y0107097D02*
X0110892Y0107097D01*
X0111223Y0106299D02*
X0109259Y0106299D01*
X0109259Y0105500D02*
X0111609Y0105500D01*
X0112408Y0104702D02*
X0109259Y0104702D01*
X0109259Y0103903D02*
X0113292Y0103903D01*
X0112454Y0103105D02*
X0109259Y0103105D01*
X0109259Y0102306D02*
X0111655Y0102306D01*
X0111242Y0101508D02*
X0109259Y0101508D01*
X0109259Y0100709D02*
X0110911Y0100709D01*
X0110632Y0099911D02*
X0109259Y0099911D01*
X0109259Y0099112D02*
X0110632Y0099112D01*
X0110632Y0098314D02*
X0109259Y0098314D01*
X0109259Y0097515D02*
X0110719Y0097515D01*
X0111050Y0096717D02*
X0109259Y0096717D01*
X0109259Y0095918D02*
X0111381Y0095918D01*
X0111990Y0095120D02*
X0109259Y0095120D01*
X0109259Y0094321D02*
X0112789Y0094321D01*
X0112872Y0093523D02*
X0109259Y0093523D01*
X0109259Y0092724D02*
X0112073Y0092724D01*
X0111415Y0091925D02*
X0109259Y0091925D01*
X0109259Y0091127D02*
X0111084Y0091127D01*
X0110754Y0090328D02*
X0109259Y0090328D01*
X0109259Y0089530D02*
X0110632Y0089530D01*
X0110632Y0088731D02*
X0109259Y0088731D01*
X0109259Y0087933D02*
X0110632Y0087933D01*
X0110877Y0087134D02*
X0109259Y0087134D01*
X0109259Y0086336D02*
X0111208Y0086336D01*
X0111572Y0085537D02*
X0109259Y0085537D01*
X0109259Y0084739D02*
X0112371Y0084739D01*
X0113202Y0083940D02*
X0109259Y0083940D01*
X0109259Y0083142D02*
X0112491Y0083142D01*
X0111692Y0082343D02*
X0109259Y0082343D01*
X0109259Y0081545D02*
X0111258Y0081545D01*
X0110927Y0080746D02*
X0109259Y0080746D01*
X0109259Y0079948D02*
X0110632Y0079948D01*
X0110632Y0079149D02*
X0109259Y0079149D01*
X0109259Y0078351D02*
X0110632Y0078351D01*
X0110704Y0077552D02*
X0109259Y0077552D01*
X0109259Y0076754D02*
X0111035Y0076754D01*
X0111365Y0075955D02*
X0109259Y0075955D01*
X0109259Y0075157D02*
X0111953Y0075157D01*
X0112751Y0074358D02*
X0109259Y0074358D01*
X0109259Y0073560D02*
X0114121Y0073560D01*
X0114357Y0072761D02*
X0109259Y0072761D01*
X0109259Y0071963D02*
X0113292Y0071963D01*
X0112657Y0071164D02*
X0109259Y0071164D01*
X0109259Y0070366D02*
X0112288Y0070366D01*
X0112086Y0069567D02*
X0109259Y0069567D01*
X0109259Y0068769D02*
X0119032Y0068769D01*
X0119832Y0068769D02*
X0211025Y0068769D01*
X0211025Y0069567D02*
X0126778Y0069567D01*
X0126823Y0069280D02*
X0126723Y0069911D01*
X0126509Y0070569D01*
X0126195Y0071186D01*
X0125788Y0071747D01*
X0125298Y0072236D01*
X0124738Y0072644D01*
X0124121Y0072958D01*
X0123655Y0073109D01*
X0125717Y0073963D01*
X0127349Y0075595D01*
X0128232Y0077727D01*
X0128232Y0080034D01*
X0127349Y0082166D01*
X0125717Y0083797D01*
X0125517Y0083880D01*
X0125717Y0083963D01*
X0127349Y0085595D01*
X0128232Y0087727D01*
X0128232Y0090034D01*
X0127349Y0092166D01*
X0125717Y0093797D01*
X0125517Y0093880D01*
X0125717Y0093963D01*
X0127349Y0095595D01*
X0128232Y0097727D01*
X0128232Y0100034D01*
X0127349Y0102166D01*
X0125717Y0103797D01*
X0125517Y0103880D01*
X0125717Y0103963D01*
X0127349Y0105595D01*
X0128232Y0107727D01*
X0128232Y0110034D01*
X0127349Y0112166D01*
X0125717Y0113797D01*
X0125517Y0113880D01*
X0125717Y0113963D01*
X0127234Y0115480D01*
X0130108Y0115480D01*
X0131358Y0115998D01*
X0135801Y0120441D01*
X0211194Y0120441D01*
X0211025Y0120034D01*
X0211025Y0117727D01*
X0211908Y0115595D01*
X0213540Y0113963D01*
X0213740Y0113880D01*
X0213540Y0113797D01*
X0211908Y0112166D01*
X0211025Y0110034D01*
X0211025Y0107727D01*
X0211908Y0105595D01*
X0213540Y0103963D01*
X0213740Y0103880D01*
X0213540Y0103797D01*
X0211908Y0102166D01*
X0211025Y0100034D01*
X0211025Y0097727D01*
X0211908Y0095595D01*
X0213540Y0093963D01*
X0213740Y0093880D01*
X0213540Y0093797D01*
X0211908Y0092166D01*
X0211025Y0090034D01*
X0211025Y0087727D01*
X0211908Y0085595D01*
X0213540Y0083963D01*
X0213740Y0083880D01*
X0213540Y0083797D01*
X0211908Y0082166D01*
X0211025Y0080034D01*
X0211025Y0077727D01*
X0211908Y0075595D01*
X0213540Y0073963D01*
X0213740Y0073880D01*
X0213540Y0073797D01*
X0211908Y0072166D01*
X0211025Y0070034D01*
X0211025Y0067727D01*
X0211908Y0065595D01*
X0213540Y0063963D01*
X0213740Y0063880D01*
X0213540Y0063797D01*
X0211908Y0062166D01*
X0211025Y0060034D01*
X0211025Y0057727D01*
X0211908Y0055595D01*
X0213540Y0053963D01*
X0213740Y0053880D01*
X0213540Y0053797D01*
X0211908Y0052166D01*
X0211025Y0050034D01*
X0211025Y0047727D01*
X0211908Y0045595D01*
X0213540Y0043963D01*
X0213740Y0043880D01*
X0213540Y0043797D01*
X0211908Y0042166D01*
X0211025Y0040034D01*
X0211025Y0037727D01*
X0211908Y0035595D01*
X0213540Y0033963D01*
X0213740Y0033880D01*
X0213540Y0033797D01*
X0211908Y0032166D01*
X0211025Y0030034D01*
X0211025Y0027727D01*
X0211908Y0025595D01*
X0213540Y0023963D01*
X0213740Y0023880D01*
X0213540Y0023797D01*
X0211908Y0022166D01*
X0211025Y0020034D01*
X0211025Y0017727D01*
X0211908Y0015595D01*
X0213442Y0014061D01*
X0129908Y0014061D01*
X0127649Y0016320D01*
X0128232Y0017727D01*
X0128232Y0020034D01*
X0127349Y0022166D01*
X0125717Y0023797D01*
X0125517Y0023880D01*
X0125717Y0023963D01*
X0127349Y0025595D01*
X0128232Y0027727D01*
X0128232Y0030034D01*
X0127349Y0032166D01*
X0125717Y0033797D01*
X0125517Y0033880D01*
X0125717Y0033963D01*
X0127349Y0035595D01*
X0128232Y0037727D01*
X0128232Y0040034D01*
X0127349Y0042166D01*
X0125717Y0043797D01*
X0125517Y0043880D01*
X0125717Y0043963D01*
X0127349Y0045595D01*
X0128232Y0047727D01*
X0128232Y0050034D01*
X0127349Y0052166D01*
X0125717Y0053797D01*
X0125517Y0053880D01*
X0125717Y0053963D01*
X0127349Y0055595D01*
X0128232Y0057727D01*
X0128232Y0060034D01*
X0127349Y0062166D01*
X0125717Y0063797D01*
X0123655Y0064651D01*
X0124121Y0064803D01*
X0124738Y0065117D01*
X0125298Y0065524D01*
X0125788Y0066014D01*
X0126195Y0066574D01*
X0126509Y0067191D01*
X0126723Y0067850D01*
X0126823Y0068480D01*
X0119832Y0068480D01*
X0119832Y0069280D01*
X0126823Y0069280D01*
X0126576Y0070366D02*
X0211163Y0070366D01*
X0211494Y0071164D02*
X0126206Y0071164D01*
X0125572Y0071963D02*
X0211824Y0071963D01*
X0212504Y0072761D02*
X0124507Y0072761D01*
X0124743Y0073560D02*
X0213302Y0073560D01*
X0213145Y0074358D02*
X0126112Y0074358D01*
X0126911Y0075157D02*
X0212347Y0075157D01*
X0211759Y0075955D02*
X0127498Y0075955D01*
X0127829Y0076754D02*
X0211428Y0076754D01*
X0211098Y0077552D02*
X0128160Y0077552D01*
X0128232Y0078351D02*
X0211025Y0078351D01*
X0211025Y0079149D02*
X0128232Y0079149D01*
X0128232Y0079948D02*
X0211025Y0079948D01*
X0211321Y0080746D02*
X0127937Y0080746D01*
X0127606Y0081545D02*
X0211651Y0081545D01*
X0212086Y0082343D02*
X0127171Y0082343D01*
X0126373Y0083142D02*
X0212885Y0083142D01*
X0213595Y0083940D02*
X0125662Y0083940D01*
X0126493Y0084739D02*
X0212764Y0084739D01*
X0211966Y0085537D02*
X0127291Y0085537D01*
X0127656Y0086336D02*
X0211602Y0086336D01*
X0211271Y0087134D02*
X0127986Y0087134D01*
X0128232Y0087933D02*
X0211025Y0087933D01*
X0211025Y0088731D02*
X0128232Y0088731D01*
X0128232Y0089530D02*
X0211025Y0089530D01*
X0211147Y0090328D02*
X0128110Y0090328D01*
X0127779Y0091127D02*
X0211478Y0091127D01*
X0211809Y0091925D02*
X0127448Y0091925D01*
X0126790Y0092724D02*
X0212467Y0092724D01*
X0213265Y0093523D02*
X0195884Y0093523D01*
X0195291Y0092929D02*
X0198454Y0096092D01*
X0198454Y0100566D01*
X0195291Y0103729D01*
X0190817Y0103729D01*
X0187654Y0100566D01*
X0187654Y0096092D01*
X0190817Y0092929D01*
X0195291Y0092929D01*
X0196682Y0094321D02*
X0213182Y0094321D01*
X0212384Y0095120D02*
X0197481Y0095120D01*
X0198279Y0095918D02*
X0211775Y0095918D01*
X0211444Y0096717D02*
X0198454Y0096717D01*
X0198454Y0097515D02*
X0211113Y0097515D01*
X0211025Y0098314D02*
X0198454Y0098314D01*
X0198454Y0099112D02*
X0211025Y0099112D01*
X0211025Y0099911D02*
X0198454Y0099911D01*
X0198311Y0100709D02*
X0211305Y0100709D01*
X0211636Y0101508D02*
X0197512Y0101508D01*
X0196714Y0102306D02*
X0212049Y0102306D01*
X0212847Y0103105D02*
X0195915Y0103105D01*
X0190193Y0103105D02*
X0180954Y0103105D01*
X0180330Y0103729D02*
X0175856Y0103729D01*
X0172693Y0100566D01*
X0172693Y0096092D01*
X0175856Y0092929D01*
X0180330Y0092929D01*
X0183493Y0096092D01*
X0183493Y0100566D01*
X0180330Y0103729D01*
X0181753Y0102306D02*
X0189394Y0102306D01*
X0188596Y0101508D02*
X0182551Y0101508D01*
X0183350Y0100709D02*
X0187797Y0100709D01*
X0187654Y0099911D02*
X0183493Y0099911D01*
X0183493Y0099112D02*
X0187654Y0099112D01*
X0187654Y0098314D02*
X0183493Y0098314D01*
X0183493Y0097515D02*
X0187654Y0097515D01*
X0187654Y0096717D02*
X0183493Y0096717D01*
X0183319Y0095918D02*
X0187828Y0095918D01*
X0188627Y0095120D02*
X0182520Y0095120D01*
X0181722Y0094321D02*
X0189425Y0094321D01*
X0190224Y0093523D02*
X0180923Y0093523D01*
X0175263Y0093523D02*
X0125992Y0093523D01*
X0126075Y0094321D02*
X0174465Y0094321D01*
X0173666Y0095120D02*
X0126873Y0095120D01*
X0127483Y0095918D02*
X0172868Y0095918D01*
X0172693Y0096717D02*
X0127813Y0096717D01*
X0128144Y0097515D02*
X0172693Y0097515D01*
X0172693Y0098314D02*
X0128232Y0098314D01*
X0128232Y0099112D02*
X0172693Y0099112D01*
X0172693Y0099911D02*
X0128232Y0099911D01*
X0127952Y0100709D02*
X0172836Y0100709D01*
X0173635Y0101508D02*
X0127621Y0101508D01*
X0127208Y0102306D02*
X0174433Y0102306D01*
X0175232Y0103105D02*
X0126410Y0103105D01*
X0125572Y0103903D02*
X0213685Y0103903D01*
X0212802Y0104702D02*
X0126456Y0104702D01*
X0127254Y0105500D02*
X0212003Y0105500D01*
X0211617Y0106299D02*
X0127640Y0106299D01*
X0127971Y0107097D02*
X0211286Y0107097D01*
X0211025Y0107896D02*
X0128232Y0107896D01*
X0128232Y0108694D02*
X0211025Y0108694D01*
X0211025Y0109493D02*
X0128232Y0109493D01*
X0128125Y0110291D02*
X0211132Y0110291D01*
X0211463Y0111090D02*
X0127794Y0111090D01*
X0127464Y0111888D02*
X0211794Y0111888D01*
X0212429Y0112687D02*
X0126828Y0112687D01*
X0126029Y0113485D02*
X0213228Y0113485D01*
X0213220Y0114284D02*
X0126038Y0114284D01*
X0126836Y0115082D02*
X0212421Y0115082D01*
X0211790Y0115881D02*
X0131075Y0115881D01*
X0132039Y0116679D02*
X0211459Y0116679D01*
X0211128Y0117478D02*
X0132838Y0117478D01*
X0133636Y0118276D02*
X0211025Y0118276D01*
X0211025Y0119075D02*
X0134435Y0119075D01*
X0135233Y0119873D02*
X0211025Y0119873D01*
X0211025Y0127859D02*
X0128232Y0127859D01*
X0128232Y0128657D02*
X0211025Y0128657D01*
X0211025Y0129456D02*
X0128232Y0129456D01*
X0128141Y0130254D02*
X0211117Y0130254D01*
X0211447Y0131053D02*
X0127810Y0131053D01*
X0127479Y0131851D02*
X0211778Y0131851D01*
X0212392Y0132650D02*
X0126865Y0132650D01*
X0126066Y0133448D02*
X0175337Y0133448D01*
X0175856Y0132929D02*
X0172693Y0136092D01*
X0172693Y0140566D01*
X0175856Y0143729D01*
X0180330Y0143729D01*
X0183493Y0140566D01*
X0183493Y0136092D01*
X0180330Y0132929D01*
X0175856Y0132929D01*
X0174539Y0134247D02*
X0126000Y0134247D01*
X0126799Y0135045D02*
X0173740Y0135045D01*
X0172942Y0135844D02*
X0127452Y0135844D01*
X0127783Y0136642D02*
X0172693Y0136642D01*
X0172693Y0137441D02*
X0128113Y0137441D01*
X0128232Y0138239D02*
X0172693Y0138239D01*
X0172693Y0139038D02*
X0128232Y0139038D01*
X0128232Y0139836D02*
X0172693Y0139836D01*
X0172762Y0140635D02*
X0127983Y0140635D01*
X0127652Y0141433D02*
X0173560Y0141433D01*
X0174359Y0142232D02*
X0127283Y0142232D01*
X0126484Y0143030D02*
X0175158Y0143030D01*
X0181029Y0143030D02*
X0215359Y0143030D01*
X0213954Y0142232D02*
X0194808Y0142232D01*
X0194711Y0142329D02*
X0193454Y0142329D01*
X0193454Y0138729D01*
X0197054Y0138729D01*
X0197054Y0139986D01*
X0194711Y0142329D01*
X0193454Y0142232D02*
X0192654Y0142232D01*
X0192654Y0142329D02*
X0191397Y0142329D01*
X0189054Y0139986D01*
X0189054Y0138729D01*
X0192654Y0138729D01*
X0192654Y0142329D01*
X0192654Y0141433D02*
X0193454Y0141433D01*
X0193454Y0140635D02*
X0192654Y0140635D01*
X0192654Y0139836D02*
X0193454Y0139836D01*
X0193454Y0139038D02*
X0192654Y0139038D01*
X0192654Y0138729D02*
X0193454Y0138729D01*
X0193454Y0137929D01*
X0197054Y0137929D01*
X0197054Y0136672D01*
X0194711Y0134329D01*
X0193454Y0134329D01*
X0193454Y0137929D01*
X0192654Y0137929D01*
X0192654Y0134329D01*
X0191397Y0134329D01*
X0189054Y0136672D01*
X0189054Y0137929D01*
X0192654Y0137929D01*
X0192654Y0138729D01*
X0192654Y0138239D02*
X0183493Y0138239D01*
X0183493Y0137441D02*
X0189054Y0137441D01*
X0189084Y0136642D02*
X0183493Y0136642D01*
X0183244Y0135844D02*
X0189882Y0135844D01*
X0190681Y0135045D02*
X0182446Y0135045D01*
X0181647Y0134247D02*
X0214625Y0134247D01*
X0214661Y0135045D02*
X0195427Y0135045D01*
X0196225Y0135844D02*
X0213640Y0135844D01*
X0213028Y0136642D02*
X0197024Y0136642D01*
X0197054Y0137441D02*
X0212667Y0137441D01*
X0212472Y0138239D02*
X0193454Y0138239D01*
X0193454Y0137441D02*
X0192654Y0137441D01*
X0192654Y0136642D02*
X0193454Y0136642D01*
X0193454Y0135844D02*
X0192654Y0135844D01*
X0192654Y0135045D02*
X0193454Y0135045D01*
X0197054Y0139038D02*
X0219425Y0139038D01*
X0220226Y0139038D02*
X0227416Y0139038D01*
X0227416Y0138751D02*
X0227618Y0138265D01*
X0227183Y0138265D01*
X0227217Y0138480D01*
X0220226Y0138480D01*
X0220226Y0139280D01*
X0227217Y0139280D01*
X0227117Y0139911D01*
X0226903Y0140569D01*
X0226589Y0141186D01*
X0226182Y0141747D01*
X0225692Y0142236D01*
X0225132Y0142644D01*
X0224514Y0142958D01*
X0224049Y0143109D01*
X0226111Y0143963D01*
X0227742Y0145595D01*
X0228233Y0146779D01*
X0228238Y0146766D01*
X0229757Y0145247D01*
X0230776Y0144825D01*
X0229757Y0144403D01*
X0228238Y0142884D01*
X0227416Y0140899D01*
X0227416Y0138751D01*
X0227416Y0139836D02*
X0227129Y0139836D01*
X0226870Y0140635D02*
X0227416Y0140635D01*
X0227637Y0141433D02*
X0226409Y0141433D01*
X0225697Y0142232D02*
X0227968Y0142232D01*
X0228384Y0143030D02*
X0224292Y0143030D01*
X0225786Y0143829D02*
X0229183Y0143829D01*
X0230298Y0144627D02*
X0226775Y0144627D01*
X0227573Y0145426D02*
X0229579Y0145426D01*
X0228780Y0146224D02*
X0228003Y0146224D01*
X0228126Y0152612D02*
X0227296Y0152612D01*
X0226497Y0153411D02*
X0228765Y0153411D01*
X0229563Y0154209D02*
X0226357Y0154209D01*
X0227155Y0155008D02*
X0231217Y0155008D01*
X0228161Y0156605D02*
X0245953Y0156605D01*
X0245953Y0157403D02*
X0228492Y0157403D01*
X0228625Y0158202D02*
X0245953Y0158202D01*
X0245953Y0159000D02*
X0228625Y0159000D01*
X0228625Y0159799D02*
X0245953Y0159799D01*
X0245953Y0160597D02*
X0228392Y0160597D01*
X0228061Y0161396D02*
X0245953Y0161396D01*
X0245953Y0162194D02*
X0227714Y0162194D01*
X0226915Y0162993D02*
X0236631Y0162993D01*
X0237184Y0162439D02*
X0234841Y0164783D01*
X0234841Y0166039D01*
X0238441Y0166039D01*
X0239241Y0166039D01*
X0239241Y0162439D01*
X0240498Y0162439D01*
X0242841Y0164783D01*
X0242841Y0166039D01*
X0239241Y0166039D01*
X0239241Y0166839D01*
X0242841Y0166839D01*
X0242841Y0168096D01*
X0240498Y0170439D01*
X0239241Y0170439D01*
X0239241Y0166839D01*
X0238441Y0166839D01*
X0238441Y0166039D01*
X0238441Y0162439D01*
X0237184Y0162439D01*
X0238441Y0162993D02*
X0239241Y0162993D01*
X0239241Y0163792D02*
X0238441Y0163792D01*
X0238441Y0164590D02*
X0239241Y0164590D01*
X0239241Y0165389D02*
X0238441Y0165389D01*
X0238441Y0166187D02*
X0227988Y0166187D01*
X0228318Y0166986D02*
X0234841Y0166986D01*
X0234841Y0166839D02*
X0238441Y0166839D01*
X0238441Y0170439D01*
X0237184Y0170439D01*
X0234841Y0168096D01*
X0234841Y0166839D01*
X0234841Y0167784D02*
X0228625Y0167784D01*
X0228625Y0168583D02*
X0235328Y0168583D01*
X0236126Y0169381D02*
X0228625Y0169381D01*
X0228565Y0170180D02*
X0236925Y0170180D01*
X0238441Y0170180D02*
X0239241Y0170180D01*
X0239241Y0169381D02*
X0238441Y0169381D01*
X0238441Y0168583D02*
X0239241Y0168583D01*
X0239241Y0167784D02*
X0238441Y0167784D01*
X0238441Y0166986D02*
X0239241Y0166986D01*
X0239241Y0166187D02*
X0245953Y0166187D01*
X0245953Y0165389D02*
X0242841Y0165389D01*
X0242649Y0164590D02*
X0245953Y0164590D01*
X0245953Y0163792D02*
X0241850Y0163792D01*
X0241052Y0162993D02*
X0245953Y0162993D01*
X0245953Y0166986D02*
X0242841Y0166986D01*
X0242841Y0167784D02*
X0245953Y0167784D01*
X0245953Y0168583D02*
X0242355Y0168583D01*
X0241556Y0169381D02*
X0245953Y0169381D01*
X0245953Y0170180D02*
X0240758Y0170180D01*
X0245953Y0170978D02*
X0228234Y0170978D01*
X0227904Y0171777D02*
X0245953Y0171777D01*
X0245953Y0172575D02*
X0227333Y0172575D01*
X0226535Y0173374D02*
X0245953Y0173374D01*
X0245953Y0174172D02*
X0226320Y0174172D01*
X0227118Y0174971D02*
X0245953Y0174971D01*
X0245953Y0175769D02*
X0227815Y0175769D01*
X0228145Y0176568D02*
X0245953Y0176568D01*
X0245953Y0177366D02*
X0228476Y0177366D01*
X0228625Y0178165D02*
X0245953Y0178165D01*
X0245953Y0178963D02*
X0228625Y0178963D01*
X0228625Y0179762D02*
X0245953Y0179762D01*
X0245953Y0180560D02*
X0228407Y0180560D01*
X0228077Y0181359D02*
X0245953Y0181359D01*
X0245953Y0182157D02*
X0227746Y0182157D01*
X0226952Y0182956D02*
X0245953Y0182956D01*
X0245953Y0183754D02*
X0226154Y0183754D01*
X0226700Y0184553D02*
X0245953Y0184553D01*
X0245953Y0185351D02*
X0227499Y0185351D01*
X0227972Y0186150D02*
X0245953Y0186150D01*
X0245953Y0186948D02*
X0228303Y0186948D01*
X0228625Y0187747D02*
X0245953Y0187747D01*
X0245953Y0188545D02*
X0228625Y0188545D01*
X0228625Y0189344D02*
X0245953Y0189344D01*
X0245953Y0190142D02*
X0228581Y0190142D01*
X0228250Y0190941D02*
X0245953Y0190941D01*
X0245953Y0191739D02*
X0227919Y0191739D01*
X0227370Y0192538D02*
X0245953Y0192538D01*
X0245953Y0193336D02*
X0226572Y0193336D01*
X0225296Y0194135D02*
X0245953Y0194135D01*
X0245539Y0194933D02*
X0224771Y0194933D01*
X0225900Y0195732D02*
X0244740Y0195732D01*
X0243942Y0196530D02*
X0226557Y0196530D01*
X0226948Y0197329D02*
X0243143Y0197329D01*
X0242345Y0198127D02*
X0227161Y0198127D01*
X0227147Y0199725D02*
X0240748Y0199725D01*
X0239949Y0200523D02*
X0226918Y0200523D01*
X0226490Y0201322D02*
X0236322Y0201322D01*
X0235524Y0202120D02*
X0225808Y0202120D01*
X0224592Y0202919D02*
X0234725Y0202919D01*
X0233927Y0203717D02*
X0125797Y0203717D01*
X0126596Y0202919D02*
X0215059Y0202919D01*
X0213843Y0202120D02*
X0127368Y0202120D01*
X0127698Y0201322D02*
X0213160Y0201322D01*
X0212733Y0200523D02*
X0128029Y0200523D01*
X0128232Y0199725D02*
X0212504Y0199725D01*
X0212490Y0198127D02*
X0128232Y0198127D01*
X0128232Y0198926D02*
X0219425Y0198926D01*
X0219425Y0199725D02*
X0220225Y0199725D01*
X0220225Y0200523D02*
X0219425Y0200523D01*
X0219425Y0201322D02*
X0220225Y0201322D01*
X0220225Y0202120D02*
X0219425Y0202120D01*
X0219425Y0202919D02*
X0220225Y0202919D01*
X0220226Y0198926D02*
X0241546Y0198926D01*
X0246372Y0203717D02*
X0251013Y0203717D01*
X0250528Y0204203D02*
X0253691Y0201039D01*
X0258165Y0201039D01*
X0261328Y0204203D01*
X0261328Y0208676D01*
X0259151Y0210852D01*
X0318578Y0211143D01*
X0318954Y0007751D01*
X0231801Y0007325D01*
X0232272Y0007796D01*
X0251957Y0027481D01*
X0252566Y0028951D01*
X0252566Y0049440D01*
X0251957Y0050910D01*
X0250831Y0052035D01*
X0245989Y0056878D01*
X0244519Y0057487D01*
X0241653Y0057487D01*
X0241075Y0058065D01*
X0239090Y0058887D01*
X0231742Y0058887D01*
X0229757Y0058065D01*
X0228238Y0056545D01*
X0227416Y0054561D01*
X0227416Y0052492D01*
X0226111Y0053797D01*
X0225910Y0053880D01*
X0226111Y0053963D01*
X0227742Y0055595D01*
X0228625Y0057727D01*
X0228625Y0060034D01*
X0227742Y0062166D01*
X0226111Y0063797D01*
X0225910Y0063880D01*
X0226111Y0063963D01*
X0227742Y0065595D01*
X0228625Y0067727D01*
X0228625Y0070034D01*
X0228621Y0070045D01*
X0229757Y0068909D01*
X0231742Y0068087D01*
X0239090Y0068087D01*
X0241075Y0068909D01*
X0242594Y0070428D01*
X0243416Y0072412D01*
X0243416Y0074561D01*
X0242594Y0076545D01*
X0241075Y0078065D01*
X0239090Y0078887D01*
X0231742Y0078887D01*
X0229757Y0078065D01*
X0228238Y0076545D01*
X0227416Y0074561D01*
X0227416Y0072492D01*
X0226111Y0073797D01*
X0225910Y0073880D01*
X0226111Y0073963D01*
X0227742Y0075595D01*
X0228625Y0077727D01*
X0228625Y0080034D01*
X0227742Y0082166D01*
X0226111Y0083797D01*
X0225910Y0083880D01*
X0226111Y0083963D01*
X0227742Y0085595D01*
X0228233Y0086779D01*
X0228238Y0086766D01*
X0229757Y0085247D01*
X0231742Y0084425D01*
X0239090Y0084425D01*
X0241075Y0085247D01*
X0242594Y0086766D01*
X0243416Y0088751D01*
X0243416Y0090899D01*
X0242594Y0092884D01*
X0241075Y0094403D01*
X0240056Y0094825D01*
X0241075Y0095247D01*
X0242594Y0096766D01*
X0243416Y0098751D01*
X0243416Y0100899D01*
X0242594Y0102884D01*
X0241075Y0104403D01*
X0240056Y0104825D01*
X0241075Y0105247D01*
X0242594Y0106766D01*
X0243416Y0108751D01*
X0243416Y0110899D01*
X0243214Y0111386D01*
X0257618Y0111386D01*
X0257416Y0110899D01*
X0257416Y0108751D01*
X0258238Y0106766D01*
X0259757Y0105247D01*
X0260776Y0104825D01*
X0259757Y0104403D01*
X0258238Y0102884D01*
X0257416Y0100899D01*
X0257416Y0098751D01*
X0258238Y0096766D01*
X0259757Y0095247D01*
X0260776Y0094825D01*
X0259757Y0094403D01*
X0258238Y0092884D01*
X0257416Y0090899D01*
X0257416Y0088751D01*
X0258238Y0086766D01*
X0259757Y0085247D01*
X0261742Y0084425D01*
X0269090Y0084425D01*
X0271075Y0085247D01*
X0272594Y0086766D01*
X0273416Y0088751D01*
X0273416Y0090899D01*
X0272594Y0092884D01*
X0271075Y0094403D01*
X0270056Y0094825D01*
X0271075Y0095247D01*
X0272594Y0096766D01*
X0273416Y0098751D01*
X0273416Y0100899D01*
X0272594Y0102884D01*
X0271075Y0104403D01*
X0270056Y0104825D01*
X0271075Y0105247D01*
X0272594Y0106766D01*
X0273416Y0108751D01*
X0273416Y0110899D01*
X0273214Y0111386D01*
X0286527Y0111386D01*
X0286958Y0110955D01*
X0286809Y0110595D01*
X0286809Y0107954D01*
X0287820Y0105514D01*
X0289687Y0103646D01*
X0292127Y0102635D01*
X0294768Y0102635D01*
X0297208Y0103646D01*
X0299075Y0105514D01*
X0300086Y0107954D01*
X0300086Y0110595D01*
X0299075Y0113034D01*
X0297208Y0114902D01*
X0294768Y0115913D01*
X0292127Y0115913D01*
X0291767Y0115763D01*
X0290818Y0116712D01*
X0289862Y0117668D01*
X0288612Y0118186D01*
X0271667Y0118186D01*
X0271862Y0118658D01*
X0272015Y0119425D01*
X0265816Y0119425D01*
X0265816Y0120225D01*
X0272015Y0120225D01*
X0271862Y0120992D01*
X0271561Y0121720D01*
X0271123Y0122375D01*
X0270566Y0122932D01*
X0269911Y0123370D01*
X0269183Y0123671D01*
X0268410Y0123825D01*
X0265816Y0123825D01*
X0265816Y0120225D01*
X0265016Y0120225D01*
X0265016Y0119425D01*
X0258817Y0119425D01*
X0258970Y0118658D01*
X0259165Y0118186D01*
X0243182Y0118186D01*
X0243416Y0118751D01*
X0243416Y0120899D01*
X0242594Y0122884D01*
X0241075Y0124403D01*
X0240056Y0124825D01*
X0241075Y0125247D01*
X0242594Y0126766D01*
X0243416Y0128751D01*
X0243416Y0130899D01*
X0243182Y0131465D01*
X0257650Y0131465D01*
X0257416Y0130899D01*
X0257416Y0128751D01*
X0258238Y0126766D01*
X0259757Y0125247D01*
X0261742Y0124425D01*
X0269090Y0124425D01*
X0271075Y0125247D01*
X0272594Y0126766D01*
X0273416Y0128751D01*
X0273416Y0130899D01*
X0273182Y0131465D01*
X0286134Y0131465D01*
X0286958Y0130640D01*
X0286809Y0130280D01*
X0286809Y0127639D01*
X0287820Y0125199D01*
X0289687Y0123331D01*
X0292127Y0122320D01*
X0294768Y0122320D01*
X0297208Y0123331D01*
X0299075Y0125199D01*
X0300086Y0127639D01*
X0300086Y0130280D01*
X0299075Y0132720D01*
X0297208Y0134587D01*
X0294768Y0135598D01*
X0292127Y0135598D01*
X0291767Y0135448D01*
X0290424Y0136791D01*
X0289468Y0137747D01*
X0288218Y0138265D01*
X0273214Y0138265D01*
X0273416Y0138751D01*
X0273416Y0140899D01*
X0272594Y0142884D01*
X0271075Y0144403D01*
X0270056Y0144825D01*
X0271075Y0145247D01*
X0272594Y0146766D01*
X0273416Y0148751D01*
X0273416Y0150899D01*
X0272594Y0152884D01*
X0271075Y0154403D01*
X0269090Y0155225D01*
X0261742Y0155225D01*
X0259757Y0154403D01*
X0258238Y0152884D01*
X0257416Y0150899D01*
X0257416Y0148751D01*
X0258238Y0146766D01*
X0259757Y0145247D01*
X0260776Y0144825D01*
X0259757Y0144403D01*
X0258238Y0142884D01*
X0257416Y0140899D01*
X0257416Y0138751D01*
X0257618Y0138265D01*
X0244569Y0138265D01*
X0252235Y0145931D01*
X0252753Y0147180D01*
X0252753Y0161977D01*
X0253691Y0161039D01*
X0258165Y0161039D01*
X0261328Y0164203D01*
X0261328Y0168676D01*
X0258165Y0171839D01*
X0253691Y0171839D01*
X0252753Y0170901D01*
X0252753Y0196604D01*
X0252235Y0197853D01*
X0244241Y0205848D01*
X0244241Y0208676D01*
X0242148Y0210769D01*
X0252672Y0210821D01*
X0250528Y0208676D01*
X0250528Y0204203D01*
X0250528Y0204516D02*
X0245573Y0204516D01*
X0244775Y0205314D02*
X0250528Y0205314D01*
X0250528Y0206113D02*
X0244241Y0206113D01*
X0244241Y0206911D02*
X0250528Y0206911D01*
X0250528Y0207710D02*
X0244241Y0207710D01*
X0244241Y0208508D02*
X0250528Y0208508D01*
X0251158Y0209307D02*
X0243611Y0209307D01*
X0242812Y0210105D02*
X0251957Y0210105D01*
X0251812Y0202919D02*
X0247170Y0202919D01*
X0247969Y0202120D02*
X0252610Y0202120D01*
X0253409Y0201322D02*
X0248767Y0201322D01*
X0249566Y0200523D02*
X0318597Y0200523D01*
X0318599Y0199725D02*
X0250364Y0199725D01*
X0251163Y0198926D02*
X0318600Y0198926D01*
X0318602Y0198127D02*
X0251961Y0198127D01*
X0252453Y0197329D02*
X0318603Y0197329D01*
X0318605Y0196530D02*
X0252753Y0196530D01*
X0252753Y0195732D02*
X0318606Y0195732D01*
X0318608Y0194933D02*
X0295163Y0194933D01*
X0295458Y0194837D02*
X0294674Y0195092D01*
X0293860Y0195221D01*
X0293847Y0195221D01*
X0293847Y0190383D01*
X0293048Y0190383D01*
X0293048Y0195221D01*
X0293035Y0195221D01*
X0292221Y0195092D01*
X0291437Y0194837D01*
X0290702Y0194463D01*
X0290035Y0193978D01*
X0289452Y0193395D01*
X0288967Y0192728D01*
X0288593Y0191994D01*
X0288338Y0191209D01*
X0288209Y0190395D01*
X0288209Y0190383D01*
X0293047Y0190383D01*
X0293047Y0189583D01*
X0288209Y0189583D01*
X0288209Y0189570D01*
X0288338Y0188756D01*
X0288593Y0187972D01*
X0288967Y0187237D01*
X0289452Y0186570D01*
X0290035Y0185987D01*
X0290702Y0185502D01*
X0291437Y0185128D01*
X0292221Y0184873D01*
X0293035Y0184744D01*
X0293048Y0184744D01*
X0293048Y0189583D01*
X0293847Y0189583D01*
X0293847Y0184744D01*
X0293860Y0184744D01*
X0294674Y0184873D01*
X0295458Y0185128D01*
X0296193Y0185502D01*
X0296860Y0185987D01*
X0297443Y0186570D01*
X0297928Y0187237D01*
X0298302Y0187972D01*
X0298557Y0188756D01*
X0298686Y0189570D01*
X0298686Y0189583D01*
X0293848Y0189583D01*
X0293848Y0190383D01*
X0298686Y0190383D01*
X0298686Y0190395D01*
X0298557Y0191209D01*
X0298302Y0191994D01*
X0297928Y0192728D01*
X0297443Y0193395D01*
X0296860Y0193978D01*
X0296193Y0194463D01*
X0295458Y0194837D01*
X0296645Y0194135D02*
X0318609Y0194135D01*
X0318611Y0193336D02*
X0297486Y0193336D01*
X0298025Y0192538D02*
X0318612Y0192538D01*
X0318614Y0191739D02*
X0298385Y0191739D01*
X0298600Y0190941D02*
X0318615Y0190941D01*
X0318616Y0190142D02*
X0293848Y0190142D01*
X0293847Y0189344D02*
X0293048Y0189344D01*
X0293047Y0190142D02*
X0252753Y0190142D01*
X0252753Y0189344D02*
X0288245Y0189344D01*
X0288406Y0188545D02*
X0252753Y0188545D01*
X0252753Y0187747D02*
X0288707Y0187747D01*
X0289177Y0186948D02*
X0252753Y0186948D01*
X0252753Y0186150D02*
X0289872Y0186150D01*
X0290998Y0185351D02*
X0252753Y0185351D01*
X0252753Y0184553D02*
X0318627Y0184553D01*
X0318625Y0185351D02*
X0295897Y0185351D01*
X0297023Y0186150D02*
X0318624Y0186150D01*
X0318622Y0186948D02*
X0297718Y0186948D01*
X0298188Y0187747D02*
X0318621Y0187747D01*
X0318619Y0188545D02*
X0298489Y0188545D01*
X0298650Y0189344D02*
X0318618Y0189344D01*
X0318628Y0183754D02*
X0252753Y0183754D01*
X0252753Y0182956D02*
X0318630Y0182956D01*
X0318631Y0182157D02*
X0252753Y0182157D01*
X0252753Y0181359D02*
X0318633Y0181359D01*
X0318634Y0180560D02*
X0252753Y0180560D01*
X0252753Y0179762D02*
X0318636Y0179762D01*
X0318637Y0178963D02*
X0252753Y0178963D01*
X0252753Y0178165D02*
X0318639Y0178165D01*
X0318640Y0177366D02*
X0252753Y0177366D01*
X0252753Y0176568D02*
X0291237Y0176568D01*
X0292127Y0176936D02*
X0289687Y0175926D01*
X0287820Y0174058D01*
X0286809Y0171618D01*
X0286809Y0168977D01*
X0287820Y0166537D01*
X0289687Y0164670D01*
X0292127Y0163659D01*
X0294768Y0163659D01*
X0297208Y0164670D01*
X0299075Y0166537D01*
X0300086Y0168977D01*
X0300086Y0171618D01*
X0299075Y0174058D01*
X0297208Y0175926D01*
X0294768Y0176936D01*
X0292127Y0176936D01*
X0289531Y0175769D02*
X0252753Y0175769D01*
X0252753Y0174971D02*
X0288732Y0174971D01*
X0287934Y0174172D02*
X0252753Y0174172D01*
X0252753Y0173374D02*
X0287536Y0173374D01*
X0287205Y0172575D02*
X0252753Y0172575D01*
X0252753Y0171777D02*
X0253628Y0171777D01*
X0252830Y0170978D02*
X0252753Y0170978D01*
X0258227Y0171777D02*
X0286875Y0171777D01*
X0286809Y0170978D02*
X0259026Y0170978D01*
X0259824Y0170180D02*
X0286809Y0170180D01*
X0286809Y0169381D02*
X0260623Y0169381D01*
X0261328Y0168583D02*
X0286972Y0168583D01*
X0287303Y0167784D02*
X0261328Y0167784D01*
X0261328Y0166986D02*
X0287634Y0166986D01*
X0288170Y0166187D02*
X0261328Y0166187D01*
X0261328Y0165389D02*
X0288968Y0165389D01*
X0289879Y0164590D02*
X0261328Y0164590D01*
X0260917Y0163792D02*
X0291807Y0163792D01*
X0295088Y0163792D02*
X0318665Y0163792D01*
X0318664Y0164590D02*
X0297016Y0164590D01*
X0297927Y0165389D02*
X0318662Y0165389D01*
X0318661Y0166187D02*
X0298725Y0166187D01*
X0299261Y0166986D02*
X0318659Y0166986D01*
X0318658Y0167784D02*
X0299592Y0167784D01*
X0299923Y0168583D02*
X0318656Y0168583D01*
X0318655Y0169381D02*
X0300086Y0169381D01*
X0300086Y0170180D02*
X0318653Y0170180D01*
X0318652Y0170978D02*
X0300086Y0170978D01*
X0300020Y0171777D02*
X0318650Y0171777D01*
X0318649Y0172575D02*
X0299690Y0172575D01*
X0299359Y0173374D02*
X0318647Y0173374D01*
X0318646Y0174172D02*
X0298961Y0174172D01*
X0298163Y0174971D02*
X0318645Y0174971D01*
X0318643Y0175769D02*
X0297364Y0175769D01*
X0295658Y0176568D02*
X0318642Y0176568D01*
X0318667Y0162993D02*
X0260118Y0162993D01*
X0259320Y0162194D02*
X0318668Y0162194D01*
X0318670Y0161396D02*
X0258521Y0161396D01*
X0253334Y0161396D02*
X0252753Y0161396D01*
X0252753Y0160597D02*
X0318671Y0160597D01*
X0318673Y0159799D02*
X0252753Y0159799D01*
X0252753Y0159000D02*
X0318674Y0159000D01*
X0318676Y0158202D02*
X0252753Y0158202D01*
X0252753Y0157403D02*
X0318677Y0157403D01*
X0318678Y0156605D02*
X0252753Y0156605D01*
X0252753Y0155806D02*
X0318680Y0155806D01*
X0318681Y0155008D02*
X0269615Y0155008D01*
X0271269Y0154209D02*
X0318683Y0154209D01*
X0318684Y0153411D02*
X0272067Y0153411D01*
X0272706Y0152612D02*
X0318686Y0152612D01*
X0318687Y0151814D02*
X0273037Y0151814D01*
X0273368Y0151015D02*
X0318689Y0151015D01*
X0318690Y0150217D02*
X0273416Y0150217D01*
X0273416Y0149418D02*
X0318692Y0149418D01*
X0318693Y0148620D02*
X0273362Y0148620D01*
X0273031Y0147821D02*
X0318695Y0147821D01*
X0318696Y0147023D02*
X0272700Y0147023D01*
X0272052Y0146224D02*
X0318698Y0146224D01*
X0318699Y0145426D02*
X0271253Y0145426D01*
X0270534Y0144627D02*
X0318701Y0144627D01*
X0318702Y0143829D02*
X0271649Y0143829D01*
X0272448Y0143030D02*
X0318704Y0143030D01*
X0318705Y0142232D02*
X0272864Y0142232D01*
X0273195Y0141433D02*
X0318707Y0141433D01*
X0318708Y0140635D02*
X0273416Y0140635D01*
X0273416Y0139836D02*
X0318709Y0139836D01*
X0318711Y0139038D02*
X0273416Y0139038D01*
X0273353Y0131053D02*
X0286546Y0131053D01*
X0286809Y0130254D02*
X0273416Y0130254D01*
X0273416Y0129456D02*
X0286809Y0129456D01*
X0286809Y0128657D02*
X0273377Y0128657D01*
X0273046Y0127859D02*
X0286809Y0127859D01*
X0287049Y0127060D02*
X0272716Y0127060D01*
X0272089Y0126261D02*
X0287379Y0126261D01*
X0287710Y0125463D02*
X0271291Y0125463D01*
X0269668Y0124664D02*
X0288354Y0124664D01*
X0289152Y0123866D02*
X0241612Y0123866D01*
X0242411Y0123067D02*
X0260469Y0123067D01*
X0260266Y0122932D02*
X0259709Y0122375D01*
X0259271Y0121720D01*
X0258970Y0120992D01*
X0258817Y0120225D01*
X0265016Y0120225D01*
X0265016Y0123825D01*
X0262422Y0123825D01*
X0261649Y0123671D01*
X0260921Y0123370D01*
X0260266Y0122932D01*
X0259638Y0122269D02*
X0242849Y0122269D01*
X0243179Y0121470D02*
X0259168Y0121470D01*
X0258906Y0120672D02*
X0243416Y0120672D01*
X0243416Y0119873D02*
X0265016Y0119873D01*
X0265016Y0120672D02*
X0265816Y0120672D01*
X0265816Y0121470D02*
X0265016Y0121470D01*
X0265016Y0122269D02*
X0265816Y0122269D01*
X0265816Y0123067D02*
X0265016Y0123067D01*
X0265816Y0119873D02*
X0318746Y0119873D01*
X0318748Y0119075D02*
X0271945Y0119075D01*
X0271704Y0118276D02*
X0318749Y0118276D01*
X0318751Y0117478D02*
X0290052Y0117478D01*
X0290850Y0116679D02*
X0318752Y0116679D01*
X0318754Y0115881D02*
X0294845Y0115881D01*
X0296772Y0115082D02*
X0318755Y0115082D01*
X0318757Y0114284D02*
X0297826Y0114284D01*
X0298625Y0113485D02*
X0318758Y0113485D01*
X0318760Y0112687D02*
X0299219Y0112687D01*
X0299550Y0111888D02*
X0318761Y0111888D01*
X0318763Y0111090D02*
X0299881Y0111090D01*
X0300086Y0110291D02*
X0318764Y0110291D01*
X0318766Y0109493D02*
X0300086Y0109493D01*
X0300086Y0108694D02*
X0318767Y0108694D01*
X0318769Y0107896D02*
X0300062Y0107896D01*
X0299731Y0107097D02*
X0318770Y0107097D01*
X0318771Y0106299D02*
X0299401Y0106299D01*
X0299062Y0105500D02*
X0318773Y0105500D01*
X0318774Y0104702D02*
X0298264Y0104702D01*
X0297465Y0103903D02*
X0318776Y0103903D01*
X0318777Y0103105D02*
X0295901Y0103105D01*
X0290994Y0103105D02*
X0272373Y0103105D01*
X0272833Y0102306D02*
X0318779Y0102306D01*
X0318780Y0101508D02*
X0273164Y0101508D01*
X0273416Y0100709D02*
X0318782Y0100709D01*
X0318783Y0099911D02*
X0273416Y0099911D01*
X0273416Y0099112D02*
X0318785Y0099112D01*
X0318786Y0098314D02*
X0273235Y0098314D01*
X0272904Y0097515D02*
X0318788Y0097515D01*
X0318789Y0096717D02*
X0272544Y0096717D01*
X0271746Y0095918D02*
X0318791Y0095918D01*
X0318792Y0095120D02*
X0270766Y0095120D01*
X0271157Y0094321D02*
X0318794Y0094321D01*
X0318795Y0093523D02*
X0271955Y0093523D01*
X0272660Y0092724D02*
X0318797Y0092724D01*
X0318798Y0091925D02*
X0272991Y0091925D01*
X0273322Y0091127D02*
X0318800Y0091127D01*
X0318801Y0090328D02*
X0273416Y0090328D01*
X0273416Y0089530D02*
X0318802Y0089530D01*
X0318804Y0088731D02*
X0273408Y0088731D01*
X0273077Y0087933D02*
X0318805Y0087933D01*
X0318807Y0087134D02*
X0272746Y0087134D01*
X0272163Y0086336D02*
X0318808Y0086336D01*
X0318810Y0085537D02*
X0271365Y0085537D01*
X0269847Y0084739D02*
X0318811Y0084739D01*
X0318813Y0083940D02*
X0226056Y0083940D01*
X0226766Y0083142D02*
X0318814Y0083142D01*
X0318816Y0082343D02*
X0295971Y0082343D01*
X0294768Y0082842D02*
X0292127Y0082842D01*
X0289687Y0081831D01*
X0287820Y0079964D01*
X0286809Y0077524D01*
X0286809Y0074883D01*
X0287820Y0072443D01*
X0289687Y0070575D01*
X0292127Y0069565D01*
X0294768Y0069565D01*
X0297208Y0070575D01*
X0299075Y0072443D01*
X0300086Y0074883D01*
X0300086Y0077524D01*
X0299075Y0079964D01*
X0297208Y0081831D01*
X0294768Y0082842D01*
X0297494Y0081545D02*
X0318817Y0081545D01*
X0318819Y0080746D02*
X0298293Y0080746D01*
X0299082Y0079948D02*
X0318820Y0079948D01*
X0318822Y0079149D02*
X0299413Y0079149D01*
X0299743Y0078351D02*
X0318823Y0078351D01*
X0318825Y0077552D02*
X0300074Y0077552D01*
X0300086Y0076754D02*
X0318826Y0076754D01*
X0318828Y0075955D02*
X0300086Y0075955D01*
X0300086Y0075157D02*
X0318829Y0075157D01*
X0318830Y0074358D02*
X0299869Y0074358D01*
X0299538Y0073560D02*
X0318832Y0073560D01*
X0318833Y0072761D02*
X0299207Y0072761D01*
X0298595Y0071963D02*
X0318835Y0071963D01*
X0318836Y0071164D02*
X0297797Y0071164D01*
X0296702Y0070366D02*
X0318838Y0070366D01*
X0318839Y0069567D02*
X0294774Y0069567D01*
X0292121Y0069567D02*
X0268815Y0069567D01*
X0269183Y0069640D02*
X0269911Y0069942D01*
X0270566Y0070380D01*
X0271123Y0070937D01*
X0271561Y0071592D01*
X0271862Y0072320D01*
X0272015Y0073087D01*
X0265816Y0073087D01*
X0265816Y0073887D01*
X0265016Y0073887D01*
X0265016Y0077487D01*
X0262422Y0077487D01*
X0261649Y0077333D01*
X0260921Y0077031D01*
X0260266Y0076594D01*
X0259709Y0076036D01*
X0259271Y0075381D01*
X0258970Y0074653D01*
X0258817Y0073887D01*
X0265016Y0073887D01*
X0265016Y0073087D01*
X0258817Y0073087D01*
X0258970Y0072320D01*
X0259271Y0071592D01*
X0259709Y0070937D01*
X0260266Y0070380D01*
X0260921Y0069942D01*
X0261649Y0069640D01*
X0262422Y0069487D01*
X0265016Y0069487D01*
X0265016Y0073087D01*
X0265816Y0073087D01*
X0265816Y0069487D01*
X0268410Y0069487D01*
X0269183Y0069640D01*
X0269090Y0068887D02*
X0261742Y0068887D01*
X0259757Y0068065D01*
X0258238Y0066545D01*
X0257416Y0064561D01*
X0257416Y0062412D01*
X0258238Y0060428D01*
X0259757Y0058909D01*
X0260776Y0058487D01*
X0259757Y0058065D01*
X0258238Y0056545D01*
X0257416Y0054561D01*
X0257416Y0052412D01*
X0258238Y0050428D01*
X0259757Y0048909D01*
X0260776Y0048487D01*
X0259757Y0048065D01*
X0258238Y0046545D01*
X0257416Y0044561D01*
X0257416Y0042412D01*
X0258238Y0040428D01*
X0259757Y0038909D01*
X0261742Y0038087D01*
X0269090Y0038087D01*
X0271075Y0038909D01*
X0272594Y0040428D01*
X0273416Y0042412D01*
X0273416Y0044561D01*
X0272594Y0046545D01*
X0271075Y0048065D01*
X0270056Y0048487D01*
X0271075Y0048909D01*
X0272594Y0050428D01*
X0273416Y0052412D01*
X0273416Y0054561D01*
X0272594Y0056545D01*
X0271075Y0058065D01*
X0270056Y0058487D01*
X0271075Y0058909D01*
X0272594Y0060428D01*
X0273416Y0062412D01*
X0273416Y0064561D01*
X0272594Y0066545D01*
X0271075Y0068065D01*
X0269090Y0068887D01*
X0269375Y0068769D02*
X0318841Y0068769D01*
X0318842Y0067970D02*
X0271169Y0067970D01*
X0271968Y0067172D02*
X0318844Y0067172D01*
X0318845Y0066373D02*
X0272665Y0066373D01*
X0272996Y0065575D02*
X0318847Y0065575D01*
X0318848Y0064776D02*
X0273327Y0064776D01*
X0273416Y0063978D02*
X0318850Y0063978D01*
X0318851Y0063179D02*
X0273416Y0063179D01*
X0273403Y0062381D02*
X0290253Y0062381D01*
X0289687Y0062146D02*
X0292127Y0063157D01*
X0294768Y0063157D01*
X0297208Y0062146D01*
X0299075Y0060279D01*
X0300086Y0057839D01*
X0300086Y0055198D01*
X0299075Y0052758D01*
X0297208Y0050890D01*
X0294768Y0049880D01*
X0292127Y0049880D01*
X0289687Y0050890D01*
X0287820Y0052758D01*
X0286809Y0055198D01*
X0286809Y0057839D01*
X0287820Y0060279D01*
X0289687Y0062146D01*
X0289123Y0061582D02*
X0273072Y0061582D01*
X0272741Y0060784D02*
X0288325Y0060784D01*
X0287698Y0059985D02*
X0272151Y0059985D01*
X0271353Y0059187D02*
X0287367Y0059187D01*
X0287037Y0058388D02*
X0270294Y0058388D01*
X0271550Y0057590D02*
X0286809Y0057590D01*
X0286809Y0056791D02*
X0272348Y0056791D01*
X0272823Y0055992D02*
X0286809Y0055992D01*
X0286810Y0055194D02*
X0273154Y0055194D01*
X0273416Y0054395D02*
X0287141Y0054395D01*
X0287472Y0053597D02*
X0273416Y0053597D01*
X0273416Y0052798D02*
X0287803Y0052798D01*
X0288577Y0052000D02*
X0273245Y0052000D01*
X0272914Y0051201D02*
X0289376Y0051201D01*
X0290863Y0050403D02*
X0272569Y0050403D01*
X0271771Y0049604D02*
X0318876Y0049604D01*
X0318878Y0048806D02*
X0270827Y0048806D01*
X0271132Y0048007D02*
X0318879Y0048007D01*
X0318881Y0047209D02*
X0271930Y0047209D01*
X0272650Y0046410D02*
X0318882Y0046410D01*
X0318884Y0045612D02*
X0272981Y0045612D01*
X0273311Y0044813D02*
X0318885Y0044813D01*
X0318887Y0044015D02*
X0273416Y0044015D01*
X0273416Y0043216D02*
X0318888Y0043216D01*
X0318890Y0042418D02*
X0273416Y0042418D01*
X0273087Y0041619D02*
X0291302Y0041619D01*
X0291437Y0041688D02*
X0290702Y0041313D01*
X0290035Y0040829D01*
X0289452Y0040246D01*
X0288967Y0039579D01*
X0288593Y0038844D01*
X0288338Y0038060D01*
X0288209Y0037245D01*
X0288209Y0037233D01*
X0293047Y0037233D01*
X0293047Y0036433D01*
X0288209Y0036433D01*
X0288209Y0036421D01*
X0288338Y0035606D01*
X0288593Y0034822D01*
X0288967Y0034087D01*
X0289452Y0033420D01*
X0290035Y0032837D01*
X0290702Y0032353D01*
X0291437Y0031978D01*
X0292221Y0031723D01*
X0293035Y0031594D01*
X0293048Y0031594D01*
X0293048Y0036433D01*
X0293847Y0036433D01*
X0293847Y0031594D01*
X0293860Y0031594D01*
X0294674Y0031723D01*
X0295458Y0031978D01*
X0296193Y0032353D01*
X0296860Y0032837D01*
X0297443Y0033420D01*
X0297928Y0034087D01*
X0298302Y0034822D01*
X0298557Y0035606D01*
X0298686Y0036421D01*
X0298686Y0036433D01*
X0293848Y0036433D01*
X0293848Y0037233D01*
X0298686Y0037233D01*
X0298686Y0037245D01*
X0298557Y0038060D01*
X0298302Y0038844D01*
X0297928Y0039579D01*
X0297443Y0040246D01*
X0296860Y0040829D01*
X0296193Y0041313D01*
X0295458Y0041688D01*
X0294674Y0041943D01*
X0293860Y0042072D01*
X0293847Y0042072D01*
X0293847Y0037233D01*
X0293048Y0037233D01*
X0293048Y0042072D01*
X0293035Y0042072D01*
X0292221Y0041943D01*
X0291437Y0041688D01*
X0293048Y0041619D02*
X0293847Y0041619D01*
X0293847Y0040821D02*
X0293048Y0040821D01*
X0293048Y0040022D02*
X0293847Y0040022D01*
X0293847Y0039224D02*
X0293048Y0039224D01*
X0293048Y0038425D02*
X0293847Y0038425D01*
X0293847Y0037627D02*
X0293048Y0037627D01*
X0293047Y0036828D02*
X0252566Y0036828D01*
X0252566Y0036030D02*
X0288271Y0036030D01*
X0288460Y0035231D02*
X0252566Y0035231D01*
X0252566Y0034433D02*
X0288791Y0034433D01*
X0289296Y0033634D02*
X0252566Y0033634D01*
X0252566Y0032836D02*
X0290037Y0032836D01*
X0291321Y0032037D02*
X0252566Y0032037D01*
X0252566Y0031239D02*
X0318910Y0031239D01*
X0318909Y0032037D02*
X0295574Y0032037D01*
X0296858Y0032836D02*
X0318907Y0032836D01*
X0318906Y0033634D02*
X0297599Y0033634D01*
X0298104Y0034433D02*
X0318904Y0034433D01*
X0318903Y0035231D02*
X0298435Y0035231D01*
X0298624Y0036030D02*
X0318901Y0036030D01*
X0318900Y0036828D02*
X0293848Y0036828D01*
X0293847Y0036030D02*
X0293048Y0036030D01*
X0293048Y0035231D02*
X0293847Y0035231D01*
X0293847Y0034433D02*
X0293048Y0034433D01*
X0293048Y0033634D02*
X0293847Y0033634D01*
X0293847Y0032836D02*
X0293048Y0032836D01*
X0293048Y0032037D02*
X0293847Y0032037D01*
X0298626Y0037627D02*
X0318898Y0037627D01*
X0318897Y0038425D02*
X0298438Y0038425D01*
X0298109Y0039224D02*
X0318895Y0039224D01*
X0318894Y0040022D02*
X0297606Y0040022D01*
X0296868Y0040821D02*
X0318892Y0040821D01*
X0318891Y0041619D02*
X0295593Y0041619D01*
X0290027Y0040821D02*
X0272757Y0040821D01*
X0272188Y0040022D02*
X0289289Y0040022D01*
X0288786Y0039224D02*
X0271390Y0039224D01*
X0269908Y0038425D02*
X0288457Y0038425D01*
X0288269Y0037627D02*
X0252566Y0037627D01*
X0252566Y0038425D02*
X0260924Y0038425D01*
X0259442Y0039224D02*
X0252566Y0039224D01*
X0252566Y0040022D02*
X0258644Y0040022D01*
X0258075Y0040821D02*
X0252566Y0040821D01*
X0252566Y0041619D02*
X0257745Y0041619D01*
X0257416Y0042418D02*
X0252566Y0042418D01*
X0252566Y0043216D02*
X0257416Y0043216D01*
X0257416Y0044015D02*
X0252566Y0044015D01*
X0252566Y0044813D02*
X0257521Y0044813D01*
X0257851Y0045612D02*
X0252566Y0045612D01*
X0252566Y0046410D02*
X0258182Y0046410D01*
X0258902Y0047209D02*
X0252566Y0047209D01*
X0252566Y0048007D02*
X0259700Y0048007D01*
X0260005Y0048806D02*
X0252566Y0048806D01*
X0252497Y0049604D02*
X0259061Y0049604D01*
X0258263Y0050403D02*
X0252167Y0050403D01*
X0251665Y0051201D02*
X0257918Y0051201D01*
X0257587Y0052000D02*
X0250867Y0052000D01*
X0250068Y0052798D02*
X0257416Y0052798D01*
X0257416Y0053597D02*
X0249270Y0053597D01*
X0248471Y0054395D02*
X0257416Y0054395D01*
X0257678Y0055194D02*
X0247673Y0055194D01*
X0246874Y0055992D02*
X0258009Y0055992D01*
X0258484Y0056791D02*
X0246076Y0056791D01*
X0241550Y0057590D02*
X0259282Y0057590D01*
X0260538Y0058388D02*
X0240294Y0058388D01*
X0239911Y0059942D02*
X0239183Y0059640D01*
X0238410Y0059487D01*
X0235816Y0059487D01*
X0235816Y0063087D01*
X0235816Y0063887D01*
X0235016Y0063887D01*
X0235016Y0067487D01*
X0232422Y0067487D01*
X0231649Y0067333D01*
X0230921Y0067031D01*
X0230266Y0066594D01*
X0229709Y0066036D01*
X0229271Y0065381D01*
X0228970Y0064653D01*
X0228817Y0063887D01*
X0235016Y0063887D01*
X0235016Y0063087D01*
X0228817Y0063087D01*
X0228970Y0062320D01*
X0229271Y0061592D01*
X0229709Y0060937D01*
X0230266Y0060380D01*
X0230921Y0059942D01*
X0231649Y0059640D01*
X0232422Y0059487D01*
X0235016Y0059487D01*
X0235016Y0063087D01*
X0235816Y0063087D01*
X0242015Y0063087D01*
X0241862Y0062320D01*
X0241561Y0061592D01*
X0241123Y0060937D01*
X0240566Y0060380D01*
X0239911Y0059942D01*
X0239975Y0059985D02*
X0258681Y0059985D01*
X0258091Y0060784D02*
X0240970Y0060784D01*
X0241554Y0061582D02*
X0257760Y0061582D01*
X0257429Y0062381D02*
X0241874Y0062381D01*
X0242015Y0063887D02*
X0241862Y0064653D01*
X0241561Y0065381D01*
X0241123Y0066036D01*
X0240566Y0066594D01*
X0239911Y0067031D01*
X0239183Y0067333D01*
X0238410Y0067487D01*
X0235816Y0067487D01*
X0235816Y0063887D01*
X0242015Y0063887D01*
X0241997Y0063978D02*
X0257416Y0063978D01*
X0257416Y0063179D02*
X0235816Y0063179D01*
X0235816Y0062381D02*
X0235016Y0062381D01*
X0235016Y0063179D02*
X0226729Y0063179D01*
X0226125Y0063978D02*
X0228835Y0063978D01*
X0229021Y0064776D02*
X0226924Y0064776D01*
X0227722Y0065575D02*
X0229400Y0065575D01*
X0230046Y0066373D02*
X0228065Y0066373D01*
X0228396Y0067172D02*
X0231260Y0067172D01*
X0230095Y0068769D02*
X0228625Y0068769D01*
X0228625Y0069567D02*
X0229099Y0069567D01*
X0228625Y0067970D02*
X0259663Y0067970D01*
X0258864Y0067172D02*
X0239572Y0067172D01*
X0240786Y0066373D02*
X0258167Y0066373D01*
X0257836Y0065575D02*
X0241432Y0065575D01*
X0241811Y0064776D02*
X0257505Y0064776D01*
X0261457Y0068769D02*
X0240737Y0068769D01*
X0241733Y0069567D02*
X0262017Y0069567D01*
X0260287Y0070366D02*
X0242532Y0070366D01*
X0242899Y0071164D02*
X0259557Y0071164D01*
X0259118Y0071963D02*
X0243230Y0071963D01*
X0243416Y0072761D02*
X0258882Y0072761D01*
X0258911Y0074358D02*
X0243416Y0074358D01*
X0243416Y0073560D02*
X0265016Y0073560D01*
X0265016Y0074358D02*
X0265816Y0074358D01*
X0265816Y0073887D02*
X0265816Y0077487D01*
X0268410Y0077487D01*
X0269183Y0077333D01*
X0269911Y0077031D01*
X0270566Y0076594D01*
X0271123Y0076036D01*
X0271561Y0075381D01*
X0271862Y0074653D01*
X0272015Y0073887D01*
X0265816Y0073887D01*
X0265816Y0073560D02*
X0287357Y0073560D01*
X0287026Y0074358D02*
X0271921Y0074358D01*
X0271654Y0075157D02*
X0286809Y0075157D01*
X0286809Y0075955D02*
X0271177Y0075955D01*
X0270326Y0076754D02*
X0286809Y0076754D01*
X0286821Y0077552D02*
X0241587Y0077552D01*
X0242386Y0076754D02*
X0260506Y0076754D01*
X0259655Y0075955D02*
X0242838Y0075955D01*
X0243169Y0075157D02*
X0259178Y0075157D01*
X0265016Y0075157D02*
X0265816Y0075157D01*
X0265816Y0075955D02*
X0265016Y0075955D01*
X0265016Y0076754D02*
X0265816Y0076754D01*
X0265816Y0072761D02*
X0265016Y0072761D01*
X0265016Y0071963D02*
X0265816Y0071963D01*
X0265816Y0071164D02*
X0265016Y0071164D01*
X0265016Y0070366D02*
X0265816Y0070366D01*
X0265816Y0069567D02*
X0265016Y0069567D01*
X0270545Y0070366D02*
X0290193Y0070366D01*
X0289098Y0071164D02*
X0271275Y0071164D01*
X0271714Y0071963D02*
X0288300Y0071963D01*
X0287688Y0072761D02*
X0271950Y0072761D01*
X0287152Y0078351D02*
X0240384Y0078351D01*
X0239847Y0084739D02*
X0260985Y0084739D01*
X0259467Y0085537D02*
X0241365Y0085537D01*
X0242163Y0086336D02*
X0258669Y0086336D01*
X0258086Y0087134D02*
X0242746Y0087134D01*
X0243077Y0087933D02*
X0257755Y0087933D01*
X0257424Y0088731D02*
X0243408Y0088731D01*
X0243416Y0089530D02*
X0257416Y0089530D01*
X0257416Y0090328D02*
X0243416Y0090328D01*
X0243322Y0091127D02*
X0257510Y0091127D01*
X0257841Y0091925D02*
X0242991Y0091925D01*
X0242660Y0092724D02*
X0258172Y0092724D01*
X0258877Y0093523D02*
X0241955Y0093523D01*
X0241157Y0094321D02*
X0259675Y0094321D01*
X0260066Y0095120D02*
X0240766Y0095120D01*
X0241746Y0095918D02*
X0259086Y0095918D01*
X0258288Y0096717D02*
X0242544Y0096717D01*
X0242904Y0097515D02*
X0257928Y0097515D01*
X0257597Y0098314D02*
X0243235Y0098314D01*
X0243416Y0099112D02*
X0257416Y0099112D01*
X0257416Y0099911D02*
X0243416Y0099911D01*
X0243416Y0100709D02*
X0257416Y0100709D01*
X0257668Y0101508D02*
X0243164Y0101508D01*
X0242833Y0102306D02*
X0257999Y0102306D01*
X0258459Y0103105D02*
X0242373Y0103105D01*
X0241575Y0103903D02*
X0259257Y0103903D01*
X0260478Y0104702D02*
X0240354Y0104702D01*
X0241328Y0105500D02*
X0259504Y0105500D01*
X0258706Y0106299D02*
X0242126Y0106299D01*
X0242731Y0107097D02*
X0258101Y0107097D01*
X0257770Y0107896D02*
X0243062Y0107896D01*
X0243392Y0108694D02*
X0257440Y0108694D01*
X0257416Y0109493D02*
X0243416Y0109493D01*
X0243416Y0110291D02*
X0257416Y0110291D01*
X0257495Y0111090D02*
X0243337Y0111090D01*
X0243219Y0118276D02*
X0259128Y0118276D01*
X0258887Y0119075D02*
X0243416Y0119075D01*
X0240444Y0124664D02*
X0261164Y0124664D01*
X0259541Y0125463D02*
X0241291Y0125463D01*
X0242089Y0126261D02*
X0258743Y0126261D01*
X0258116Y0127060D02*
X0242716Y0127060D01*
X0243046Y0127859D02*
X0257786Y0127859D01*
X0257455Y0128657D02*
X0243377Y0128657D01*
X0243416Y0129456D02*
X0257416Y0129456D01*
X0257416Y0130254D02*
X0243416Y0130254D01*
X0243353Y0131053D02*
X0257479Y0131053D01*
X0257416Y0139038D02*
X0245342Y0139038D01*
X0246141Y0139836D02*
X0257416Y0139836D01*
X0257416Y0140635D02*
X0246939Y0140635D01*
X0247738Y0141433D02*
X0257637Y0141433D01*
X0257968Y0142232D02*
X0248536Y0142232D01*
X0249335Y0143030D02*
X0258384Y0143030D01*
X0259183Y0143829D02*
X0250133Y0143829D01*
X0250932Y0144627D02*
X0260298Y0144627D01*
X0259579Y0145426D02*
X0251730Y0145426D01*
X0252357Y0146224D02*
X0258780Y0146224D01*
X0258132Y0147023D02*
X0252688Y0147023D01*
X0252753Y0147821D02*
X0257801Y0147821D01*
X0257470Y0148620D02*
X0252753Y0148620D01*
X0252753Y0149418D02*
X0257416Y0149418D01*
X0257416Y0150217D02*
X0252753Y0150217D01*
X0252753Y0151015D02*
X0257464Y0151015D01*
X0257795Y0151814D02*
X0252753Y0151814D01*
X0252753Y0152612D02*
X0258126Y0152612D01*
X0258765Y0153411D02*
X0252753Y0153411D01*
X0252753Y0154209D02*
X0259563Y0154209D01*
X0261217Y0155008D02*
X0252753Y0155008D01*
X0245953Y0155008D02*
X0239615Y0155008D01*
X0241269Y0154209D02*
X0245953Y0154209D01*
X0245953Y0153411D02*
X0242067Y0153411D01*
X0242706Y0152612D02*
X0245953Y0152612D01*
X0245953Y0151814D02*
X0243037Y0151814D01*
X0243368Y0151015D02*
X0245953Y0151015D01*
X0245953Y0150217D02*
X0243416Y0150217D01*
X0243416Y0149418D02*
X0245953Y0149418D01*
X0245308Y0148620D02*
X0243362Y0148620D01*
X0243031Y0147821D02*
X0244509Y0147821D01*
X0243711Y0147023D02*
X0242700Y0147023D01*
X0242912Y0146224D02*
X0242052Y0146224D01*
X0242114Y0145426D02*
X0241253Y0145426D01*
X0241315Y0144627D02*
X0240534Y0144627D01*
X0245953Y0155806D02*
X0227830Y0155806D01*
X0226117Y0163792D02*
X0235832Y0163792D01*
X0235034Y0164590D02*
X0226738Y0164590D01*
X0227536Y0165389D02*
X0234841Y0165389D01*
X0213534Y0163792D02*
X0125723Y0163792D01*
X0126344Y0164590D02*
X0212913Y0164590D01*
X0212115Y0165389D02*
X0127142Y0165389D01*
X0127594Y0166187D02*
X0211663Y0166187D01*
X0211332Y0166986D02*
X0127925Y0166986D01*
X0128232Y0167784D02*
X0211025Y0167784D01*
X0211025Y0168583D02*
X0128232Y0168583D01*
X0128232Y0169381D02*
X0211025Y0169381D01*
X0211086Y0170180D02*
X0128171Y0170180D01*
X0127841Y0170978D02*
X0211417Y0170978D01*
X0211747Y0171777D02*
X0127510Y0171777D01*
X0126939Y0172575D02*
X0212318Y0172575D01*
X0213116Y0173374D02*
X0126141Y0173374D01*
X0125926Y0174172D02*
X0213331Y0174172D01*
X0212533Y0174971D02*
X0126725Y0174971D01*
X0127421Y0175769D02*
X0211836Y0175769D01*
X0211505Y0176568D02*
X0127752Y0176568D01*
X0128082Y0177366D02*
X0211175Y0177366D01*
X0211025Y0178165D02*
X0128232Y0178165D01*
X0128232Y0178963D02*
X0211025Y0178963D01*
X0211025Y0179762D02*
X0128232Y0179762D01*
X0128014Y0180560D02*
X0211243Y0180560D01*
X0211574Y0181359D02*
X0127683Y0181359D01*
X0127352Y0182157D02*
X0211905Y0182157D01*
X0212698Y0182956D02*
X0126559Y0182956D01*
X0125760Y0183754D02*
X0213497Y0183754D01*
X0212951Y0184553D02*
X0126307Y0184553D01*
X0127105Y0185351D02*
X0212152Y0185351D01*
X0211679Y0186150D02*
X0127579Y0186150D01*
X0127909Y0186948D02*
X0211348Y0186948D01*
X0211025Y0187747D02*
X0128232Y0187747D01*
X0128232Y0188545D02*
X0211025Y0188545D01*
X0211025Y0189344D02*
X0128232Y0189344D01*
X0128187Y0190142D02*
X0211070Y0190142D01*
X0211401Y0190941D02*
X0127856Y0190941D01*
X0127525Y0191739D02*
X0211732Y0191739D01*
X0212281Y0192538D02*
X0126977Y0192538D01*
X0126178Y0193336D02*
X0213079Y0193336D01*
X0214355Y0194135D02*
X0125889Y0194135D01*
X0126687Y0194933D02*
X0214880Y0194933D01*
X0213751Y0195732D02*
X0127406Y0195732D01*
X0127736Y0196530D02*
X0213094Y0196530D01*
X0212703Y0197329D02*
X0128067Y0197329D01*
X0123983Y0204516D02*
X0233441Y0204516D01*
X0234870Y0210105D02*
X0106513Y0210105D01*
X0080387Y0173374D02*
X0006591Y0173374D01*
X0006593Y0172575D02*
X0078459Y0172575D01*
X0077233Y0171777D02*
X0006594Y0171777D01*
X0006595Y0170978D02*
X0076435Y0170978D01*
X0075636Y0170180D02*
X0006597Y0170180D01*
X0006598Y0169381D02*
X0075247Y0169381D01*
X0074916Y0168583D02*
X0006600Y0168583D01*
X0006601Y0167784D02*
X0074585Y0167784D01*
X0074348Y0166986D02*
X0006603Y0166986D01*
X0006604Y0166187D02*
X0074348Y0166187D01*
X0074348Y0165389D02*
X0006606Y0165389D01*
X0006607Y0164590D02*
X0074348Y0164590D01*
X0074480Y0163792D02*
X0006609Y0163792D01*
X0006610Y0162993D02*
X0074811Y0162993D01*
X0075141Y0162194D02*
X0006612Y0162194D01*
X0006613Y0161396D02*
X0075472Y0161396D01*
X0076181Y0160597D02*
X0006615Y0160597D01*
X0006616Y0159799D02*
X0076979Y0159799D01*
X0077845Y0159000D02*
X0006618Y0159000D01*
X0006619Y0158202D02*
X0079773Y0158202D01*
X0093598Y0157403D02*
X0006621Y0157403D01*
X0006622Y0156605D02*
X0094397Y0156605D01*
X0095195Y0155806D02*
X0006624Y0155806D01*
X0006625Y0155008D02*
X0095994Y0155008D01*
X0096792Y0154209D02*
X0006626Y0154209D01*
X0006628Y0153411D02*
X0097591Y0153411D01*
X0098389Y0152612D02*
X0006629Y0152612D01*
X0006631Y0151814D02*
X0099188Y0151814D01*
X0099986Y0151015D02*
X0006632Y0151015D01*
X0006634Y0150217D02*
X0100785Y0150217D01*
X0101259Y0149418D02*
X0006635Y0149418D01*
X0006637Y0148620D02*
X0101259Y0148620D01*
X0101259Y0147821D02*
X0006638Y0147821D01*
X0006640Y0147023D02*
X0029309Y0147023D01*
X0029426Y0147061D02*
X0028641Y0146806D01*
X0027907Y0146432D01*
X0027240Y0145947D01*
X0026656Y0145364D01*
X0026172Y0144697D01*
X0025797Y0143962D01*
X0025543Y0143178D01*
X0025414Y0142363D01*
X0025414Y0142351D01*
X0030252Y0142351D01*
X0030252Y0141551D01*
X0025414Y0141551D01*
X0025414Y0141539D01*
X0025543Y0140724D01*
X0025797Y0139940D01*
X0026172Y0139206D01*
X0026656Y0138538D01*
X0027240Y0137955D01*
X0027907Y0137471D01*
X0028641Y0137096D01*
X0029426Y0136842D01*
X0030240Y0136713D01*
X0030252Y0136713D01*
X0030252Y0141551D01*
X0031052Y0141551D01*
X0031052Y0136713D01*
X0031065Y0136713D01*
X0031879Y0136842D01*
X0032663Y0137096D01*
X0033398Y0137471D01*
X0034065Y0137955D01*
X0034648Y0138538D01*
X0035133Y0139206D01*
X0035507Y0139940D01*
X0035762Y0140724D01*
X0035891Y0141539D01*
X0035891Y0141551D01*
X0031052Y0141551D01*
X0031052Y0142351D01*
X0030252Y0142351D01*
X0030252Y0147190D01*
X0030240Y0147190D01*
X0029426Y0147061D01*
X0030252Y0147023D02*
X0031052Y0147023D01*
X0031052Y0147190D02*
X0031052Y0142351D01*
X0035891Y0142351D01*
X0035891Y0142363D01*
X0035762Y0143178D01*
X0035507Y0143962D01*
X0035133Y0144697D01*
X0034648Y0145364D01*
X0034065Y0145947D01*
X0033398Y0146432D01*
X0032663Y0146806D01*
X0031879Y0147061D01*
X0031065Y0147190D01*
X0031052Y0147190D01*
X0031996Y0147023D02*
X0101259Y0147023D01*
X0101259Y0146224D02*
X0033683Y0146224D01*
X0034586Y0145426D02*
X0101259Y0145426D01*
X0101259Y0144627D02*
X0035168Y0144627D01*
X0035550Y0143829D02*
X0101259Y0143829D01*
X0101259Y0143030D02*
X0035785Y0143030D01*
X0035874Y0141433D02*
X0101259Y0141433D01*
X0101259Y0140635D02*
X0035733Y0140635D01*
X0035454Y0139836D02*
X0101259Y0139836D01*
X0101259Y0139038D02*
X0035011Y0139038D01*
X0034349Y0138239D02*
X0101259Y0138239D01*
X0101259Y0137441D02*
X0033339Y0137441D01*
X0031052Y0137441D02*
X0030252Y0137441D01*
X0030252Y0138239D02*
X0031052Y0138239D01*
X0031052Y0139038D02*
X0030252Y0139038D01*
X0030252Y0139836D02*
X0031052Y0139836D01*
X0031052Y0140635D02*
X0030252Y0140635D01*
X0030252Y0141433D02*
X0031052Y0141433D01*
X0031052Y0142232D02*
X0101259Y0142232D01*
X0101259Y0136642D02*
X0006659Y0136642D01*
X0006660Y0135844D02*
X0101259Y0135844D01*
X0101259Y0135045D02*
X0006662Y0135045D01*
X0006663Y0134247D02*
X0101259Y0134247D01*
X0101259Y0133448D02*
X0006665Y0133448D01*
X0006666Y0132650D02*
X0101259Y0132650D01*
X0101259Y0131851D02*
X0006668Y0131851D01*
X0006669Y0131053D02*
X0101259Y0131053D01*
X0101259Y0130254D02*
X0006671Y0130254D01*
X0006672Y0129456D02*
X0101259Y0129456D01*
X0101259Y0128657D02*
X0032571Y0128657D01*
X0031973Y0128905D02*
X0029332Y0128905D01*
X0026892Y0127894D01*
X0025024Y0126027D01*
X0024014Y0123587D01*
X0024014Y0120946D01*
X0025024Y0118506D01*
X0026892Y0116638D01*
X0029332Y0115628D01*
X0031973Y0115628D01*
X0034413Y0116638D01*
X0036280Y0118506D01*
X0037291Y0120946D01*
X0037291Y0123587D01*
X0036280Y0126027D01*
X0034413Y0127894D01*
X0031973Y0128905D01*
X0034448Y0127859D02*
X0101259Y0127859D01*
X0101259Y0127060D02*
X0035247Y0127060D01*
X0036045Y0126261D02*
X0101259Y0126261D01*
X0101259Y0125463D02*
X0036514Y0125463D01*
X0036844Y0124664D02*
X0101259Y0124664D01*
X0101259Y0123866D02*
X0037175Y0123866D01*
X0037291Y0123067D02*
X0101259Y0123067D01*
X0101259Y0122269D02*
X0037291Y0122269D01*
X0037291Y0121470D02*
X0101259Y0121470D01*
X0101259Y0120672D02*
X0037177Y0120672D01*
X0036847Y0119873D02*
X0101259Y0119873D01*
X0101259Y0119075D02*
X0036516Y0119075D01*
X0036051Y0118276D02*
X0101259Y0118276D01*
X0101259Y0117478D02*
X0035252Y0117478D01*
X0034454Y0116679D02*
X0101259Y0116679D01*
X0101259Y0115881D02*
X0032584Y0115881D01*
X0028720Y0115881D02*
X0006697Y0115881D01*
X0006696Y0116679D02*
X0026851Y0116679D01*
X0026052Y0117478D02*
X0006694Y0117478D01*
X0006693Y0118276D02*
X0025254Y0118276D01*
X0024789Y0119075D02*
X0006691Y0119075D01*
X0006690Y0119873D02*
X0024458Y0119873D01*
X0024127Y0120672D02*
X0006688Y0120672D01*
X0006687Y0121470D02*
X0024014Y0121470D01*
X0024014Y0122269D02*
X0006686Y0122269D01*
X0006684Y0123067D02*
X0024014Y0123067D01*
X0024129Y0123866D02*
X0006683Y0123866D01*
X0006681Y0124664D02*
X0024460Y0124664D01*
X0024791Y0125463D02*
X0006680Y0125463D01*
X0006678Y0126261D02*
X0025259Y0126261D01*
X0026058Y0127060D02*
X0006677Y0127060D01*
X0006675Y0127859D02*
X0026856Y0127859D01*
X0028734Y0128657D02*
X0006674Y0128657D01*
X0006657Y0137441D02*
X0027966Y0137441D01*
X0026956Y0138239D02*
X0006656Y0138239D01*
X0006655Y0139038D02*
X0026294Y0139038D01*
X0025850Y0139836D02*
X0006653Y0139836D01*
X0006652Y0140635D02*
X0025572Y0140635D01*
X0025430Y0141433D02*
X0006650Y0141433D01*
X0006649Y0142232D02*
X0030252Y0142232D01*
X0030252Y0143030D02*
X0031052Y0143030D01*
X0031052Y0143829D02*
X0030252Y0143829D01*
X0030252Y0144627D02*
X0031052Y0144627D01*
X0031052Y0145426D02*
X0030252Y0145426D01*
X0030252Y0146224D02*
X0031052Y0146224D01*
X0027621Y0146224D02*
X0006641Y0146224D01*
X0006643Y0145426D02*
X0026718Y0145426D01*
X0026136Y0144627D02*
X0006644Y0144627D01*
X0006646Y0143829D02*
X0025754Y0143829D01*
X0025519Y0143030D02*
X0006647Y0143030D01*
X0006699Y0115082D02*
X0101259Y0115082D01*
X0101259Y0114284D02*
X0006700Y0114284D01*
X0006702Y0113485D02*
X0101259Y0113485D01*
X0101259Y0112687D02*
X0006703Y0112687D01*
X0006705Y0111888D02*
X0101259Y0111888D01*
X0101259Y0111090D02*
X0006706Y0111090D01*
X0006708Y0110291D02*
X0101259Y0110291D01*
X0101259Y0109493D02*
X0006709Y0109493D01*
X0006711Y0108694D02*
X0101259Y0108694D01*
X0101259Y0107896D02*
X0006712Y0107896D01*
X0006714Y0107097D02*
X0101259Y0107097D01*
X0101259Y0106299D02*
X0006715Y0106299D01*
X0006716Y0105500D02*
X0101259Y0105500D01*
X0101259Y0104702D02*
X0045440Y0104702D01*
X0044749Y0104988D02*
X0042382Y0104988D01*
X0040195Y0104082D01*
X0038521Y0102408D01*
X0037616Y0100221D01*
X0037616Y0097854D01*
X0038521Y0095667D01*
X0040195Y0093994D01*
X0042382Y0093088D01*
X0044749Y0093088D01*
X0046936Y0093994D01*
X0048610Y0095667D01*
X0049164Y0097005D01*
X0051681Y0094488D01*
X0053166Y0094488D01*
X0053166Y0098638D01*
X0053966Y0098638D01*
X0053966Y0099438D01*
X0058116Y0099438D01*
X0058116Y0100922D01*
X0055450Y0103588D01*
X0053966Y0103588D01*
X0053966Y0099438D01*
X0053166Y0099438D01*
X0053166Y0103588D01*
X0051681Y0103588D01*
X0049164Y0101071D01*
X0048610Y0102408D01*
X0046936Y0104082D01*
X0044749Y0104988D01*
X0047115Y0103903D02*
X0101259Y0103903D01*
X0101259Y0103105D02*
X0055933Y0103105D01*
X0056732Y0102306D02*
X0101259Y0102306D01*
X0101259Y0101508D02*
X0057530Y0101508D01*
X0058116Y0100709D02*
X0101259Y0100709D01*
X0101259Y0099911D02*
X0058116Y0099911D01*
X0058116Y0098638D02*
X0053966Y0098638D01*
X0053966Y0094488D01*
X0055450Y0094488D01*
X0058116Y0097153D01*
X0058116Y0098638D01*
X0058116Y0098314D02*
X0101259Y0098314D01*
X0101259Y0099112D02*
X0053966Y0099112D01*
X0053966Y0098314D02*
X0053166Y0098314D01*
X0053166Y0097515D02*
X0053966Y0097515D01*
X0053966Y0096717D02*
X0053166Y0096717D01*
X0053166Y0095918D02*
X0053966Y0095918D01*
X0053966Y0095120D02*
X0053166Y0095120D01*
X0051049Y0095120D02*
X0048062Y0095120D01*
X0048714Y0095918D02*
X0050251Y0095918D01*
X0049452Y0096717D02*
X0049044Y0096717D01*
X0047263Y0094321D02*
X0101259Y0094321D01*
X0101259Y0093523D02*
X0045799Y0093523D01*
X0041333Y0093523D02*
X0031539Y0093523D01*
X0031539Y0092923D02*
X0031539Y0095231D01*
X0030656Y0097363D01*
X0029024Y0098994D01*
X0026893Y0099877D01*
X0018585Y0099877D01*
X0016453Y0098994D01*
X0014822Y0097363D01*
X0013939Y0095231D01*
X0013939Y0092923D01*
X0014822Y0090792D01*
X0016453Y0089160D01*
X0018515Y0088306D01*
X0018050Y0088155D01*
X0017433Y0087840D01*
X0016872Y0087433D01*
X0016383Y0086944D01*
X0015976Y0086383D01*
X0015661Y0085766D01*
X0015447Y0085107D01*
X0015347Y0084477D01*
X0022339Y0084477D01*
X0022339Y0083677D01*
X0015347Y0083677D01*
X0015447Y0083047D01*
X0015661Y0082388D01*
X0015976Y0081771D01*
X0016383Y0081211D01*
X0016872Y0080721D01*
X0017433Y0080314D01*
X0018050Y0080000D01*
X0018515Y0079848D01*
X0016453Y0078994D01*
X0014822Y0077363D01*
X0013939Y0075231D01*
X0013939Y0072923D01*
X0014822Y0070792D01*
X0016453Y0069160D01*
X0018585Y0068277D01*
X0026893Y0068277D01*
X0029024Y0069160D01*
X0030656Y0070792D01*
X0031539Y0072923D01*
X0031539Y0075231D01*
X0030656Y0077363D01*
X0029024Y0078994D01*
X0026962Y0079848D01*
X0027428Y0080000D01*
X0028045Y0080314D01*
X0028605Y0080721D01*
X0029095Y0081211D01*
X0029502Y0081771D01*
X0029816Y0082388D01*
X0030030Y0083047D01*
X0030130Y0083677D01*
X0023139Y0083677D01*
X0023139Y0084477D01*
X0030130Y0084477D01*
X0030030Y0085107D01*
X0029816Y0085766D01*
X0029502Y0086383D01*
X0029095Y0086944D01*
X0028605Y0087433D01*
X0028045Y0087840D01*
X0027428Y0088155D01*
X0026962Y0088306D01*
X0029024Y0089160D01*
X0030656Y0090792D01*
X0031539Y0092923D01*
X0031456Y0092724D02*
X0101259Y0092724D01*
X0101259Y0091925D02*
X0031125Y0091925D01*
X0030795Y0091127D02*
X0101259Y0091127D01*
X0101259Y0090328D02*
X0030193Y0090328D01*
X0029394Y0089530D02*
X0101259Y0089530D01*
X0101259Y0088731D02*
X0027989Y0088731D01*
X0027863Y0087933D02*
X0101259Y0087933D01*
X0101259Y0087134D02*
X0028904Y0087134D01*
X0029526Y0086336D02*
X0101259Y0086336D01*
X0101259Y0085537D02*
X0029891Y0085537D01*
X0030089Y0084739D02*
X0101259Y0084739D01*
X0101259Y0083940D02*
X0023139Y0083940D01*
X0022339Y0083940D02*
X0006756Y0083940D01*
X0006758Y0083142D02*
X0015432Y0083142D01*
X0015684Y0082343D02*
X0006759Y0082343D01*
X0006761Y0081545D02*
X0016140Y0081545D01*
X0016847Y0080746D02*
X0006762Y0080746D01*
X0006764Y0079948D02*
X0018209Y0079948D01*
X0016828Y0079149D02*
X0006765Y0079149D01*
X0006767Y0078351D02*
X0015810Y0078351D01*
X0015012Y0077552D02*
X0006768Y0077552D01*
X0006770Y0076754D02*
X0014570Y0076754D01*
X0014239Y0075955D02*
X0006771Y0075955D01*
X0006773Y0075157D02*
X0013939Y0075157D01*
X0013939Y0074358D02*
X0006774Y0074358D01*
X0006776Y0073560D02*
X0013939Y0073560D01*
X0014006Y0072761D02*
X0006777Y0072761D01*
X0006778Y0071963D02*
X0014337Y0071963D01*
X0014668Y0071164D02*
X0006780Y0071164D01*
X0006781Y0070366D02*
X0015248Y0070366D01*
X0016046Y0069567D02*
X0006783Y0069567D01*
X0006784Y0068769D02*
X0017399Y0068769D01*
X0006786Y0067970D02*
X0074348Y0067970D01*
X0074348Y0068612D02*
X0074348Y0065509D01*
X0075536Y0062642D01*
X0076304Y0061874D01*
X0073988Y0059557D01*
X0072137Y0059557D01*
X0070152Y0058735D01*
X0068633Y0057216D01*
X0067811Y0055232D01*
X0067811Y0047883D01*
X0068633Y0045899D01*
X0069211Y0045321D01*
X0069211Y0037794D01*
X0068633Y0037216D01*
X0067811Y0035232D01*
X0067811Y0027883D01*
X0068633Y0025899D01*
X0070152Y0024380D01*
X0072137Y0023557D01*
X0074285Y0023557D01*
X0076270Y0024380D01*
X0077789Y0025899D01*
X0078211Y0026918D01*
X0078633Y0025899D01*
X0080152Y0024380D01*
X0082137Y0023557D01*
X0084285Y0023557D01*
X0086270Y0024380D01*
X0087789Y0025899D01*
X0088211Y0026918D01*
X0088633Y0025899D01*
X0090152Y0024380D01*
X0092137Y0023557D01*
X0094285Y0023557D01*
X0096270Y0024380D01*
X0097789Y0025899D01*
X0098611Y0027883D01*
X0098611Y0035232D01*
X0097789Y0037216D01*
X0096270Y0038735D01*
X0094285Y0039557D01*
X0092137Y0039557D01*
X0090152Y0038735D01*
X0088633Y0037216D01*
X0088211Y0036197D01*
X0087789Y0037216D01*
X0086270Y0038735D01*
X0084285Y0039557D01*
X0082137Y0039557D01*
X0080152Y0038735D01*
X0078633Y0037216D01*
X0078211Y0036197D01*
X0077789Y0037216D01*
X0077211Y0037794D01*
X0077211Y0045321D01*
X0077789Y0045899D01*
X0078211Y0046918D01*
X0078633Y0045899D01*
X0080152Y0044380D01*
X0082137Y0043557D01*
X0084285Y0043557D01*
X0086270Y0044380D01*
X0087789Y0045899D01*
X0088211Y0046918D01*
X0088633Y0045899D01*
X0090152Y0044380D01*
X0092137Y0043557D01*
X0094285Y0043557D01*
X0096270Y0044380D01*
X0097789Y0045899D01*
X0098611Y0047883D01*
X0098611Y0055232D01*
X0097789Y0057216D01*
X0096270Y0058735D01*
X0094351Y0059530D01*
X0096567Y0060448D01*
X0098761Y0062642D01*
X0099948Y0065509D01*
X0099948Y0068612D01*
X0098761Y0071479D01*
X0096567Y0073673D01*
X0093700Y0074861D01*
X0080597Y0074861D01*
X0077730Y0073673D01*
X0075536Y0071479D01*
X0074348Y0068612D01*
X0074413Y0068769D02*
X0044573Y0068769D01*
X0044355Y0068678D02*
X0046542Y0069584D01*
X0048216Y0071258D01*
X0048770Y0072595D01*
X0051287Y0070078D01*
X0052772Y0070078D01*
X0052772Y0074228D01*
X0053572Y0074228D01*
X0053572Y0070078D01*
X0055057Y0070078D01*
X0057722Y0072744D01*
X0057722Y0074228D01*
X0053572Y0074228D01*
X0053572Y0075028D01*
X0057722Y0075028D01*
X0057722Y0076513D01*
X0055057Y0079178D01*
X0053572Y0079178D01*
X0053572Y0075028D01*
X0052772Y0075028D01*
X0052772Y0079178D01*
X0051287Y0079178D01*
X0048770Y0076661D01*
X0048216Y0077999D01*
X0046542Y0079673D01*
X0044355Y0080578D01*
X0041988Y0080578D01*
X0039802Y0079673D01*
X0038128Y0077999D01*
X0037222Y0075812D01*
X0037222Y0073445D01*
X0038128Y0071258D01*
X0039802Y0069584D01*
X0041988Y0068678D01*
X0044355Y0068678D01*
X0046501Y0069567D02*
X0074744Y0069567D01*
X0075075Y0070366D02*
X0055344Y0070366D01*
X0056142Y0071164D02*
X0075405Y0071164D01*
X0076020Y0071963D02*
X0056941Y0071963D01*
X0057722Y0072761D02*
X0076818Y0072761D01*
X0077617Y0073560D02*
X0057722Y0073560D01*
X0057722Y0075157D02*
X0101259Y0075157D01*
X0101259Y0075955D02*
X0057722Y0075955D01*
X0057481Y0076754D02*
X0101259Y0076754D01*
X0101259Y0077552D02*
X0056683Y0077552D01*
X0055884Y0078351D02*
X0101259Y0078351D01*
X0101259Y0079149D02*
X0055086Y0079149D01*
X0053572Y0079149D02*
X0052772Y0079149D01*
X0052772Y0078351D02*
X0053572Y0078351D01*
X0053572Y0077552D02*
X0052772Y0077552D01*
X0052772Y0076754D02*
X0053572Y0076754D01*
X0053572Y0075955D02*
X0052772Y0075955D01*
X0052772Y0075157D02*
X0053572Y0075157D01*
X0053572Y0074358D02*
X0079384Y0074358D01*
X0074348Y0067172D02*
X0006787Y0067172D01*
X0006789Y0066373D02*
X0074348Y0066373D01*
X0074348Y0065575D02*
X0006790Y0065575D01*
X0006792Y0064776D02*
X0074652Y0064776D01*
X0074983Y0063978D02*
X0006793Y0063978D01*
X0006795Y0063179D02*
X0075313Y0063179D01*
X0075797Y0062381D02*
X0006796Y0062381D01*
X0006798Y0061582D02*
X0076013Y0061582D01*
X0075214Y0060784D02*
X0006799Y0060784D01*
X0006801Y0059985D02*
X0074416Y0059985D01*
X0071242Y0059187D02*
X0006802Y0059187D01*
X0006804Y0058388D02*
X0069805Y0058388D01*
X0069007Y0057590D02*
X0006805Y0057590D01*
X0006807Y0056791D02*
X0068457Y0056791D01*
X0068126Y0055992D02*
X0006808Y0055992D01*
X0006809Y0055194D02*
X0067811Y0055194D01*
X0067811Y0054395D02*
X0006811Y0054395D01*
X0006812Y0053597D02*
X0067811Y0053597D01*
X0067811Y0052798D02*
X0006814Y0052798D01*
X0006815Y0052000D02*
X0067811Y0052000D01*
X0067811Y0051201D02*
X0006817Y0051201D01*
X0006818Y0050403D02*
X0067811Y0050403D01*
X0067811Y0049604D02*
X0006820Y0049604D01*
X0006821Y0048806D02*
X0067811Y0048806D01*
X0067811Y0048007D02*
X0006823Y0048007D01*
X0006824Y0047209D02*
X0068091Y0047209D01*
X0068421Y0046410D02*
X0026156Y0046410D01*
X0027326Y0045926D02*
X0024886Y0046936D01*
X0022245Y0046936D01*
X0019805Y0045926D01*
X0017938Y0044058D01*
X0016927Y0041618D01*
X0016927Y0038977D01*
X0017938Y0036537D01*
X0019805Y0034670D01*
X0022245Y0033659D01*
X0024886Y0033659D01*
X0027326Y0034670D01*
X0029194Y0036537D01*
X0030204Y0038977D01*
X0030204Y0041618D01*
X0029194Y0044058D01*
X0027326Y0045926D01*
X0027640Y0045612D02*
X0068920Y0045612D01*
X0069211Y0044813D02*
X0045927Y0044813D01*
X0045996Y0044778D02*
X0045262Y0045152D01*
X0044477Y0045407D01*
X0043663Y0045536D01*
X0043651Y0045536D01*
X0043651Y0040698D01*
X0048489Y0040698D01*
X0048489Y0040710D01*
X0048360Y0041524D01*
X0048105Y0042309D01*
X0047731Y0043043D01*
X0047246Y0043710D01*
X0046663Y0044293D01*
X0045996Y0044778D01*
X0046942Y0044015D02*
X0069211Y0044015D01*
X0069211Y0043216D02*
X0047605Y0043216D01*
X0048050Y0042418D02*
X0069211Y0042418D01*
X0069211Y0041619D02*
X0048329Y0041619D01*
X0048472Y0040821D02*
X0069211Y0040821D01*
X0069211Y0040022D02*
X0043651Y0040022D01*
X0043651Y0039898D02*
X0043651Y0040698D01*
X0042851Y0040698D01*
X0042851Y0045536D01*
X0042838Y0045536D01*
X0042024Y0045407D01*
X0041240Y0045152D01*
X0040505Y0044778D01*
X0039838Y0044293D01*
X0039255Y0043710D01*
X0038770Y0043043D01*
X0038396Y0042309D01*
X0038141Y0041524D01*
X0038012Y0040710D01*
X0038012Y0040698D01*
X0042851Y0040698D01*
X0042851Y0039898D01*
X0038012Y0039898D01*
X0038012Y0039885D01*
X0038141Y0039071D01*
X0038396Y0038287D01*
X0038770Y0037552D01*
X0039255Y0036885D01*
X0039838Y0036302D01*
X0040505Y0035817D01*
X0041240Y0035443D01*
X0042024Y0035188D01*
X0042838Y0035059D01*
X0042851Y0035059D01*
X0042851Y0039898D01*
X0043651Y0039898D01*
X0048489Y0039898D01*
X0048489Y0039885D01*
X0048360Y0039071D01*
X0048105Y0038287D01*
X0047731Y0037552D01*
X0047246Y0036885D01*
X0046663Y0036302D01*
X0045996Y0035817D01*
X0045262Y0035443D01*
X0044477Y0035188D01*
X0043663Y0035059D01*
X0043651Y0035059D01*
X0043651Y0039898D01*
X0043651Y0039224D02*
X0042851Y0039224D01*
X0042851Y0040022D02*
X0030204Y0040022D01*
X0030204Y0039224D02*
X0038117Y0039224D01*
X0038351Y0038425D02*
X0029976Y0038425D01*
X0029645Y0037627D02*
X0038732Y0037627D01*
X0039312Y0036828D02*
X0029314Y0036828D01*
X0028686Y0036030D02*
X0040213Y0036030D01*
X0041891Y0035231D02*
X0027888Y0035231D01*
X0026754Y0034433D02*
X0067811Y0034433D01*
X0067811Y0035231D02*
X0044610Y0035231D01*
X0043651Y0035231D02*
X0042851Y0035231D01*
X0042851Y0036030D02*
X0043651Y0036030D01*
X0043651Y0036828D02*
X0042851Y0036828D01*
X0042851Y0037627D02*
X0043651Y0037627D01*
X0043651Y0038425D02*
X0042851Y0038425D01*
X0042851Y0040821D02*
X0043651Y0040821D01*
X0043651Y0041619D02*
X0042851Y0041619D01*
X0042851Y0042418D02*
X0043651Y0042418D01*
X0043651Y0043216D02*
X0042851Y0043216D01*
X0042851Y0044015D02*
X0043651Y0044015D01*
X0043651Y0044813D02*
X0042851Y0044813D01*
X0040574Y0044813D02*
X0028438Y0044813D01*
X0029211Y0044015D02*
X0039559Y0044015D01*
X0038896Y0043216D02*
X0029542Y0043216D01*
X0029873Y0042418D02*
X0038452Y0042418D01*
X0038172Y0041619D02*
X0030204Y0041619D01*
X0030204Y0040821D02*
X0038030Y0040821D01*
X0046289Y0036030D02*
X0068142Y0036030D01*
X0068473Y0036828D02*
X0047190Y0036828D01*
X0047769Y0037627D02*
X0069044Y0037627D01*
X0069211Y0038425D02*
X0048150Y0038425D01*
X0048384Y0039224D02*
X0069211Y0039224D01*
X0067811Y0033634D02*
X0006849Y0033634D01*
X0006851Y0032836D02*
X0067811Y0032836D01*
X0067811Y0032037D02*
X0006852Y0032037D01*
X0006854Y0031239D02*
X0067811Y0031239D01*
X0067811Y0030440D02*
X0006855Y0030440D01*
X0006857Y0029642D02*
X0067811Y0029642D01*
X0067811Y0028843D02*
X0006858Y0028843D01*
X0006860Y0028045D02*
X0067811Y0028045D01*
X0068075Y0027246D02*
X0006861Y0027246D01*
X0006863Y0026448D02*
X0068406Y0026448D01*
X0068883Y0025649D02*
X0006864Y0025649D01*
X0006866Y0024851D02*
X0069681Y0024851D01*
X0070943Y0024052D02*
X0006867Y0024052D01*
X0006869Y0023254D02*
X0101335Y0023254D01*
X0101259Y0024052D02*
X0095479Y0024052D01*
X0096741Y0024851D02*
X0101259Y0024851D01*
X0101259Y0025649D02*
X0097540Y0025649D01*
X0098017Y0026448D02*
X0101259Y0026448D01*
X0101259Y0027246D02*
X0098347Y0027246D01*
X0098611Y0028045D02*
X0101259Y0028045D01*
X0101259Y0028843D02*
X0098611Y0028843D01*
X0098611Y0029642D02*
X0101259Y0029642D01*
X0101259Y0030440D02*
X0098611Y0030440D01*
X0098611Y0031239D02*
X0101259Y0031239D01*
X0101259Y0032037D02*
X0098611Y0032037D01*
X0098611Y0032836D02*
X0101259Y0032836D01*
X0101259Y0033634D02*
X0098611Y0033634D01*
X0098611Y0034433D02*
X0101259Y0034433D01*
X0101259Y0035231D02*
X0098611Y0035231D01*
X0098281Y0036030D02*
X0101259Y0036030D01*
X0101259Y0036828D02*
X0097950Y0036828D01*
X0097379Y0037627D02*
X0101259Y0037627D01*
X0101259Y0038425D02*
X0096580Y0038425D01*
X0095091Y0039224D02*
X0101259Y0039224D01*
X0101259Y0040022D02*
X0077211Y0040022D01*
X0077211Y0039224D02*
X0081331Y0039224D01*
X0079842Y0038425D02*
X0077211Y0038425D01*
X0077379Y0037627D02*
X0079044Y0037627D01*
X0078473Y0036828D02*
X0077950Y0036828D01*
X0077211Y0040821D02*
X0101259Y0040821D01*
X0101259Y0041619D02*
X0077211Y0041619D01*
X0077211Y0042418D02*
X0101259Y0042418D01*
X0101259Y0043216D02*
X0077211Y0043216D01*
X0077211Y0044015D02*
X0081033Y0044015D01*
X0079719Y0044813D02*
X0077211Y0044813D01*
X0077502Y0045612D02*
X0078920Y0045612D01*
X0078421Y0046410D02*
X0078001Y0046410D01*
X0085390Y0044015D02*
X0091033Y0044015D01*
X0089719Y0044813D02*
X0086704Y0044813D01*
X0087502Y0045612D02*
X0088920Y0045612D01*
X0088421Y0046410D02*
X0088001Y0046410D01*
X0095390Y0044015D02*
X0101259Y0044015D01*
X0101259Y0044813D02*
X0096704Y0044813D01*
X0097502Y0045612D02*
X0101259Y0045612D01*
X0101259Y0046410D02*
X0098001Y0046410D01*
X0098332Y0047209D02*
X0101259Y0047209D01*
X0101259Y0048007D02*
X0098611Y0048007D01*
X0098611Y0048806D02*
X0101259Y0048806D01*
X0101259Y0049604D02*
X0098611Y0049604D01*
X0098611Y0050403D02*
X0101259Y0050403D01*
X0101259Y0051201D02*
X0098611Y0051201D01*
X0098611Y0052000D02*
X0101259Y0052000D01*
X0101259Y0052798D02*
X0098611Y0052798D01*
X0098611Y0053597D02*
X0101259Y0053597D01*
X0101259Y0054395D02*
X0098611Y0054395D01*
X0098611Y0055194D02*
X0101259Y0055194D01*
X0101259Y0055992D02*
X0098296Y0055992D01*
X0097965Y0056791D02*
X0101259Y0056791D01*
X0101259Y0057590D02*
X0097416Y0057590D01*
X0096617Y0058388D02*
X0101259Y0058388D01*
X0101259Y0059187D02*
X0095181Y0059187D01*
X0095449Y0059985D02*
X0101259Y0059985D01*
X0101259Y0060784D02*
X0096902Y0060784D01*
X0097701Y0061582D02*
X0101259Y0061582D01*
X0101259Y0062381D02*
X0098499Y0062381D01*
X0098983Y0063179D02*
X0101259Y0063179D01*
X0101259Y0063978D02*
X0099314Y0063978D01*
X0099645Y0064776D02*
X0101259Y0064776D01*
X0101259Y0065575D02*
X0099948Y0065575D01*
X0099948Y0066373D02*
X0101259Y0066373D01*
X0101259Y0067172D02*
X0099948Y0067172D01*
X0099948Y0067970D02*
X0101259Y0067970D01*
X0101259Y0068769D02*
X0099883Y0068769D01*
X0099553Y0069567D02*
X0101259Y0069567D01*
X0101259Y0070366D02*
X0099222Y0070366D01*
X0098891Y0071164D02*
X0101259Y0071164D01*
X0101259Y0071963D02*
X0098277Y0071963D01*
X0097479Y0072761D02*
X0101259Y0072761D01*
X0101259Y0073560D02*
X0096680Y0073560D01*
X0094913Y0074358D02*
X0101259Y0074358D01*
X0101259Y0079948D02*
X0045878Y0079948D01*
X0047066Y0079149D02*
X0051258Y0079149D01*
X0050460Y0078351D02*
X0047864Y0078351D01*
X0048401Y0077552D02*
X0049661Y0077552D01*
X0048863Y0076754D02*
X0048732Y0076754D01*
X0052772Y0073560D02*
X0053572Y0073560D01*
X0053572Y0072761D02*
X0052772Y0072761D01*
X0052772Y0071963D02*
X0053572Y0071963D01*
X0053572Y0071164D02*
X0052772Y0071164D01*
X0052772Y0070366D02*
X0053572Y0070366D01*
X0051000Y0070366D02*
X0047324Y0070366D01*
X0048122Y0071164D02*
X0050201Y0071164D01*
X0049403Y0071963D02*
X0048508Y0071963D01*
X0041770Y0068769D02*
X0028079Y0068769D01*
X0029431Y0069567D02*
X0039843Y0069567D01*
X0039020Y0070366D02*
X0030230Y0070366D01*
X0030810Y0071164D02*
X0038221Y0071164D01*
X0037836Y0071963D02*
X0031141Y0071963D01*
X0031472Y0072761D02*
X0037505Y0072761D01*
X0037222Y0073560D02*
X0031539Y0073560D01*
X0031539Y0074358D02*
X0037222Y0074358D01*
X0037222Y0075157D02*
X0031539Y0075157D01*
X0031239Y0075955D02*
X0037281Y0075955D01*
X0037612Y0076754D02*
X0030908Y0076754D01*
X0030466Y0077552D02*
X0037943Y0077552D01*
X0038480Y0078351D02*
X0029668Y0078351D01*
X0028650Y0079149D02*
X0039278Y0079149D01*
X0040466Y0079948D02*
X0027269Y0079948D01*
X0028631Y0080746D02*
X0101259Y0080746D01*
X0101259Y0081545D02*
X0029338Y0081545D01*
X0029794Y0082343D02*
X0101259Y0082343D01*
X0101259Y0083142D02*
X0030046Y0083142D01*
X0017614Y0087933D02*
X0006749Y0087933D01*
X0006747Y0088731D02*
X0017488Y0088731D01*
X0016084Y0089530D02*
X0006746Y0089530D01*
X0006745Y0090328D02*
X0015285Y0090328D01*
X0014683Y0091127D02*
X0006743Y0091127D01*
X0006742Y0091925D02*
X0014352Y0091925D01*
X0014021Y0092724D02*
X0006740Y0092724D01*
X0006739Y0093523D02*
X0013939Y0093523D01*
X0013939Y0094321D02*
X0006737Y0094321D01*
X0006736Y0095120D02*
X0013939Y0095120D01*
X0014223Y0095918D02*
X0006734Y0095918D01*
X0006733Y0096717D02*
X0014554Y0096717D01*
X0014974Y0097515D02*
X0006731Y0097515D01*
X0006730Y0098314D02*
X0015773Y0098314D01*
X0016738Y0099112D02*
X0006728Y0099112D01*
X0006727Y0099911D02*
X0037616Y0099911D01*
X0037616Y0099112D02*
X0028740Y0099112D01*
X0029705Y0098314D02*
X0037616Y0098314D01*
X0037756Y0097515D02*
X0030503Y0097515D01*
X0030923Y0096717D02*
X0038087Y0096717D01*
X0038418Y0095918D02*
X0031254Y0095918D01*
X0031539Y0095120D02*
X0039069Y0095120D01*
X0039868Y0094321D02*
X0031539Y0094321D01*
X0037818Y0100709D02*
X0006725Y0100709D01*
X0006724Y0101508D02*
X0038148Y0101508D01*
X0038479Y0102306D02*
X0006722Y0102306D01*
X0006721Y0103105D02*
X0039218Y0103105D01*
X0040016Y0103903D02*
X0006719Y0103903D01*
X0006718Y0104702D02*
X0041691Y0104702D01*
X0047913Y0103105D02*
X0051198Y0103105D01*
X0050399Y0102306D02*
X0048652Y0102306D01*
X0048983Y0101508D02*
X0049601Y0101508D01*
X0053166Y0101508D02*
X0053966Y0101508D01*
X0053966Y0102306D02*
X0053166Y0102306D01*
X0053166Y0103105D02*
X0053966Y0103105D01*
X0053966Y0100709D02*
X0053166Y0100709D01*
X0053166Y0099911D02*
X0053966Y0099911D01*
X0058116Y0097515D02*
X0101259Y0097515D01*
X0101259Y0096717D02*
X0057679Y0096717D01*
X0056881Y0095918D02*
X0101259Y0095918D01*
X0101259Y0095120D02*
X0056082Y0095120D01*
X0016574Y0087134D02*
X0006750Y0087134D01*
X0006752Y0086336D02*
X0015952Y0086336D01*
X0015587Y0085537D02*
X0006753Y0085537D01*
X0006755Y0084739D02*
X0015389Y0084739D01*
X0020976Y0046410D02*
X0006826Y0046410D01*
X0006827Y0045612D02*
X0019491Y0045612D01*
X0018693Y0044813D02*
X0006829Y0044813D01*
X0006830Y0044015D02*
X0017920Y0044015D01*
X0017589Y0043216D02*
X0006832Y0043216D01*
X0006833Y0042418D02*
X0017258Y0042418D01*
X0016928Y0041619D02*
X0006835Y0041619D01*
X0006836Y0040821D02*
X0016927Y0040821D01*
X0016927Y0040022D02*
X0006838Y0040022D01*
X0006839Y0039224D02*
X0016927Y0039224D01*
X0017156Y0038425D02*
X0006840Y0038425D01*
X0006842Y0037627D02*
X0017486Y0037627D01*
X0017817Y0036828D02*
X0006843Y0036828D01*
X0006845Y0036030D02*
X0018445Y0036030D01*
X0019244Y0035231D02*
X0006846Y0035231D01*
X0006848Y0034433D02*
X0020377Y0034433D01*
X0006870Y0022455D02*
X0101666Y0022455D01*
X0102180Y0021656D02*
X0006871Y0021656D01*
X0006873Y0020858D02*
X0102978Y0020858D01*
X0103777Y0020059D02*
X0006874Y0020059D01*
X0006876Y0019261D02*
X0104575Y0019261D01*
X0105374Y0018462D02*
X0006877Y0018462D01*
X0006879Y0017664D02*
X0106172Y0017664D01*
X0106971Y0016865D02*
X0006880Y0016865D01*
X0006882Y0016067D02*
X0107769Y0016067D01*
X0108880Y0015268D02*
X0006883Y0015268D01*
X0006885Y0014470D02*
X0112640Y0014470D01*
X0113851Y0013671D02*
X0006886Y0013671D01*
X0006888Y0012873D02*
X0119782Y0012873D01*
X0120581Y0012074D02*
X0006889Y0012074D01*
X0006891Y0011276D02*
X0121379Y0011276D01*
X0122178Y0010477D02*
X0006892Y0010477D01*
X0006894Y0009679D02*
X0122976Y0009679D01*
X0123775Y0008880D02*
X0006895Y0008880D01*
X0006897Y0008082D02*
X0124573Y0008082D01*
X0125372Y0007283D02*
X0006898Y0007283D01*
X0006900Y0006485D02*
X0060268Y0006485D01*
X0075479Y0024052D02*
X0080943Y0024052D01*
X0079681Y0024851D02*
X0076741Y0024851D01*
X0077540Y0025649D02*
X0078883Y0025649D01*
X0078406Y0026448D02*
X0078017Y0026448D01*
X0085479Y0024052D02*
X0090943Y0024052D01*
X0089681Y0024851D02*
X0086741Y0024851D01*
X0087540Y0025649D02*
X0088883Y0025649D01*
X0088406Y0026448D02*
X0088017Y0026448D01*
X0087950Y0036828D02*
X0088473Y0036828D01*
X0089044Y0037627D02*
X0087379Y0037627D01*
X0086580Y0038425D02*
X0089842Y0038425D01*
X0091331Y0039224D02*
X0085091Y0039224D01*
X0109259Y0039224D02*
X0110632Y0039224D01*
X0110632Y0040022D02*
X0109259Y0040022D01*
X0109259Y0040821D02*
X0110958Y0040821D01*
X0111288Y0041619D02*
X0109259Y0041619D01*
X0109259Y0042418D02*
X0111767Y0042418D01*
X0112565Y0043216D02*
X0109259Y0043216D01*
X0109259Y0044015D02*
X0113095Y0044015D01*
X0112296Y0044813D02*
X0109259Y0044813D01*
X0109259Y0045612D02*
X0111508Y0045612D01*
X0111177Y0046410D02*
X0109259Y0046410D01*
X0109259Y0047209D02*
X0110846Y0047209D01*
X0110632Y0048007D02*
X0109259Y0048007D01*
X0109259Y0048806D02*
X0110632Y0048806D01*
X0110632Y0049604D02*
X0109259Y0049604D01*
X0109259Y0050403D02*
X0110785Y0050403D01*
X0111115Y0051201D02*
X0109259Y0051201D01*
X0109259Y0052000D02*
X0111446Y0052000D01*
X0112147Y0052798D02*
X0109259Y0052798D01*
X0109259Y0053597D02*
X0112946Y0053597D01*
X0112714Y0054395D02*
X0109259Y0054395D01*
X0109259Y0055194D02*
X0111916Y0055194D01*
X0111350Y0055992D02*
X0109259Y0055992D01*
X0109259Y0056791D02*
X0111019Y0056791D01*
X0110689Y0057590D02*
X0109259Y0057590D01*
X0109259Y0058388D02*
X0110632Y0058388D01*
X0110632Y0059187D02*
X0109259Y0059187D01*
X0109259Y0059985D02*
X0110632Y0059985D01*
X0110942Y0060784D02*
X0109259Y0060784D01*
X0109259Y0061582D02*
X0111273Y0061582D01*
X0111730Y0062381D02*
X0109259Y0062381D01*
X0109259Y0063179D02*
X0112528Y0063179D01*
X0113582Y0063978D02*
X0109259Y0063978D01*
X0109259Y0064776D02*
X0114824Y0064776D01*
X0113515Y0065575D02*
X0109259Y0065575D01*
X0109259Y0066373D02*
X0112815Y0066373D01*
X0112364Y0067172D02*
X0109259Y0067172D01*
X0109259Y0067970D02*
X0112121Y0067970D01*
X0124039Y0064776D02*
X0212727Y0064776D01*
X0211929Y0065575D02*
X0125349Y0065575D01*
X0126049Y0066373D02*
X0211586Y0066373D01*
X0211255Y0067172D02*
X0126499Y0067172D01*
X0126742Y0067970D02*
X0211025Y0067970D01*
X0213526Y0063978D02*
X0125282Y0063978D01*
X0126335Y0063179D02*
X0212922Y0063179D01*
X0212123Y0062381D02*
X0127134Y0062381D01*
X0127591Y0061582D02*
X0211667Y0061582D01*
X0211336Y0060784D02*
X0127921Y0060784D01*
X0128232Y0059985D02*
X0211025Y0059985D01*
X0211025Y0059187D02*
X0128232Y0059187D01*
X0128232Y0058388D02*
X0211025Y0058388D01*
X0211082Y0057590D02*
X0128175Y0057590D01*
X0127844Y0056791D02*
X0211413Y0056791D01*
X0211744Y0055992D02*
X0127513Y0055992D01*
X0126948Y0055194D02*
X0212309Y0055194D01*
X0213108Y0054395D02*
X0126149Y0054395D01*
X0125918Y0053597D02*
X0213340Y0053597D01*
X0212541Y0052798D02*
X0126716Y0052798D01*
X0127417Y0052000D02*
X0211840Y0052000D01*
X0211509Y0051201D02*
X0127748Y0051201D01*
X0128079Y0050403D02*
X0211178Y0050403D01*
X0211025Y0049604D02*
X0128232Y0049604D01*
X0128232Y0048806D02*
X0211025Y0048806D01*
X0211025Y0048007D02*
X0128232Y0048007D01*
X0128017Y0047209D02*
X0211240Y0047209D01*
X0211571Y0046410D02*
X0127687Y0046410D01*
X0127356Y0045612D02*
X0211901Y0045612D01*
X0212690Y0044813D02*
X0126567Y0044813D01*
X0125769Y0044015D02*
X0213489Y0044015D01*
X0212959Y0043216D02*
X0126298Y0043216D01*
X0127097Y0042418D02*
X0212160Y0042418D01*
X0211682Y0041619D02*
X0127575Y0041619D01*
X0127906Y0040821D02*
X0211351Y0040821D01*
X0211025Y0040022D02*
X0128232Y0040022D01*
X0128232Y0039224D02*
X0211025Y0039224D01*
X0211025Y0038425D02*
X0128232Y0038425D01*
X0128190Y0037627D02*
X0211067Y0037627D01*
X0211398Y0036828D02*
X0127860Y0036828D01*
X0127529Y0036030D02*
X0211728Y0036030D01*
X0212272Y0035231D02*
X0126985Y0035231D01*
X0126187Y0034433D02*
X0213071Y0034433D01*
X0213377Y0033634D02*
X0125880Y0033634D01*
X0126679Y0032836D02*
X0212578Y0032836D01*
X0211855Y0032037D02*
X0127402Y0032037D01*
X0127733Y0031239D02*
X0211524Y0031239D01*
X0211194Y0030440D02*
X0128064Y0030440D01*
X0128232Y0029642D02*
X0211025Y0029642D01*
X0211025Y0028843D02*
X0128232Y0028843D01*
X0128232Y0028045D02*
X0211025Y0028045D01*
X0211224Y0027246D02*
X0128033Y0027246D01*
X0127702Y0026448D02*
X0211555Y0026448D01*
X0211886Y0025649D02*
X0127371Y0025649D01*
X0126604Y0024851D02*
X0212653Y0024851D01*
X0213451Y0024052D02*
X0125806Y0024052D01*
X0126261Y0023254D02*
X0212996Y0023254D01*
X0212198Y0022455D02*
X0127059Y0022455D01*
X0127560Y0021656D02*
X0211698Y0021656D01*
X0211367Y0020858D02*
X0127890Y0020858D01*
X0128221Y0020059D02*
X0211036Y0020059D01*
X0211025Y0019261D02*
X0128232Y0019261D01*
X0128232Y0018462D02*
X0211025Y0018462D01*
X0211051Y0017664D02*
X0128206Y0017664D01*
X0127875Y0016865D02*
X0211382Y0016865D01*
X0211713Y0016067D02*
X0127902Y0016067D01*
X0128701Y0015268D02*
X0212235Y0015268D01*
X0213033Y0014470D02*
X0129499Y0014470D01*
X0113058Y0024052D02*
X0111098Y0024052D01*
X0111896Y0023254D02*
X0112603Y0023254D01*
X0112259Y0024851D02*
X0110299Y0024851D01*
X0109501Y0025649D02*
X0111492Y0025649D01*
X0111162Y0026448D02*
X0109259Y0026448D01*
X0109259Y0027246D02*
X0110831Y0027246D01*
X0110632Y0028045D02*
X0109259Y0028045D01*
X0109259Y0028843D02*
X0110632Y0028843D01*
X0110632Y0029642D02*
X0109259Y0029642D01*
X0109259Y0030440D02*
X0110800Y0030440D01*
X0111131Y0031239D02*
X0109259Y0031239D01*
X0109259Y0032037D02*
X0111461Y0032037D01*
X0112185Y0032836D02*
X0109259Y0032836D01*
X0109259Y0033634D02*
X0112983Y0033634D01*
X0112677Y0034433D02*
X0109259Y0034433D01*
X0109259Y0035231D02*
X0111878Y0035231D01*
X0111335Y0036030D02*
X0109259Y0036030D01*
X0109259Y0036828D02*
X0111004Y0036828D01*
X0110673Y0037627D02*
X0109259Y0037627D01*
X0109259Y0038425D02*
X0110632Y0038425D01*
X0126447Y0123067D02*
X0128811Y0123067D01*
X0129609Y0123866D02*
X0125551Y0123866D01*
X0126418Y0124664D02*
X0130408Y0124664D01*
X0131206Y0125463D02*
X0127217Y0125463D01*
X0127625Y0126261D02*
X0132005Y0126261D01*
X0133279Y0127060D02*
X0127956Y0127060D01*
X0125641Y0143829D02*
X0213865Y0143829D01*
X0212876Y0144627D02*
X0126381Y0144627D01*
X0127180Y0145426D02*
X0212078Y0145426D01*
X0211648Y0146224D02*
X0127609Y0146224D01*
X0127940Y0147023D02*
X0211317Y0147023D01*
X0211025Y0147821D02*
X0128232Y0147821D01*
X0128232Y0148620D02*
X0211025Y0148620D01*
X0211025Y0149418D02*
X0128232Y0149418D01*
X0128156Y0150217D02*
X0211101Y0150217D01*
X0211432Y0151015D02*
X0127825Y0151015D01*
X0127495Y0151814D02*
X0211763Y0151814D01*
X0212355Y0152612D02*
X0126902Y0152612D01*
X0126104Y0153411D02*
X0213154Y0153411D01*
X0213294Y0154209D02*
X0125963Y0154209D01*
X0126762Y0155008D02*
X0212495Y0155008D01*
X0211821Y0155806D02*
X0127436Y0155806D01*
X0127767Y0156605D02*
X0211490Y0156605D01*
X0211159Y0157403D02*
X0128098Y0157403D01*
X0128232Y0158202D02*
X0211025Y0158202D01*
X0211025Y0159000D02*
X0128232Y0159000D01*
X0128232Y0159799D02*
X0211025Y0159799D01*
X0211259Y0160597D02*
X0127998Y0160597D01*
X0127668Y0161396D02*
X0211590Y0161396D01*
X0211937Y0162194D02*
X0127320Y0162194D01*
X0126521Y0162993D02*
X0212736Y0162993D01*
X0191300Y0142232D02*
X0181827Y0142232D01*
X0182626Y0141433D02*
X0190501Y0141433D01*
X0189703Y0140635D02*
X0183424Y0140635D01*
X0183493Y0139836D02*
X0189054Y0139836D01*
X0189054Y0139038D02*
X0183493Y0139038D01*
X0180849Y0133448D02*
X0213191Y0133448D01*
X0212522Y0139836D02*
X0197054Y0139836D01*
X0196405Y0140635D02*
X0212781Y0140635D01*
X0213242Y0141433D02*
X0195607Y0141433D01*
X0252753Y0190941D02*
X0288295Y0190941D01*
X0288510Y0191739D02*
X0252753Y0191739D01*
X0252753Y0192538D02*
X0288870Y0192538D01*
X0289409Y0193336D02*
X0252753Y0193336D01*
X0252753Y0194135D02*
X0290250Y0194135D01*
X0291732Y0194933D02*
X0252753Y0194933D01*
X0258447Y0201322D02*
X0318596Y0201322D01*
X0318594Y0202120D02*
X0259245Y0202120D01*
X0260044Y0202919D02*
X0318593Y0202919D01*
X0318591Y0203717D02*
X0260842Y0203717D01*
X0261328Y0204516D02*
X0318590Y0204516D01*
X0318588Y0205314D02*
X0261328Y0205314D01*
X0261328Y0206113D02*
X0318587Y0206113D01*
X0318585Y0206911D02*
X0261328Y0206911D01*
X0261328Y0207710D02*
X0318584Y0207710D01*
X0318583Y0208508D02*
X0261328Y0208508D01*
X0260697Y0209307D02*
X0318581Y0209307D01*
X0318580Y0210105D02*
X0259899Y0210105D01*
X0269610Y0210904D02*
X0318578Y0210904D01*
X0293847Y0194933D02*
X0293048Y0194933D01*
X0293048Y0194135D02*
X0293847Y0194135D01*
X0293847Y0193336D02*
X0293048Y0193336D01*
X0293048Y0192538D02*
X0293847Y0192538D01*
X0293847Y0191739D02*
X0293048Y0191739D01*
X0293048Y0190941D02*
X0293847Y0190941D01*
X0293847Y0188545D02*
X0293048Y0188545D01*
X0293048Y0187747D02*
X0293847Y0187747D01*
X0293847Y0186948D02*
X0293048Y0186948D01*
X0293048Y0186150D02*
X0293847Y0186150D01*
X0293847Y0185351D02*
X0293048Y0185351D01*
X0288280Y0138239D02*
X0318712Y0138239D01*
X0318714Y0137441D02*
X0289774Y0137441D01*
X0290573Y0136642D02*
X0318715Y0136642D01*
X0318717Y0135844D02*
X0291371Y0135844D01*
X0296102Y0135045D02*
X0318718Y0135045D01*
X0318720Y0134247D02*
X0297548Y0134247D01*
X0298347Y0133448D02*
X0318721Y0133448D01*
X0318723Y0132650D02*
X0299104Y0132650D01*
X0299435Y0131851D02*
X0318724Y0131851D01*
X0318726Y0131053D02*
X0299766Y0131053D01*
X0300086Y0130254D02*
X0318727Y0130254D01*
X0318729Y0129456D02*
X0300086Y0129456D01*
X0300086Y0128657D02*
X0318730Y0128657D01*
X0318732Y0127859D02*
X0300086Y0127859D01*
X0299846Y0127060D02*
X0318733Y0127060D01*
X0318735Y0126261D02*
X0299516Y0126261D01*
X0299185Y0125463D02*
X0318736Y0125463D01*
X0318738Y0124664D02*
X0298541Y0124664D01*
X0297743Y0123866D02*
X0318739Y0123866D01*
X0318740Y0123067D02*
X0296571Y0123067D01*
X0290324Y0123067D02*
X0270363Y0123067D01*
X0271194Y0122269D02*
X0318742Y0122269D01*
X0318743Y0121470D02*
X0271664Y0121470D01*
X0271926Y0120672D02*
X0318745Y0120672D01*
X0292050Y0115881D02*
X0291649Y0115881D01*
X0286823Y0111090D02*
X0273337Y0111090D01*
X0273416Y0110291D02*
X0286809Y0110291D01*
X0286809Y0109493D02*
X0273416Y0109493D01*
X0273392Y0108694D02*
X0286809Y0108694D01*
X0286833Y0107896D02*
X0273062Y0107896D01*
X0272731Y0107097D02*
X0287164Y0107097D01*
X0287494Y0106299D02*
X0272126Y0106299D01*
X0271328Y0105500D02*
X0287833Y0105500D01*
X0288631Y0104702D02*
X0270354Y0104702D01*
X0271575Y0103903D02*
X0289430Y0103903D01*
X0290924Y0082343D02*
X0227565Y0082343D01*
X0228000Y0081545D02*
X0289401Y0081545D01*
X0288602Y0080746D02*
X0228330Y0080746D01*
X0228625Y0079948D02*
X0287813Y0079948D01*
X0287482Y0079149D02*
X0228625Y0079149D01*
X0228625Y0078351D02*
X0230448Y0078351D01*
X0229245Y0077552D02*
X0228553Y0077552D01*
X0228446Y0076754D02*
X0228222Y0076754D01*
X0227994Y0075955D02*
X0227892Y0075955D01*
X0227663Y0075157D02*
X0227304Y0075157D01*
X0227416Y0074358D02*
X0226506Y0074358D01*
X0226348Y0073560D02*
X0227416Y0073560D01*
X0227416Y0072761D02*
X0227147Y0072761D01*
X0235016Y0067172D02*
X0235816Y0067172D01*
X0235816Y0066373D02*
X0235016Y0066373D01*
X0235016Y0065575D02*
X0235816Y0065575D01*
X0235816Y0064776D02*
X0235016Y0064776D01*
X0235016Y0063978D02*
X0235816Y0063978D01*
X0235816Y0061582D02*
X0235016Y0061582D01*
X0235016Y0060784D02*
X0235816Y0060784D01*
X0235816Y0059985D02*
X0235016Y0059985D01*
X0230857Y0059985D02*
X0228625Y0059985D01*
X0228625Y0059187D02*
X0259479Y0059187D01*
X0230538Y0058388D02*
X0228625Y0058388D01*
X0228569Y0057590D02*
X0229282Y0057590D01*
X0228484Y0056791D02*
X0228238Y0056791D01*
X0228009Y0055992D02*
X0227907Y0055992D01*
X0227678Y0055194D02*
X0227342Y0055194D01*
X0227416Y0054395D02*
X0226543Y0054395D01*
X0226311Y0053597D02*
X0227416Y0053597D01*
X0227416Y0052798D02*
X0227110Y0052798D01*
X0228315Y0060784D02*
X0229862Y0060784D01*
X0229278Y0061582D02*
X0227984Y0061582D01*
X0227528Y0062381D02*
X0228958Y0062381D01*
X0230985Y0084739D02*
X0226886Y0084739D01*
X0227685Y0085537D02*
X0229467Y0085537D01*
X0228669Y0086336D02*
X0228049Y0086336D01*
X0296642Y0062381D02*
X0318853Y0062381D01*
X0318854Y0061582D02*
X0297772Y0061582D01*
X0298570Y0060784D02*
X0318856Y0060784D01*
X0318857Y0059985D02*
X0299197Y0059985D01*
X0299528Y0059187D02*
X0318859Y0059187D01*
X0318860Y0058388D02*
X0299859Y0058388D01*
X0300086Y0057590D02*
X0318862Y0057590D01*
X0318863Y0056791D02*
X0300086Y0056791D01*
X0300086Y0055992D02*
X0318864Y0055992D01*
X0318866Y0055194D02*
X0300085Y0055194D01*
X0299754Y0054395D02*
X0318867Y0054395D01*
X0318869Y0053597D02*
X0299423Y0053597D01*
X0299092Y0052798D02*
X0318870Y0052798D01*
X0318872Y0052000D02*
X0298318Y0052000D01*
X0297519Y0051201D02*
X0318873Y0051201D01*
X0318875Y0050403D02*
X0296032Y0050403D01*
X0318912Y0030440D02*
X0252566Y0030440D01*
X0252566Y0029642D02*
X0318913Y0029642D01*
X0318915Y0028843D02*
X0252521Y0028843D01*
X0252190Y0028045D02*
X0318916Y0028045D01*
X0318918Y0027246D02*
X0251722Y0027246D01*
X0250924Y0026448D02*
X0318919Y0026448D01*
X0318921Y0025649D02*
X0250125Y0025649D01*
X0249327Y0024851D02*
X0318922Y0024851D01*
X0318923Y0024052D02*
X0248528Y0024052D01*
X0247730Y0023254D02*
X0318925Y0023254D01*
X0318926Y0022455D02*
X0246931Y0022455D01*
X0246133Y0021656D02*
X0318928Y0021656D01*
X0318929Y0020858D02*
X0245334Y0020858D01*
X0244535Y0020059D02*
X0318931Y0020059D01*
X0318932Y0019261D02*
X0243737Y0019261D01*
X0242938Y0018462D02*
X0318934Y0018462D01*
X0318935Y0017664D02*
X0242140Y0017664D01*
X0241341Y0016865D02*
X0318937Y0016865D01*
X0318938Y0016067D02*
X0240543Y0016067D01*
X0239744Y0015268D02*
X0318940Y0015268D01*
X0318941Y0014470D02*
X0238946Y0014470D01*
X0238147Y0013671D02*
X0318943Y0013671D01*
X0318944Y0012873D02*
X0237349Y0012873D01*
X0236550Y0012074D02*
X0318946Y0012074D01*
X0318947Y0011276D02*
X0235752Y0011276D01*
X0234953Y0010477D02*
X0318949Y0010477D01*
X0318950Y0009679D02*
X0234155Y0009679D01*
X0233356Y0008880D02*
X0318952Y0008880D01*
X0318953Y0008082D02*
X0232558Y0008082D01*
D19*
X0228881Y0010061D02*
X0128251Y0010061D01*
X0119432Y0018880D01*
X0110613Y0018880D01*
X0105259Y0024235D01*
X0105259Y0151400D01*
X0090998Y0165661D01*
X0087148Y0165661D01*
X0087148Y0067061D02*
X0073211Y0053124D01*
X0073211Y0051557D01*
X0073211Y0031557D01*
X0228881Y0010061D02*
X0248566Y0029746D01*
X0248566Y0048644D01*
X0243723Y0053487D01*
X0235416Y0053487D01*
M02*
