G75*
%MOIN*%
%OFA0B0*%
%FSLAX25Y25*%
%IPPOS*%
%LPD*%
%AMOC8*
5,1,8,0,0,1.08239X$1,22.5*
%
%ADD10C,0.26391*%
%ADD11C,0.06000*%
%ADD12C,0.06800*%
%ADD13C,0.08477*%
%ADD14OC8,0.06000*%
%ADD15C,0.10800*%
%ADD16OC8,0.07100*%
%ADD17C,0.07100*%
%ADD18C,0.08200*%
D10*
X0021285Y0021085D03*
X0021285Y0215573D03*
X0319710Y0215573D03*
X0319710Y0021085D03*
D11*
X0277743Y0054117D02*
X0272543Y0054117D01*
X0272543Y0064117D02*
X0277743Y0064117D01*
X0277743Y0074117D02*
X0272543Y0074117D01*
X0272543Y0084117D02*
X0277743Y0084117D01*
X0277743Y0100455D02*
X0272543Y0100455D01*
X0272543Y0110455D02*
X0277743Y0110455D01*
X0277743Y0120455D02*
X0272543Y0120455D01*
X0272543Y0130455D02*
X0277743Y0130455D01*
X0277743Y0140455D02*
X0272543Y0140455D01*
X0272543Y0150455D02*
X0277743Y0150455D01*
X0277743Y0160455D02*
X0272543Y0160455D01*
X0247743Y0160455D02*
X0242543Y0160455D01*
X0242543Y0150455D02*
X0247743Y0150455D01*
X0247743Y0140455D02*
X0242543Y0140455D01*
X0242543Y0130455D02*
X0247743Y0130455D01*
X0247743Y0120455D02*
X0242543Y0120455D01*
X0242543Y0110455D02*
X0247743Y0110455D01*
X0247743Y0100455D02*
X0242543Y0100455D01*
X0242543Y0084117D02*
X0247743Y0084117D01*
X0247743Y0074117D02*
X0242543Y0074117D01*
X0242543Y0064117D02*
X0247743Y0064117D01*
X0247743Y0054117D02*
X0242543Y0054117D01*
X0102939Y0059587D02*
X0102939Y0064787D01*
X0092939Y0064787D02*
X0092939Y0059587D01*
X0082939Y0059587D02*
X0082939Y0064787D01*
X0082939Y0044787D02*
X0082939Y0039587D01*
X0092939Y0039587D02*
X0092939Y0044787D01*
X0102939Y0044787D02*
X0102939Y0039587D01*
D12*
X0126159Y0039510D02*
X0132159Y0039510D01*
X0132159Y0029510D02*
X0126159Y0029510D01*
X0126159Y0049510D02*
X0132159Y0049510D01*
X0132159Y0059510D02*
X0126159Y0059510D01*
X0126159Y0069510D02*
X0132159Y0069510D01*
X0132159Y0079510D02*
X0126159Y0079510D01*
X0126159Y0089510D02*
X0132159Y0089510D01*
X0132159Y0099510D02*
X0126159Y0099510D01*
X0126159Y0109510D02*
X0132159Y0109510D01*
X0132159Y0119510D02*
X0126159Y0119510D01*
X0126159Y0129510D02*
X0132159Y0129510D01*
X0132159Y0139510D02*
X0126159Y0139510D01*
X0126159Y0149510D02*
X0132159Y0149510D01*
X0132159Y0159510D02*
X0126159Y0159510D01*
X0126159Y0169510D02*
X0132159Y0169510D01*
X0132159Y0179510D02*
X0126159Y0179510D01*
X0126159Y0189510D02*
X0132159Y0189510D01*
X0132159Y0199510D02*
X0126159Y0199510D01*
X0126159Y0209510D02*
X0132159Y0209510D01*
X0226553Y0209510D02*
X0232553Y0209510D01*
X0232553Y0199510D02*
X0226553Y0199510D01*
X0226553Y0189510D02*
X0232553Y0189510D01*
X0232553Y0179510D02*
X0226553Y0179510D01*
X0226553Y0169510D02*
X0232553Y0169510D01*
X0232553Y0159510D02*
X0226553Y0159510D01*
X0226553Y0149510D02*
X0232553Y0149510D01*
X0232553Y0139510D02*
X0226553Y0139510D01*
X0226553Y0129510D02*
X0232553Y0129510D01*
X0232553Y0119510D02*
X0226553Y0119510D01*
X0226553Y0109510D02*
X0232553Y0109510D01*
X0232553Y0099510D02*
X0226553Y0099510D01*
X0226553Y0089510D02*
X0232553Y0089510D01*
X0232553Y0079510D02*
X0226553Y0079510D01*
X0226553Y0069510D02*
X0232553Y0069510D01*
X0232553Y0059510D02*
X0226553Y0059510D01*
X0226553Y0049510D02*
X0232553Y0049510D01*
X0232553Y0039510D02*
X0226553Y0039510D01*
X0226553Y0029510D02*
X0232553Y0029510D01*
X0035466Y0084707D02*
X0029466Y0084707D01*
X0029466Y0094707D02*
X0035466Y0094707D01*
X0035466Y0104707D02*
X0029466Y0104707D01*
D13*
X0040380Y0132896D03*
X0040380Y0152581D03*
X0041167Y0051321D03*
X0060852Y0051321D03*
X0303175Y0051400D03*
X0303175Y0071085D03*
X0303175Y0090770D03*
X0303175Y0119904D03*
X0303175Y0139589D03*
X0303175Y0164786D03*
X0303175Y0184471D03*
D14*
X0265655Y0177069D03*
X0248569Y0177069D03*
X0202781Y0148959D03*
X0187820Y0148959D03*
X0187820Y0108959D03*
X0202781Y0108959D03*
X0248569Y0217069D03*
X0265655Y0217069D03*
X0129474Y0224235D03*
X0089474Y0224235D03*
D15*
X0091876Y0176291D02*
X0101876Y0176291D01*
X0101876Y0077691D02*
X0091876Y0077691D01*
D16*
X0062899Y0085258D03*
X0063293Y0109668D03*
D17*
X0053293Y0109668D03*
X0052899Y0085258D03*
D18*
X0103293Y0205731D03*
X0113293Y0205731D03*
M02*
