G75*
%MOIN*%
%OFA0B0*%
%FSLAX25Y25*%
%IPPOS*%
%LPD*%
%AMOC8*
5,1,8,0,0,1.08239X$1,22.5*
%
%ADD10C,0.05200*%
%ADD11C,0.06000*%
%ADD12C,0.07677*%
%ADD13OC8,0.05200*%
%ADD14C,0.10000*%
%ADD15OC8,0.06300*%
%ADD16C,0.06300*%
%ADD17C,0.07400*%
%ADD18C,0.01200*%
%ADD19C,0.02400*%
D10*
X0082939Y0039587D02*
X0082939Y0044787D01*
X0092939Y0044787D02*
X0092939Y0039587D01*
X0102939Y0039587D02*
X0102939Y0044787D01*
X0102939Y0059587D02*
X0102939Y0064787D01*
X0092939Y0064787D02*
X0092939Y0059587D01*
X0082939Y0059587D02*
X0082939Y0064787D01*
X0242543Y0064117D02*
X0247743Y0064117D01*
X0247743Y0054117D02*
X0242543Y0054117D01*
X0272543Y0054117D02*
X0277743Y0054117D01*
X0277743Y0064117D02*
X0272543Y0064117D01*
X0272543Y0074117D02*
X0277743Y0074117D01*
X0277743Y0084117D02*
X0272543Y0084117D01*
X0272543Y0100455D02*
X0277743Y0100455D01*
X0277743Y0110455D02*
X0272543Y0110455D01*
X0272543Y0120455D02*
X0277743Y0120455D01*
X0277743Y0130455D02*
X0272543Y0130455D01*
X0272543Y0140455D02*
X0277743Y0140455D01*
X0277743Y0150455D02*
X0272543Y0150455D01*
X0272543Y0160455D02*
X0277743Y0160455D01*
X0247743Y0160455D02*
X0242543Y0160455D01*
X0242543Y0150455D02*
X0247743Y0150455D01*
X0247743Y0140455D02*
X0242543Y0140455D01*
X0242543Y0130455D02*
X0247743Y0130455D01*
X0247743Y0120455D02*
X0242543Y0120455D01*
X0242543Y0110455D02*
X0247743Y0110455D01*
X0247743Y0100455D02*
X0242543Y0100455D01*
X0242543Y0084117D02*
X0247743Y0084117D01*
X0247743Y0074117D02*
X0242543Y0074117D01*
D11*
X0232553Y0069510D02*
X0226553Y0069510D01*
X0226553Y0059510D02*
X0232553Y0059510D01*
X0232553Y0049510D02*
X0226553Y0049510D01*
X0226553Y0039510D02*
X0232553Y0039510D01*
X0232553Y0029510D02*
X0226553Y0029510D01*
X0226553Y0079510D02*
X0232553Y0079510D01*
X0232553Y0089510D02*
X0226553Y0089510D01*
X0226553Y0099510D02*
X0232553Y0099510D01*
X0232553Y0109510D02*
X0226553Y0109510D01*
X0226553Y0119510D02*
X0232553Y0119510D01*
X0232553Y0129510D02*
X0226553Y0129510D01*
X0226553Y0139510D02*
X0232553Y0139510D01*
X0232553Y0149510D02*
X0226553Y0149510D01*
X0226553Y0159510D02*
X0232553Y0159510D01*
X0232553Y0169510D02*
X0226553Y0169510D01*
X0226553Y0179510D02*
X0232553Y0179510D01*
X0232553Y0189510D02*
X0226553Y0189510D01*
X0226553Y0199510D02*
X0232553Y0199510D01*
X0232553Y0209510D02*
X0226553Y0209510D01*
X0132159Y0209510D02*
X0126159Y0209510D01*
X0126159Y0199510D02*
X0132159Y0199510D01*
X0132159Y0189510D02*
X0126159Y0189510D01*
X0126159Y0179510D02*
X0132159Y0179510D01*
X0132159Y0169510D02*
X0126159Y0169510D01*
X0126159Y0159510D02*
X0132159Y0159510D01*
X0132159Y0149510D02*
X0126159Y0149510D01*
X0126159Y0139510D02*
X0132159Y0139510D01*
X0132159Y0129510D02*
X0126159Y0129510D01*
X0126159Y0119510D02*
X0132159Y0119510D01*
X0132159Y0109510D02*
X0126159Y0109510D01*
X0126159Y0099510D02*
X0132159Y0099510D01*
X0132159Y0089510D02*
X0126159Y0089510D01*
X0126159Y0079510D02*
X0132159Y0079510D01*
X0132159Y0069510D02*
X0126159Y0069510D01*
X0126159Y0059510D02*
X0132159Y0059510D01*
X0132159Y0049510D02*
X0126159Y0049510D01*
X0126159Y0039510D02*
X0132159Y0039510D01*
X0132159Y0029510D02*
X0126159Y0029510D01*
X0035466Y0084707D02*
X0029466Y0084707D01*
X0029466Y0094707D02*
X0035466Y0094707D01*
X0035466Y0104707D02*
X0029466Y0104707D01*
D12*
X0040380Y0132896D03*
X0040380Y0152581D03*
X0041167Y0051321D03*
X0060852Y0051321D03*
X0303175Y0051400D03*
X0303175Y0071085D03*
X0303175Y0090770D03*
X0303175Y0119904D03*
X0303175Y0139589D03*
X0303175Y0164786D03*
X0303175Y0184471D03*
D13*
X0265655Y0177069D03*
X0248569Y0177069D03*
X0202781Y0148959D03*
X0187820Y0148959D03*
X0187820Y0108959D03*
X0202781Y0108959D03*
X0248569Y0217069D03*
X0265655Y0217069D03*
X0129474Y0224235D03*
X0089474Y0224235D03*
D14*
X0091876Y0176291D02*
X0101876Y0176291D01*
X0101876Y0077691D02*
X0091876Y0077691D01*
D15*
X0062899Y0085258D03*
X0063293Y0109668D03*
D16*
X0053293Y0109668D03*
X0052899Y0085258D03*
D17*
X0103293Y0205731D03*
X0113293Y0205731D03*
D18*
X0030815Y0006501D02*
X0308722Y0007472D01*
X0305791Y0010404D01*
X0303500Y0014371D01*
X0302315Y0018795D01*
X0302315Y0023375D01*
X0303500Y0027799D01*
X0305791Y0031766D01*
X0309029Y0035005D01*
X0312996Y0037295D01*
X0317420Y0038480D01*
X0322000Y0038480D01*
X0326425Y0037295D01*
X0330391Y0035005D01*
X0333630Y0031766D01*
X0334743Y0029838D01*
X0334446Y0206306D01*
X0333630Y0204892D01*
X0330391Y0201654D01*
X0326425Y0199363D01*
X0322000Y0198178D01*
X0317420Y0198178D01*
X0312996Y0199363D01*
X0309029Y0201654D01*
X0305791Y0204892D01*
X0303500Y0208859D01*
X0302315Y0213283D01*
X0302315Y0217863D01*
X0303500Y0222288D01*
X0305791Y0226254D01*
X0309029Y0229493D01*
X0312236Y0231344D01*
X0030466Y0230359D01*
X0031966Y0229493D01*
X0035205Y0226254D01*
X0037495Y0222288D01*
X0038680Y0217863D01*
X0038680Y0213283D01*
X0037495Y0208859D01*
X0035205Y0204892D01*
X0031966Y0201654D01*
X0027999Y0199363D01*
X0023575Y0198178D01*
X0018995Y0198178D01*
X0014571Y0199363D01*
X0010604Y0201654D01*
X0007365Y0204892D01*
X0006649Y0206133D01*
X0006944Y0031036D01*
X0007365Y0031766D01*
X0010604Y0035005D01*
X0014571Y0037295D01*
X0018995Y0038480D01*
X0023575Y0038480D01*
X0027999Y0037295D01*
X0031966Y0035005D01*
X0035205Y0031766D01*
X0037495Y0027799D01*
X0038680Y0023375D01*
X0038680Y0018795D01*
X0037495Y0014371D01*
X0035205Y0010404D01*
X0031966Y0007165D01*
X0030815Y0006501D01*
X0032326Y0007525D02*
X0308670Y0007525D01*
X0307471Y0008724D02*
X0033524Y0008724D01*
X0034723Y0009922D02*
X0306272Y0009922D01*
X0305377Y0011121D02*
X0035618Y0011121D01*
X0036310Y0012319D02*
X0304685Y0012319D01*
X0303993Y0013518D02*
X0037002Y0013518D01*
X0037587Y0014716D02*
X0303408Y0014716D01*
X0303087Y0015915D02*
X0037909Y0015915D01*
X0038230Y0017113D02*
X0302766Y0017113D01*
X0302444Y0018312D02*
X0240471Y0018312D01*
X0240307Y0018148D02*
X0241151Y0018992D01*
X0260836Y0038677D01*
X0261293Y0039780D01*
X0261293Y0059871D01*
X0260836Y0060973D01*
X0259992Y0061817D01*
X0255150Y0066660D01*
X0254047Y0067117D01*
X0250966Y0067117D01*
X0250236Y0067847D01*
X0248619Y0068517D01*
X0241668Y0068517D01*
X0240051Y0067847D01*
X0238813Y0066609D01*
X0238143Y0064992D01*
X0238143Y0063241D01*
X0238813Y0061624D01*
X0240051Y0060386D01*
X0241668Y0059717D01*
X0248619Y0059717D01*
X0250236Y0060386D01*
X0250966Y0061117D01*
X0252208Y0061117D01*
X0255293Y0058031D01*
X0255293Y0041619D01*
X0237365Y0023691D01*
X0139221Y0023691D01*
X0136174Y0026737D01*
X0136228Y0026791D01*
X0136959Y0028555D01*
X0136959Y0030465D01*
X0136228Y0032229D01*
X0134878Y0033579D01*
X0133114Y0034310D01*
X0125204Y0034310D01*
X0123440Y0033579D01*
X0122371Y0032510D01*
X0121583Y0032510D01*
X0117986Y0036107D01*
X0117986Y0162627D01*
X0117529Y0163729D01*
X0107986Y0173273D01*
X0108676Y0174938D01*
X0108676Y0177643D01*
X0107640Y0180142D01*
X0105727Y0182055D01*
X0103228Y0183091D01*
X0090523Y0183091D01*
X0088024Y0182055D01*
X0086111Y0180142D01*
X0085076Y0177643D01*
X0085076Y0174938D01*
X0086111Y0172439D01*
X0088024Y0170526D01*
X0090523Y0169491D01*
X0103228Y0169491D01*
X0103267Y0169506D01*
X0111986Y0160787D01*
X0111986Y0034268D01*
X0112443Y0033165D01*
X0118641Y0026967D01*
X0119743Y0026510D01*
X0122371Y0026510D01*
X0123440Y0025441D01*
X0125204Y0024710D01*
X0129716Y0024710D01*
X0135435Y0018992D01*
X0136279Y0018148D01*
X0137381Y0017691D01*
X0239205Y0017691D01*
X0240307Y0018148D01*
X0241669Y0019510D02*
X0302315Y0019510D01*
X0302315Y0020709D02*
X0242868Y0020709D01*
X0244066Y0021907D02*
X0302315Y0021907D01*
X0302315Y0023106D02*
X0245265Y0023106D01*
X0246463Y0024304D02*
X0302564Y0024304D01*
X0302885Y0025503D02*
X0247662Y0025503D01*
X0248860Y0026701D02*
X0303206Y0026701D01*
X0303558Y0027900D02*
X0250059Y0027900D01*
X0251258Y0029098D02*
X0304250Y0029098D01*
X0304942Y0030297D02*
X0252456Y0030297D01*
X0253655Y0031495D02*
X0305634Y0031495D01*
X0306718Y0032694D02*
X0254853Y0032694D01*
X0256052Y0033892D02*
X0307917Y0033892D01*
X0309179Y0035091D02*
X0257250Y0035091D01*
X0258449Y0036289D02*
X0311254Y0036289D01*
X0313716Y0037488D02*
X0259647Y0037488D01*
X0260840Y0038686D02*
X0334728Y0038686D01*
X0334730Y0037488D02*
X0325704Y0037488D01*
X0328166Y0036289D02*
X0334732Y0036289D01*
X0334734Y0035091D02*
X0330242Y0035091D01*
X0331504Y0033892D02*
X0334736Y0033892D01*
X0334738Y0032694D02*
X0332702Y0032694D01*
X0333786Y0031495D02*
X0334740Y0031495D01*
X0334742Y0030297D02*
X0334478Y0030297D01*
X0334726Y0039885D02*
X0261293Y0039885D01*
X0261293Y0041083D02*
X0334724Y0041083D01*
X0334722Y0042282D02*
X0261293Y0042282D01*
X0261293Y0043480D02*
X0334720Y0043480D01*
X0334718Y0044679D02*
X0261293Y0044679D01*
X0261293Y0045877D02*
X0334716Y0045877D01*
X0334714Y0047076D02*
X0306476Y0047076D01*
X0306718Y0047252D02*
X0307323Y0047857D01*
X0307826Y0048550D01*
X0308215Y0049312D01*
X0308479Y0050126D01*
X0308586Y0050800D01*
X0303775Y0050800D01*
X0303775Y0052000D01*
X0308586Y0052000D01*
X0308479Y0052674D01*
X0308215Y0053488D01*
X0307826Y0054250D01*
X0307323Y0054943D01*
X0306718Y0055548D01*
X0306025Y0056051D01*
X0305262Y0056440D01*
X0304448Y0056705D01*
X0303775Y0056811D01*
X0303775Y0052000D01*
X0302575Y0052000D01*
X0302575Y0056811D01*
X0301901Y0056705D01*
X0301087Y0056440D01*
X0300324Y0056051D01*
X0299632Y0055548D01*
X0299026Y0054943D01*
X0298523Y0054250D01*
X0298135Y0053488D01*
X0297870Y0052674D01*
X0297763Y0052000D01*
X0302575Y0052000D01*
X0302575Y0050800D01*
X0303775Y0050800D01*
X0303775Y0045989D01*
X0304448Y0046095D01*
X0305262Y0046360D01*
X0306025Y0046749D01*
X0306718Y0047252D01*
X0307626Y0048275D02*
X0334712Y0048275D01*
X0334710Y0049473D02*
X0308267Y0049473D01*
X0308566Y0050672D02*
X0334708Y0050672D01*
X0334706Y0051870D02*
X0303775Y0051870D01*
X0303775Y0050672D02*
X0302575Y0050672D01*
X0302575Y0050800D02*
X0302575Y0045989D01*
X0301901Y0046095D01*
X0301087Y0046360D01*
X0300324Y0046749D01*
X0299632Y0047252D01*
X0299026Y0047857D01*
X0298523Y0048550D01*
X0298135Y0049312D01*
X0297870Y0050126D01*
X0297763Y0050800D01*
X0302575Y0050800D01*
X0302575Y0051870D02*
X0281575Y0051870D01*
X0281473Y0051624D02*
X0282143Y0053241D01*
X0282143Y0054992D01*
X0281473Y0056609D01*
X0280236Y0057847D01*
X0278619Y0058517D01*
X0271668Y0058517D01*
X0270051Y0057847D01*
X0268813Y0056609D01*
X0268143Y0054992D01*
X0268143Y0053241D01*
X0268813Y0051624D01*
X0270051Y0050386D01*
X0271668Y0049717D01*
X0278619Y0049717D01*
X0280236Y0050386D01*
X0281473Y0051624D01*
X0280521Y0050672D02*
X0297784Y0050672D01*
X0298082Y0049473D02*
X0261293Y0049473D01*
X0261293Y0048275D02*
X0298723Y0048275D01*
X0299874Y0047076D02*
X0261293Y0047076D01*
X0261293Y0050672D02*
X0269766Y0050672D01*
X0268711Y0051870D02*
X0261293Y0051870D01*
X0261293Y0053069D02*
X0268215Y0053069D01*
X0268143Y0054267D02*
X0261293Y0054267D01*
X0261293Y0055466D02*
X0268340Y0055466D01*
X0268868Y0056664D02*
X0261293Y0056664D01*
X0261293Y0057863D02*
X0270089Y0057863D01*
X0270357Y0060260D02*
X0261132Y0060260D01*
X0261293Y0059061D02*
X0334694Y0059061D01*
X0334696Y0057863D02*
X0280197Y0057863D01*
X0281418Y0056664D02*
X0301776Y0056664D01*
X0302575Y0056664D02*
X0303775Y0056664D01*
X0304573Y0056664D02*
X0334698Y0056664D01*
X0334700Y0055466D02*
X0306801Y0055466D01*
X0307814Y0054267D02*
X0334702Y0054267D01*
X0334704Y0053069D02*
X0308351Y0053069D01*
X0303775Y0053069D02*
X0302575Y0053069D01*
X0302575Y0054267D02*
X0303775Y0054267D01*
X0303775Y0055466D02*
X0302575Y0055466D01*
X0299549Y0055466D02*
X0281947Y0055466D01*
X0282143Y0054267D02*
X0298535Y0054267D01*
X0297998Y0053069D02*
X0282072Y0053069D01*
X0278619Y0059717D02*
X0271668Y0059717D01*
X0270051Y0060386D01*
X0268813Y0061624D01*
X0268143Y0063241D01*
X0268143Y0064992D01*
X0268813Y0066609D01*
X0270051Y0067847D01*
X0271668Y0068517D01*
X0278619Y0068517D01*
X0280236Y0067847D01*
X0281473Y0066609D01*
X0282143Y0064992D01*
X0282143Y0063241D01*
X0281473Y0061624D01*
X0280236Y0060386D01*
X0278619Y0059717D01*
X0279930Y0060260D02*
X0334692Y0060260D01*
X0334690Y0061458D02*
X0281307Y0061458D01*
X0281901Y0062657D02*
X0334688Y0062657D01*
X0334686Y0063855D02*
X0282143Y0063855D01*
X0282118Y0065054D02*
X0334684Y0065054D01*
X0334682Y0066252D02*
X0306242Y0066252D01*
X0306369Y0066305D02*
X0307955Y0067891D01*
X0308813Y0069963D01*
X0308813Y0072207D01*
X0307955Y0074279D01*
X0306369Y0075865D01*
X0304296Y0076724D01*
X0302053Y0076724D01*
X0299981Y0075865D01*
X0298395Y0074279D01*
X0297536Y0072207D01*
X0297536Y0069963D01*
X0298395Y0067891D01*
X0299981Y0066305D01*
X0302053Y0065446D01*
X0304296Y0065446D01*
X0306369Y0066305D01*
X0307515Y0067451D02*
X0334680Y0067451D01*
X0334678Y0068649D02*
X0308269Y0068649D01*
X0308765Y0069848D02*
X0334676Y0069848D01*
X0334674Y0071046D02*
X0308813Y0071046D01*
X0308798Y0072245D02*
X0334672Y0072245D01*
X0334670Y0073443D02*
X0308301Y0073443D01*
X0307592Y0074642D02*
X0334668Y0074642D01*
X0334666Y0075840D02*
X0306394Y0075840D01*
X0299956Y0075840D02*
X0281792Y0075840D01*
X0281473Y0076609D02*
X0282143Y0074992D01*
X0282143Y0073241D01*
X0281473Y0071624D01*
X0280236Y0070386D01*
X0278619Y0069717D01*
X0271668Y0069717D01*
X0270051Y0070386D01*
X0268813Y0071624D01*
X0268143Y0073241D01*
X0268143Y0074992D01*
X0268813Y0076609D01*
X0270051Y0077847D01*
X0271668Y0078517D01*
X0278619Y0078517D01*
X0280236Y0077847D01*
X0281473Y0076609D01*
X0281044Y0077039D02*
X0334664Y0077039D01*
X0334662Y0078237D02*
X0279293Y0078237D01*
X0278727Y0080020D02*
X0279356Y0080224D01*
X0279945Y0080524D01*
X0280479Y0080913D01*
X0280947Y0081380D01*
X0281335Y0081915D01*
X0281636Y0082504D01*
X0281840Y0083133D01*
X0281943Y0083786D01*
X0281943Y0083917D01*
X0275343Y0083917D01*
X0275343Y0084317D01*
X0274943Y0084317D01*
X0274943Y0088317D01*
X0272213Y0088317D01*
X0271560Y0088213D01*
X0270931Y0088009D01*
X0270342Y0087709D01*
X0269807Y0087320D01*
X0269340Y0086853D01*
X0268951Y0086318D01*
X0268651Y0085729D01*
X0268447Y0085100D01*
X0268343Y0084447D01*
X0268343Y0084317D01*
X0274943Y0084317D01*
X0274943Y0083917D01*
X0268343Y0083917D01*
X0268343Y0083786D01*
X0268447Y0083133D01*
X0268651Y0082504D01*
X0268951Y0081915D01*
X0269340Y0081380D01*
X0269807Y0080913D01*
X0270342Y0080524D01*
X0270931Y0080224D01*
X0271560Y0080020D01*
X0272213Y0079917D01*
X0274943Y0079917D01*
X0274943Y0083916D01*
X0275343Y0083916D01*
X0275343Y0079917D01*
X0278074Y0079917D01*
X0278727Y0080020D01*
X0280096Y0080634D02*
X0334658Y0080634D01*
X0334660Y0079436D02*
X0237353Y0079436D01*
X0237353Y0078555D02*
X0237353Y0080465D01*
X0236622Y0082229D01*
X0235272Y0083579D01*
X0233508Y0084310D01*
X0225598Y0084310D01*
X0223834Y0083579D01*
X0222484Y0082229D01*
X0221753Y0080465D01*
X0221753Y0078555D01*
X0222484Y0076791D01*
X0223834Y0075441D01*
X0225598Y0074710D01*
X0233508Y0074710D01*
X0235272Y0075441D01*
X0236622Y0076791D01*
X0237353Y0078555D01*
X0237221Y0078237D02*
X0241713Y0078237D01*
X0241560Y0078213D02*
X0240931Y0078009D01*
X0240342Y0077709D01*
X0239807Y0077320D01*
X0239340Y0076853D01*
X0238951Y0076318D01*
X0238651Y0075729D01*
X0238447Y0075100D01*
X0238343Y0074447D01*
X0238343Y0074317D01*
X0244943Y0074317D01*
X0244943Y0078317D01*
X0242213Y0078317D01*
X0241560Y0078213D01*
X0241668Y0079717D02*
X0248619Y0079717D01*
X0250236Y0080386D01*
X0251473Y0081624D01*
X0252143Y0083241D01*
X0252143Y0084992D01*
X0251473Y0086609D01*
X0250236Y0087847D01*
X0248619Y0088517D01*
X0241668Y0088517D01*
X0240051Y0087847D01*
X0238813Y0086609D01*
X0238143Y0084992D01*
X0238143Y0083241D01*
X0238813Y0081624D01*
X0240051Y0080386D01*
X0241668Y0079717D01*
X0239803Y0080634D02*
X0237283Y0080634D01*
X0236786Y0081833D02*
X0238727Y0081833D01*
X0238230Y0083031D02*
X0235820Y0083031D01*
X0233702Y0084230D02*
X0238143Y0084230D01*
X0238324Y0085428D02*
X0235241Y0085428D01*
X0235272Y0085441D02*
X0236622Y0086791D01*
X0237353Y0088555D01*
X0237353Y0090465D01*
X0236622Y0092229D01*
X0235272Y0093579D01*
X0233508Y0094310D01*
X0225598Y0094310D01*
X0223834Y0093579D01*
X0222484Y0092229D01*
X0221753Y0090465D01*
X0221753Y0088555D01*
X0222484Y0086791D01*
X0223834Y0085441D01*
X0225598Y0084710D01*
X0233508Y0084710D01*
X0235272Y0085441D01*
X0236458Y0086627D02*
X0238831Y0086627D01*
X0240030Y0087825D02*
X0237050Y0087825D01*
X0237353Y0089024D02*
X0297795Y0089024D01*
X0297536Y0089648D02*
X0298395Y0087576D01*
X0299981Y0085990D01*
X0302053Y0085131D01*
X0304296Y0085131D01*
X0306369Y0085990D01*
X0307955Y0087576D01*
X0308813Y0089648D01*
X0308813Y0091892D01*
X0307955Y0093964D01*
X0306369Y0095550D01*
X0304296Y0096409D01*
X0302053Y0096409D01*
X0299981Y0095550D01*
X0298395Y0093964D01*
X0297536Y0091892D01*
X0297536Y0089648D01*
X0297536Y0090222D02*
X0237353Y0090222D01*
X0236957Y0091421D02*
X0297536Y0091421D01*
X0297838Y0092619D02*
X0236232Y0092619D01*
X0234696Y0093818D02*
X0298334Y0093818D01*
X0299447Y0095016D02*
X0234247Y0095016D01*
X0233508Y0094710D02*
X0235272Y0095441D01*
X0236622Y0096791D01*
X0237353Y0098555D01*
X0237353Y0100465D01*
X0236622Y0102229D01*
X0235272Y0103579D01*
X0233508Y0104310D01*
X0225598Y0104310D01*
X0223834Y0103579D01*
X0222484Y0102229D01*
X0221753Y0100465D01*
X0221753Y0098555D01*
X0222484Y0096791D01*
X0223834Y0095441D01*
X0225598Y0094710D01*
X0233508Y0094710D01*
X0236046Y0096215D02*
X0241282Y0096215D01*
X0241668Y0096055D02*
X0248619Y0096055D01*
X0250236Y0096725D01*
X0251473Y0097963D01*
X0252143Y0099580D01*
X0252143Y0101330D01*
X0251473Y0102948D01*
X0250236Y0104185D01*
X0248619Y0104855D01*
X0241668Y0104855D01*
X0240051Y0104185D01*
X0238813Y0102948D01*
X0238143Y0101330D01*
X0238143Y0099580D01*
X0238813Y0097963D01*
X0240051Y0096725D01*
X0241668Y0096055D01*
X0239362Y0097413D02*
X0236880Y0097413D01*
X0237353Y0098612D02*
X0238544Y0098612D01*
X0238143Y0099810D02*
X0237353Y0099810D01*
X0237127Y0101009D02*
X0238143Y0101009D01*
X0238507Y0102208D02*
X0236631Y0102208D01*
X0235445Y0103406D02*
X0239272Y0103406D01*
X0241063Y0104605D02*
X0204649Y0104605D01*
X0204604Y0104559D02*
X0207181Y0107137D01*
X0207181Y0110782D01*
X0204604Y0113359D01*
X0200959Y0113359D01*
X0198381Y0110782D01*
X0198381Y0107137D01*
X0200959Y0104559D01*
X0204604Y0104559D01*
X0205848Y0105803D02*
X0223472Y0105803D01*
X0223834Y0105441D02*
X0225598Y0104710D01*
X0233508Y0104710D01*
X0235272Y0105441D01*
X0236622Y0106791D01*
X0237353Y0108555D01*
X0237353Y0110465D01*
X0236622Y0112229D01*
X0235272Y0113579D01*
X0233508Y0114310D01*
X0225598Y0114310D01*
X0223834Y0113579D01*
X0222484Y0112229D01*
X0221753Y0110465D01*
X0221753Y0108555D01*
X0222484Y0106791D01*
X0223834Y0105441D01*
X0223660Y0103406D02*
X0135051Y0103406D01*
X0134878Y0103579D02*
X0133114Y0104310D01*
X0125204Y0104310D01*
X0123440Y0103579D01*
X0122090Y0102229D01*
X0121359Y0100465D01*
X0121359Y0098555D01*
X0122090Y0096791D01*
X0123440Y0095441D01*
X0125204Y0094710D01*
X0133114Y0094710D01*
X0134878Y0095441D01*
X0136228Y0096791D01*
X0136959Y0098555D01*
X0136959Y0100465D01*
X0136228Y0102229D01*
X0134878Y0103579D01*
X0134878Y0105441D02*
X0133114Y0104710D01*
X0125204Y0104710D01*
X0123440Y0105441D01*
X0122090Y0106791D01*
X0121359Y0108555D01*
X0121359Y0110465D01*
X0122090Y0112229D01*
X0123440Y0113579D01*
X0125204Y0114310D01*
X0133114Y0114310D01*
X0134878Y0113579D01*
X0136228Y0112229D01*
X0136959Y0110465D01*
X0136959Y0108555D01*
X0136228Y0106791D01*
X0134878Y0105441D01*
X0135240Y0105803D02*
X0184754Y0105803D01*
X0185952Y0104605D02*
X0117986Y0104605D01*
X0117986Y0105803D02*
X0123078Y0105803D01*
X0122003Y0107002D02*
X0117986Y0107002D01*
X0117986Y0108200D02*
X0121506Y0108200D01*
X0121359Y0109399D02*
X0117986Y0109399D01*
X0117986Y0110597D02*
X0121414Y0110597D01*
X0121910Y0111796D02*
X0117986Y0111796D01*
X0117986Y0112994D02*
X0122855Y0112994D01*
X0124920Y0114193D02*
X0117986Y0114193D01*
X0117986Y0115391D02*
X0123560Y0115391D01*
X0123440Y0115441D02*
X0125204Y0114710D01*
X0133114Y0114710D01*
X0134878Y0115441D01*
X0136228Y0116791D01*
X0136959Y0118555D01*
X0136959Y0120465D01*
X0136228Y0122229D01*
X0134878Y0123579D01*
X0133114Y0124310D01*
X0125204Y0124310D01*
X0123440Y0123579D01*
X0122090Y0122229D01*
X0121359Y0120465D01*
X0121359Y0118555D01*
X0122090Y0116791D01*
X0123440Y0115441D01*
X0122291Y0116590D02*
X0117986Y0116590D01*
X0117986Y0117788D02*
X0121677Y0117788D01*
X0121359Y0118987D02*
X0117986Y0118987D01*
X0117986Y0120185D02*
X0121359Y0120185D01*
X0121740Y0121384D02*
X0117986Y0121384D01*
X0117986Y0122582D02*
X0122443Y0122582D01*
X0123926Y0123781D02*
X0117986Y0123781D01*
X0117986Y0124979D02*
X0124555Y0124979D01*
X0125204Y0124710D02*
X0133114Y0124710D01*
X0134878Y0125441D01*
X0136228Y0126791D01*
X0136360Y0127110D01*
X0139636Y0127110D01*
X0140519Y0127476D01*
X0145114Y0132071D01*
X0222418Y0132071D01*
X0221753Y0130465D01*
X0221753Y0128555D01*
X0222484Y0126791D01*
X0223834Y0125441D01*
X0225598Y0124710D01*
X0230959Y0124710D01*
X0231359Y0124310D01*
X0225598Y0124310D01*
X0223834Y0123579D01*
X0222484Y0122229D01*
X0221753Y0120465D01*
X0221753Y0118555D01*
X0222484Y0116791D01*
X0223834Y0115441D01*
X0225598Y0114710D01*
X0233508Y0114710D01*
X0235272Y0115441D01*
X0236622Y0116791D01*
X0237353Y0118555D01*
X0237353Y0120465D01*
X0236622Y0122229D01*
X0235835Y0123016D01*
X0238881Y0123016D01*
X0238813Y0122948D01*
X0238143Y0121330D01*
X0238143Y0119580D01*
X0238813Y0117963D01*
X0240051Y0116725D01*
X0241668Y0116055D01*
X0248619Y0116055D01*
X0250236Y0116725D01*
X0251473Y0117963D01*
X0252143Y0119580D01*
X0252143Y0121330D01*
X0251473Y0122948D01*
X0251405Y0123016D01*
X0268881Y0123016D01*
X0268813Y0122948D01*
X0268143Y0121330D01*
X0268143Y0119580D01*
X0268813Y0117963D01*
X0270051Y0116725D01*
X0271668Y0116055D01*
X0278619Y0116055D01*
X0280236Y0116725D01*
X0281473Y0117963D01*
X0282143Y0119580D01*
X0282143Y0121330D01*
X0281473Y0122948D01*
X0281405Y0123016D01*
X0296669Y0123016D01*
X0297865Y0121820D01*
X0297536Y0121026D01*
X0297536Y0118782D01*
X0298395Y0116710D01*
X0299981Y0115124D01*
X0302053Y0114265D01*
X0304296Y0114265D01*
X0306369Y0115124D01*
X0307955Y0116710D01*
X0308813Y0118782D01*
X0308813Y0121026D01*
X0307955Y0123098D01*
X0306369Y0124684D01*
X0304296Y0125543D01*
X0302053Y0125543D01*
X0301259Y0125214D01*
X0299698Y0126775D01*
X0299698Y0126775D01*
X0299022Y0127450D01*
X0298140Y0127816D01*
X0281017Y0127816D01*
X0281335Y0128254D01*
X0281636Y0128843D01*
X0281840Y0129472D01*
X0281943Y0130125D01*
X0281943Y0130255D01*
X0275343Y0130255D01*
X0275343Y0130655D01*
X0274943Y0130655D01*
X0274943Y0130255D01*
X0268343Y0130255D01*
X0268343Y0130125D01*
X0268447Y0129472D01*
X0268651Y0128843D01*
X0268951Y0128254D01*
X0269269Y0127816D01*
X0251326Y0127816D01*
X0251473Y0127963D01*
X0252143Y0129580D01*
X0252143Y0131330D01*
X0251473Y0132948D01*
X0250236Y0134185D01*
X0248619Y0134855D01*
X0242937Y0134855D01*
X0244137Y0136055D01*
X0248619Y0136055D01*
X0250236Y0136725D01*
X0251473Y0137963D01*
X0252143Y0139580D01*
X0252143Y0141330D01*
X0251473Y0142948D01*
X0251326Y0143094D01*
X0268960Y0143094D01*
X0268813Y0142948D01*
X0268143Y0141330D01*
X0268143Y0139580D01*
X0268813Y0137963D01*
X0270051Y0136725D01*
X0271668Y0136055D01*
X0278619Y0136055D01*
X0280236Y0136725D01*
X0281473Y0137963D01*
X0282143Y0139580D01*
X0282143Y0141330D01*
X0281473Y0142948D01*
X0281326Y0143094D01*
X0296275Y0143094D01*
X0297865Y0141505D01*
X0297536Y0140711D01*
X0297536Y0138467D01*
X0298395Y0136395D01*
X0299981Y0134809D01*
X0302053Y0133950D01*
X0304296Y0133950D01*
X0306369Y0134809D01*
X0307955Y0136395D01*
X0308813Y0138467D01*
X0308813Y0140711D01*
X0307955Y0142783D01*
X0306369Y0144369D01*
X0304296Y0145228D01*
X0302053Y0145228D01*
X0301259Y0144899D01*
X0299304Y0146854D01*
X0298629Y0147529D01*
X0297747Y0147894D01*
X0281405Y0147894D01*
X0281473Y0147963D01*
X0282143Y0149580D01*
X0282143Y0151330D01*
X0281473Y0152948D01*
X0280236Y0154185D01*
X0278619Y0154855D01*
X0271668Y0154855D01*
X0270051Y0154185D01*
X0268813Y0152948D01*
X0268143Y0151330D01*
X0268143Y0149580D01*
X0268813Y0147963D01*
X0268881Y0147894D01*
X0251405Y0147894D01*
X0251473Y0147963D01*
X0251512Y0148055D01*
X0251526Y0148055D01*
X0252408Y0148420D01*
X0260440Y0156452D01*
X0261115Y0157127D01*
X0261480Y0158009D01*
X0261480Y0175022D01*
X0263833Y0172669D01*
X0267478Y0172669D01*
X0270055Y0175247D01*
X0270055Y0178892D01*
X0267478Y0181469D01*
X0263833Y0181469D01*
X0261480Y0179117D01*
X0261480Y0207035D01*
X0261115Y0207917D01*
X0252968Y0216063D01*
X0252968Y0218892D01*
X0250391Y0221469D01*
X0246746Y0221469D01*
X0244169Y0218892D01*
X0244169Y0215247D01*
X0246746Y0212669D01*
X0249574Y0212669D01*
X0256680Y0205563D01*
X0256680Y0159481D01*
X0250810Y0153611D01*
X0250236Y0154185D01*
X0248619Y0154855D01*
X0241668Y0154855D01*
X0240051Y0154185D01*
X0238813Y0152948D01*
X0238143Y0151330D01*
X0238143Y0149580D01*
X0238813Y0147963D01*
X0238881Y0147894D01*
X0236864Y0147894D01*
X0237039Y0148433D01*
X0237147Y0149110D01*
X0229953Y0149110D01*
X0229953Y0149910D01*
X0237147Y0149910D01*
X0237039Y0150587D01*
X0236816Y0151276D01*
X0236487Y0151921D01*
X0236061Y0152507D01*
X0235549Y0153019D01*
X0234964Y0153445D01*
X0234319Y0153773D01*
X0233630Y0153997D01*
X0232915Y0154110D01*
X0229953Y0154110D01*
X0229953Y0149910D01*
X0229153Y0149910D01*
X0229153Y0149110D01*
X0229953Y0149110D01*
X0229953Y0144910D01*
X0231559Y0144910D01*
X0230959Y0144310D01*
X0225598Y0144310D01*
X0223834Y0143579D01*
X0222484Y0142229D01*
X0221753Y0140465D01*
X0221753Y0138555D01*
X0222451Y0136871D01*
X0143642Y0136871D01*
X0142760Y0136505D01*
X0138165Y0131910D01*
X0136360Y0131910D01*
X0136228Y0132229D01*
X0134878Y0133579D01*
X0133114Y0134310D01*
X0125204Y0134310D01*
X0123440Y0133579D01*
X0122090Y0132229D01*
X0121359Y0130465D01*
X0121359Y0128555D01*
X0122090Y0126791D01*
X0123440Y0125441D01*
X0125204Y0124710D01*
X0122703Y0126178D02*
X0117986Y0126178D01*
X0117986Y0127376D02*
X0121847Y0127376D01*
X0121359Y0128575D02*
X0117986Y0128575D01*
X0117986Y0129773D02*
X0121359Y0129773D01*
X0121569Y0130972D02*
X0117986Y0130972D01*
X0117986Y0132170D02*
X0122065Y0132170D01*
X0123229Y0133369D02*
X0117986Y0133369D01*
X0117986Y0134567D02*
X0140822Y0134567D01*
X0139624Y0133369D02*
X0135089Y0133369D01*
X0136253Y0132170D02*
X0138425Y0132170D01*
X0139159Y0129510D02*
X0144120Y0134471D01*
X0239159Y0134471D01*
X0245143Y0140455D01*
X0243848Y0135766D02*
X0299024Y0135766D01*
X0298159Y0136964D02*
X0280475Y0136964D01*
X0281556Y0138163D02*
X0297662Y0138163D01*
X0297536Y0139361D02*
X0282053Y0139361D01*
X0282143Y0140560D02*
X0297536Y0140560D01*
X0297611Y0141758D02*
X0281966Y0141758D01*
X0281464Y0142957D02*
X0296413Y0142957D01*
X0297269Y0145494D02*
X0235537Y0145494D01*
X0229553Y0139510D01*
X0229153Y0144910D02*
X0226191Y0144910D01*
X0225476Y0145023D01*
X0224787Y0145247D01*
X0224142Y0145576D01*
X0223556Y0146002D01*
X0223044Y0146514D01*
X0222618Y0147099D01*
X0222290Y0147744D01*
X0222066Y0148433D01*
X0221959Y0149110D01*
X0229153Y0149110D01*
X0229153Y0144910D01*
X0229153Y0145354D02*
X0229953Y0145354D01*
X0229953Y0146552D02*
X0229153Y0146552D01*
X0229153Y0147751D02*
X0229953Y0147751D01*
X0229953Y0148949D02*
X0229153Y0148949D01*
X0229153Y0149910D02*
X0221959Y0149910D01*
X0222066Y0150587D01*
X0222290Y0151276D01*
X0222618Y0151921D01*
X0223044Y0152507D01*
X0223556Y0153019D01*
X0224142Y0153445D01*
X0224787Y0153773D01*
X0225476Y0153997D01*
X0226191Y0154110D01*
X0229153Y0154110D01*
X0229153Y0149910D01*
X0229153Y0150148D02*
X0229953Y0150148D01*
X0229953Y0151346D02*
X0229153Y0151346D01*
X0229153Y0152545D02*
X0229953Y0152545D01*
X0229953Y0153744D02*
X0229153Y0153744D01*
X0225598Y0154710D02*
X0233508Y0154710D01*
X0235272Y0155441D01*
X0236622Y0156791D01*
X0237353Y0158555D01*
X0237353Y0160465D01*
X0236622Y0162229D01*
X0235272Y0163579D01*
X0233508Y0164310D01*
X0225598Y0164310D01*
X0223834Y0163579D01*
X0222484Y0162229D01*
X0221753Y0160465D01*
X0221753Y0158555D01*
X0222484Y0156791D01*
X0223834Y0155441D01*
X0225598Y0154710D01*
X0225038Y0154942D02*
X0133673Y0154942D01*
X0133114Y0154710D02*
X0134878Y0155441D01*
X0136228Y0156791D01*
X0136959Y0158555D01*
X0136959Y0160465D01*
X0136228Y0162229D01*
X0134878Y0163579D01*
X0133114Y0164310D01*
X0125204Y0164310D01*
X0123440Y0163579D01*
X0122090Y0162229D01*
X0121359Y0160465D01*
X0121359Y0158555D01*
X0122090Y0156791D01*
X0123440Y0155441D01*
X0125204Y0154710D01*
X0133114Y0154710D01*
X0133114Y0154310D02*
X0134878Y0153579D01*
X0136228Y0152229D01*
X0136959Y0150465D01*
X0136959Y0148555D01*
X0136228Y0146791D01*
X0134878Y0145441D01*
X0133114Y0144710D01*
X0125204Y0144710D01*
X0123440Y0145441D01*
X0122090Y0146791D01*
X0121359Y0148555D01*
X0121359Y0150465D01*
X0122090Y0152229D01*
X0123440Y0153579D01*
X0125204Y0154310D01*
X0133114Y0154310D01*
X0134482Y0153744D02*
X0224729Y0153744D01*
X0223082Y0152545D02*
X0205135Y0152545D01*
X0204521Y0153159D02*
X0206981Y0150699D01*
X0206981Y0149159D01*
X0202981Y0149159D01*
X0202581Y0149159D01*
X0202581Y0148759D01*
X0198581Y0148759D01*
X0198581Y0147219D01*
X0201041Y0144759D01*
X0202581Y0144759D01*
X0202581Y0148759D01*
X0202981Y0148759D01*
X0202981Y0144759D01*
X0204521Y0144759D01*
X0206981Y0147219D01*
X0206981Y0148759D01*
X0202981Y0148759D01*
X0202981Y0149159D01*
X0202981Y0153159D01*
X0204521Y0153159D01*
X0202981Y0152545D02*
X0202581Y0152545D01*
X0202581Y0153159D02*
X0201041Y0153159D01*
X0198581Y0150699D01*
X0198581Y0149159D01*
X0202581Y0149159D01*
X0202581Y0153159D01*
X0202581Y0151346D02*
X0202981Y0151346D01*
X0202981Y0150148D02*
X0202581Y0150148D01*
X0202581Y0148949D02*
X0192220Y0148949D01*
X0192220Y0147751D02*
X0198581Y0147751D01*
X0199248Y0146552D02*
X0191636Y0146552D01*
X0192220Y0147137D02*
X0189643Y0144559D01*
X0185998Y0144559D01*
X0183420Y0147137D01*
X0183420Y0150782D01*
X0185998Y0153359D01*
X0189643Y0153359D01*
X0192220Y0150782D01*
X0192220Y0147137D01*
X0190438Y0145354D02*
X0200447Y0145354D01*
X0202581Y0145354D02*
X0202981Y0145354D01*
X0202981Y0146552D02*
X0202581Y0146552D01*
X0202581Y0147751D02*
X0202981Y0147751D01*
X0202981Y0148949D02*
X0221984Y0148949D01*
X0221996Y0150148D02*
X0206981Y0150148D01*
X0206333Y0151346D02*
X0222326Y0151346D01*
X0222288Y0147751D02*
X0206981Y0147751D01*
X0206314Y0146552D02*
X0223016Y0146552D01*
X0224578Y0145354D02*
X0205116Y0145354D01*
X0198581Y0150148D02*
X0192220Y0150148D01*
X0191656Y0151346D02*
X0199229Y0151346D01*
X0200427Y0152545D02*
X0190457Y0152545D01*
X0185184Y0152545D02*
X0135913Y0152545D01*
X0136594Y0151346D02*
X0183985Y0151346D01*
X0183420Y0150148D02*
X0136959Y0150148D01*
X0136959Y0148949D02*
X0183420Y0148949D01*
X0183420Y0147751D02*
X0136626Y0147751D01*
X0135989Y0146552D02*
X0184005Y0146552D01*
X0185203Y0145354D02*
X0134668Y0145354D01*
X0133488Y0144155D02*
X0225224Y0144155D01*
X0223211Y0142957D02*
X0135501Y0142957D01*
X0134878Y0143579D02*
X0133114Y0144310D01*
X0125204Y0144310D01*
X0123440Y0143579D01*
X0122090Y0142229D01*
X0121359Y0140465D01*
X0121359Y0138555D01*
X0122090Y0136791D01*
X0123440Y0135441D01*
X0125204Y0134710D01*
X0133114Y0134710D01*
X0134878Y0135441D01*
X0136228Y0136791D01*
X0136959Y0138555D01*
X0136959Y0140465D01*
X0136228Y0142229D01*
X0134878Y0143579D01*
X0136423Y0141758D02*
X0222288Y0141758D01*
X0221792Y0140560D02*
X0136920Y0140560D01*
X0136959Y0139361D02*
X0221753Y0139361D01*
X0221915Y0138163D02*
X0136796Y0138163D01*
X0136300Y0136964D02*
X0222412Y0136964D01*
X0221963Y0130972D02*
X0144015Y0130972D01*
X0142816Y0129773D02*
X0221753Y0129773D01*
X0221753Y0128575D02*
X0141618Y0128575D01*
X0140279Y0127376D02*
X0222241Y0127376D01*
X0223097Y0126178D02*
X0135615Y0126178D01*
X0133763Y0124979D02*
X0224949Y0124979D01*
X0224320Y0123781D02*
X0134392Y0123781D01*
X0135875Y0122582D02*
X0222837Y0122582D01*
X0222133Y0121384D02*
X0136579Y0121384D01*
X0136959Y0120185D02*
X0221753Y0120185D01*
X0221753Y0118987D02*
X0136959Y0118987D01*
X0136641Y0117788D02*
X0222071Y0117788D01*
X0222685Y0116590D02*
X0136027Y0116590D01*
X0134758Y0115391D02*
X0223954Y0115391D01*
X0225314Y0114193D02*
X0133398Y0114193D01*
X0135463Y0112994D02*
X0185633Y0112994D01*
X0185998Y0113359D02*
X0183420Y0110782D01*
X0183420Y0107137D01*
X0185998Y0104559D01*
X0189643Y0104559D01*
X0192220Y0107137D01*
X0192220Y0110782D01*
X0189643Y0113359D01*
X0185998Y0113359D01*
X0184434Y0111796D02*
X0136408Y0111796D01*
X0136904Y0110597D02*
X0183420Y0110597D01*
X0183420Y0109399D02*
X0136959Y0109399D01*
X0136812Y0108200D02*
X0183420Y0108200D01*
X0183555Y0107002D02*
X0136315Y0107002D01*
X0136237Y0102208D02*
X0222475Y0102208D01*
X0221978Y0101009D02*
X0136734Y0101009D01*
X0136959Y0099810D02*
X0221753Y0099810D01*
X0221753Y0098612D02*
X0136959Y0098612D01*
X0136486Y0097413D02*
X0222226Y0097413D01*
X0223060Y0096215D02*
X0135652Y0096215D01*
X0133853Y0095016D02*
X0224859Y0095016D01*
X0224409Y0093818D02*
X0134302Y0093818D01*
X0134878Y0093579D02*
X0133114Y0094310D01*
X0125204Y0094310D01*
X0123440Y0093579D01*
X0122090Y0092229D01*
X0121359Y0090465D01*
X0121359Y0088555D01*
X0122090Y0086791D01*
X0123440Y0085441D01*
X0125204Y0084710D01*
X0133114Y0084710D01*
X0134878Y0085441D01*
X0136228Y0086791D01*
X0136959Y0088555D01*
X0136959Y0090465D01*
X0136228Y0092229D01*
X0134878Y0093579D01*
X0135838Y0092619D02*
X0222874Y0092619D01*
X0222149Y0091421D02*
X0136563Y0091421D01*
X0136959Y0090222D02*
X0221753Y0090222D01*
X0221753Y0089024D02*
X0136959Y0089024D01*
X0136657Y0087825D02*
X0222055Y0087825D01*
X0222648Y0086627D02*
X0136064Y0086627D01*
X0134848Y0085428D02*
X0223864Y0085428D01*
X0225404Y0084230D02*
X0117986Y0084230D01*
X0117986Y0085428D02*
X0123471Y0085428D01*
X0122254Y0086627D02*
X0117986Y0086627D01*
X0117986Y0087825D02*
X0121661Y0087825D01*
X0121359Y0089024D02*
X0117986Y0089024D01*
X0117986Y0090222D02*
X0121359Y0090222D01*
X0121755Y0091421D02*
X0117986Y0091421D01*
X0117986Y0092619D02*
X0122480Y0092619D01*
X0124016Y0093818D02*
X0117986Y0093818D01*
X0117986Y0095016D02*
X0124465Y0095016D01*
X0122666Y0096215D02*
X0117986Y0096215D01*
X0117986Y0097413D02*
X0121832Y0097413D01*
X0121359Y0098612D02*
X0117986Y0098612D01*
X0117986Y0099810D02*
X0121359Y0099810D01*
X0121584Y0101009D02*
X0117986Y0101009D01*
X0117986Y0102208D02*
X0122081Y0102208D01*
X0123267Y0103406D02*
X0117986Y0103406D01*
X0111986Y0103406D02*
X0040123Y0103406D01*
X0040266Y0103752D02*
X0040266Y0105662D01*
X0039535Y0107426D01*
X0038185Y0108776D01*
X0036421Y0109507D01*
X0028511Y0109507D01*
X0026747Y0108776D01*
X0025397Y0107426D01*
X0024666Y0105662D01*
X0024666Y0103752D01*
X0025397Y0101988D01*
X0026747Y0100638D01*
X0028511Y0099907D01*
X0036421Y0099907D01*
X0038185Y0100638D01*
X0039535Y0101988D01*
X0040266Y0103752D01*
X0040266Y0104605D02*
X0111986Y0104605D01*
X0111986Y0105803D02*
X0066146Y0105803D01*
X0065260Y0104918D02*
X0068043Y0107700D01*
X0068043Y0109468D01*
X0063493Y0109468D01*
X0063493Y0109868D01*
X0063093Y0109868D01*
X0063093Y0114418D01*
X0061325Y0114418D01*
X0058543Y0111635D01*
X0058543Y0109868D01*
X0063093Y0109868D01*
X0063093Y0109468D01*
X0058543Y0109468D01*
X0058543Y0107700D01*
X0061325Y0104918D01*
X0063093Y0104918D01*
X0063093Y0109468D01*
X0063493Y0109468D01*
X0063493Y0104918D01*
X0065260Y0104918D01*
X0063493Y0105803D02*
X0063093Y0105803D01*
X0063093Y0107002D02*
X0063493Y0107002D01*
X0063493Y0108200D02*
X0063093Y0108200D01*
X0063093Y0109399D02*
X0063493Y0109399D01*
X0063493Y0109868D02*
X0068043Y0109868D01*
X0068043Y0111635D01*
X0065260Y0114418D01*
X0063493Y0114418D01*
X0063493Y0109868D01*
X0063493Y0110597D02*
X0063093Y0110597D01*
X0063093Y0111796D02*
X0063493Y0111796D01*
X0063493Y0112994D02*
X0063093Y0112994D01*
X0063093Y0114193D02*
X0063493Y0114193D01*
X0065485Y0114193D02*
X0111986Y0114193D01*
X0111986Y0115391D02*
X0006802Y0115391D01*
X0006804Y0114193D02*
X0051282Y0114193D01*
X0050489Y0113864D02*
X0052308Y0114618D01*
X0054278Y0114618D01*
X0056097Y0113864D01*
X0057489Y0112472D01*
X0058243Y0110652D01*
X0058243Y0108683D01*
X0057489Y0106864D01*
X0056097Y0105471D01*
X0054278Y0104718D01*
X0052308Y0104718D01*
X0050489Y0105471D01*
X0049097Y0106864D01*
X0048343Y0108683D01*
X0048343Y0110652D01*
X0049097Y0112472D01*
X0050489Y0113864D01*
X0049619Y0112994D02*
X0006806Y0112994D01*
X0006808Y0111796D02*
X0048816Y0111796D01*
X0048343Y0110597D02*
X0006810Y0110597D01*
X0006812Y0109399D02*
X0028249Y0109399D01*
X0026171Y0108200D02*
X0006814Y0108200D01*
X0006816Y0107002D02*
X0025221Y0107002D01*
X0024725Y0105803D02*
X0006818Y0105803D01*
X0006820Y0104605D02*
X0024666Y0104605D01*
X0024810Y0103406D02*
X0006822Y0103406D01*
X0006824Y0102208D02*
X0025306Y0102208D01*
X0026376Y0101009D02*
X0006826Y0101009D01*
X0006828Y0099810D02*
X0111986Y0099810D01*
X0111986Y0098612D02*
X0037917Y0098612D01*
X0037877Y0098641D02*
X0037232Y0098970D01*
X0036543Y0099194D01*
X0035828Y0099307D01*
X0032866Y0099307D01*
X0032866Y0095107D01*
X0032066Y0095107D01*
X0032066Y0094307D01*
X0024872Y0094307D01*
X0024979Y0093630D01*
X0025203Y0092941D01*
X0025532Y0092296D01*
X0025957Y0091710D01*
X0026469Y0091198D01*
X0027055Y0090773D01*
X0027700Y0090444D01*
X0028389Y0090220D01*
X0029104Y0090107D01*
X0032066Y0090107D01*
X0032066Y0094307D01*
X0032866Y0094307D01*
X0032866Y0090107D01*
X0035828Y0090107D01*
X0036543Y0090220D01*
X0037232Y0090444D01*
X0037877Y0090773D01*
X0038463Y0091198D01*
X0038975Y0091710D01*
X0039400Y0092296D01*
X0039729Y0092941D01*
X0039953Y0093630D01*
X0040060Y0094307D01*
X0032866Y0094307D01*
X0032866Y0095107D01*
X0040060Y0095107D01*
X0039953Y0095784D01*
X0039729Y0096473D01*
X0039400Y0097118D01*
X0038975Y0097704D01*
X0038463Y0098216D01*
X0037877Y0098641D01*
X0039186Y0097413D02*
X0111986Y0097413D01*
X0111986Y0096215D02*
X0039813Y0096215D01*
X0039983Y0093818D02*
X0111986Y0093818D01*
X0111986Y0095016D02*
X0032866Y0095016D01*
X0032066Y0095016D02*
X0006836Y0095016D01*
X0006838Y0093818D02*
X0024950Y0093818D01*
X0025367Y0092619D02*
X0006840Y0092619D01*
X0006842Y0091421D02*
X0026247Y0091421D01*
X0028383Y0090222D02*
X0006844Y0090222D01*
X0006846Y0089024D02*
X0027345Y0089024D01*
X0026747Y0088776D02*
X0028511Y0089507D01*
X0036421Y0089507D01*
X0038185Y0088776D01*
X0039535Y0087426D01*
X0040266Y0085662D01*
X0040266Y0083752D01*
X0039535Y0081988D01*
X0038185Y0080638D01*
X0036421Y0079907D01*
X0028511Y0079907D01*
X0026747Y0080638D01*
X0025397Y0081988D01*
X0024666Y0083752D01*
X0024666Y0085662D01*
X0025397Y0087426D01*
X0026747Y0088776D01*
X0025796Y0087825D02*
X0006848Y0087825D01*
X0006850Y0086627D02*
X0025066Y0086627D01*
X0024666Y0085428D02*
X0006852Y0085428D01*
X0006854Y0084230D02*
X0024666Y0084230D01*
X0024965Y0083031D02*
X0006856Y0083031D01*
X0006858Y0081833D02*
X0025552Y0081833D01*
X0026756Y0080634D02*
X0006860Y0080634D01*
X0006862Y0079436D02*
X0085238Y0079436D01*
X0085076Y0079043D02*
X0085076Y0076338D01*
X0086111Y0073839D01*
X0087446Y0072504D01*
X0084037Y0069095D01*
X0083814Y0069187D01*
X0082063Y0069187D01*
X0080446Y0068518D01*
X0079208Y0067280D01*
X0078539Y0065663D01*
X0078539Y0058712D01*
X0079208Y0057095D01*
X0079939Y0056365D01*
X0079939Y0048010D01*
X0079208Y0047280D01*
X0078539Y0045663D01*
X0078539Y0038712D01*
X0079208Y0037095D01*
X0080446Y0035857D01*
X0082063Y0035187D01*
X0083814Y0035187D01*
X0085431Y0035857D01*
X0086669Y0037095D01*
X0087339Y0038712D01*
X0087339Y0045663D01*
X0086669Y0047280D01*
X0085939Y0048010D01*
X0085939Y0056365D01*
X0086669Y0057095D01*
X0087339Y0058712D01*
X0087339Y0063911D01*
X0088539Y0065111D01*
X0088539Y0058712D01*
X0089208Y0057095D01*
X0090446Y0055857D01*
X0092063Y0055187D01*
X0093814Y0055187D01*
X0095431Y0055857D01*
X0096669Y0057095D01*
X0097339Y0058712D01*
X0097339Y0065663D01*
X0096669Y0067280D01*
X0095431Y0068518D01*
X0093814Y0069187D01*
X0092615Y0069187D01*
X0094318Y0070891D01*
X0103228Y0070891D01*
X0105727Y0071926D01*
X0107640Y0073839D01*
X0108676Y0076338D01*
X0108676Y0079043D01*
X0107640Y0081542D01*
X0105727Y0083455D01*
X0103228Y0084491D01*
X0090523Y0084491D01*
X0088024Y0083455D01*
X0086111Y0081542D01*
X0085076Y0079043D01*
X0085076Y0078237D02*
X0006864Y0078237D01*
X0006866Y0077039D02*
X0085076Y0077039D01*
X0085282Y0075840D02*
X0006868Y0075840D01*
X0006870Y0074642D02*
X0085778Y0074642D01*
X0086506Y0073443D02*
X0006872Y0073443D01*
X0006874Y0072245D02*
X0087187Y0072245D01*
X0085989Y0071046D02*
X0006876Y0071046D01*
X0006878Y0069848D02*
X0084790Y0069848D01*
X0080764Y0068649D02*
X0006880Y0068649D01*
X0006883Y0067451D02*
X0079379Y0067451D01*
X0078783Y0066252D02*
X0006885Y0066252D01*
X0006887Y0065054D02*
X0078539Y0065054D01*
X0078539Y0063855D02*
X0006889Y0063855D01*
X0006891Y0062657D02*
X0078539Y0062657D01*
X0078539Y0061458D02*
X0006893Y0061458D01*
X0006895Y0060260D02*
X0078539Y0060260D01*
X0078539Y0059061D02*
X0006897Y0059061D01*
X0006899Y0057863D02*
X0078890Y0057863D01*
X0079639Y0056664D02*
X0061884Y0056664D01*
X0062126Y0056626D02*
X0061452Y0056733D01*
X0061452Y0051921D01*
X0066263Y0051921D01*
X0066157Y0052595D01*
X0065892Y0053409D01*
X0065503Y0054172D01*
X0065000Y0054864D01*
X0064395Y0055470D01*
X0063702Y0055973D01*
X0062940Y0056361D01*
X0062126Y0056626D01*
X0061452Y0056664D02*
X0060252Y0056664D01*
X0060252Y0056733D02*
X0059578Y0056626D01*
X0058764Y0056361D01*
X0058002Y0055973D01*
X0057309Y0055470D01*
X0056704Y0054864D01*
X0056200Y0054172D01*
X0055812Y0053409D01*
X0055547Y0052595D01*
X0055441Y0051921D01*
X0060252Y0051921D01*
X0060252Y0050721D01*
X0061452Y0050721D01*
X0061452Y0045910D01*
X0062126Y0046017D01*
X0062940Y0046281D01*
X0063702Y0046670D01*
X0064395Y0047173D01*
X0065000Y0047778D01*
X0065503Y0048471D01*
X0065892Y0049234D01*
X0066157Y0050048D01*
X0066263Y0050721D01*
X0061452Y0050721D01*
X0061452Y0051921D01*
X0060252Y0051921D01*
X0060252Y0056733D01*
X0059819Y0056664D02*
X0043003Y0056664D01*
X0042289Y0056960D02*
X0040045Y0056960D01*
X0037973Y0056101D01*
X0036387Y0054515D01*
X0035528Y0052443D01*
X0035528Y0050200D01*
X0036387Y0048127D01*
X0037973Y0046541D01*
X0040045Y0045683D01*
X0042289Y0045683D01*
X0044361Y0046541D01*
X0045947Y0048127D01*
X0046805Y0050200D01*
X0046805Y0052443D01*
X0045947Y0054515D01*
X0044361Y0056101D01*
X0042289Y0056960D01*
X0039331Y0056664D02*
X0006901Y0056664D01*
X0006903Y0055466D02*
X0037337Y0055466D01*
X0036284Y0054267D02*
X0006905Y0054267D01*
X0006907Y0053069D02*
X0035788Y0053069D01*
X0035528Y0051870D02*
X0006909Y0051870D01*
X0006911Y0050672D02*
X0035528Y0050672D01*
X0035829Y0049473D02*
X0006913Y0049473D01*
X0006915Y0048275D02*
X0036326Y0048275D01*
X0037438Y0047076D02*
X0006917Y0047076D01*
X0006919Y0045877D02*
X0039575Y0045877D01*
X0042759Y0045877D02*
X0078628Y0045877D01*
X0078539Y0044679D02*
X0006921Y0044679D01*
X0006923Y0043480D02*
X0078539Y0043480D01*
X0078539Y0042282D02*
X0006925Y0042282D01*
X0006927Y0041083D02*
X0078539Y0041083D01*
X0078539Y0039885D02*
X0006929Y0039885D01*
X0006931Y0038686D02*
X0078549Y0038686D01*
X0079046Y0037488D02*
X0027279Y0037488D01*
X0029741Y0036289D02*
X0080014Y0036289D01*
X0085863Y0036289D02*
X0090014Y0036289D01*
X0090446Y0035857D02*
X0092063Y0035187D01*
X0093814Y0035187D01*
X0095431Y0035857D01*
X0096669Y0037095D01*
X0097339Y0038712D01*
X0097339Y0045663D01*
X0096669Y0047280D01*
X0095431Y0048518D01*
X0093814Y0049187D01*
X0092063Y0049187D01*
X0090446Y0048518D01*
X0089208Y0047280D01*
X0088539Y0045663D01*
X0088539Y0038712D01*
X0089208Y0037095D01*
X0090446Y0035857D01*
X0089046Y0037488D02*
X0086831Y0037488D01*
X0087328Y0038686D02*
X0088549Y0038686D01*
X0088539Y0039885D02*
X0087339Y0039885D01*
X0087339Y0041083D02*
X0088539Y0041083D01*
X0088539Y0042282D02*
X0087339Y0042282D01*
X0087339Y0043480D02*
X0088539Y0043480D01*
X0088539Y0044679D02*
X0087339Y0044679D01*
X0087250Y0045877D02*
X0088628Y0045877D01*
X0089124Y0047076D02*
X0086753Y0047076D01*
X0085939Y0048275D02*
X0090203Y0048275D01*
X0085939Y0049473D02*
X0111986Y0049473D01*
X0111986Y0048275D02*
X0105674Y0048275D01*
X0105431Y0048518D02*
X0103814Y0049187D01*
X0102063Y0049187D01*
X0100446Y0048518D01*
X0099208Y0047280D01*
X0098539Y0045663D01*
X0098539Y0038712D01*
X0099208Y0037095D01*
X0100446Y0035857D01*
X0102063Y0035187D01*
X0103814Y0035187D01*
X0105431Y0035857D01*
X0106669Y0037095D01*
X0107339Y0038712D01*
X0107339Y0045663D01*
X0106669Y0047280D01*
X0105431Y0048518D01*
X0106753Y0047076D02*
X0111986Y0047076D01*
X0111986Y0045877D02*
X0107250Y0045877D01*
X0107339Y0044679D02*
X0111986Y0044679D01*
X0111986Y0043480D02*
X0107339Y0043480D01*
X0107339Y0042282D02*
X0111986Y0042282D01*
X0111986Y0041083D02*
X0107339Y0041083D01*
X0107339Y0039885D02*
X0111986Y0039885D01*
X0111986Y0038686D02*
X0107328Y0038686D01*
X0106831Y0037488D02*
X0111986Y0037488D01*
X0111986Y0036289D02*
X0105863Y0036289D01*
X0111986Y0035091D02*
X0031817Y0035091D01*
X0033078Y0033892D02*
X0112141Y0033892D01*
X0112914Y0032694D02*
X0034277Y0032694D01*
X0035361Y0031495D02*
X0114112Y0031495D01*
X0115311Y0030297D02*
X0036053Y0030297D01*
X0036745Y0029098D02*
X0116509Y0029098D01*
X0117708Y0027900D02*
X0037437Y0027900D01*
X0037789Y0026701D02*
X0119282Y0026701D01*
X0123378Y0025503D02*
X0038110Y0025503D01*
X0038431Y0024304D02*
X0130122Y0024304D01*
X0131321Y0023106D02*
X0038680Y0023106D01*
X0038680Y0021907D02*
X0132519Y0021907D01*
X0133718Y0020709D02*
X0038680Y0020709D01*
X0038680Y0019510D02*
X0134916Y0019510D01*
X0136115Y0018312D02*
X0038551Y0018312D01*
X0015291Y0037488D02*
X0006933Y0037488D01*
X0006935Y0036289D02*
X0012829Y0036289D01*
X0010753Y0035091D02*
X0006937Y0035091D01*
X0006939Y0033892D02*
X0009492Y0033892D01*
X0008293Y0032694D02*
X0006941Y0032694D01*
X0006943Y0031495D02*
X0007209Y0031495D01*
X0044896Y0047076D02*
X0057442Y0047076D01*
X0057309Y0047173D02*
X0058002Y0046670D01*
X0058764Y0046281D01*
X0059578Y0046017D01*
X0060252Y0045910D01*
X0060252Y0050721D01*
X0055441Y0050721D01*
X0055547Y0050048D01*
X0055812Y0049234D01*
X0056200Y0048471D01*
X0056704Y0047778D01*
X0057309Y0047173D01*
X0056343Y0048275D02*
X0046008Y0048275D01*
X0046505Y0049473D02*
X0055734Y0049473D01*
X0055448Y0050672D02*
X0046805Y0050672D01*
X0046805Y0051870D02*
X0060252Y0051870D01*
X0060252Y0050672D02*
X0061452Y0050672D01*
X0061452Y0051870D02*
X0079939Y0051870D01*
X0079939Y0050672D02*
X0066255Y0050672D01*
X0065970Y0049473D02*
X0079939Y0049473D01*
X0079939Y0048275D02*
X0065361Y0048275D01*
X0064262Y0047076D02*
X0079124Y0047076D01*
X0085939Y0050672D02*
X0111986Y0050672D01*
X0111986Y0051870D02*
X0085939Y0051870D01*
X0085939Y0053069D02*
X0111986Y0053069D01*
X0111986Y0054267D02*
X0085939Y0054267D01*
X0085939Y0055466D02*
X0091392Y0055466D01*
X0089639Y0056664D02*
X0086238Y0056664D01*
X0086987Y0057863D02*
X0088890Y0057863D01*
X0088539Y0059061D02*
X0087339Y0059061D01*
X0087339Y0060260D02*
X0088539Y0060260D01*
X0088539Y0061458D02*
X0087339Y0061458D01*
X0087339Y0062657D02*
X0088539Y0062657D01*
X0088539Y0063855D02*
X0087339Y0063855D01*
X0088481Y0065054D02*
X0088539Y0065054D01*
X0093275Y0069848D02*
X0111986Y0069848D01*
X0111986Y0071046D02*
X0103604Y0071046D01*
X0103814Y0069187D02*
X0102063Y0069187D01*
X0100446Y0068518D01*
X0099208Y0067280D01*
X0098539Y0065663D01*
X0098539Y0058712D01*
X0099208Y0057095D01*
X0100446Y0055857D01*
X0102063Y0055187D01*
X0103814Y0055187D01*
X0105431Y0055857D01*
X0106669Y0057095D01*
X0107339Y0058712D01*
X0107339Y0065663D01*
X0106669Y0067280D01*
X0105431Y0068518D01*
X0103814Y0069187D01*
X0105113Y0068649D02*
X0111986Y0068649D01*
X0111986Y0067451D02*
X0106498Y0067451D01*
X0107094Y0066252D02*
X0111986Y0066252D01*
X0111986Y0065054D02*
X0107339Y0065054D01*
X0107339Y0063855D02*
X0111986Y0063855D01*
X0111986Y0062657D02*
X0107339Y0062657D01*
X0107339Y0061458D02*
X0111986Y0061458D01*
X0111986Y0060260D02*
X0107339Y0060260D01*
X0107339Y0059061D02*
X0111986Y0059061D01*
X0111986Y0057863D02*
X0106987Y0057863D01*
X0106238Y0056664D02*
X0111986Y0056664D01*
X0111986Y0055466D02*
X0104485Y0055466D01*
X0101392Y0055466D02*
X0094485Y0055466D01*
X0096238Y0056664D02*
X0099639Y0056664D01*
X0098890Y0057863D02*
X0096987Y0057863D01*
X0097339Y0059061D02*
X0098539Y0059061D01*
X0098539Y0060260D02*
X0097339Y0060260D01*
X0097339Y0061458D02*
X0098539Y0061458D01*
X0098539Y0062657D02*
X0097339Y0062657D01*
X0097339Y0063855D02*
X0098539Y0063855D01*
X0098539Y0065054D02*
X0097339Y0065054D01*
X0097094Y0066252D02*
X0098783Y0066252D01*
X0099379Y0067451D02*
X0096498Y0067451D01*
X0095113Y0068649D02*
X0100764Y0068649D01*
X0106046Y0072245D02*
X0111986Y0072245D01*
X0111986Y0073443D02*
X0107245Y0073443D01*
X0107973Y0074642D02*
X0111986Y0074642D01*
X0111986Y0075840D02*
X0108469Y0075840D01*
X0108676Y0077039D02*
X0111986Y0077039D01*
X0111986Y0078237D02*
X0108676Y0078237D01*
X0108513Y0079436D02*
X0111986Y0079436D01*
X0111986Y0080634D02*
X0108016Y0080634D01*
X0107350Y0081833D02*
X0111986Y0081833D01*
X0111986Y0083031D02*
X0106151Y0083031D01*
X0103858Y0084230D02*
X0111986Y0084230D01*
X0111986Y0085428D02*
X0063099Y0085428D01*
X0063099Y0085458D02*
X0067649Y0085458D01*
X0067649Y0087226D01*
X0064867Y0090008D01*
X0063099Y0090008D01*
X0063099Y0085458D01*
X0063099Y0085058D01*
X0063099Y0080508D01*
X0064867Y0080508D01*
X0067649Y0083291D01*
X0067649Y0085058D01*
X0063099Y0085058D01*
X0062699Y0085058D01*
X0062699Y0080508D01*
X0060932Y0080508D01*
X0058149Y0083291D01*
X0058149Y0085058D01*
X0062699Y0085058D01*
X0062699Y0085458D01*
X0058149Y0085458D01*
X0058149Y0087226D01*
X0060932Y0090008D01*
X0062699Y0090008D01*
X0062699Y0085458D01*
X0063099Y0085458D01*
X0062699Y0085428D02*
X0057849Y0085428D01*
X0057849Y0086243D02*
X0057849Y0084274D01*
X0057096Y0082454D01*
X0055703Y0081062D01*
X0053884Y0080308D01*
X0051915Y0080308D01*
X0050095Y0081062D01*
X0048703Y0082454D01*
X0047949Y0084274D01*
X0047949Y0086243D01*
X0048703Y0088062D01*
X0050095Y0089455D01*
X0051915Y0090208D01*
X0053884Y0090208D01*
X0055703Y0089455D01*
X0057096Y0088062D01*
X0057849Y0086243D01*
X0057690Y0086627D02*
X0058149Y0086627D01*
X0058749Y0087825D02*
X0057194Y0087825D01*
X0056134Y0089024D02*
X0059947Y0089024D01*
X0062699Y0089024D02*
X0063099Y0089024D01*
X0063099Y0087825D02*
X0062699Y0087825D01*
X0062699Y0086627D02*
X0063099Y0086627D01*
X0063099Y0084230D02*
X0062699Y0084230D01*
X0062699Y0083031D02*
X0063099Y0083031D01*
X0063099Y0081833D02*
X0062699Y0081833D01*
X0062699Y0080634D02*
X0063099Y0080634D01*
X0064993Y0080634D02*
X0085735Y0080634D01*
X0086401Y0081833D02*
X0066191Y0081833D01*
X0067390Y0083031D02*
X0087600Y0083031D01*
X0089894Y0084230D02*
X0067649Y0084230D01*
X0067649Y0086627D02*
X0111986Y0086627D01*
X0111986Y0087825D02*
X0067050Y0087825D01*
X0065851Y0089024D02*
X0111986Y0089024D01*
X0111986Y0090222D02*
X0036550Y0090222D01*
X0037587Y0089024D02*
X0049664Y0089024D01*
X0048605Y0087825D02*
X0039136Y0087825D01*
X0039866Y0086627D02*
X0048108Y0086627D01*
X0047949Y0085428D02*
X0040266Y0085428D01*
X0040266Y0084230D02*
X0047967Y0084230D01*
X0048464Y0083031D02*
X0039967Y0083031D01*
X0039380Y0081833D02*
X0049324Y0081833D01*
X0051127Y0080634D02*
X0038177Y0080634D01*
X0032866Y0090222D02*
X0032066Y0090222D01*
X0032066Y0091421D02*
X0032866Y0091421D01*
X0032866Y0092619D02*
X0032066Y0092619D01*
X0032066Y0093818D02*
X0032866Y0093818D01*
X0032066Y0095107D02*
X0024872Y0095107D01*
X0024979Y0095784D01*
X0025203Y0096473D01*
X0025532Y0097118D01*
X0025957Y0097704D01*
X0026469Y0098216D01*
X0027055Y0098641D01*
X0027700Y0098970D01*
X0028389Y0099194D01*
X0029104Y0099307D01*
X0032066Y0099307D01*
X0032066Y0095107D01*
X0032066Y0096215D02*
X0032866Y0096215D01*
X0032866Y0097413D02*
X0032066Y0097413D01*
X0032066Y0098612D02*
X0032866Y0098612D01*
X0027015Y0098612D02*
X0006830Y0098612D01*
X0006832Y0097413D02*
X0025747Y0097413D01*
X0025119Y0096215D02*
X0006834Y0096215D01*
X0036683Y0109399D02*
X0048343Y0109399D01*
X0048543Y0108200D02*
X0038761Y0108200D01*
X0039711Y0107002D02*
X0049039Y0107002D01*
X0050157Y0105803D02*
X0040208Y0105803D01*
X0039626Y0102208D02*
X0111986Y0102208D01*
X0111986Y0101009D02*
X0038556Y0101009D01*
X0039565Y0092619D02*
X0111986Y0092619D01*
X0111986Y0091421D02*
X0038685Y0091421D01*
X0054671Y0080634D02*
X0060806Y0080634D01*
X0059607Y0081833D02*
X0056474Y0081833D01*
X0057335Y0083031D02*
X0058409Y0083031D01*
X0058149Y0084230D02*
X0057831Y0084230D01*
X0056429Y0105803D02*
X0060440Y0105803D01*
X0059242Y0107002D02*
X0057546Y0107002D01*
X0058043Y0108200D02*
X0058543Y0108200D01*
X0058543Y0109399D02*
X0058243Y0109399D01*
X0058243Y0110597D02*
X0058543Y0110597D01*
X0058703Y0111796D02*
X0057769Y0111796D01*
X0056967Y0112994D02*
X0059902Y0112994D01*
X0061100Y0114193D02*
X0055304Y0114193D01*
X0066684Y0112994D02*
X0111986Y0112994D01*
X0111986Y0111796D02*
X0067883Y0111796D01*
X0068043Y0110597D02*
X0111986Y0110597D01*
X0111986Y0109399D02*
X0068043Y0109399D01*
X0068043Y0108200D02*
X0111986Y0108200D01*
X0111986Y0107002D02*
X0067344Y0107002D01*
X0045160Y0129702D02*
X0043574Y0128116D01*
X0041501Y0127257D01*
X0039258Y0127257D01*
X0037186Y0128116D01*
X0035599Y0129702D01*
X0034741Y0131774D01*
X0034741Y0134018D01*
X0035599Y0136090D01*
X0037186Y0137676D01*
X0039258Y0138535D01*
X0041501Y0138535D01*
X0043574Y0137676D01*
X0045160Y0136090D01*
X0046018Y0134018D01*
X0046018Y0131774D01*
X0045160Y0129702D01*
X0045189Y0129773D02*
X0111986Y0129773D01*
X0111986Y0128575D02*
X0044032Y0128575D01*
X0041788Y0127376D02*
X0111986Y0127376D01*
X0111986Y0126178D02*
X0006784Y0126178D01*
X0006782Y0127376D02*
X0038971Y0127376D01*
X0036727Y0128575D02*
X0006780Y0128575D01*
X0006778Y0129773D02*
X0035570Y0129773D01*
X0035073Y0130972D02*
X0006776Y0130972D01*
X0006774Y0132170D02*
X0034741Y0132170D01*
X0034741Y0133369D02*
X0006772Y0133369D01*
X0006770Y0134567D02*
X0034969Y0134567D01*
X0035465Y0135766D02*
X0006767Y0135766D01*
X0006765Y0136964D02*
X0036474Y0136964D01*
X0038360Y0138163D02*
X0006763Y0138163D01*
X0006761Y0139361D02*
X0111986Y0139361D01*
X0111986Y0138163D02*
X0042399Y0138163D01*
X0044285Y0136964D02*
X0111986Y0136964D01*
X0111986Y0135766D02*
X0045294Y0135766D01*
X0045790Y0134567D02*
X0111986Y0134567D01*
X0111986Y0133369D02*
X0046018Y0133369D01*
X0046018Y0132170D02*
X0111986Y0132170D01*
X0111986Y0130972D02*
X0045686Y0130972D01*
X0041653Y0147276D02*
X0042467Y0147541D01*
X0043230Y0147930D01*
X0043923Y0148433D01*
X0044528Y0149038D01*
X0045031Y0149731D01*
X0045420Y0150493D01*
X0045684Y0151308D01*
X0045791Y0151981D01*
X0040980Y0151981D01*
X0040980Y0153181D01*
X0045791Y0153181D01*
X0045684Y0153855D01*
X0045420Y0154669D01*
X0045031Y0155432D01*
X0044528Y0156124D01*
X0043923Y0156729D01*
X0043230Y0157233D01*
X0042467Y0157621D01*
X0041653Y0157886D01*
X0040980Y0157992D01*
X0040980Y0153181D01*
X0039780Y0153181D01*
X0039780Y0157992D01*
X0039106Y0157886D01*
X0038292Y0157621D01*
X0037529Y0157233D01*
X0036837Y0156729D01*
X0036231Y0156124D01*
X0035728Y0155432D01*
X0035339Y0154669D01*
X0035075Y0153855D01*
X0034968Y0153181D01*
X0039779Y0153181D01*
X0039779Y0151981D01*
X0034968Y0151981D01*
X0035075Y0151308D01*
X0035339Y0150493D01*
X0035728Y0149731D01*
X0036231Y0149038D01*
X0036837Y0148433D01*
X0037529Y0147930D01*
X0038292Y0147541D01*
X0039106Y0147276D01*
X0039780Y0147170D01*
X0039780Y0151981D01*
X0040980Y0151981D01*
X0040980Y0147170D01*
X0041653Y0147276D01*
X0040980Y0147751D02*
X0039780Y0147751D01*
X0039780Y0148949D02*
X0040980Y0148949D01*
X0040980Y0150148D02*
X0039780Y0150148D01*
X0039780Y0151346D02*
X0040980Y0151346D01*
X0040980Y0152545D02*
X0111986Y0152545D01*
X0111986Y0153744D02*
X0045702Y0153744D01*
X0045280Y0154942D02*
X0111986Y0154942D01*
X0111986Y0156141D02*
X0044511Y0156141D01*
X0043021Y0157339D02*
X0111986Y0157339D01*
X0111986Y0158538D02*
X0006729Y0158538D01*
X0006727Y0159736D02*
X0111986Y0159736D01*
X0111839Y0160935D02*
X0006725Y0160935D01*
X0006723Y0162133D02*
X0110640Y0162133D01*
X0109441Y0163332D02*
X0006721Y0163332D01*
X0006719Y0164530D02*
X0108243Y0164530D01*
X0107044Y0165729D02*
X0006717Y0165729D01*
X0006715Y0166927D02*
X0105846Y0166927D01*
X0104647Y0168126D02*
X0006713Y0168126D01*
X0006711Y0169324D02*
X0103449Y0169324D01*
X0108339Y0172920D02*
X0122780Y0172920D01*
X0123440Y0173579D02*
X0122090Y0172229D01*
X0121359Y0170465D01*
X0121359Y0168555D01*
X0122090Y0166791D01*
X0123440Y0165441D01*
X0125204Y0164710D01*
X0133114Y0164710D01*
X0134878Y0165441D01*
X0136228Y0166791D01*
X0136959Y0168555D01*
X0136959Y0170465D01*
X0136228Y0172229D01*
X0134878Y0173579D01*
X0133114Y0174310D01*
X0125204Y0174310D01*
X0123440Y0173579D01*
X0124741Y0174118D02*
X0108336Y0174118D01*
X0108676Y0175317D02*
X0123740Y0175317D01*
X0123440Y0175441D02*
X0125204Y0174710D01*
X0133114Y0174710D01*
X0134878Y0175441D01*
X0136228Y0176791D01*
X0136959Y0178555D01*
X0136959Y0180465D01*
X0136228Y0182229D01*
X0134878Y0183579D01*
X0133114Y0184310D01*
X0125204Y0184310D01*
X0123440Y0183579D01*
X0122090Y0182229D01*
X0121359Y0180465D01*
X0121359Y0178555D01*
X0122090Y0176791D01*
X0123440Y0175441D01*
X0122366Y0176515D02*
X0108676Y0176515D01*
X0108646Y0177714D02*
X0121708Y0177714D01*
X0121359Y0178912D02*
X0108150Y0178912D01*
X0107653Y0180111D02*
X0121359Y0180111D01*
X0121709Y0181309D02*
X0106474Y0181309D01*
X0104635Y0182508D02*
X0122368Y0182508D01*
X0123746Y0183706D02*
X0006687Y0183706D01*
X0006689Y0182508D02*
X0089116Y0182508D01*
X0087278Y0181309D02*
X0006691Y0181309D01*
X0006693Y0180111D02*
X0086098Y0180111D01*
X0085601Y0178912D02*
X0006695Y0178912D01*
X0006697Y0177714D02*
X0085105Y0177714D01*
X0085076Y0176515D02*
X0006699Y0176515D01*
X0006701Y0175317D02*
X0085076Y0175317D01*
X0085415Y0174118D02*
X0006703Y0174118D01*
X0006705Y0172920D02*
X0085912Y0172920D01*
X0086828Y0171721D02*
X0006707Y0171721D01*
X0006709Y0170523D02*
X0088031Y0170523D01*
X0109537Y0171721D02*
X0121879Y0171721D01*
X0121383Y0170523D02*
X0110736Y0170523D01*
X0111934Y0169324D02*
X0121359Y0169324D01*
X0121537Y0168126D02*
X0113133Y0168126D01*
X0114331Y0166927D02*
X0122034Y0166927D01*
X0123152Y0165729D02*
X0115530Y0165729D01*
X0116728Y0164530D02*
X0240883Y0164530D01*
X0241668Y0164855D02*
X0240051Y0164185D01*
X0238813Y0162948D01*
X0238143Y0161330D01*
X0238143Y0159580D01*
X0238813Y0157963D01*
X0240051Y0156725D01*
X0241668Y0156055D01*
X0248619Y0156055D01*
X0250236Y0156725D01*
X0251473Y0157963D01*
X0252143Y0159580D01*
X0252143Y0161330D01*
X0251473Y0162948D01*
X0250236Y0164185D01*
X0248619Y0164855D01*
X0241668Y0164855D01*
X0239197Y0163332D02*
X0235520Y0163332D01*
X0236662Y0162133D02*
X0238476Y0162133D01*
X0238143Y0160935D02*
X0237158Y0160935D01*
X0237353Y0159736D02*
X0238143Y0159736D01*
X0238575Y0158538D02*
X0237345Y0158538D01*
X0236849Y0157339D02*
X0239437Y0157339D01*
X0241462Y0156141D02*
X0235971Y0156141D01*
X0234067Y0154942D02*
X0252142Y0154942D01*
X0253340Y0156141D02*
X0248825Y0156141D01*
X0250850Y0157339D02*
X0254539Y0157339D01*
X0255737Y0158538D02*
X0251712Y0158538D01*
X0252143Y0159736D02*
X0256680Y0159736D01*
X0256680Y0160935D02*
X0252143Y0160935D01*
X0251811Y0162133D02*
X0256680Y0162133D01*
X0256680Y0163332D02*
X0251089Y0163332D01*
X0249403Y0164530D02*
X0256680Y0164530D01*
X0256680Y0165729D02*
X0235559Y0165729D01*
X0235272Y0165441D02*
X0236622Y0166791D01*
X0237353Y0168555D01*
X0237353Y0170465D01*
X0236622Y0172229D01*
X0235272Y0173579D01*
X0233508Y0174310D01*
X0225598Y0174310D01*
X0223834Y0173579D01*
X0222484Y0172229D01*
X0221753Y0170465D01*
X0221753Y0168555D01*
X0222484Y0166791D01*
X0223834Y0165441D01*
X0225598Y0164710D01*
X0233508Y0164710D01*
X0235272Y0165441D01*
X0236678Y0166927D02*
X0256680Y0166927D01*
X0256680Y0168126D02*
X0237175Y0168126D01*
X0237353Y0169324D02*
X0256680Y0169324D01*
X0256680Y0170523D02*
X0237329Y0170523D01*
X0236832Y0171721D02*
X0256680Y0171721D01*
X0256680Y0172920D02*
X0250359Y0172920D01*
X0250308Y0172869D02*
X0252768Y0175330D01*
X0252768Y0176869D01*
X0248769Y0176869D01*
X0248769Y0177269D01*
X0252768Y0177269D01*
X0252768Y0178809D01*
X0250308Y0181269D01*
X0248769Y0181269D01*
X0248769Y0177269D01*
X0248368Y0177269D01*
X0248368Y0176869D01*
X0244369Y0176869D01*
X0244369Y0175330D01*
X0246829Y0172869D01*
X0248368Y0172869D01*
X0248368Y0176869D01*
X0248769Y0176869D01*
X0248769Y0172869D01*
X0250308Y0172869D01*
X0248769Y0172920D02*
X0248368Y0172920D01*
X0248368Y0174118D02*
X0248769Y0174118D01*
X0248769Y0175317D02*
X0248368Y0175317D01*
X0248368Y0176515D02*
X0248769Y0176515D01*
X0248368Y0177269D02*
X0244369Y0177269D01*
X0244369Y0178809D01*
X0246829Y0181269D01*
X0248368Y0181269D01*
X0248368Y0177269D01*
X0248368Y0177714D02*
X0248769Y0177714D01*
X0248769Y0178912D02*
X0248368Y0178912D01*
X0248368Y0180111D02*
X0248769Y0180111D01*
X0251467Y0180111D02*
X0256680Y0180111D01*
X0256680Y0181309D02*
X0237003Y0181309D01*
X0237353Y0180465D02*
X0236622Y0182229D01*
X0235272Y0183579D01*
X0233508Y0184310D01*
X0225598Y0184310D01*
X0223834Y0183579D01*
X0222484Y0182229D01*
X0221753Y0180465D01*
X0221753Y0178555D01*
X0222484Y0176791D01*
X0223834Y0175441D01*
X0225598Y0174710D01*
X0233508Y0174710D01*
X0235272Y0175441D01*
X0236622Y0176791D01*
X0237353Y0178555D01*
X0237353Y0180465D01*
X0237353Y0180111D02*
X0245670Y0180111D01*
X0244472Y0178912D02*
X0237353Y0178912D01*
X0237004Y0177714D02*
X0244369Y0177714D01*
X0244369Y0176515D02*
X0236346Y0176515D01*
X0234972Y0175317D02*
X0244381Y0175317D01*
X0245580Y0174118D02*
X0233971Y0174118D01*
X0235932Y0172920D02*
X0246778Y0172920D01*
X0251557Y0174118D02*
X0256680Y0174118D01*
X0256680Y0175317D02*
X0252756Y0175317D01*
X0252768Y0176515D02*
X0256680Y0176515D01*
X0256680Y0177714D02*
X0252768Y0177714D01*
X0252665Y0178912D02*
X0256680Y0178912D01*
X0256680Y0182508D02*
X0236343Y0182508D01*
X0234966Y0183706D02*
X0256680Y0183706D01*
X0256680Y0184905D02*
X0233977Y0184905D01*
X0233508Y0184710D02*
X0235272Y0185441D01*
X0236622Y0186791D01*
X0237353Y0188555D01*
X0237353Y0190465D01*
X0236622Y0192229D01*
X0235272Y0193579D01*
X0233508Y0194310D01*
X0225598Y0194310D01*
X0223834Y0193579D01*
X0222484Y0192229D01*
X0221753Y0190465D01*
X0221753Y0188555D01*
X0222484Y0186791D01*
X0223834Y0185441D01*
X0225598Y0184710D01*
X0233508Y0184710D01*
X0235934Y0186103D02*
X0256680Y0186103D01*
X0256680Y0187302D02*
X0236833Y0187302D01*
X0237330Y0188500D02*
X0256680Y0188500D01*
X0256680Y0189699D02*
X0237353Y0189699D01*
X0237174Y0190897D02*
X0256680Y0190897D01*
X0256680Y0192096D02*
X0236677Y0192096D01*
X0235557Y0193294D02*
X0256680Y0193294D01*
X0256680Y0194493D02*
X0006669Y0194493D01*
X0006667Y0195691D02*
X0123190Y0195691D01*
X0123440Y0195441D02*
X0125204Y0194710D01*
X0133114Y0194710D01*
X0134878Y0195441D01*
X0136228Y0196791D01*
X0136959Y0198555D01*
X0136959Y0200465D01*
X0136228Y0202229D01*
X0134878Y0203579D01*
X0133114Y0204310D01*
X0125204Y0204310D01*
X0123440Y0203579D01*
X0122090Y0202229D01*
X0121359Y0200465D01*
X0121359Y0198555D01*
X0122090Y0196791D01*
X0123440Y0195441D01*
X0123440Y0193579D02*
X0122090Y0192229D01*
X0121359Y0190465D01*
X0121359Y0188555D01*
X0122090Y0186791D01*
X0123440Y0185441D01*
X0125204Y0184710D01*
X0133114Y0184710D01*
X0134878Y0185441D01*
X0136228Y0186791D01*
X0136959Y0188555D01*
X0136959Y0190465D01*
X0136228Y0192229D01*
X0134878Y0193579D01*
X0133114Y0194310D01*
X0125204Y0194310D01*
X0123440Y0193579D01*
X0123155Y0193294D02*
X0006671Y0193294D01*
X0006673Y0192096D02*
X0122035Y0192096D01*
X0121538Y0190897D02*
X0006675Y0190897D01*
X0006677Y0189699D02*
X0121359Y0189699D01*
X0121382Y0188500D02*
X0006679Y0188500D01*
X0006681Y0187302D02*
X0121878Y0187302D01*
X0122778Y0186103D02*
X0006683Y0186103D01*
X0006685Y0184905D02*
X0124735Y0184905D01*
X0133584Y0184905D02*
X0225128Y0184905D01*
X0224140Y0183706D02*
X0134572Y0183706D01*
X0135950Y0182508D02*
X0222762Y0182508D01*
X0222102Y0181309D02*
X0136609Y0181309D01*
X0136959Y0180111D02*
X0221753Y0180111D01*
X0221753Y0178912D02*
X0136959Y0178912D01*
X0136610Y0177714D02*
X0222101Y0177714D01*
X0222760Y0176515D02*
X0135952Y0176515D01*
X0134578Y0175317D02*
X0224134Y0175317D01*
X0225134Y0174118D02*
X0133577Y0174118D01*
X0135538Y0172920D02*
X0223174Y0172920D01*
X0222273Y0171721D02*
X0136439Y0171721D01*
X0136935Y0170523D02*
X0221777Y0170523D01*
X0221753Y0169324D02*
X0136959Y0169324D01*
X0136781Y0168126D02*
X0221931Y0168126D01*
X0222427Y0166927D02*
X0136285Y0166927D01*
X0135166Y0165729D02*
X0223546Y0165729D01*
X0223586Y0163332D02*
X0135126Y0163332D01*
X0136268Y0162133D02*
X0222444Y0162133D01*
X0221947Y0160935D02*
X0136765Y0160935D01*
X0136959Y0159736D02*
X0221753Y0159736D01*
X0221760Y0158538D02*
X0136952Y0158538D01*
X0136455Y0157339D02*
X0222257Y0157339D01*
X0223134Y0156141D02*
X0135578Y0156141D01*
X0124645Y0154942D02*
X0117986Y0154942D01*
X0117986Y0153744D02*
X0123836Y0153744D01*
X0122406Y0152545D02*
X0117986Y0152545D01*
X0117986Y0151346D02*
X0121724Y0151346D01*
X0121359Y0150148D02*
X0117986Y0150148D01*
X0117986Y0148949D02*
X0121359Y0148949D01*
X0121692Y0147751D02*
X0117986Y0147751D01*
X0117986Y0146552D02*
X0122329Y0146552D01*
X0123650Y0145354D02*
X0117986Y0145354D01*
X0117986Y0144155D02*
X0124831Y0144155D01*
X0122818Y0142957D02*
X0117986Y0142957D01*
X0117986Y0141758D02*
X0121895Y0141758D01*
X0121398Y0140560D02*
X0117986Y0140560D01*
X0117986Y0139361D02*
X0121359Y0139361D01*
X0121522Y0138163D02*
X0117986Y0138163D01*
X0117986Y0136964D02*
X0122018Y0136964D01*
X0123115Y0135766D02*
X0117986Y0135766D01*
X0111986Y0140560D02*
X0006759Y0140560D01*
X0006757Y0141758D02*
X0111986Y0141758D01*
X0111986Y0142957D02*
X0006755Y0142957D01*
X0006753Y0144155D02*
X0111986Y0144155D01*
X0111986Y0145354D02*
X0006751Y0145354D01*
X0006749Y0146552D02*
X0111986Y0146552D01*
X0111986Y0147751D02*
X0042879Y0147751D01*
X0044439Y0148949D02*
X0111986Y0148949D01*
X0111986Y0150148D02*
X0045244Y0150148D01*
X0045690Y0151346D02*
X0111986Y0151346D01*
X0117986Y0156141D02*
X0122741Y0156141D01*
X0121863Y0157339D02*
X0117986Y0157339D01*
X0117986Y0158538D02*
X0121366Y0158538D01*
X0121359Y0159736D02*
X0117986Y0159736D01*
X0117986Y0160935D02*
X0121554Y0160935D01*
X0122050Y0162133D02*
X0117986Y0162133D01*
X0117694Y0163332D02*
X0123192Y0163332D01*
X0135540Y0186103D02*
X0223171Y0186103D01*
X0222272Y0187302D02*
X0136440Y0187302D01*
X0136936Y0188500D02*
X0221776Y0188500D01*
X0221753Y0189699D02*
X0136959Y0189699D01*
X0136780Y0190897D02*
X0221932Y0190897D01*
X0222428Y0192096D02*
X0136284Y0192096D01*
X0135163Y0193294D02*
X0223549Y0193294D01*
X0223834Y0195441D02*
X0225598Y0194710D01*
X0233508Y0194710D01*
X0235272Y0195441D01*
X0236622Y0196791D01*
X0237353Y0198555D01*
X0237353Y0200465D01*
X0236622Y0202229D01*
X0235272Y0203579D01*
X0233508Y0204310D01*
X0225598Y0204310D01*
X0223834Y0203579D01*
X0222484Y0202229D01*
X0221753Y0200465D01*
X0221753Y0198555D01*
X0222484Y0196791D01*
X0223834Y0195441D01*
X0223583Y0195691D02*
X0135128Y0195691D01*
X0136269Y0196890D02*
X0222443Y0196890D01*
X0221946Y0198088D02*
X0136766Y0198088D01*
X0136959Y0199287D02*
X0221753Y0199287D01*
X0221761Y0200485D02*
X0136951Y0200485D01*
X0136454Y0201684D02*
X0222258Y0201684D01*
X0223137Y0202882D02*
X0135575Y0202882D01*
X0133667Y0204081D02*
X0225045Y0204081D01*
X0225476Y0205023D02*
X0224787Y0205247D01*
X0224142Y0205576D01*
X0223556Y0206002D01*
X0223044Y0206514D01*
X0222618Y0207099D01*
X0222290Y0207744D01*
X0222066Y0208433D01*
X0221959Y0209110D01*
X0229153Y0209110D01*
X0229953Y0209110D01*
X0229953Y0209910D01*
X0237147Y0209910D01*
X0237039Y0210587D01*
X0236816Y0211276D01*
X0236487Y0211921D01*
X0236061Y0212507D01*
X0235549Y0213019D01*
X0234964Y0213445D01*
X0234319Y0213773D01*
X0233630Y0213997D01*
X0232915Y0214110D01*
X0229953Y0214110D01*
X0229953Y0209910D01*
X0229153Y0209910D01*
X0229153Y0209110D01*
X0229153Y0204910D01*
X0226191Y0204910D01*
X0225476Y0205023D01*
X0224724Y0205279D02*
X0134488Y0205279D01*
X0134878Y0205441D02*
X0136228Y0206791D01*
X0136959Y0208555D01*
X0136959Y0210465D01*
X0136228Y0212229D01*
X0134878Y0213579D01*
X0133114Y0214310D01*
X0125204Y0214310D01*
X0123440Y0213579D01*
X0122090Y0212229D01*
X0121359Y0210465D01*
X0121359Y0208555D01*
X0122090Y0206791D01*
X0123440Y0205441D01*
X0125204Y0204710D01*
X0133114Y0204710D01*
X0134878Y0205441D01*
X0135915Y0206478D02*
X0223080Y0206478D01*
X0222324Y0207677D02*
X0136595Y0207677D01*
X0136959Y0208875D02*
X0221996Y0208875D01*
X0221959Y0209910D02*
X0229153Y0209910D01*
X0229153Y0214110D01*
X0226191Y0214110D01*
X0225476Y0213997D01*
X0224787Y0213773D01*
X0224142Y0213445D01*
X0223556Y0213019D01*
X0223044Y0212507D01*
X0222618Y0211921D01*
X0222290Y0211276D01*
X0222066Y0210587D01*
X0221959Y0209910D01*
X0221985Y0210074D02*
X0136959Y0210074D01*
X0136625Y0211272D02*
X0222288Y0211272D01*
X0223018Y0212471D02*
X0135987Y0212471D01*
X0134662Y0213669D02*
X0224583Y0213669D01*
X0229153Y0213669D02*
X0229953Y0213669D01*
X0229953Y0212471D02*
X0229153Y0212471D01*
X0229153Y0211272D02*
X0229953Y0211272D01*
X0229953Y0210074D02*
X0229153Y0210074D01*
X0229153Y0208875D02*
X0229953Y0208875D01*
X0229953Y0209110D02*
X0229953Y0204910D01*
X0232915Y0204910D01*
X0233630Y0205023D01*
X0234319Y0205247D01*
X0234964Y0205576D01*
X0235549Y0206002D01*
X0236061Y0206514D01*
X0236487Y0207099D01*
X0236816Y0207744D01*
X0237039Y0208433D01*
X0237147Y0209110D01*
X0229953Y0209110D01*
X0229953Y0207677D02*
X0229153Y0207677D01*
X0229153Y0206478D02*
X0229953Y0206478D01*
X0229953Y0205279D02*
X0229153Y0205279D01*
X0234061Y0204081D02*
X0256680Y0204081D01*
X0256680Y0205279D02*
X0234382Y0205279D01*
X0236026Y0206478D02*
X0255766Y0206478D01*
X0254567Y0207677D02*
X0236781Y0207677D01*
X0237109Y0208875D02*
X0253369Y0208875D01*
X0252170Y0210074D02*
X0237121Y0210074D01*
X0236817Y0211272D02*
X0250972Y0211272D01*
X0249773Y0212471D02*
X0236088Y0212471D01*
X0234523Y0213669D02*
X0245746Y0213669D01*
X0244548Y0214868D02*
X0038680Y0214868D01*
X0038680Y0216066D02*
X0244169Y0216066D01*
X0244169Y0217265D02*
X0038680Y0217265D01*
X0038520Y0218463D02*
X0244169Y0218463D01*
X0244938Y0219662D02*
X0038198Y0219662D01*
X0037877Y0220860D02*
X0086626Y0220860D01*
X0087651Y0219835D02*
X0091297Y0219835D01*
X0093874Y0222412D01*
X0093874Y0226057D01*
X0091297Y0228635D01*
X0087651Y0228635D01*
X0085074Y0226057D01*
X0085074Y0222412D01*
X0087651Y0219835D01*
X0085427Y0222059D02*
X0037556Y0222059D01*
X0036935Y0223257D02*
X0085074Y0223257D01*
X0085074Y0224456D02*
X0036243Y0224456D01*
X0035551Y0225654D02*
X0085074Y0225654D01*
X0085870Y0226853D02*
X0034606Y0226853D01*
X0033408Y0228051D02*
X0087068Y0228051D01*
X0091880Y0228051D02*
X0127068Y0228051D01*
X0127651Y0228635D02*
X0125074Y0226057D01*
X0125074Y0222412D01*
X0127651Y0219835D01*
X0131297Y0219835D01*
X0133874Y0222412D01*
X0133874Y0226057D01*
X0131297Y0228635D01*
X0127651Y0228635D01*
X0125870Y0226853D02*
X0093078Y0226853D01*
X0093874Y0225654D02*
X0125074Y0225654D01*
X0125074Y0224456D02*
X0093874Y0224456D01*
X0093874Y0223257D02*
X0125074Y0223257D01*
X0125427Y0222059D02*
X0093521Y0222059D01*
X0092322Y0220860D02*
X0126626Y0220860D01*
X0132322Y0220860D02*
X0246137Y0220860D01*
X0248569Y0217069D02*
X0259080Y0206557D01*
X0259080Y0158487D01*
X0251049Y0150455D01*
X0245143Y0150455D01*
X0239609Y0153744D02*
X0234377Y0153744D01*
X0236023Y0152545D02*
X0238646Y0152545D01*
X0238150Y0151346D02*
X0236780Y0151346D01*
X0237109Y0150148D02*
X0238143Y0150148D01*
X0238404Y0148949D02*
X0237121Y0148949D01*
X0250677Y0153744D02*
X0250943Y0153744D01*
X0254136Y0150148D02*
X0268143Y0150148D01*
X0268150Y0151346D02*
X0255334Y0151346D01*
X0256533Y0152545D02*
X0268646Y0152545D01*
X0269609Y0153744D02*
X0257731Y0153744D01*
X0258930Y0154942D02*
X0334532Y0154942D01*
X0334534Y0153744D02*
X0280677Y0153744D01*
X0281640Y0152545D02*
X0334537Y0152545D01*
X0334539Y0151346D02*
X0282137Y0151346D01*
X0282143Y0150148D02*
X0334541Y0150148D01*
X0334543Y0148949D02*
X0281882Y0148949D01*
X0278825Y0156141D02*
X0334530Y0156141D01*
X0334528Y0157339D02*
X0280850Y0157339D01*
X0280236Y0156725D02*
X0281473Y0157963D01*
X0282143Y0159580D01*
X0282143Y0161330D01*
X0281473Y0162948D01*
X0280236Y0164185D01*
X0278619Y0164855D01*
X0271668Y0164855D01*
X0270051Y0164185D01*
X0268813Y0162948D01*
X0268143Y0161330D01*
X0268143Y0159580D01*
X0268813Y0157963D01*
X0270051Y0156725D01*
X0271668Y0156055D01*
X0278619Y0156055D01*
X0280236Y0156725D01*
X0281712Y0158538D02*
X0334526Y0158538D01*
X0334524Y0159736D02*
X0305718Y0159736D01*
X0306369Y0160006D02*
X0307955Y0161592D01*
X0308813Y0163664D01*
X0308813Y0165907D01*
X0307955Y0167980D01*
X0306369Y0169566D01*
X0304296Y0170424D01*
X0302053Y0170424D01*
X0299981Y0169566D01*
X0298395Y0167980D01*
X0297536Y0165907D01*
X0297536Y0163664D01*
X0298395Y0161592D01*
X0299981Y0160006D01*
X0302053Y0159147D01*
X0304296Y0159147D01*
X0306369Y0160006D01*
X0307298Y0160935D02*
X0334522Y0160935D01*
X0334520Y0162133D02*
X0308179Y0162133D01*
X0308676Y0163332D02*
X0334518Y0163332D01*
X0334516Y0164530D02*
X0308813Y0164530D01*
X0308813Y0165729D02*
X0334514Y0165729D01*
X0334512Y0166927D02*
X0308391Y0166927D01*
X0307809Y0168126D02*
X0334510Y0168126D01*
X0334508Y0169324D02*
X0306611Y0169324D01*
X0299739Y0169324D02*
X0261480Y0169324D01*
X0261480Y0168126D02*
X0298540Y0168126D01*
X0297959Y0166927D02*
X0261480Y0166927D01*
X0261480Y0165729D02*
X0297536Y0165729D01*
X0297536Y0164530D02*
X0279403Y0164530D01*
X0281089Y0163332D02*
X0297674Y0163332D01*
X0298170Y0162133D02*
X0281811Y0162133D01*
X0282143Y0160935D02*
X0299052Y0160935D01*
X0300632Y0159736D02*
X0282143Y0159736D01*
X0271462Y0156141D02*
X0260128Y0156141D01*
X0261203Y0157339D02*
X0269437Y0157339D01*
X0268575Y0158538D02*
X0261480Y0158538D01*
X0261480Y0159736D02*
X0268143Y0159736D01*
X0268143Y0160935D02*
X0261480Y0160935D01*
X0261480Y0162133D02*
X0268476Y0162133D01*
X0269197Y0163332D02*
X0261480Y0163332D01*
X0261480Y0164530D02*
X0270883Y0164530D01*
X0267728Y0172920D02*
X0334502Y0172920D01*
X0334500Y0174118D02*
X0268927Y0174118D01*
X0270055Y0175317D02*
X0334498Y0175317D01*
X0334496Y0176515D02*
X0270055Y0176515D01*
X0270055Y0177714D02*
X0334494Y0177714D01*
X0334492Y0178912D02*
X0270035Y0178912D01*
X0268836Y0180111D02*
X0299923Y0180111D01*
X0299632Y0180323D02*
X0300324Y0179819D01*
X0301087Y0179431D01*
X0301901Y0179166D01*
X0302575Y0179060D01*
X0302575Y0183871D01*
X0303775Y0183871D01*
X0303775Y0185071D01*
X0308586Y0185071D01*
X0308479Y0185744D01*
X0308215Y0186559D01*
X0307826Y0187321D01*
X0307323Y0188014D01*
X0306718Y0188619D01*
X0306025Y0189122D01*
X0305262Y0189511D01*
X0304448Y0189776D01*
X0303775Y0189882D01*
X0303775Y0185071D01*
X0302575Y0185071D01*
X0302575Y0189882D01*
X0301901Y0189776D01*
X0301087Y0189511D01*
X0300324Y0189122D01*
X0299632Y0188619D01*
X0299026Y0188014D01*
X0298523Y0187321D01*
X0298135Y0186559D01*
X0297870Y0185744D01*
X0297763Y0185071D01*
X0302575Y0185071D01*
X0302575Y0183871D01*
X0297763Y0183871D01*
X0297870Y0183197D01*
X0298135Y0182383D01*
X0298523Y0181620D01*
X0299026Y0180928D01*
X0299632Y0180323D01*
X0298749Y0181309D02*
X0267638Y0181309D01*
X0263673Y0181309D02*
X0261480Y0181309D01*
X0261480Y0180111D02*
X0262474Y0180111D01*
X0261480Y0182508D02*
X0298094Y0182508D01*
X0297790Y0183706D02*
X0261480Y0183706D01*
X0261480Y0184905D02*
X0302575Y0184905D01*
X0302575Y0186103D02*
X0303775Y0186103D01*
X0303775Y0184905D02*
X0334482Y0184905D01*
X0334480Y0186103D02*
X0308363Y0186103D01*
X0307836Y0187302D02*
X0334478Y0187302D01*
X0334476Y0188500D02*
X0306837Y0188500D01*
X0304684Y0189699D02*
X0334474Y0189699D01*
X0334472Y0190897D02*
X0261480Y0190897D01*
X0261480Y0189699D02*
X0301665Y0189699D01*
X0302575Y0189699D02*
X0303775Y0189699D01*
X0303775Y0188500D02*
X0302575Y0188500D01*
X0302575Y0187302D02*
X0303775Y0187302D01*
X0303775Y0183871D02*
X0308586Y0183871D01*
X0308479Y0183197D01*
X0308215Y0182383D01*
X0307826Y0181620D01*
X0307323Y0180928D01*
X0306718Y0180323D01*
X0306025Y0179819D01*
X0305262Y0179431D01*
X0304448Y0179166D01*
X0303775Y0179060D01*
X0303775Y0183871D01*
X0303775Y0183706D02*
X0302575Y0183706D01*
X0302575Y0182508D02*
X0303775Y0182508D01*
X0303775Y0181309D02*
X0302575Y0181309D01*
X0302575Y0180111D02*
X0303775Y0180111D01*
X0306426Y0180111D02*
X0334490Y0180111D01*
X0334488Y0181309D02*
X0307600Y0181309D01*
X0308255Y0182508D02*
X0334486Y0182508D01*
X0334484Y0183706D02*
X0308560Y0183706D01*
X0299513Y0188500D02*
X0261480Y0188500D01*
X0261480Y0187302D02*
X0298513Y0187302D01*
X0297987Y0186103D02*
X0261480Y0186103D01*
X0261480Y0192096D02*
X0334470Y0192096D01*
X0334468Y0193294D02*
X0261480Y0193294D01*
X0261480Y0194493D02*
X0334466Y0194493D01*
X0334464Y0195691D02*
X0261480Y0195691D01*
X0261480Y0196890D02*
X0334462Y0196890D01*
X0334460Y0198088D02*
X0261480Y0198088D01*
X0261480Y0199287D02*
X0313281Y0199287D01*
X0311052Y0200485D02*
X0261480Y0200485D01*
X0261480Y0201684D02*
X0308999Y0201684D01*
X0307800Y0202882D02*
X0261480Y0202882D01*
X0261480Y0204081D02*
X0306602Y0204081D01*
X0305567Y0205279D02*
X0261480Y0205279D01*
X0261480Y0206478D02*
X0304875Y0206478D01*
X0304183Y0207677D02*
X0261215Y0207677D01*
X0260157Y0208875D02*
X0303496Y0208875D01*
X0303175Y0210074D02*
X0258958Y0210074D01*
X0257760Y0211272D02*
X0302854Y0211272D01*
X0302533Y0212471D02*
X0256561Y0212471D01*
X0255363Y0213669D02*
X0262833Y0213669D01*
X0263833Y0212669D02*
X0261255Y0215247D01*
X0261255Y0218892D01*
X0263833Y0221469D01*
X0267478Y0221469D01*
X0270055Y0218892D01*
X0270055Y0215247D01*
X0267478Y0212669D01*
X0263833Y0212669D01*
X0261634Y0214868D02*
X0254164Y0214868D01*
X0252968Y0216066D02*
X0261255Y0216066D01*
X0261255Y0217265D02*
X0252968Y0217265D01*
X0252968Y0218463D02*
X0261255Y0218463D01*
X0262025Y0219662D02*
X0252199Y0219662D01*
X0251000Y0220860D02*
X0263223Y0220860D01*
X0268087Y0220860D02*
X0303118Y0220860D01*
X0302797Y0219662D02*
X0269285Y0219662D01*
X0270055Y0218463D02*
X0302476Y0218463D01*
X0302315Y0217265D02*
X0270055Y0217265D01*
X0270055Y0216066D02*
X0302315Y0216066D01*
X0302315Y0214868D02*
X0269676Y0214868D01*
X0268477Y0213669D02*
X0302315Y0213669D01*
X0303439Y0222059D02*
X0133521Y0222059D01*
X0133874Y0223257D02*
X0304060Y0223257D01*
X0304752Y0224456D02*
X0133874Y0224456D01*
X0133874Y0225654D02*
X0305444Y0225654D01*
X0306389Y0226853D02*
X0133078Y0226853D01*
X0131880Y0228051D02*
X0307588Y0228051D01*
X0308786Y0229250D02*
X0032209Y0229250D01*
X0038680Y0213669D02*
X0123656Y0213669D01*
X0122331Y0212471D02*
X0038463Y0212471D01*
X0038141Y0211272D02*
X0121693Y0211272D01*
X0121359Y0210074D02*
X0116728Y0210074D01*
X0116408Y0210393D02*
X0114387Y0211231D01*
X0112199Y0211231D01*
X0110177Y0210393D01*
X0108630Y0208846D01*
X0108293Y0208032D01*
X0107956Y0208846D01*
X0106408Y0210393D01*
X0104387Y0211231D01*
X0102199Y0211231D01*
X0100177Y0210393D01*
X0098630Y0208846D01*
X0097793Y0206825D01*
X0097793Y0204637D01*
X0098630Y0202615D01*
X0100177Y0201068D01*
X0102199Y0200231D01*
X0104387Y0200231D01*
X0106408Y0201068D01*
X0107956Y0202615D01*
X0108293Y0203430D01*
X0108630Y0202615D01*
X0110177Y0201068D01*
X0112199Y0200231D01*
X0114387Y0200231D01*
X0116408Y0201068D01*
X0117956Y0202615D01*
X0118793Y0204637D01*
X0118793Y0206825D01*
X0117956Y0208846D01*
X0116408Y0210393D01*
X0117927Y0208875D02*
X0121359Y0208875D01*
X0121723Y0207677D02*
X0118440Y0207677D01*
X0118793Y0206478D02*
X0122403Y0206478D01*
X0123830Y0205279D02*
X0118793Y0205279D01*
X0118563Y0204081D02*
X0124651Y0204081D01*
X0122743Y0202882D02*
X0118066Y0202882D01*
X0117024Y0201684D02*
X0121864Y0201684D01*
X0121368Y0200485D02*
X0115002Y0200485D01*
X0111584Y0200485D02*
X0105002Y0200485D01*
X0107024Y0201684D02*
X0109561Y0201684D01*
X0108520Y0202882D02*
X0108066Y0202882D01*
X0107927Y0208875D02*
X0108659Y0208875D01*
X0109858Y0210074D02*
X0106728Y0210074D01*
X0099858Y0210074D02*
X0037820Y0210074D01*
X0037499Y0208875D02*
X0098659Y0208875D01*
X0098146Y0207677D02*
X0036812Y0207677D01*
X0036120Y0206478D02*
X0097793Y0206478D01*
X0097793Y0205279D02*
X0035428Y0205279D01*
X0034393Y0204081D02*
X0098023Y0204081D01*
X0098520Y0202882D02*
X0033195Y0202882D01*
X0031996Y0201684D02*
X0099561Y0201684D01*
X0101584Y0200485D02*
X0029943Y0200485D01*
X0027714Y0199287D02*
X0121359Y0199287D01*
X0121552Y0198088D02*
X0006663Y0198088D01*
X0006665Y0196890D02*
X0122049Y0196890D01*
X0055934Y0230448D02*
X0310684Y0230448D01*
X0333853Y0205279D02*
X0334448Y0205279D01*
X0334450Y0204081D02*
X0332819Y0204081D01*
X0331620Y0202882D02*
X0334452Y0202882D01*
X0334454Y0201684D02*
X0330422Y0201684D01*
X0328368Y0200485D02*
X0334456Y0200485D01*
X0334458Y0199287D02*
X0326139Y0199287D01*
X0334504Y0171721D02*
X0261480Y0171721D01*
X0261480Y0170523D02*
X0334506Y0170523D01*
X0334545Y0147751D02*
X0298093Y0147751D01*
X0299605Y0146552D02*
X0334547Y0146552D01*
X0334549Y0145354D02*
X0300804Y0145354D01*
X0297269Y0145494D02*
X0303175Y0139589D01*
X0308379Y0141758D02*
X0334555Y0141758D01*
X0334557Y0140560D02*
X0308813Y0140560D01*
X0308813Y0139361D02*
X0334559Y0139361D01*
X0334561Y0138163D02*
X0308687Y0138163D01*
X0308191Y0136964D02*
X0334563Y0136964D01*
X0334565Y0135766D02*
X0307326Y0135766D01*
X0305786Y0134567D02*
X0334567Y0134567D01*
X0334569Y0133369D02*
X0280769Y0133369D01*
X0280947Y0133191D02*
X0280479Y0133659D01*
X0279945Y0134047D01*
X0279356Y0134347D01*
X0278727Y0134552D01*
X0278074Y0134655D01*
X0275343Y0134655D01*
X0275343Y0130655D01*
X0281943Y0130655D01*
X0281943Y0130786D01*
X0281840Y0131439D01*
X0281636Y0132067D01*
X0281335Y0132656D01*
X0280947Y0133191D01*
X0281583Y0132170D02*
X0334571Y0132170D01*
X0334573Y0130972D02*
X0281914Y0130972D01*
X0281888Y0129773D02*
X0334575Y0129773D01*
X0334577Y0128575D02*
X0281499Y0128575D01*
X0275343Y0130972D02*
X0274943Y0130972D01*
X0274943Y0130655D02*
X0274943Y0134655D01*
X0272213Y0134655D01*
X0271560Y0134552D01*
X0270931Y0134347D01*
X0270342Y0134047D01*
X0269807Y0133659D01*
X0269340Y0133191D01*
X0268951Y0132656D01*
X0268651Y0132067D01*
X0268447Y0131439D01*
X0268343Y0130786D01*
X0268343Y0130655D01*
X0274943Y0130655D01*
X0274943Y0132170D02*
X0275343Y0132170D01*
X0275343Y0133369D02*
X0274943Y0133369D01*
X0274943Y0134567D02*
X0275343Y0134567D01*
X0278628Y0134567D02*
X0300564Y0134567D01*
X0299097Y0127376D02*
X0334579Y0127376D01*
X0334581Y0126178D02*
X0300295Y0126178D01*
X0297663Y0125416D02*
X0233647Y0125416D01*
X0229553Y0129510D01*
X0236269Y0122582D02*
X0238662Y0122582D01*
X0238165Y0121384D02*
X0236972Y0121384D01*
X0237353Y0120185D02*
X0238143Y0120185D01*
X0238389Y0118987D02*
X0237353Y0118987D01*
X0237035Y0117788D02*
X0238988Y0117788D01*
X0240378Y0116590D02*
X0236420Y0116590D01*
X0235151Y0115391D02*
X0299713Y0115391D01*
X0298515Y0116590D02*
X0279909Y0116590D01*
X0281299Y0117788D02*
X0297948Y0117788D01*
X0297536Y0118987D02*
X0281898Y0118987D01*
X0282143Y0120185D02*
X0297536Y0120185D01*
X0297685Y0121384D02*
X0282121Y0121384D01*
X0281625Y0122582D02*
X0297102Y0122582D01*
X0297663Y0125416D02*
X0303175Y0119904D01*
X0308402Y0117788D02*
X0334595Y0117788D01*
X0334597Y0116590D02*
X0307835Y0116590D01*
X0306636Y0115391D02*
X0334599Y0115391D01*
X0334601Y0114193D02*
X0280218Y0114193D01*
X0280236Y0114185D02*
X0278619Y0114855D01*
X0271668Y0114855D01*
X0270051Y0114185D01*
X0268813Y0112948D01*
X0268143Y0111330D01*
X0268143Y0109580D01*
X0268813Y0107963D01*
X0270051Y0106725D01*
X0271668Y0106055D01*
X0278619Y0106055D01*
X0280236Y0106725D01*
X0281473Y0107963D01*
X0282143Y0109580D01*
X0282143Y0111330D01*
X0281473Y0112948D01*
X0280236Y0114185D01*
X0281427Y0112994D02*
X0334603Y0112994D01*
X0334605Y0111796D02*
X0281951Y0111796D01*
X0282143Y0110597D02*
X0334607Y0110597D01*
X0334609Y0109399D02*
X0282068Y0109399D01*
X0281572Y0108200D02*
X0334611Y0108200D01*
X0334613Y0107002D02*
X0280512Y0107002D01*
X0279223Y0104605D02*
X0334617Y0104605D01*
X0334615Y0105803D02*
X0235634Y0105803D01*
X0236709Y0107002D02*
X0239774Y0107002D01*
X0240051Y0106725D02*
X0241668Y0106055D01*
X0248619Y0106055D01*
X0250236Y0106725D01*
X0251473Y0107963D01*
X0252143Y0109580D01*
X0252143Y0111330D01*
X0251473Y0112948D01*
X0250236Y0114185D01*
X0248619Y0114855D01*
X0241668Y0114855D01*
X0240051Y0114185D01*
X0238813Y0112948D01*
X0238143Y0111330D01*
X0238143Y0109580D01*
X0238813Y0107963D01*
X0240051Y0106725D01*
X0238715Y0108200D02*
X0237206Y0108200D01*
X0237353Y0109399D02*
X0238218Y0109399D01*
X0238143Y0110597D02*
X0237298Y0110597D01*
X0236802Y0111796D02*
X0238336Y0111796D01*
X0238860Y0112994D02*
X0235857Y0112994D01*
X0233791Y0114193D02*
X0240069Y0114193D01*
X0249909Y0116590D02*
X0270378Y0116590D01*
X0268988Y0117788D02*
X0251299Y0117788D01*
X0251898Y0118987D02*
X0268389Y0118987D01*
X0268143Y0120185D02*
X0252143Y0120185D01*
X0252121Y0121384D02*
X0268165Y0121384D01*
X0268662Y0122582D02*
X0251625Y0122582D01*
X0251727Y0128575D02*
X0268788Y0128575D01*
X0268399Y0129773D02*
X0252143Y0129773D01*
X0252143Y0130972D02*
X0268373Y0130972D01*
X0268703Y0132170D02*
X0251795Y0132170D01*
X0251052Y0133369D02*
X0269517Y0133369D01*
X0271659Y0134567D02*
X0249313Y0134567D01*
X0250475Y0136964D02*
X0269812Y0136964D01*
X0268730Y0138163D02*
X0251556Y0138163D01*
X0252053Y0139361D02*
X0268234Y0139361D01*
X0268143Y0140560D02*
X0252143Y0140560D01*
X0251966Y0141758D02*
X0268321Y0141758D01*
X0268823Y0142957D02*
X0251464Y0142957D01*
X0252937Y0148949D02*
X0268404Y0148949D01*
X0263582Y0172920D02*
X0261480Y0172920D01*
X0261480Y0174118D02*
X0262384Y0174118D01*
X0256680Y0195691D02*
X0235522Y0195691D01*
X0236663Y0196890D02*
X0256680Y0196890D01*
X0256680Y0198088D02*
X0237159Y0198088D01*
X0237353Y0199287D02*
X0256680Y0199287D01*
X0256680Y0200485D02*
X0237344Y0200485D01*
X0236848Y0201684D02*
X0256680Y0201684D01*
X0256680Y0202882D02*
X0235969Y0202882D01*
X0306583Y0144155D02*
X0334551Y0144155D01*
X0334553Y0142957D02*
X0307781Y0142957D01*
X0305656Y0124979D02*
X0334583Y0124979D01*
X0334585Y0123781D02*
X0307272Y0123781D01*
X0308169Y0122582D02*
X0334587Y0122582D01*
X0334589Y0121384D02*
X0308665Y0121384D01*
X0308813Y0120185D02*
X0334591Y0120185D01*
X0334593Y0118987D02*
X0308813Y0118987D01*
X0334619Y0103406D02*
X0281015Y0103406D01*
X0281473Y0102948D02*
X0280236Y0104185D01*
X0278619Y0104855D01*
X0271668Y0104855D01*
X0270051Y0104185D01*
X0268813Y0102948D01*
X0268143Y0101330D01*
X0268143Y0099580D01*
X0268813Y0097963D01*
X0270051Y0096725D01*
X0271668Y0096055D01*
X0278619Y0096055D01*
X0280236Y0096725D01*
X0281473Y0097963D01*
X0282143Y0099580D01*
X0282143Y0101330D01*
X0281473Y0102948D01*
X0281780Y0102208D02*
X0334621Y0102208D01*
X0334623Y0101009D02*
X0282143Y0101009D01*
X0282143Y0099810D02*
X0334625Y0099810D01*
X0334627Y0098612D02*
X0281742Y0098612D01*
X0280924Y0097413D02*
X0334629Y0097413D01*
X0334631Y0096215D02*
X0304764Y0096215D01*
X0306903Y0095016D02*
X0334633Y0095016D01*
X0334635Y0093818D02*
X0308015Y0093818D01*
X0308512Y0092619D02*
X0334637Y0092619D01*
X0334639Y0091421D02*
X0308813Y0091421D01*
X0308813Y0090222D02*
X0334641Y0090222D01*
X0334643Y0089024D02*
X0308555Y0089024D01*
X0308058Y0087825D02*
X0334645Y0087825D01*
X0334647Y0086627D02*
X0307006Y0086627D01*
X0305013Y0085428D02*
X0334649Y0085428D01*
X0334652Y0084230D02*
X0275343Y0084230D01*
X0275343Y0084317D02*
X0281943Y0084317D01*
X0281943Y0084447D01*
X0281840Y0085100D01*
X0281636Y0085729D01*
X0281335Y0086318D01*
X0280947Y0086853D01*
X0280479Y0087320D01*
X0279945Y0087709D01*
X0279356Y0088009D01*
X0278727Y0088213D01*
X0278074Y0088317D01*
X0275343Y0088317D01*
X0275343Y0084317D01*
X0274943Y0084230D02*
X0252143Y0084230D01*
X0252056Y0083031D02*
X0268480Y0083031D01*
X0269011Y0081833D02*
X0251560Y0081833D01*
X0250484Y0080634D02*
X0270191Y0080634D01*
X0270994Y0078237D02*
X0248574Y0078237D01*
X0248727Y0078213D02*
X0248074Y0078317D01*
X0245343Y0078317D01*
X0245343Y0074317D01*
X0244943Y0074317D01*
X0244943Y0073917D01*
X0238343Y0073917D01*
X0238343Y0073786D01*
X0238447Y0073133D01*
X0238651Y0072504D01*
X0238951Y0071915D01*
X0239340Y0071380D01*
X0239807Y0070913D01*
X0240342Y0070524D01*
X0240931Y0070224D01*
X0241560Y0070020D01*
X0242213Y0069917D01*
X0244943Y0069917D01*
X0244943Y0073916D01*
X0245343Y0073916D01*
X0245343Y0069917D01*
X0248074Y0069917D01*
X0248727Y0070020D01*
X0249356Y0070224D01*
X0249945Y0070524D01*
X0250479Y0070913D01*
X0250947Y0071380D01*
X0251335Y0071915D01*
X0251636Y0072504D01*
X0251840Y0073133D01*
X0251943Y0073786D01*
X0251943Y0073917D01*
X0245343Y0073917D01*
X0245343Y0074317D01*
X0251943Y0074317D01*
X0251943Y0074447D01*
X0251840Y0075100D01*
X0251636Y0075729D01*
X0251335Y0076318D01*
X0250947Y0076853D01*
X0250479Y0077320D01*
X0249945Y0077709D01*
X0249356Y0078009D01*
X0248727Y0078213D01*
X0250761Y0077039D02*
X0269243Y0077039D01*
X0268495Y0075840D02*
X0251579Y0075840D01*
X0251912Y0074642D02*
X0268143Y0074642D01*
X0268143Y0073443D02*
X0251889Y0073443D01*
X0251503Y0072245D02*
X0268556Y0072245D01*
X0269391Y0071046D02*
X0250613Y0071046D01*
X0250632Y0067451D02*
X0269655Y0067451D01*
X0268665Y0066252D02*
X0255557Y0066252D01*
X0256756Y0065054D02*
X0268169Y0065054D01*
X0268143Y0063855D02*
X0257954Y0063855D01*
X0259153Y0062657D02*
X0268385Y0062657D01*
X0268979Y0061458D02*
X0260351Y0061458D01*
X0255293Y0057863D02*
X0250197Y0057863D01*
X0250236Y0057847D02*
X0248619Y0058517D01*
X0241668Y0058517D01*
X0240051Y0057847D01*
X0238813Y0056609D01*
X0238143Y0054992D01*
X0238143Y0053241D01*
X0238813Y0051624D01*
X0240051Y0050386D01*
X0241668Y0049717D01*
X0248619Y0049717D01*
X0250236Y0050386D01*
X0251473Y0051624D01*
X0252143Y0053241D01*
X0252143Y0054992D01*
X0251473Y0056609D01*
X0250236Y0057847D01*
X0251418Y0056664D02*
X0255293Y0056664D01*
X0255293Y0055466D02*
X0251947Y0055466D01*
X0252143Y0054267D02*
X0255293Y0054267D01*
X0255293Y0053069D02*
X0252072Y0053069D01*
X0251575Y0051870D02*
X0255293Y0051870D01*
X0255293Y0050672D02*
X0250521Y0050672D01*
X0255293Y0049473D02*
X0237353Y0049473D01*
X0237353Y0048555D02*
X0237353Y0050465D01*
X0236622Y0052229D01*
X0235272Y0053579D01*
X0233508Y0054310D01*
X0225598Y0054310D01*
X0223834Y0053579D01*
X0222484Y0052229D01*
X0221753Y0050465D01*
X0221753Y0048555D01*
X0222484Y0046791D01*
X0223834Y0045441D01*
X0225598Y0044710D01*
X0233508Y0044710D01*
X0235272Y0045441D01*
X0236622Y0046791D01*
X0237353Y0048555D01*
X0237236Y0048275D02*
X0255293Y0048275D01*
X0255293Y0047076D02*
X0236740Y0047076D01*
X0235708Y0045877D02*
X0255293Y0045877D01*
X0255293Y0044679D02*
X0117986Y0044679D01*
X0117986Y0045877D02*
X0123004Y0045877D01*
X0123440Y0045441D02*
X0125204Y0044710D01*
X0133114Y0044710D01*
X0134878Y0045441D01*
X0136228Y0046791D01*
X0136959Y0048555D01*
X0136959Y0050465D01*
X0136228Y0052229D01*
X0134878Y0053579D01*
X0133114Y0054310D01*
X0125204Y0054310D01*
X0123440Y0053579D01*
X0122090Y0052229D01*
X0121359Y0050465D01*
X0121359Y0048555D01*
X0122090Y0046791D01*
X0123440Y0045441D01*
X0123440Y0043579D02*
X0122090Y0042229D01*
X0121359Y0040465D01*
X0121359Y0038555D01*
X0122090Y0036791D01*
X0123440Y0035441D01*
X0125204Y0034710D01*
X0133114Y0034710D01*
X0134878Y0035441D01*
X0136228Y0036791D01*
X0136959Y0038555D01*
X0136959Y0040465D01*
X0136228Y0042229D01*
X0134878Y0043579D01*
X0133114Y0044310D01*
X0125204Y0044310D01*
X0123440Y0043579D01*
X0123341Y0043480D02*
X0117986Y0043480D01*
X0117986Y0042282D02*
X0122143Y0042282D01*
X0121615Y0041083D02*
X0117986Y0041083D01*
X0117986Y0039885D02*
X0121359Y0039885D01*
X0121359Y0038686D02*
X0117986Y0038686D01*
X0117986Y0037488D02*
X0121801Y0037488D01*
X0122592Y0036289D02*
X0117986Y0036289D01*
X0119002Y0035091D02*
X0124285Y0035091D01*
X0124195Y0033892D02*
X0120201Y0033892D01*
X0121399Y0032694D02*
X0122554Y0032694D01*
X0134123Y0033892D02*
X0224589Y0033892D01*
X0223834Y0033579D02*
X0222484Y0032229D01*
X0221753Y0030465D01*
X0221753Y0028555D01*
X0222484Y0026791D01*
X0223834Y0025441D01*
X0225598Y0024710D01*
X0233508Y0024710D01*
X0235272Y0025441D01*
X0236622Y0026791D01*
X0237353Y0028555D01*
X0237353Y0030465D01*
X0236622Y0032229D01*
X0235272Y0033579D01*
X0233508Y0034310D01*
X0225598Y0034310D01*
X0223834Y0033579D01*
X0222948Y0032694D02*
X0135764Y0032694D01*
X0136532Y0031495D02*
X0222180Y0031495D01*
X0221753Y0030297D02*
X0136959Y0030297D01*
X0136959Y0029098D02*
X0221753Y0029098D01*
X0222024Y0027900D02*
X0136687Y0027900D01*
X0136211Y0026701D02*
X0222573Y0026701D01*
X0223772Y0025503D02*
X0137409Y0025503D01*
X0138608Y0024304D02*
X0237978Y0024304D01*
X0239177Y0025503D02*
X0235334Y0025503D01*
X0236532Y0026701D02*
X0240375Y0026701D01*
X0241574Y0027900D02*
X0237081Y0027900D01*
X0237353Y0029098D02*
X0242772Y0029098D01*
X0243971Y0030297D02*
X0237353Y0030297D01*
X0236926Y0031495D02*
X0245169Y0031495D01*
X0246368Y0032694D02*
X0236157Y0032694D01*
X0234516Y0033892D02*
X0247566Y0033892D01*
X0248765Y0035091D02*
X0234426Y0035091D01*
X0235272Y0035441D02*
X0236622Y0036791D01*
X0237353Y0038555D01*
X0237353Y0040465D01*
X0236622Y0042229D01*
X0235272Y0043579D01*
X0233508Y0044310D01*
X0225598Y0044310D01*
X0223834Y0043579D01*
X0222484Y0042229D01*
X0221753Y0040465D01*
X0221753Y0038555D01*
X0222484Y0036791D01*
X0223834Y0035441D01*
X0225598Y0034710D01*
X0233508Y0034710D01*
X0235272Y0035441D01*
X0236120Y0036289D02*
X0249963Y0036289D01*
X0251162Y0037488D02*
X0236911Y0037488D01*
X0237353Y0038686D02*
X0252360Y0038686D01*
X0253559Y0039885D02*
X0237353Y0039885D01*
X0237097Y0041083D02*
X0254757Y0041083D01*
X0255293Y0042282D02*
X0236569Y0042282D01*
X0235371Y0043480D02*
X0255293Y0043480D01*
X0239766Y0050672D02*
X0237267Y0050672D01*
X0236771Y0051870D02*
X0238711Y0051870D01*
X0238215Y0053069D02*
X0235783Y0053069D01*
X0235272Y0055441D02*
X0236622Y0056791D01*
X0237353Y0058555D01*
X0237353Y0060465D01*
X0236622Y0062229D01*
X0235272Y0063579D01*
X0233508Y0064310D01*
X0225598Y0064310D01*
X0223834Y0063579D01*
X0222484Y0062229D01*
X0221753Y0060465D01*
X0221753Y0058555D01*
X0222484Y0056791D01*
X0223834Y0055441D01*
X0225598Y0054710D01*
X0233508Y0054710D01*
X0235272Y0055441D01*
X0235296Y0055466D02*
X0238340Y0055466D01*
X0238143Y0054267D02*
X0233612Y0054267D01*
X0236495Y0056664D02*
X0238868Y0056664D01*
X0240089Y0057863D02*
X0237066Y0057863D01*
X0237353Y0059061D02*
X0254263Y0059061D01*
X0253065Y0060260D02*
X0249930Y0060260D01*
X0240357Y0060260D02*
X0237353Y0060260D01*
X0236941Y0061458D02*
X0238979Y0061458D01*
X0238385Y0062657D02*
X0236195Y0062657D01*
X0234606Y0063855D02*
X0238143Y0063855D01*
X0238169Y0065054D02*
X0234337Y0065054D01*
X0233508Y0064710D02*
X0235272Y0065441D01*
X0236622Y0066791D01*
X0237353Y0068555D01*
X0237353Y0070465D01*
X0236622Y0072229D01*
X0235272Y0073579D01*
X0233508Y0074310D01*
X0225598Y0074310D01*
X0223834Y0073579D01*
X0222484Y0072229D01*
X0221753Y0070465D01*
X0221753Y0068555D01*
X0222484Y0066791D01*
X0223834Y0065441D01*
X0225598Y0064710D01*
X0233508Y0064710D01*
X0236083Y0066252D02*
X0238665Y0066252D01*
X0239655Y0067451D02*
X0236895Y0067451D01*
X0237353Y0068649D02*
X0298081Y0068649D01*
X0297584Y0069848D02*
X0278935Y0069848D01*
X0280896Y0071046D02*
X0297536Y0071046D01*
X0297552Y0072245D02*
X0281730Y0072245D01*
X0282143Y0073443D02*
X0298048Y0073443D01*
X0298757Y0074642D02*
X0282143Y0074642D01*
X0275343Y0080634D02*
X0274943Y0080634D01*
X0274943Y0081833D02*
X0275343Y0081833D01*
X0275343Y0083031D02*
X0274943Y0083031D01*
X0274943Y0085428D02*
X0275343Y0085428D01*
X0275343Y0086627D02*
X0274943Y0086627D01*
X0274943Y0087825D02*
X0275343Y0087825D01*
X0279716Y0087825D02*
X0298291Y0087825D01*
X0299344Y0086627D02*
X0281111Y0086627D01*
X0281733Y0085428D02*
X0301337Y0085428D01*
X0301586Y0096215D02*
X0279004Y0096215D01*
X0271282Y0096215D02*
X0249004Y0096215D01*
X0250924Y0097413D02*
X0269362Y0097413D01*
X0268544Y0098612D02*
X0251742Y0098612D01*
X0252143Y0099810D02*
X0268143Y0099810D01*
X0268143Y0101009D02*
X0252143Y0101009D01*
X0251780Y0102208D02*
X0268507Y0102208D01*
X0269272Y0103406D02*
X0251015Y0103406D01*
X0249223Y0104605D02*
X0271063Y0104605D01*
X0269774Y0107002D02*
X0250512Y0107002D01*
X0251572Y0108200D02*
X0268715Y0108200D01*
X0268218Y0109399D02*
X0252068Y0109399D01*
X0252143Y0110597D02*
X0268143Y0110597D01*
X0268336Y0111796D02*
X0251951Y0111796D01*
X0251427Y0112994D02*
X0268860Y0112994D01*
X0270069Y0114193D02*
X0250218Y0114193D01*
X0223248Y0112994D02*
X0204969Y0112994D01*
X0206167Y0111796D02*
X0222304Y0111796D01*
X0221807Y0110597D02*
X0207181Y0110597D01*
X0207181Y0109399D02*
X0221753Y0109399D01*
X0221900Y0108200D02*
X0207181Y0108200D01*
X0207046Y0107002D02*
X0222396Y0107002D01*
X0200913Y0104605D02*
X0189688Y0104605D01*
X0190887Y0105803D02*
X0199715Y0105803D01*
X0198516Y0107002D02*
X0192086Y0107002D01*
X0192220Y0108200D02*
X0198381Y0108200D01*
X0198381Y0109399D02*
X0192220Y0109399D01*
X0192220Y0110597D02*
X0198381Y0110597D01*
X0199395Y0111796D02*
X0191206Y0111796D01*
X0190008Y0112994D02*
X0200594Y0112994D01*
X0223286Y0083031D02*
X0135139Y0083031D01*
X0135156Y0083019D02*
X0134570Y0083445D01*
X0133925Y0083773D01*
X0133236Y0083997D01*
X0132521Y0084110D01*
X0129559Y0084110D01*
X0129559Y0079910D01*
X0136753Y0079910D01*
X0136646Y0080587D01*
X0136422Y0081276D01*
X0136093Y0081921D01*
X0135668Y0082507D01*
X0135156Y0083019D01*
X0136138Y0081833D02*
X0222319Y0081833D01*
X0221823Y0080634D02*
X0136631Y0080634D01*
X0136753Y0079110D02*
X0129559Y0079110D01*
X0129559Y0074910D01*
X0132521Y0074910D01*
X0133236Y0075023D01*
X0133925Y0075247D01*
X0134570Y0075576D01*
X0135156Y0076002D01*
X0135668Y0076514D01*
X0136093Y0077099D01*
X0136422Y0077744D01*
X0136646Y0078433D01*
X0136753Y0079110D01*
X0136582Y0078237D02*
X0221885Y0078237D01*
X0221753Y0079436D02*
X0129559Y0079436D01*
X0129559Y0079110D02*
X0129559Y0079910D01*
X0128759Y0079910D01*
X0128759Y0079110D01*
X0129559Y0079110D01*
X0128759Y0079110D02*
X0128759Y0074910D01*
X0125797Y0074910D01*
X0125082Y0075023D01*
X0124393Y0075247D01*
X0123748Y0075576D01*
X0123162Y0076002D01*
X0122650Y0076514D01*
X0122225Y0077099D01*
X0121896Y0077744D01*
X0121672Y0078433D01*
X0121565Y0079110D01*
X0128759Y0079110D01*
X0128759Y0079436D02*
X0117986Y0079436D01*
X0117986Y0080634D02*
X0121688Y0080634D01*
X0121672Y0080587D02*
X0121565Y0079910D01*
X0128759Y0079910D01*
X0128759Y0084110D01*
X0125797Y0084110D01*
X0125082Y0083997D01*
X0124393Y0083773D01*
X0123748Y0083445D01*
X0123162Y0083019D01*
X0122650Y0082507D01*
X0122225Y0081921D01*
X0121896Y0081276D01*
X0121672Y0080587D01*
X0122180Y0081833D02*
X0117986Y0081833D01*
X0117986Y0083031D02*
X0123179Y0083031D01*
X0128759Y0083031D02*
X0129559Y0083031D01*
X0129559Y0081833D02*
X0128759Y0081833D01*
X0128759Y0080634D02*
X0129559Y0080634D01*
X0129559Y0078237D02*
X0128759Y0078237D01*
X0128759Y0077039D02*
X0129559Y0077039D01*
X0129559Y0075840D02*
X0128759Y0075840D01*
X0125204Y0074310D02*
X0123440Y0073579D01*
X0122090Y0072229D01*
X0121359Y0070465D01*
X0121359Y0068555D01*
X0122090Y0066791D01*
X0123440Y0065441D01*
X0125204Y0064710D01*
X0133114Y0064710D01*
X0134878Y0065441D01*
X0136228Y0066791D01*
X0136959Y0068555D01*
X0136959Y0070465D01*
X0136228Y0072229D01*
X0134878Y0073579D01*
X0133114Y0074310D01*
X0125204Y0074310D01*
X0123304Y0073443D02*
X0117986Y0073443D01*
X0117986Y0072245D02*
X0122105Y0072245D01*
X0121600Y0071046D02*
X0117986Y0071046D01*
X0117986Y0069848D02*
X0121359Y0069848D01*
X0121359Y0068649D02*
X0117986Y0068649D01*
X0117986Y0067451D02*
X0121817Y0067451D01*
X0122629Y0066252D02*
X0117986Y0066252D01*
X0117986Y0065054D02*
X0124375Y0065054D01*
X0125204Y0064310D02*
X0123440Y0063579D01*
X0122090Y0062229D01*
X0121359Y0060465D01*
X0121359Y0058555D01*
X0122090Y0056791D01*
X0123440Y0055441D01*
X0125204Y0054710D01*
X0133114Y0054710D01*
X0134878Y0055441D01*
X0136228Y0056791D01*
X0136959Y0058555D01*
X0136959Y0060465D01*
X0136228Y0062229D01*
X0134878Y0063579D01*
X0133114Y0064310D01*
X0125204Y0064310D01*
X0124106Y0063855D02*
X0117986Y0063855D01*
X0117986Y0062657D02*
X0122517Y0062657D01*
X0121770Y0061458D02*
X0117986Y0061458D01*
X0117986Y0060260D02*
X0121359Y0060260D01*
X0121359Y0059061D02*
X0117986Y0059061D01*
X0117986Y0057863D02*
X0121646Y0057863D01*
X0122217Y0056664D02*
X0117986Y0056664D01*
X0117986Y0055466D02*
X0123415Y0055466D01*
X0125100Y0054267D02*
X0117986Y0054267D01*
X0117986Y0053069D02*
X0122929Y0053069D01*
X0121941Y0051870D02*
X0117986Y0051870D01*
X0117986Y0050672D02*
X0121445Y0050672D01*
X0121359Y0049473D02*
X0117986Y0049473D01*
X0117986Y0048275D02*
X0121475Y0048275D01*
X0121972Y0047076D02*
X0117986Y0047076D01*
X0133218Y0054267D02*
X0225494Y0054267D01*
X0223809Y0055466D02*
X0134903Y0055466D01*
X0136101Y0056664D02*
X0222611Y0056664D01*
X0222040Y0057863D02*
X0136672Y0057863D01*
X0136959Y0059061D02*
X0221753Y0059061D01*
X0221753Y0060260D02*
X0136959Y0060260D01*
X0136548Y0061458D02*
X0222164Y0061458D01*
X0222911Y0062657D02*
X0135801Y0062657D01*
X0134212Y0063855D02*
X0224499Y0063855D01*
X0224769Y0065054D02*
X0133943Y0065054D01*
X0135689Y0066252D02*
X0223023Y0066252D01*
X0222210Y0067451D02*
X0136501Y0067451D01*
X0136959Y0068649D02*
X0221753Y0068649D01*
X0221753Y0069848D02*
X0136959Y0069848D01*
X0136718Y0071046D02*
X0221994Y0071046D01*
X0222499Y0072245D02*
X0136213Y0072245D01*
X0135014Y0073443D02*
X0223698Y0073443D01*
X0223434Y0075840D02*
X0134934Y0075840D01*
X0136049Y0077039D02*
X0222381Y0077039D01*
X0235408Y0073443D02*
X0238398Y0073443D01*
X0238374Y0074642D02*
X0117986Y0074642D01*
X0117986Y0075840D02*
X0123384Y0075840D01*
X0122269Y0077039D02*
X0117986Y0077039D01*
X0117986Y0078237D02*
X0121736Y0078237D01*
X0135389Y0053069D02*
X0223323Y0053069D01*
X0222335Y0051870D02*
X0136377Y0051870D01*
X0136873Y0050672D02*
X0221838Y0050672D01*
X0221753Y0049473D02*
X0136959Y0049473D01*
X0136843Y0048275D02*
X0221869Y0048275D01*
X0222366Y0047076D02*
X0136346Y0047076D01*
X0135315Y0045877D02*
X0223397Y0045877D01*
X0223735Y0043480D02*
X0134977Y0043480D01*
X0136176Y0042282D02*
X0222536Y0042282D01*
X0222009Y0041083D02*
X0136703Y0041083D01*
X0136959Y0039885D02*
X0221753Y0039885D01*
X0221753Y0038686D02*
X0136959Y0038686D01*
X0136517Y0037488D02*
X0222195Y0037488D01*
X0222985Y0036289D02*
X0135726Y0036289D01*
X0134033Y0035091D02*
X0224679Y0035091D01*
X0237353Y0069848D02*
X0271351Y0069848D01*
X0280632Y0067451D02*
X0298835Y0067451D01*
X0300108Y0066252D02*
X0281621Y0066252D01*
X0281276Y0081833D02*
X0334656Y0081833D01*
X0334654Y0083031D02*
X0281807Y0083031D01*
X0270571Y0087825D02*
X0250257Y0087825D01*
X0251455Y0086627D02*
X0269176Y0086627D01*
X0268553Y0085428D02*
X0251962Y0085428D01*
X0245343Y0078237D02*
X0244943Y0078237D01*
X0244943Y0077039D02*
X0245343Y0077039D01*
X0245343Y0075840D02*
X0244943Y0075840D01*
X0244943Y0074642D02*
X0245343Y0074642D01*
X0245343Y0073443D02*
X0244943Y0073443D01*
X0244943Y0072245D02*
X0245343Y0072245D01*
X0245343Y0071046D02*
X0244943Y0071046D01*
X0239674Y0071046D02*
X0237112Y0071046D01*
X0236606Y0072245D02*
X0238783Y0072245D01*
X0238708Y0075840D02*
X0235671Y0075840D01*
X0236725Y0077039D02*
X0239526Y0077039D01*
X0302575Y0049473D02*
X0303775Y0049473D01*
X0303775Y0048275D02*
X0302575Y0048275D01*
X0302575Y0047076D02*
X0303775Y0047076D01*
X0142021Y0135766D02*
X0135203Y0135766D01*
X0139159Y0129510D02*
X0129159Y0129510D01*
X0111986Y0124979D02*
X0006786Y0124979D01*
X0006788Y0123781D02*
X0111986Y0123781D01*
X0111986Y0122582D02*
X0006790Y0122582D01*
X0006792Y0121384D02*
X0111986Y0121384D01*
X0111986Y0120185D02*
X0006794Y0120185D01*
X0006796Y0118987D02*
X0111986Y0118987D01*
X0111986Y0117788D02*
X0006798Y0117788D01*
X0006800Y0116590D02*
X0111986Y0116590D01*
X0040980Y0153744D02*
X0039780Y0153744D01*
X0039780Y0154942D02*
X0040980Y0154942D01*
X0040980Y0156141D02*
X0039780Y0156141D01*
X0039780Y0157339D02*
X0040980Y0157339D01*
X0037738Y0157339D02*
X0006731Y0157339D01*
X0006733Y0156141D02*
X0036248Y0156141D01*
X0035479Y0154942D02*
X0006735Y0154942D01*
X0006737Y0153744D02*
X0035057Y0153744D01*
X0035069Y0151346D02*
X0006741Y0151346D01*
X0006743Y0150148D02*
X0035515Y0150148D01*
X0036320Y0148949D02*
X0006745Y0148949D01*
X0006747Y0147751D02*
X0037880Y0147751D01*
X0039779Y0152545D02*
X0006739Y0152545D01*
X0006661Y0199287D02*
X0014856Y0199287D01*
X0012627Y0200485D02*
X0006659Y0200485D01*
X0006657Y0201684D02*
X0010574Y0201684D01*
X0009375Y0202882D02*
X0006654Y0202882D01*
X0006652Y0204081D02*
X0008177Y0204081D01*
X0007142Y0205279D02*
X0006650Y0205279D01*
X0044997Y0055466D02*
X0057305Y0055466D01*
X0056270Y0054267D02*
X0046050Y0054267D01*
X0046546Y0053069D02*
X0055701Y0053069D01*
X0060252Y0053069D02*
X0061452Y0053069D01*
X0061452Y0054267D02*
X0060252Y0054267D01*
X0060252Y0055466D02*
X0061452Y0055466D01*
X0064399Y0055466D02*
X0079939Y0055466D01*
X0079939Y0054267D02*
X0065434Y0054267D01*
X0066003Y0053069D02*
X0079939Y0053069D01*
X0095674Y0048275D02*
X0100203Y0048275D01*
X0099124Y0047076D02*
X0096753Y0047076D01*
X0097250Y0045877D02*
X0098628Y0045877D01*
X0098539Y0044679D02*
X0097339Y0044679D01*
X0097339Y0043480D02*
X0098539Y0043480D01*
X0098539Y0042282D02*
X0097339Y0042282D01*
X0097339Y0041083D02*
X0098539Y0041083D01*
X0098539Y0039885D02*
X0097339Y0039885D01*
X0097328Y0038686D02*
X0098549Y0038686D01*
X0099046Y0037488D02*
X0096831Y0037488D01*
X0095863Y0036289D02*
X0100014Y0036289D01*
X0061452Y0047076D02*
X0060252Y0047076D01*
X0060252Y0048275D02*
X0061452Y0048275D01*
X0061452Y0049473D02*
X0060252Y0049473D01*
D19*
X0082939Y0042187D02*
X0082939Y0062187D01*
X0082939Y0063754D01*
X0096876Y0077691D01*
X0114986Y0034865D02*
X0120340Y0029510D01*
X0129159Y0029510D01*
X0137978Y0020691D01*
X0238608Y0020691D01*
X0258293Y0040376D01*
X0258293Y0059274D01*
X0253450Y0064117D01*
X0245143Y0064117D01*
X0114986Y0034865D02*
X0114986Y0162030D01*
X0100725Y0176291D01*
X0096876Y0176291D01*
M02*
