G75*
%MOIN*%
%OFA0B0*%
%FSLAX25Y25*%
%IPPOS*%
%LPD*%
%AMOC8*
5,1,8,0,0,1.08239X$1,22.5*
%
%ADD10C,0.05200*%
%ADD11C,0.06000*%
%ADD12C,0.07677*%
%ADD13OC8,0.05200*%
%ADD14C,0.10000*%
%ADD15OC8,0.06300*%
%ADD16C,0.06300*%
%ADD17C,0.07400*%
%ADD18C,0.01200*%
%ADD19C,0.02400*%
%ADD20C,0.04000*%
D10*
X0082939Y0039587D02*
X0082939Y0044787D01*
X0092939Y0044787D02*
X0092939Y0039587D01*
X0102939Y0039587D02*
X0102939Y0044787D01*
X0102939Y0059587D02*
X0102939Y0064787D01*
X0092939Y0064787D02*
X0092939Y0059587D01*
X0082939Y0059587D02*
X0082939Y0064787D01*
X0242543Y0064117D02*
X0247743Y0064117D01*
X0247743Y0054117D02*
X0242543Y0054117D01*
X0272543Y0054117D02*
X0277743Y0054117D01*
X0277743Y0064117D02*
X0272543Y0064117D01*
X0272543Y0074117D02*
X0277743Y0074117D01*
X0277743Y0084117D02*
X0272543Y0084117D01*
X0272543Y0100455D02*
X0277743Y0100455D01*
X0277743Y0110455D02*
X0272543Y0110455D01*
X0272543Y0120455D02*
X0277743Y0120455D01*
X0277743Y0130455D02*
X0272543Y0130455D01*
X0272543Y0140455D02*
X0277743Y0140455D01*
X0277743Y0150455D02*
X0272543Y0150455D01*
X0272543Y0160455D02*
X0277743Y0160455D01*
X0247743Y0160455D02*
X0242543Y0160455D01*
X0242543Y0150455D02*
X0247743Y0150455D01*
X0247743Y0140455D02*
X0242543Y0140455D01*
X0242543Y0130455D02*
X0247743Y0130455D01*
X0247743Y0120455D02*
X0242543Y0120455D01*
X0242543Y0110455D02*
X0247743Y0110455D01*
X0247743Y0100455D02*
X0242543Y0100455D01*
X0242543Y0084117D02*
X0247743Y0084117D01*
X0247743Y0074117D02*
X0242543Y0074117D01*
D11*
X0232553Y0069510D02*
X0226553Y0069510D01*
X0226553Y0059510D02*
X0232553Y0059510D01*
X0232553Y0049510D02*
X0226553Y0049510D01*
X0226553Y0039510D02*
X0232553Y0039510D01*
X0232553Y0029510D02*
X0226553Y0029510D01*
X0226553Y0079510D02*
X0232553Y0079510D01*
X0232553Y0089510D02*
X0226553Y0089510D01*
X0226553Y0099510D02*
X0232553Y0099510D01*
X0232553Y0109510D02*
X0226553Y0109510D01*
X0226553Y0119510D02*
X0232553Y0119510D01*
X0232553Y0129510D02*
X0226553Y0129510D01*
X0226553Y0139510D02*
X0232553Y0139510D01*
X0232553Y0149510D02*
X0226553Y0149510D01*
X0226553Y0159510D02*
X0232553Y0159510D01*
X0232553Y0169510D02*
X0226553Y0169510D01*
X0226553Y0179510D02*
X0232553Y0179510D01*
X0232553Y0189510D02*
X0226553Y0189510D01*
X0226553Y0199510D02*
X0232553Y0199510D01*
X0232553Y0209510D02*
X0226553Y0209510D01*
X0132159Y0209510D02*
X0126159Y0209510D01*
X0126159Y0199510D02*
X0132159Y0199510D01*
X0132159Y0189510D02*
X0126159Y0189510D01*
X0126159Y0179510D02*
X0132159Y0179510D01*
X0132159Y0169510D02*
X0126159Y0169510D01*
X0126159Y0159510D02*
X0132159Y0159510D01*
X0132159Y0149510D02*
X0126159Y0149510D01*
X0126159Y0139510D02*
X0132159Y0139510D01*
X0132159Y0129510D02*
X0126159Y0129510D01*
X0126159Y0119510D02*
X0132159Y0119510D01*
X0132159Y0109510D02*
X0126159Y0109510D01*
X0126159Y0099510D02*
X0132159Y0099510D01*
X0132159Y0089510D02*
X0126159Y0089510D01*
X0126159Y0079510D02*
X0132159Y0079510D01*
X0132159Y0069510D02*
X0126159Y0069510D01*
X0126159Y0059510D02*
X0132159Y0059510D01*
X0132159Y0049510D02*
X0126159Y0049510D01*
X0126159Y0039510D02*
X0132159Y0039510D01*
X0132159Y0029510D02*
X0126159Y0029510D01*
X0035466Y0084707D02*
X0029466Y0084707D01*
X0029466Y0094707D02*
X0035466Y0094707D01*
X0035466Y0104707D02*
X0029466Y0104707D01*
D12*
X0040380Y0132896D03*
X0040380Y0152581D03*
X0041167Y0051321D03*
X0060852Y0051321D03*
X0303175Y0051400D03*
X0303175Y0071085D03*
X0303175Y0090770D03*
X0303175Y0119904D03*
X0303175Y0139589D03*
X0303175Y0164786D03*
X0303175Y0184471D03*
D13*
X0265655Y0177069D03*
X0248569Y0177069D03*
X0202781Y0148959D03*
X0187820Y0148959D03*
X0187820Y0108959D03*
X0202781Y0108959D03*
X0248569Y0217069D03*
X0265655Y0217069D03*
X0129474Y0224235D03*
X0089474Y0224235D03*
D14*
X0091876Y0176291D02*
X0101876Y0176291D01*
X0101876Y0077691D02*
X0091876Y0077691D01*
D15*
X0062899Y0085258D03*
X0063293Y0109668D03*
D16*
X0053293Y0109668D03*
X0052899Y0085258D03*
D17*
X0103293Y0205731D03*
X0113293Y0205731D03*
D18*
X0030815Y0006501D02*
X0308722Y0007472D01*
X0305791Y0010404D01*
X0303500Y0014371D01*
X0302315Y0018795D01*
X0302315Y0023375D01*
X0303500Y0027799D01*
X0305791Y0031766D01*
X0309029Y0035005D01*
X0312996Y0037295D01*
X0317420Y0038480D01*
X0322000Y0038480D01*
X0326425Y0037295D01*
X0330391Y0035005D01*
X0333630Y0031766D01*
X0334743Y0029838D01*
X0334446Y0206306D01*
X0333630Y0204892D01*
X0330391Y0201654D01*
X0326425Y0199363D01*
X0322000Y0198178D01*
X0317420Y0198178D01*
X0312996Y0199363D01*
X0309029Y0201654D01*
X0305791Y0204892D01*
X0303500Y0208859D01*
X0302315Y0213283D01*
X0302315Y0217863D01*
X0303500Y0222288D01*
X0305791Y0226254D01*
X0309029Y0229493D01*
X0312236Y0231344D01*
X0030466Y0230359D01*
X0031966Y0229493D01*
X0035205Y0226254D01*
X0037495Y0222288D01*
X0038680Y0217863D01*
X0038680Y0213283D01*
X0037495Y0208859D01*
X0035205Y0204892D01*
X0031966Y0201654D01*
X0027999Y0199363D01*
X0023575Y0198178D01*
X0018995Y0198178D01*
X0014571Y0199363D01*
X0010604Y0201654D01*
X0007365Y0204892D01*
X0006649Y0206133D01*
X0006944Y0031036D01*
X0007365Y0031766D01*
X0010604Y0035005D01*
X0014571Y0037295D01*
X0018995Y0038480D01*
X0023575Y0038480D01*
X0027999Y0037295D01*
X0031966Y0035005D01*
X0035205Y0031766D01*
X0037495Y0027799D01*
X0038680Y0023375D01*
X0038680Y0018795D01*
X0037495Y0014371D01*
X0035205Y0010404D01*
X0031966Y0007165D01*
X0030815Y0006501D01*
X0032326Y0007525D02*
X0308670Y0007525D01*
X0307471Y0008724D02*
X0033524Y0008724D01*
X0034723Y0009922D02*
X0306272Y0009922D01*
X0305377Y0011121D02*
X0035618Y0011121D01*
X0036310Y0012319D02*
X0304685Y0012319D01*
X0303993Y0013518D02*
X0037002Y0013518D01*
X0037587Y0014716D02*
X0303408Y0014716D01*
X0303087Y0015915D02*
X0037909Y0015915D01*
X0038230Y0017113D02*
X0070557Y0017113D01*
X0070654Y0017016D02*
X0071907Y0016497D01*
X0238892Y0016497D01*
X0240144Y0017016D01*
X0241103Y0017974D01*
X0261181Y0038053D01*
X0261700Y0039305D01*
X0261700Y0125700D01*
X0261181Y0126952D01*
X0260223Y0127910D01*
X0254790Y0133343D01*
X0253538Y0133862D01*
X0249989Y0133862D01*
X0248540Y0134462D01*
X0241746Y0134462D01*
X0240273Y0133852D01*
X0239146Y0132725D01*
X0238536Y0131252D01*
X0238536Y0129658D01*
X0239146Y0128185D01*
X0240273Y0127058D01*
X0241746Y0126448D01*
X0248540Y0126448D01*
X0249989Y0127048D01*
X0251449Y0127048D01*
X0254886Y0123611D01*
X0254886Y0041394D01*
X0236803Y0023311D01*
X0073996Y0023311D01*
X0046413Y0050894D01*
X0046413Y0051749D01*
X0054829Y0060165D01*
X0055788Y0061124D01*
X0056306Y0062376D01*
X0056306Y0082221D01*
X0056763Y0082677D01*
X0057456Y0084352D01*
X0057456Y0086165D01*
X0056763Y0087840D01*
X0055481Y0089122D01*
X0053806Y0089815D01*
X0051993Y0089815D01*
X0050318Y0089122D01*
X0049862Y0088665D01*
X0037426Y0088665D01*
X0036343Y0089114D01*
X0028590Y0089114D01*
X0026970Y0088443D01*
X0025730Y0087203D01*
X0025059Y0085584D01*
X0025059Y0083830D01*
X0025730Y0082211D01*
X0026970Y0080971D01*
X0028590Y0080300D01*
X0036343Y0080300D01*
X0037963Y0080971D01*
X0038843Y0081851D01*
X0049492Y0081851D01*
X0049492Y0064465D01*
X0041594Y0056567D01*
X0040123Y0056567D01*
X0038195Y0055768D01*
X0036720Y0054293D01*
X0035921Y0052365D01*
X0035921Y0050278D01*
X0036720Y0048350D01*
X0038195Y0046874D01*
X0040123Y0046076D01*
X0041594Y0046076D01*
X0069696Y0017974D01*
X0070654Y0017016D01*
X0069358Y0018312D02*
X0038551Y0018312D01*
X0038680Y0019510D02*
X0068160Y0019510D01*
X0066961Y0020709D02*
X0038680Y0020709D01*
X0038680Y0021907D02*
X0065763Y0021907D01*
X0064564Y0023106D02*
X0038680Y0023106D01*
X0038431Y0024304D02*
X0063366Y0024304D01*
X0062167Y0025503D02*
X0038110Y0025503D01*
X0037789Y0026701D02*
X0060969Y0026701D01*
X0059770Y0027900D02*
X0037437Y0027900D01*
X0036745Y0029098D02*
X0058572Y0029098D01*
X0057373Y0030297D02*
X0036053Y0030297D01*
X0035361Y0031495D02*
X0056174Y0031495D01*
X0054976Y0032694D02*
X0034277Y0032694D01*
X0033078Y0033892D02*
X0053777Y0033892D01*
X0052579Y0035091D02*
X0031817Y0035091D01*
X0029741Y0036289D02*
X0051380Y0036289D01*
X0050182Y0037488D02*
X0027279Y0037488D01*
X0015291Y0037488D02*
X0006933Y0037488D01*
X0006931Y0038686D02*
X0048983Y0038686D01*
X0047785Y0039885D02*
X0006929Y0039885D01*
X0006927Y0041083D02*
X0046586Y0041083D01*
X0045388Y0042282D02*
X0006925Y0042282D01*
X0006923Y0043480D02*
X0044189Y0043480D01*
X0042991Y0044679D02*
X0006921Y0044679D01*
X0006919Y0045877D02*
X0041792Y0045877D01*
X0037994Y0047076D02*
X0006917Y0047076D01*
X0006915Y0048275D02*
X0036795Y0048275D01*
X0036255Y0049473D02*
X0006913Y0049473D01*
X0006911Y0050672D02*
X0035921Y0050672D01*
X0035921Y0051870D02*
X0006909Y0051870D01*
X0006907Y0053069D02*
X0036213Y0053069D01*
X0036709Y0054267D02*
X0006905Y0054267D01*
X0006903Y0055466D02*
X0037893Y0055466D01*
X0041691Y0056664D02*
X0006901Y0056664D01*
X0006899Y0057863D02*
X0042890Y0057863D01*
X0044088Y0059061D02*
X0006897Y0059061D01*
X0006895Y0060260D02*
X0045287Y0060260D01*
X0046485Y0061458D02*
X0006893Y0061458D01*
X0006891Y0062657D02*
X0047684Y0062657D01*
X0048882Y0063855D02*
X0006889Y0063855D01*
X0006887Y0065054D02*
X0049492Y0065054D01*
X0049492Y0066252D02*
X0006885Y0066252D01*
X0006883Y0067451D02*
X0049492Y0067451D01*
X0049492Y0068649D02*
X0006880Y0068649D01*
X0006878Y0069848D02*
X0049492Y0069848D01*
X0049492Y0071046D02*
X0006876Y0071046D01*
X0006874Y0072245D02*
X0049492Y0072245D01*
X0049492Y0073443D02*
X0006872Y0073443D01*
X0006870Y0074642D02*
X0049492Y0074642D01*
X0049492Y0075840D02*
X0006868Y0075840D01*
X0006866Y0077039D02*
X0049492Y0077039D01*
X0049492Y0078237D02*
X0006864Y0078237D01*
X0006862Y0079436D02*
X0049492Y0079436D01*
X0049492Y0080634D02*
X0037150Y0080634D01*
X0038824Y0081833D02*
X0049492Y0081833D01*
X0056306Y0081833D02*
X0059607Y0081833D01*
X0058409Y0083031D02*
X0056909Y0083031D01*
X0058149Y0083291D02*
X0060932Y0080508D01*
X0062699Y0080508D01*
X0062699Y0085058D01*
X0063099Y0085058D01*
X0063099Y0080508D01*
X0064867Y0080508D01*
X0067649Y0083291D01*
X0067649Y0085058D01*
X0063099Y0085058D01*
X0063099Y0085458D01*
X0067649Y0085458D01*
X0067649Y0087226D01*
X0064867Y0090008D01*
X0063099Y0090008D01*
X0063099Y0085458D01*
X0062699Y0085458D01*
X0062699Y0085058D01*
X0058149Y0085058D01*
X0058149Y0083291D01*
X0058149Y0084230D02*
X0057406Y0084230D01*
X0057456Y0085428D02*
X0062699Y0085428D01*
X0062699Y0085458D02*
X0058149Y0085458D01*
X0058149Y0087226D01*
X0060932Y0090008D01*
X0062699Y0090008D01*
X0062699Y0085458D01*
X0063099Y0085428D02*
X0068678Y0085428D01*
X0068678Y0085133D02*
X0069075Y0084175D01*
X0084965Y0068285D01*
X0083736Y0068794D01*
X0082142Y0068794D01*
X0080669Y0068184D01*
X0079542Y0067057D01*
X0078931Y0065584D01*
X0078931Y0058790D01*
X0079542Y0057318D01*
X0080669Y0056190D01*
X0082142Y0055580D01*
X0083736Y0055580D01*
X0085208Y0056190D01*
X0086336Y0057318D01*
X0086946Y0058790D01*
X0086946Y0065584D01*
X0086437Y0066813D01*
X0088931Y0064319D01*
X0088931Y0058790D01*
X0089542Y0057318D01*
X0090331Y0056528D01*
X0090331Y0047847D01*
X0089542Y0047057D01*
X0088931Y0045584D01*
X0088931Y0038790D01*
X0089542Y0037318D01*
X0090669Y0036190D01*
X0092142Y0035580D01*
X0093736Y0035580D01*
X0095208Y0036190D01*
X0096336Y0037318D01*
X0096946Y0038790D01*
X0096946Y0045584D01*
X0096336Y0047057D01*
X0095546Y0047847D01*
X0095546Y0056528D01*
X0096336Y0057318D01*
X0096946Y0058790D01*
X0096946Y0065584D01*
X0096336Y0067057D01*
X0095208Y0068184D01*
X0093736Y0068794D01*
X0092142Y0068794D01*
X0091921Y0068703D01*
X0088449Y0072175D01*
X0090601Y0071283D01*
X0103150Y0071283D01*
X0105505Y0072259D01*
X0107307Y0074061D01*
X0108283Y0076416D01*
X0108283Y0078965D01*
X0107307Y0081320D01*
X0105505Y0083122D01*
X0103150Y0084098D01*
X0090601Y0084098D01*
X0088246Y0083122D01*
X0086444Y0081320D01*
X0085469Y0078965D01*
X0085469Y0076416D01*
X0086360Y0074264D01*
X0073892Y0086732D01*
X0073892Y0089464D01*
X0073892Y0090501D01*
X0073495Y0091459D01*
X0057365Y0107590D01*
X0057850Y0108761D01*
X0057850Y0110574D01*
X0057156Y0112249D01*
X0055874Y0113531D01*
X0054199Y0114225D01*
X0052386Y0114225D01*
X0050712Y0113531D01*
X0049430Y0112249D01*
X0048736Y0110574D01*
X0048736Y0108798D01*
X0047252Y0107314D01*
X0039092Y0107314D01*
X0037963Y0108443D01*
X0036343Y0109114D01*
X0028590Y0109114D01*
X0026970Y0108443D01*
X0025730Y0107203D01*
X0025059Y0105584D01*
X0025059Y0103830D01*
X0025730Y0102211D01*
X0026970Y0100971D01*
X0028590Y0100300D01*
X0036343Y0100300D01*
X0037963Y0100971D01*
X0039092Y0102100D01*
X0048851Y0102100D01*
X0049809Y0102497D01*
X0052423Y0105111D01*
X0052470Y0105111D01*
X0068678Y0088903D01*
X0068678Y0085133D01*
X0069052Y0084230D02*
X0067649Y0084230D01*
X0067390Y0083031D02*
X0070219Y0083031D01*
X0071417Y0081833D02*
X0066191Y0081833D01*
X0064993Y0080634D02*
X0072616Y0080634D01*
X0073814Y0079436D02*
X0056306Y0079436D01*
X0056306Y0080634D02*
X0060806Y0080634D01*
X0062699Y0080634D02*
X0063099Y0080634D01*
X0063099Y0081833D02*
X0062699Y0081833D01*
X0062699Y0083031D02*
X0063099Y0083031D01*
X0063099Y0084230D02*
X0062699Y0084230D01*
X0062699Y0086627D02*
X0063099Y0086627D01*
X0063099Y0087825D02*
X0062699Y0087825D01*
X0062699Y0089024D02*
X0063099Y0089024D01*
X0065851Y0089024D02*
X0068557Y0089024D01*
X0068678Y0087825D02*
X0067050Y0087825D01*
X0067649Y0086627D02*
X0068678Y0086627D01*
X0067358Y0090222D02*
X0036550Y0090222D01*
X0036543Y0090220D02*
X0037232Y0090444D01*
X0037877Y0090773D01*
X0038463Y0091198D01*
X0038975Y0091710D01*
X0039400Y0092296D01*
X0039729Y0092941D01*
X0039953Y0093630D01*
X0040060Y0094307D01*
X0032866Y0094307D01*
X0032866Y0090107D01*
X0035828Y0090107D01*
X0036543Y0090220D01*
X0036561Y0089024D02*
X0050220Y0089024D01*
X0055578Y0089024D02*
X0059947Y0089024D01*
X0058749Y0087825D02*
X0056768Y0087825D01*
X0057265Y0086627D02*
X0058149Y0086627D01*
X0064961Y0092619D02*
X0039565Y0092619D01*
X0039983Y0093818D02*
X0063763Y0093818D01*
X0062564Y0095016D02*
X0032866Y0095016D01*
X0032866Y0095107D02*
X0040060Y0095107D01*
X0039953Y0095784D01*
X0039729Y0096473D01*
X0039400Y0097118D01*
X0038975Y0097704D01*
X0038463Y0098216D01*
X0037877Y0098641D01*
X0037232Y0098970D01*
X0036543Y0099194D01*
X0035828Y0099307D01*
X0032866Y0099307D01*
X0032866Y0095107D01*
X0032066Y0095107D01*
X0032066Y0094307D01*
X0024872Y0094307D01*
X0024979Y0093630D01*
X0025203Y0092941D01*
X0025532Y0092296D01*
X0025957Y0091710D01*
X0026469Y0091198D01*
X0027055Y0090773D01*
X0027700Y0090444D01*
X0028389Y0090220D01*
X0029104Y0090107D01*
X0032066Y0090107D01*
X0032066Y0094307D01*
X0032866Y0094307D01*
X0032866Y0095107D01*
X0032066Y0095107D02*
X0032066Y0099307D01*
X0029104Y0099307D01*
X0028389Y0099194D01*
X0027700Y0098970D01*
X0027055Y0098641D01*
X0026469Y0098216D01*
X0025957Y0097704D01*
X0025532Y0097118D01*
X0025203Y0096473D01*
X0024979Y0095784D01*
X0024872Y0095107D01*
X0032066Y0095107D01*
X0032066Y0095016D02*
X0006836Y0095016D01*
X0006838Y0093818D02*
X0024950Y0093818D01*
X0025367Y0092619D02*
X0006840Y0092619D01*
X0006842Y0091421D02*
X0026247Y0091421D01*
X0028383Y0090222D02*
X0006844Y0090222D01*
X0006846Y0089024D02*
X0028372Y0089024D01*
X0026352Y0087825D02*
X0006848Y0087825D01*
X0006850Y0086627D02*
X0025491Y0086627D01*
X0025059Y0085428D02*
X0006852Y0085428D01*
X0006854Y0084230D02*
X0025059Y0084230D01*
X0025390Y0083031D02*
X0006856Y0083031D01*
X0006858Y0081833D02*
X0026108Y0081833D01*
X0027782Y0080634D02*
X0006860Y0080634D01*
X0006834Y0096215D02*
X0025119Y0096215D01*
X0025747Y0097413D02*
X0006832Y0097413D01*
X0006830Y0098612D02*
X0027015Y0098612D01*
X0026932Y0101009D02*
X0006826Y0101009D01*
X0006824Y0102208D02*
X0025733Y0102208D01*
X0025235Y0103406D02*
X0006822Y0103406D01*
X0006820Y0104605D02*
X0025059Y0104605D01*
X0025150Y0105803D02*
X0006818Y0105803D01*
X0006816Y0107002D02*
X0025646Y0107002D01*
X0026727Y0108200D02*
X0006814Y0108200D01*
X0006812Y0109399D02*
X0048736Y0109399D01*
X0048745Y0110597D02*
X0006810Y0110597D01*
X0006808Y0111796D02*
X0049242Y0111796D01*
X0050175Y0112994D02*
X0006806Y0112994D01*
X0006804Y0114193D02*
X0052309Y0114193D01*
X0054277Y0114193D02*
X0061100Y0114193D01*
X0061325Y0114418D02*
X0058543Y0111635D01*
X0058543Y0109868D01*
X0063093Y0109868D01*
X0063093Y0114418D01*
X0061325Y0114418D01*
X0063093Y0114193D02*
X0063493Y0114193D01*
X0063493Y0114418D02*
X0065260Y0114418D01*
X0068043Y0111635D01*
X0068043Y0109868D01*
X0063493Y0109868D01*
X0063093Y0109868D01*
X0063093Y0109468D01*
X0058543Y0109468D01*
X0058543Y0107700D01*
X0061325Y0104918D01*
X0063093Y0104918D01*
X0063093Y0109468D01*
X0063493Y0109468D01*
X0063493Y0109868D01*
X0063493Y0114418D01*
X0063493Y0112994D02*
X0063093Y0112994D01*
X0063093Y0111796D02*
X0063493Y0111796D01*
X0063493Y0110597D02*
X0063093Y0110597D01*
X0063493Y0109468D02*
X0068043Y0109468D01*
X0068043Y0107700D01*
X0065260Y0104918D01*
X0063493Y0104918D01*
X0063493Y0109468D01*
X0063493Y0109399D02*
X0063093Y0109399D01*
X0063093Y0108200D02*
X0063493Y0108200D01*
X0063493Y0107002D02*
X0063093Y0107002D01*
X0063093Y0105803D02*
X0063493Y0105803D01*
X0066146Y0105803D02*
X0123634Y0105803D01*
X0123663Y0105774D02*
X0125282Y0105103D01*
X0133036Y0105103D01*
X0134655Y0105774D01*
X0135895Y0107014D01*
X0136566Y0108634D01*
X0136566Y0110387D01*
X0135895Y0112007D01*
X0134655Y0113246D01*
X0133036Y0113917D01*
X0125282Y0113917D01*
X0123663Y0113246D01*
X0122423Y0112007D01*
X0121752Y0110387D01*
X0121752Y0108634D01*
X0122423Y0107014D01*
X0123663Y0105774D01*
X0122435Y0107002D02*
X0067344Y0107002D01*
X0068043Y0108200D02*
X0121932Y0108200D01*
X0121752Y0109399D02*
X0068043Y0109399D01*
X0068043Y0110597D02*
X0121839Y0110597D01*
X0122335Y0111796D02*
X0067883Y0111796D01*
X0066684Y0112994D02*
X0123410Y0112994D01*
X0124587Y0115391D02*
X0006802Y0115391D01*
X0006800Y0116590D02*
X0122847Y0116590D01*
X0122423Y0117014D02*
X0123663Y0115774D01*
X0125282Y0115103D01*
X0133036Y0115103D01*
X0134655Y0115774D01*
X0135895Y0117014D01*
X0136566Y0118634D01*
X0136566Y0120387D01*
X0135895Y0122007D01*
X0134655Y0123246D01*
X0133036Y0123917D01*
X0125282Y0123917D01*
X0123663Y0123246D01*
X0122423Y0122007D01*
X0121752Y0120387D01*
X0121752Y0118634D01*
X0122423Y0117014D01*
X0122102Y0117788D02*
X0006798Y0117788D01*
X0006796Y0118987D02*
X0121752Y0118987D01*
X0121752Y0120185D02*
X0006794Y0120185D01*
X0006792Y0121384D02*
X0122165Y0121384D01*
X0122998Y0122582D02*
X0006790Y0122582D01*
X0006788Y0123781D02*
X0124953Y0123781D01*
X0125282Y0125103D02*
X0133036Y0125103D01*
X0134655Y0125774D01*
X0135895Y0127014D01*
X0136566Y0128634D01*
X0136566Y0130387D01*
X0135895Y0132007D01*
X0134655Y0133246D01*
X0133036Y0133917D01*
X0125282Y0133917D01*
X0123663Y0133246D01*
X0122423Y0132007D01*
X0121752Y0130387D01*
X0121752Y0128634D01*
X0122423Y0127014D01*
X0123663Y0125774D01*
X0125282Y0125103D01*
X0123259Y0126178D02*
X0006784Y0126178D01*
X0006782Y0127376D02*
X0122273Y0127376D01*
X0121776Y0128575D02*
X0043477Y0128575D01*
X0043351Y0128449D02*
X0044827Y0129925D01*
X0044977Y0130289D01*
X0054000Y0130289D01*
X0054958Y0130686D01*
X0094155Y0169883D01*
X0103150Y0169883D01*
X0105505Y0170859D01*
X0107307Y0172661D01*
X0108283Y0175016D01*
X0108283Y0177565D01*
X0107307Y0179920D01*
X0105505Y0181722D01*
X0103150Y0182698D01*
X0090601Y0182698D01*
X0088246Y0181722D01*
X0086444Y0179920D01*
X0085469Y0177565D01*
X0085469Y0175016D01*
X0086444Y0172661D01*
X0088002Y0171104D01*
X0052401Y0135503D01*
X0044977Y0135503D01*
X0044827Y0135867D01*
X0043351Y0137343D01*
X0041423Y0138142D01*
X0039336Y0138142D01*
X0037408Y0137343D01*
X0035932Y0135867D01*
X0035134Y0133939D01*
X0035134Y0131853D01*
X0035932Y0129925D01*
X0037408Y0128449D01*
X0039336Y0127650D01*
X0041423Y0127650D01*
X0043351Y0128449D01*
X0044675Y0129773D02*
X0121752Y0129773D01*
X0121994Y0130972D02*
X0055244Y0130972D01*
X0056442Y0132170D02*
X0122587Y0132170D01*
X0123958Y0133369D02*
X0057641Y0133369D01*
X0058839Y0134567D02*
X0192506Y0134567D01*
X0192506Y0133369D02*
X0134360Y0133369D01*
X0135732Y0132170D02*
X0192506Y0132170D01*
X0192506Y0130972D02*
X0136324Y0130972D01*
X0136566Y0129773D02*
X0192506Y0129773D01*
X0192506Y0128575D02*
X0136542Y0128575D01*
X0136045Y0127376D02*
X0192506Y0127376D01*
X0192506Y0126178D02*
X0135059Y0126178D01*
X0133365Y0123781D02*
X0192506Y0123781D01*
X0192506Y0124979D02*
X0006786Y0124979D01*
X0006780Y0128575D02*
X0037282Y0128575D01*
X0036084Y0129773D02*
X0006778Y0129773D01*
X0006776Y0130972D02*
X0035499Y0130972D01*
X0035134Y0132170D02*
X0006774Y0132170D01*
X0006772Y0133369D02*
X0035134Y0133369D01*
X0035394Y0134567D02*
X0006770Y0134567D01*
X0006767Y0135766D02*
X0035890Y0135766D01*
X0037029Y0136964D02*
X0006765Y0136964D01*
X0006763Y0138163D02*
X0055061Y0138163D01*
X0056259Y0139361D02*
X0006761Y0139361D01*
X0006759Y0140560D02*
X0057458Y0140560D01*
X0058656Y0141758D02*
X0006757Y0141758D01*
X0006755Y0142957D02*
X0059855Y0142957D01*
X0061053Y0144155D02*
X0006753Y0144155D01*
X0006751Y0145354D02*
X0062252Y0145354D01*
X0063451Y0146552D02*
X0006749Y0146552D01*
X0006747Y0147751D02*
X0037880Y0147751D01*
X0037529Y0147930D02*
X0038292Y0147541D01*
X0039106Y0147276D01*
X0039780Y0147170D01*
X0039780Y0151981D01*
X0040980Y0151981D01*
X0040980Y0153181D01*
X0045791Y0153181D01*
X0045684Y0153855D01*
X0045420Y0154669D01*
X0045031Y0155432D01*
X0044528Y0156124D01*
X0043923Y0156729D01*
X0043230Y0157233D01*
X0042467Y0157621D01*
X0041653Y0157886D01*
X0040980Y0157992D01*
X0040980Y0153181D01*
X0039780Y0153181D01*
X0039780Y0157992D01*
X0039106Y0157886D01*
X0038292Y0157621D01*
X0037529Y0157233D01*
X0036837Y0156729D01*
X0036231Y0156124D01*
X0035728Y0155432D01*
X0035339Y0154669D01*
X0035075Y0153855D01*
X0034968Y0153181D01*
X0039779Y0153181D01*
X0039779Y0151981D01*
X0034968Y0151981D01*
X0035075Y0151308D01*
X0035339Y0150493D01*
X0035728Y0149731D01*
X0036231Y0149038D01*
X0036837Y0148433D01*
X0037529Y0147930D01*
X0036320Y0148949D02*
X0006745Y0148949D01*
X0006743Y0150148D02*
X0035515Y0150148D01*
X0035069Y0151346D02*
X0006741Y0151346D01*
X0006739Y0152545D02*
X0039779Y0152545D01*
X0039780Y0153744D02*
X0040980Y0153744D01*
X0040980Y0154942D02*
X0039780Y0154942D01*
X0039780Y0156141D02*
X0040980Y0156141D01*
X0040980Y0157339D02*
X0039780Y0157339D01*
X0037738Y0157339D02*
X0006731Y0157339D01*
X0006733Y0156141D02*
X0036248Y0156141D01*
X0035479Y0154942D02*
X0006735Y0154942D01*
X0006737Y0153744D02*
X0035057Y0153744D01*
X0039780Y0151346D02*
X0040980Y0151346D01*
X0040980Y0151981D02*
X0040980Y0147170D01*
X0041653Y0147276D01*
X0042467Y0147541D01*
X0043230Y0147930D01*
X0043923Y0148433D01*
X0044528Y0149038D01*
X0045031Y0149731D01*
X0045420Y0150493D01*
X0045684Y0151308D01*
X0045791Y0151981D01*
X0040980Y0151981D01*
X0040980Y0152545D02*
X0069443Y0152545D01*
X0068245Y0151346D02*
X0045690Y0151346D01*
X0045244Y0150148D02*
X0067046Y0150148D01*
X0065848Y0148949D02*
X0044439Y0148949D01*
X0042879Y0147751D02*
X0064649Y0147751D01*
X0068427Y0144155D02*
X0189786Y0144155D01*
X0188989Y0144952D02*
X0192506Y0141435D01*
X0192506Y0115529D01*
X0198774Y0109262D01*
X0198774Y0107299D01*
X0201121Y0104952D01*
X0204441Y0104952D01*
X0206788Y0107299D01*
X0206788Y0110619D01*
X0204441Y0112966D01*
X0201121Y0112966D01*
X0200934Y0112779D01*
X0196520Y0117192D01*
X0196520Y0143098D01*
X0195345Y0144273D01*
X0195345Y0144273D01*
X0191828Y0147790D01*
X0191828Y0150619D01*
X0189828Y0152619D01*
X0189828Y0176159D01*
X0201250Y0187582D01*
X0222581Y0187582D01*
X0222817Y0187014D01*
X0224056Y0185774D01*
X0225676Y0185103D01*
X0233429Y0185103D01*
X0235049Y0185774D01*
X0236289Y0187014D01*
X0236960Y0188634D01*
X0236960Y0190387D01*
X0236289Y0192007D01*
X0235049Y0193246D01*
X0233429Y0193917D01*
X0225676Y0193917D01*
X0224056Y0193246D01*
X0222817Y0192007D01*
X0222647Y0191596D01*
X0199588Y0191596D01*
X0198412Y0190420D01*
X0185813Y0177822D01*
X0185813Y0152619D01*
X0183813Y0150619D01*
X0183813Y0147299D01*
X0186161Y0144952D01*
X0188989Y0144952D01*
X0190984Y0142957D02*
X0134945Y0142957D01*
X0134655Y0143246D02*
X0133036Y0143917D01*
X0125282Y0143917D01*
X0123663Y0143246D01*
X0122423Y0142007D01*
X0121752Y0140387D01*
X0121752Y0138634D01*
X0122423Y0137014D01*
X0123663Y0135774D01*
X0125282Y0135103D01*
X0133036Y0135103D01*
X0134655Y0135774D01*
X0135895Y0137014D01*
X0136566Y0138634D01*
X0136566Y0140387D01*
X0135895Y0142007D01*
X0134655Y0143246D01*
X0135998Y0141758D02*
X0192183Y0141758D01*
X0192506Y0140560D02*
X0136494Y0140560D01*
X0136566Y0139361D02*
X0192506Y0139361D01*
X0192506Y0138163D02*
X0136371Y0138163D01*
X0135846Y0136964D02*
X0192506Y0136964D01*
X0192506Y0135766D02*
X0134636Y0135766D01*
X0123683Y0135766D02*
X0060038Y0135766D01*
X0061236Y0136964D02*
X0122472Y0136964D01*
X0121947Y0138163D02*
X0062435Y0138163D01*
X0063633Y0139361D02*
X0121752Y0139361D01*
X0121824Y0140560D02*
X0064832Y0140560D01*
X0066030Y0141758D02*
X0122320Y0141758D01*
X0123373Y0142957D02*
X0067229Y0142957D01*
X0069626Y0145354D02*
X0124677Y0145354D01*
X0125282Y0145103D02*
X0133036Y0145103D01*
X0134655Y0145774D01*
X0135895Y0147014D01*
X0136566Y0148634D01*
X0136566Y0150387D01*
X0135895Y0152007D01*
X0134655Y0153246D01*
X0133036Y0153917D01*
X0127590Y0153917D01*
X0126405Y0155103D01*
X0133036Y0155103D01*
X0134655Y0155774D01*
X0135895Y0157014D01*
X0136566Y0158634D01*
X0136566Y0160387D01*
X0135895Y0162007D01*
X0134655Y0163246D01*
X0133036Y0163917D01*
X0125282Y0163917D01*
X0123663Y0163246D01*
X0122423Y0162007D01*
X0121752Y0160387D01*
X0121752Y0159756D01*
X0115300Y0166208D01*
X0115300Y0201034D01*
X0116186Y0201401D01*
X0117622Y0202838D01*
X0118400Y0204715D01*
X0118400Y0206747D01*
X0117622Y0208624D01*
X0116186Y0210060D01*
X0114309Y0210838D01*
X0112277Y0210838D01*
X0110400Y0210060D01*
X0108963Y0208624D01*
X0108293Y0207005D01*
X0107622Y0208624D01*
X0106186Y0210060D01*
X0105300Y0210427D01*
X0105300Y0211247D01*
X0104124Y0212423D01*
X0093481Y0223066D01*
X0093481Y0225894D01*
X0091134Y0228242D01*
X0087814Y0228242D01*
X0085467Y0225894D01*
X0085467Y0222575D01*
X0087814Y0220228D01*
X0090643Y0220228D01*
X0100690Y0210180D01*
X0100400Y0210060D01*
X0098963Y0208624D01*
X0098186Y0206747D01*
X0098186Y0204715D01*
X0098963Y0202838D01*
X0100400Y0201401D01*
X0102277Y0200624D01*
X0104309Y0200624D01*
X0106186Y0201401D01*
X0107622Y0202838D01*
X0108293Y0204456D01*
X0108963Y0202838D01*
X0110400Y0201401D01*
X0111286Y0201034D01*
X0111286Y0164545D01*
X0112462Y0163369D01*
X0123124Y0152707D01*
X0122423Y0152007D01*
X0121752Y0150387D01*
X0121752Y0148634D01*
X0122423Y0147014D01*
X0123663Y0145774D01*
X0125282Y0145103D01*
X0122884Y0146552D02*
X0070824Y0146552D01*
X0072023Y0147751D02*
X0122118Y0147751D01*
X0121752Y0148949D02*
X0073221Y0148949D01*
X0074420Y0150148D02*
X0121752Y0150148D01*
X0122149Y0151346D02*
X0075618Y0151346D01*
X0076817Y0152545D02*
X0122961Y0152545D01*
X0122087Y0153744D02*
X0078016Y0153744D01*
X0079214Y0154942D02*
X0120889Y0154942D01*
X0119690Y0156141D02*
X0080413Y0156141D01*
X0081611Y0157339D02*
X0118492Y0157339D01*
X0117293Y0158538D02*
X0082810Y0158538D01*
X0084008Y0159736D02*
X0116095Y0159736D01*
X0114896Y0160935D02*
X0085207Y0160935D01*
X0086405Y0162133D02*
X0113698Y0162133D01*
X0112499Y0163332D02*
X0087604Y0163332D01*
X0088802Y0164530D02*
X0111301Y0164530D01*
X0111286Y0165729D02*
X0090001Y0165729D01*
X0091199Y0166927D02*
X0111286Y0166927D01*
X0111286Y0168126D02*
X0092398Y0168126D01*
X0093596Y0169324D02*
X0111286Y0169324D01*
X0111286Y0170523D02*
X0104693Y0170523D01*
X0106367Y0171721D02*
X0111286Y0171721D01*
X0111286Y0172920D02*
X0107414Y0172920D01*
X0107911Y0174118D02*
X0111286Y0174118D01*
X0111286Y0175317D02*
X0108283Y0175317D01*
X0108283Y0176515D02*
X0111286Y0176515D01*
X0111286Y0177714D02*
X0108221Y0177714D01*
X0107725Y0178912D02*
X0111286Y0178912D01*
X0111286Y0180111D02*
X0107116Y0180111D01*
X0105918Y0181309D02*
X0111286Y0181309D01*
X0111286Y0182508D02*
X0103608Y0182508D01*
X0111286Y0183706D02*
X0006687Y0183706D01*
X0006689Y0182508D02*
X0090143Y0182508D01*
X0087833Y0181309D02*
X0006691Y0181309D01*
X0006693Y0180111D02*
X0086635Y0180111D01*
X0086027Y0178912D02*
X0006695Y0178912D01*
X0006697Y0177714D02*
X0085530Y0177714D01*
X0085469Y0176515D02*
X0006699Y0176515D01*
X0006701Y0175317D02*
X0085469Y0175317D01*
X0085840Y0174118D02*
X0006703Y0174118D01*
X0006705Y0172920D02*
X0086337Y0172920D01*
X0087384Y0171721D02*
X0006707Y0171721D01*
X0006709Y0170523D02*
X0087421Y0170523D01*
X0086222Y0169324D02*
X0006711Y0169324D01*
X0006713Y0168126D02*
X0085024Y0168126D01*
X0083825Y0166927D02*
X0006715Y0166927D01*
X0006717Y0165729D02*
X0082627Y0165729D01*
X0081428Y0164530D02*
X0006719Y0164530D01*
X0006721Y0163332D02*
X0080230Y0163332D01*
X0079031Y0162133D02*
X0006723Y0162133D01*
X0006725Y0160935D02*
X0077833Y0160935D01*
X0076634Y0159736D02*
X0006727Y0159736D01*
X0006729Y0158538D02*
X0075436Y0158538D01*
X0074237Y0157339D02*
X0043021Y0157339D01*
X0044511Y0156141D02*
X0073039Y0156141D01*
X0071840Y0154942D02*
X0045280Y0154942D01*
X0045702Y0153744D02*
X0070642Y0153744D01*
X0053862Y0136964D02*
X0043730Y0136964D01*
X0044869Y0135766D02*
X0052664Y0135766D01*
X0040980Y0147751D02*
X0039780Y0147751D01*
X0039780Y0148949D02*
X0040980Y0148949D01*
X0040980Y0150148D02*
X0039780Y0150148D01*
X0006685Y0184905D02*
X0111286Y0184905D01*
X0111286Y0186103D02*
X0006683Y0186103D01*
X0006681Y0187302D02*
X0111286Y0187302D01*
X0111286Y0188500D02*
X0006679Y0188500D01*
X0006677Y0189699D02*
X0111286Y0189699D01*
X0111286Y0190897D02*
X0006675Y0190897D01*
X0006673Y0192096D02*
X0111286Y0192096D01*
X0111286Y0193294D02*
X0006671Y0193294D01*
X0006669Y0194493D02*
X0111286Y0194493D01*
X0111286Y0195691D02*
X0006667Y0195691D01*
X0006665Y0196890D02*
X0111286Y0196890D01*
X0111286Y0198088D02*
X0006663Y0198088D01*
X0006661Y0199287D02*
X0014856Y0199287D01*
X0012627Y0200485D02*
X0006659Y0200485D01*
X0006657Y0201684D02*
X0010574Y0201684D01*
X0009375Y0202882D02*
X0006654Y0202882D01*
X0006652Y0204081D02*
X0008177Y0204081D01*
X0007142Y0205279D02*
X0006650Y0205279D01*
X0027714Y0199287D02*
X0111286Y0199287D01*
X0111286Y0200485D02*
X0029943Y0200485D01*
X0031996Y0201684D02*
X0100117Y0201684D01*
X0098945Y0202882D02*
X0033195Y0202882D01*
X0034393Y0204081D02*
X0098448Y0204081D01*
X0098186Y0205279D02*
X0035428Y0205279D01*
X0036120Y0206478D02*
X0098186Y0206478D01*
X0098571Y0207677D02*
X0036812Y0207677D01*
X0037499Y0208875D02*
X0099215Y0208875D01*
X0100432Y0210074D02*
X0037820Y0210074D01*
X0038141Y0211272D02*
X0099598Y0211272D01*
X0098400Y0212471D02*
X0038463Y0212471D01*
X0038680Y0213669D02*
X0097201Y0213669D01*
X0096003Y0214868D02*
X0038680Y0214868D01*
X0038680Y0216066D02*
X0094804Y0216066D01*
X0093606Y0217265D02*
X0038680Y0217265D01*
X0038520Y0218463D02*
X0092407Y0218463D01*
X0091209Y0219662D02*
X0038198Y0219662D01*
X0037877Y0220860D02*
X0087182Y0220860D01*
X0085983Y0222059D02*
X0037556Y0222059D01*
X0036935Y0223257D02*
X0085467Y0223257D01*
X0085467Y0224456D02*
X0036243Y0224456D01*
X0035551Y0225654D02*
X0085467Y0225654D01*
X0086425Y0226853D02*
X0034606Y0226853D01*
X0033408Y0228051D02*
X0087624Y0228051D01*
X0091324Y0228051D02*
X0127624Y0228051D01*
X0127814Y0228242D02*
X0125467Y0225894D01*
X0125467Y0222575D01*
X0127152Y0220890D01*
X0127152Y0213917D01*
X0125282Y0213917D01*
X0123663Y0213246D01*
X0122423Y0212007D01*
X0121752Y0210387D01*
X0121752Y0208634D01*
X0122423Y0207014D01*
X0123663Y0205774D01*
X0125282Y0205103D01*
X0133036Y0205103D01*
X0134655Y0205774D01*
X0135895Y0207014D01*
X0136566Y0208634D01*
X0136566Y0210387D01*
X0135895Y0212007D01*
X0134655Y0213246D01*
X0133036Y0213917D01*
X0131166Y0213917D01*
X0131166Y0220260D01*
X0133481Y0222575D01*
X0133481Y0225894D01*
X0131134Y0228242D01*
X0127814Y0228242D01*
X0126425Y0226853D02*
X0092523Y0226853D01*
X0093481Y0225654D02*
X0125467Y0225654D01*
X0125467Y0224456D02*
X0093481Y0224456D01*
X0093481Y0223257D02*
X0125467Y0223257D01*
X0125983Y0222059D02*
X0094488Y0222059D01*
X0095687Y0220860D02*
X0127152Y0220860D01*
X0127152Y0219662D02*
X0096885Y0219662D01*
X0098084Y0218463D02*
X0127152Y0218463D01*
X0127152Y0217265D02*
X0099282Y0217265D01*
X0100481Y0216066D02*
X0127152Y0216066D01*
X0127152Y0214868D02*
X0101680Y0214868D01*
X0102878Y0213669D02*
X0124683Y0213669D01*
X0122887Y0212471D02*
X0104077Y0212471D01*
X0104124Y0212423D02*
X0104124Y0212423D01*
X0105275Y0211272D02*
X0122119Y0211272D01*
X0121752Y0210074D02*
X0116154Y0210074D01*
X0117371Y0208875D02*
X0121752Y0208875D01*
X0122148Y0207677D02*
X0118015Y0207677D01*
X0118400Y0206478D02*
X0122959Y0206478D01*
X0124857Y0205279D02*
X0118400Y0205279D01*
X0118137Y0204081D02*
X0306602Y0204081D01*
X0305567Y0205279D02*
X0234382Y0205279D01*
X0234319Y0205247D02*
X0234964Y0205576D01*
X0235549Y0206002D01*
X0236061Y0206514D01*
X0236487Y0207099D01*
X0236816Y0207744D01*
X0237039Y0208433D01*
X0237147Y0209110D01*
X0229953Y0209110D01*
X0229953Y0209910D01*
X0237147Y0209910D01*
X0237039Y0210587D01*
X0236816Y0211276D01*
X0236487Y0211921D01*
X0236061Y0212507D01*
X0235549Y0213019D01*
X0234964Y0213445D01*
X0234319Y0213773D01*
X0233630Y0213997D01*
X0232915Y0214110D01*
X0229953Y0214110D01*
X0229953Y0209910D01*
X0229153Y0209910D01*
X0229153Y0209110D01*
X0229953Y0209110D01*
X0229953Y0204910D01*
X0232915Y0204910D01*
X0233630Y0205023D01*
X0234319Y0205247D01*
X0233429Y0203917D02*
X0235049Y0203246D01*
X0236289Y0202007D01*
X0236960Y0200387D01*
X0236960Y0198634D01*
X0236289Y0197014D01*
X0235049Y0195774D01*
X0233429Y0195103D01*
X0225676Y0195103D01*
X0224056Y0195774D01*
X0222817Y0197014D01*
X0222146Y0198634D01*
X0222146Y0200387D01*
X0222817Y0202007D01*
X0224056Y0203246D01*
X0225676Y0203917D01*
X0233429Y0203917D01*
X0235413Y0202882D02*
X0307800Y0202882D01*
X0308999Y0201684D02*
X0236423Y0201684D01*
X0236919Y0200485D02*
X0311052Y0200485D01*
X0313281Y0199287D02*
X0236960Y0199287D01*
X0236734Y0198088D02*
X0334460Y0198088D01*
X0334462Y0196890D02*
X0236165Y0196890D01*
X0234850Y0195691D02*
X0334464Y0195691D01*
X0334466Y0194493D02*
X0115300Y0194493D01*
X0115300Y0195691D02*
X0123862Y0195691D01*
X0123663Y0195774D02*
X0125282Y0195103D01*
X0133036Y0195103D01*
X0134655Y0195774D01*
X0135895Y0197014D01*
X0136566Y0198634D01*
X0136566Y0200387D01*
X0135895Y0202007D01*
X0134655Y0203246D01*
X0133036Y0203917D01*
X0125282Y0203917D01*
X0123663Y0203246D01*
X0122423Y0202007D01*
X0121752Y0200387D01*
X0121752Y0198634D01*
X0122423Y0197014D01*
X0123663Y0195774D01*
X0122547Y0196890D02*
X0115300Y0196890D01*
X0115300Y0198088D02*
X0121978Y0198088D01*
X0121752Y0199287D02*
X0115300Y0199287D01*
X0115300Y0200485D02*
X0121793Y0200485D01*
X0122289Y0201684D02*
X0116469Y0201684D01*
X0117641Y0202882D02*
X0123299Y0202882D01*
X0129159Y0209510D02*
X0129159Y0223920D01*
X0129474Y0224235D01*
X0132523Y0226853D02*
X0306389Y0226853D01*
X0305444Y0225654D02*
X0133481Y0225654D01*
X0133481Y0224456D02*
X0304752Y0224456D01*
X0304060Y0223257D02*
X0133481Y0223257D01*
X0132965Y0222059D02*
X0303439Y0222059D01*
X0303118Y0220860D02*
X0267531Y0220860D01*
X0267315Y0221076D02*
X0263995Y0221076D01*
X0261995Y0219076D01*
X0252228Y0219076D01*
X0250228Y0221076D01*
X0246909Y0221076D01*
X0244561Y0218729D01*
X0244561Y0215409D01*
X0246909Y0213062D01*
X0250228Y0213062D01*
X0252228Y0215062D01*
X0261995Y0215062D01*
X0263995Y0213062D01*
X0267315Y0213062D01*
X0269662Y0215409D01*
X0269662Y0218729D01*
X0267315Y0221076D01*
X0268730Y0219662D02*
X0302797Y0219662D01*
X0302476Y0218463D02*
X0269662Y0218463D01*
X0269662Y0217265D02*
X0302315Y0217265D01*
X0302315Y0216066D02*
X0269662Y0216066D01*
X0269120Y0214868D02*
X0302315Y0214868D01*
X0302315Y0213669D02*
X0267922Y0213669D01*
X0263388Y0213669D02*
X0250835Y0213669D01*
X0252034Y0214868D02*
X0262190Y0214868D01*
X0265655Y0217069D02*
X0248569Y0217069D01*
X0244561Y0217265D02*
X0131166Y0217265D01*
X0131166Y0218463D02*
X0244561Y0218463D01*
X0245494Y0219662D02*
X0131166Y0219662D01*
X0131766Y0220860D02*
X0246692Y0220860D01*
X0250445Y0220860D02*
X0263779Y0220860D01*
X0262581Y0219662D02*
X0251643Y0219662D01*
X0244561Y0216066D02*
X0131166Y0216066D01*
X0131166Y0214868D02*
X0245103Y0214868D01*
X0246302Y0213669D02*
X0234523Y0213669D01*
X0236088Y0212471D02*
X0302533Y0212471D01*
X0302854Y0211272D02*
X0236817Y0211272D01*
X0237121Y0210074D02*
X0303175Y0210074D01*
X0303496Y0208875D02*
X0237109Y0208875D01*
X0236781Y0207677D02*
X0304183Y0207677D01*
X0304875Y0206478D02*
X0236026Y0206478D01*
X0229953Y0206478D02*
X0229153Y0206478D01*
X0229153Y0205279D02*
X0229953Y0205279D01*
X0229153Y0204910D02*
X0229153Y0209110D01*
X0221959Y0209110D01*
X0222066Y0208433D01*
X0222290Y0207744D01*
X0222618Y0207099D01*
X0223044Y0206514D01*
X0223556Y0206002D01*
X0224142Y0205576D01*
X0224787Y0205247D01*
X0225476Y0205023D01*
X0226191Y0204910D01*
X0229153Y0204910D01*
X0229153Y0207677D02*
X0229953Y0207677D01*
X0229953Y0208875D02*
X0229153Y0208875D01*
X0229153Y0209910D02*
X0221959Y0209910D01*
X0222066Y0210587D01*
X0222290Y0211276D01*
X0222618Y0211921D01*
X0223044Y0212507D01*
X0223556Y0213019D01*
X0224142Y0213445D01*
X0224787Y0213773D01*
X0225476Y0213997D01*
X0226191Y0214110D01*
X0229153Y0214110D01*
X0229153Y0209910D01*
X0229153Y0210074D02*
X0229953Y0210074D01*
X0229953Y0211272D02*
X0229153Y0211272D01*
X0229153Y0212471D02*
X0229953Y0212471D01*
X0229953Y0213669D02*
X0229153Y0213669D01*
X0224583Y0213669D02*
X0133635Y0213669D01*
X0135431Y0212471D02*
X0223018Y0212471D01*
X0222288Y0211272D02*
X0136199Y0211272D01*
X0136566Y0210074D02*
X0221985Y0210074D01*
X0221996Y0208875D02*
X0136566Y0208875D01*
X0136170Y0207677D02*
X0222324Y0207677D01*
X0223080Y0206478D02*
X0135359Y0206478D01*
X0133461Y0205279D02*
X0224724Y0205279D01*
X0223692Y0202882D02*
X0135019Y0202882D01*
X0136029Y0201684D02*
X0222683Y0201684D01*
X0222187Y0200485D02*
X0136525Y0200485D01*
X0136566Y0199287D02*
X0222146Y0199287D01*
X0222371Y0198088D02*
X0136340Y0198088D01*
X0135771Y0196890D02*
X0222941Y0196890D01*
X0224256Y0195691D02*
X0134456Y0195691D01*
X0133036Y0193917D02*
X0134655Y0193246D01*
X0135895Y0192007D01*
X0136566Y0190387D01*
X0136566Y0188634D01*
X0135895Y0187014D01*
X0134655Y0185774D01*
X0133036Y0185103D01*
X0125282Y0185103D01*
X0123663Y0185774D01*
X0122423Y0187014D01*
X0121752Y0188634D01*
X0121752Y0190387D01*
X0122423Y0192007D01*
X0123663Y0193246D01*
X0125282Y0193917D01*
X0133036Y0193917D01*
X0134540Y0193294D02*
X0224172Y0193294D01*
X0222906Y0192096D02*
X0135806Y0192096D01*
X0136355Y0190897D02*
X0198889Y0190897D01*
X0197690Y0189699D02*
X0136566Y0189699D01*
X0136511Y0188500D02*
X0196492Y0188500D01*
X0195293Y0187302D02*
X0136014Y0187302D01*
X0134985Y0186103D02*
X0194095Y0186103D01*
X0192896Y0184905D02*
X0115300Y0184905D01*
X0115300Y0186103D02*
X0123333Y0186103D01*
X0122304Y0187302D02*
X0115300Y0187302D01*
X0115300Y0188500D02*
X0121807Y0188500D01*
X0121752Y0189699D02*
X0115300Y0189699D01*
X0115300Y0190897D02*
X0121963Y0190897D01*
X0122512Y0192096D02*
X0115300Y0192096D01*
X0115300Y0193294D02*
X0123779Y0193294D01*
X0125282Y0183917D02*
X0123663Y0183246D01*
X0122423Y0182007D01*
X0121752Y0180387D01*
X0121752Y0178634D01*
X0122423Y0177014D01*
X0123663Y0175774D01*
X0125282Y0175103D01*
X0133036Y0175103D01*
X0134655Y0175774D01*
X0135895Y0177014D01*
X0136566Y0178634D01*
X0136566Y0180387D01*
X0135895Y0182007D01*
X0134655Y0183246D01*
X0133036Y0183917D01*
X0125282Y0183917D01*
X0124773Y0183706D02*
X0115300Y0183706D01*
X0115300Y0182508D02*
X0122924Y0182508D01*
X0122134Y0181309D02*
X0115300Y0181309D01*
X0115300Y0180111D02*
X0121752Y0180111D01*
X0121752Y0178912D02*
X0115300Y0178912D01*
X0115300Y0177714D02*
X0122133Y0177714D01*
X0122922Y0176515D02*
X0115300Y0176515D01*
X0115300Y0175317D02*
X0124767Y0175317D01*
X0125282Y0173917D02*
X0123663Y0173246D01*
X0122423Y0172007D01*
X0121752Y0170387D01*
X0121752Y0168634D01*
X0122423Y0167014D01*
X0123663Y0165774D01*
X0125282Y0165103D01*
X0133036Y0165103D01*
X0134655Y0165774D01*
X0135895Y0167014D01*
X0136566Y0168634D01*
X0136566Y0170387D01*
X0135895Y0172007D01*
X0134655Y0173246D01*
X0133036Y0173917D01*
X0125282Y0173917D01*
X0123336Y0172920D02*
X0115300Y0172920D01*
X0115300Y0174118D02*
X0185813Y0174118D01*
X0185813Y0172920D02*
X0134982Y0172920D01*
X0136013Y0171721D02*
X0185813Y0171721D01*
X0185813Y0170523D02*
X0136510Y0170523D01*
X0136566Y0169324D02*
X0185813Y0169324D01*
X0185813Y0168126D02*
X0136356Y0168126D01*
X0135809Y0166927D02*
X0185813Y0166927D01*
X0185813Y0165729D02*
X0134546Y0165729D01*
X0134450Y0163332D02*
X0185813Y0163332D01*
X0185813Y0164530D02*
X0116978Y0164530D01*
X0118176Y0163332D02*
X0123868Y0163332D01*
X0122549Y0162133D02*
X0119375Y0162133D01*
X0120573Y0160935D02*
X0121979Y0160935D01*
X0123772Y0165729D02*
X0115779Y0165729D01*
X0115300Y0166927D02*
X0122510Y0166927D01*
X0121962Y0168126D02*
X0115300Y0168126D01*
X0115300Y0169324D02*
X0121752Y0169324D01*
X0121808Y0170523D02*
X0115300Y0170523D01*
X0115300Y0171721D02*
X0122305Y0171721D01*
X0113293Y0165376D02*
X0113293Y0205731D01*
X0108571Y0207677D02*
X0108015Y0207677D01*
X0107371Y0208875D02*
X0109215Y0208875D01*
X0110432Y0210074D02*
X0106154Y0210074D01*
X0103293Y0210416D02*
X0089474Y0224235D01*
X0103293Y0210416D02*
X0103293Y0205731D01*
X0108137Y0204081D02*
X0108448Y0204081D01*
X0108945Y0202882D02*
X0107641Y0202882D01*
X0106469Y0201684D02*
X0110117Y0201684D01*
X0133545Y0183706D02*
X0191698Y0183706D01*
X0190499Y0182508D02*
X0135394Y0182508D01*
X0136184Y0181309D02*
X0189301Y0181309D01*
X0188102Y0180111D02*
X0136566Y0180111D01*
X0136566Y0178912D02*
X0186904Y0178912D01*
X0185813Y0177714D02*
X0136185Y0177714D01*
X0135397Y0176515D02*
X0185813Y0176515D01*
X0185813Y0175317D02*
X0133551Y0175317D01*
X0135769Y0162133D02*
X0185813Y0162133D01*
X0185813Y0160935D02*
X0136339Y0160935D01*
X0136566Y0159736D02*
X0185813Y0159736D01*
X0185813Y0158538D02*
X0136526Y0158538D01*
X0136030Y0157339D02*
X0185813Y0157339D01*
X0185813Y0156141D02*
X0135022Y0156141D01*
X0133455Y0153744D02*
X0185813Y0153744D01*
X0185813Y0154942D02*
X0126566Y0154942D01*
X0135357Y0152545D02*
X0185740Y0152545D01*
X0184541Y0151346D02*
X0136169Y0151346D01*
X0136566Y0150148D02*
X0183813Y0150148D01*
X0183813Y0148949D02*
X0136566Y0148949D01*
X0136201Y0147751D02*
X0183813Y0147751D01*
X0184560Y0146552D02*
X0135434Y0146552D01*
X0133641Y0145354D02*
X0185759Y0145354D01*
X0187820Y0148959D02*
X0194513Y0142266D01*
X0194513Y0116361D01*
X0201915Y0108959D01*
X0202781Y0108959D01*
X0206788Y0109399D02*
X0210223Y0109399D01*
X0210223Y0110597D02*
X0206788Y0110597D01*
X0205611Y0111796D02*
X0210223Y0111796D01*
X0210223Y0112994D02*
X0200718Y0112994D01*
X0199520Y0114193D02*
X0210223Y0114193D01*
X0210223Y0115391D02*
X0198321Y0115391D01*
X0197123Y0116590D02*
X0210223Y0116590D01*
X0210223Y0117788D02*
X0196520Y0117788D01*
X0196520Y0118987D02*
X0210223Y0118987D01*
X0210223Y0120185D02*
X0196520Y0120185D01*
X0196520Y0121384D02*
X0210223Y0121384D01*
X0210223Y0122582D02*
X0196520Y0122582D01*
X0196520Y0123781D02*
X0210223Y0123781D01*
X0210223Y0124979D02*
X0196520Y0124979D01*
X0196520Y0126178D02*
X0210223Y0126178D01*
X0210223Y0127376D02*
X0196520Y0127376D01*
X0196520Y0128575D02*
X0210223Y0128575D01*
X0210223Y0129773D02*
X0196520Y0129773D01*
X0196520Y0130972D02*
X0210223Y0130972D01*
X0210223Y0132170D02*
X0196520Y0132170D01*
X0196520Y0133369D02*
X0210223Y0133369D01*
X0210223Y0134567D02*
X0196520Y0134567D01*
X0196520Y0135766D02*
X0210223Y0135766D01*
X0210223Y0136964D02*
X0196520Y0136964D01*
X0196520Y0138163D02*
X0210223Y0138163D01*
X0210223Y0139361D02*
X0196520Y0139361D01*
X0196520Y0140560D02*
X0210223Y0140560D01*
X0210223Y0141758D02*
X0196520Y0141758D01*
X0196520Y0142957D02*
X0210223Y0142957D01*
X0210223Y0144155D02*
X0195463Y0144155D01*
X0194264Y0145354D02*
X0200447Y0145354D01*
X0201041Y0144759D02*
X0198581Y0147219D01*
X0198581Y0148759D01*
X0202581Y0148759D01*
X0202581Y0149159D01*
X0198581Y0149159D01*
X0198581Y0150699D01*
X0201041Y0153159D01*
X0202581Y0153159D01*
X0202581Y0149159D01*
X0202981Y0149159D01*
X0202981Y0153159D01*
X0204521Y0153159D01*
X0206981Y0150699D01*
X0206981Y0149159D01*
X0202981Y0149159D01*
X0202981Y0148759D01*
X0202981Y0144759D01*
X0204521Y0144759D01*
X0206981Y0147219D01*
X0206981Y0148759D01*
X0202981Y0148759D01*
X0202581Y0148759D01*
X0202581Y0144759D01*
X0201041Y0144759D01*
X0202581Y0145354D02*
X0202981Y0145354D01*
X0202981Y0146552D02*
X0202581Y0146552D01*
X0202581Y0147751D02*
X0202981Y0147751D01*
X0202981Y0148949D02*
X0210223Y0148949D01*
X0210223Y0147751D02*
X0206981Y0147751D01*
X0206314Y0146552D02*
X0210223Y0146552D01*
X0210223Y0145354D02*
X0205116Y0145354D01*
X0202581Y0148949D02*
X0191828Y0148949D01*
X0191867Y0147751D02*
X0198581Y0147751D01*
X0199248Y0146552D02*
X0193066Y0146552D01*
X0187820Y0148959D02*
X0187820Y0176991D01*
X0200419Y0189589D01*
X0229474Y0189589D01*
X0229553Y0189510D01*
X0235378Y0186103D02*
X0297987Y0186103D01*
X0297870Y0185744D02*
X0297763Y0185071D01*
X0302575Y0185071D01*
X0302575Y0189882D01*
X0301901Y0189776D01*
X0301087Y0189511D01*
X0300324Y0189122D01*
X0299632Y0188619D01*
X0299026Y0188014D01*
X0298523Y0187321D01*
X0298135Y0186559D01*
X0297870Y0185744D01*
X0298513Y0187302D02*
X0236408Y0187302D01*
X0236905Y0188500D02*
X0299513Y0188500D01*
X0301665Y0189699D02*
X0236960Y0189699D01*
X0236748Y0190897D02*
X0334472Y0190897D01*
X0334474Y0189699D02*
X0304684Y0189699D01*
X0304448Y0189776D02*
X0303775Y0189882D01*
X0303775Y0185071D01*
X0308586Y0185071D01*
X0308479Y0185744D01*
X0308215Y0186559D01*
X0307826Y0187321D01*
X0307323Y0188014D01*
X0306718Y0188619D01*
X0306025Y0189122D01*
X0305262Y0189511D01*
X0304448Y0189776D01*
X0303775Y0189699D02*
X0302575Y0189699D01*
X0302575Y0188500D02*
X0303775Y0188500D01*
X0303775Y0187302D02*
X0302575Y0187302D01*
X0302575Y0186103D02*
X0303775Y0186103D01*
X0303775Y0185071D02*
X0302575Y0185071D01*
X0302575Y0183871D01*
X0303775Y0183871D01*
X0303775Y0185071D01*
X0303775Y0184905D02*
X0334482Y0184905D01*
X0334480Y0186103D02*
X0308363Y0186103D01*
X0307836Y0187302D02*
X0334478Y0187302D01*
X0334476Y0188500D02*
X0306837Y0188500D01*
X0308586Y0183871D02*
X0303775Y0183871D01*
X0303775Y0179060D01*
X0304448Y0179166D01*
X0305262Y0179431D01*
X0306025Y0179819D01*
X0306718Y0180323D01*
X0307323Y0180928D01*
X0307826Y0181620D01*
X0308215Y0182383D01*
X0308479Y0183197D01*
X0308586Y0183871D01*
X0308560Y0183706D02*
X0334484Y0183706D01*
X0334486Y0182508D02*
X0308255Y0182508D01*
X0307600Y0181309D02*
X0334488Y0181309D01*
X0334490Y0180111D02*
X0306426Y0180111D01*
X0303775Y0180111D02*
X0302575Y0180111D01*
X0302575Y0179060D02*
X0302575Y0183871D01*
X0297763Y0183871D01*
X0297870Y0183197D01*
X0298135Y0182383D01*
X0298523Y0181620D01*
X0299026Y0180928D01*
X0299632Y0180323D01*
X0300324Y0179819D01*
X0301087Y0179431D01*
X0301901Y0179166D01*
X0302575Y0179060D01*
X0302575Y0181309D02*
X0303775Y0181309D01*
X0303775Y0182508D02*
X0302575Y0182508D01*
X0302575Y0183706D02*
X0303775Y0183706D01*
X0302575Y0184905D02*
X0198573Y0184905D01*
X0199772Y0186103D02*
X0223727Y0186103D01*
X0222697Y0187302D02*
X0200970Y0187302D01*
X0197375Y0183706D02*
X0225167Y0183706D01*
X0225676Y0183917D02*
X0224056Y0183246D01*
X0222817Y0182007D01*
X0222146Y0180387D01*
X0222146Y0178634D01*
X0222817Y0177014D01*
X0224056Y0175774D01*
X0225676Y0175103D01*
X0233429Y0175103D01*
X0235049Y0175774D01*
X0236289Y0177014D01*
X0236960Y0178634D01*
X0236960Y0180387D01*
X0236289Y0182007D01*
X0235049Y0183246D01*
X0233429Y0183917D01*
X0225676Y0183917D01*
X0223318Y0182508D02*
X0196176Y0182508D01*
X0194978Y0181309D02*
X0222528Y0181309D01*
X0222146Y0180111D02*
X0193779Y0180111D01*
X0192581Y0178912D02*
X0222146Y0178912D01*
X0222527Y0177714D02*
X0191382Y0177714D01*
X0190184Y0176515D02*
X0223315Y0176515D01*
X0225161Y0175317D02*
X0189828Y0175317D01*
X0189828Y0174118D02*
X0245580Y0174118D01*
X0246778Y0172920D02*
X0235376Y0172920D01*
X0235049Y0173246D02*
X0233429Y0173917D01*
X0225676Y0173917D01*
X0224056Y0173246D01*
X0222817Y0172007D01*
X0222146Y0170387D01*
X0222146Y0168634D01*
X0222817Y0167014D01*
X0224056Y0165774D01*
X0225676Y0165103D01*
X0233429Y0165103D01*
X0235049Y0165774D01*
X0236289Y0167014D01*
X0236960Y0168634D01*
X0236960Y0170387D01*
X0236289Y0172007D01*
X0235049Y0173246D01*
X0236407Y0171721D02*
X0255489Y0171721D01*
X0256687Y0172920D02*
X0250359Y0172920D01*
X0250308Y0172869D02*
X0252768Y0175330D01*
X0252768Y0176869D01*
X0248769Y0176869D01*
X0248769Y0177269D01*
X0252768Y0177269D01*
X0252768Y0178809D01*
X0250308Y0181269D01*
X0248769Y0181269D01*
X0248769Y0177269D01*
X0248368Y0177269D01*
X0248368Y0176869D01*
X0244369Y0176869D01*
X0244369Y0175330D01*
X0246829Y0172869D01*
X0248368Y0172869D01*
X0248368Y0176869D01*
X0248769Y0176869D01*
X0248769Y0172869D01*
X0250308Y0172869D01*
X0248769Y0172920D02*
X0248368Y0172920D01*
X0248368Y0174118D02*
X0248769Y0174118D01*
X0248769Y0175317D02*
X0248368Y0175317D01*
X0248368Y0176515D02*
X0248769Y0176515D01*
X0248368Y0177269D02*
X0244369Y0177269D01*
X0244369Y0178809D01*
X0246829Y0181269D01*
X0248368Y0181269D01*
X0248368Y0177269D01*
X0248368Y0177714D02*
X0248769Y0177714D01*
X0248769Y0178912D02*
X0248368Y0178912D01*
X0248368Y0180111D02*
X0248769Y0180111D01*
X0251467Y0180111D02*
X0263030Y0180111D01*
X0263995Y0181076D02*
X0261648Y0178729D01*
X0261648Y0177881D01*
X0248230Y0164462D01*
X0241746Y0164462D01*
X0240273Y0163852D01*
X0239146Y0162725D01*
X0238536Y0161252D01*
X0238536Y0159658D01*
X0239146Y0158185D01*
X0240273Y0157058D01*
X0241746Y0156448D01*
X0248540Y0156448D01*
X0250013Y0157058D01*
X0250204Y0157249D01*
X0250971Y0157567D01*
X0266466Y0173062D01*
X0267315Y0173062D01*
X0267915Y0173662D01*
X0289841Y0173662D01*
X0297929Y0165306D01*
X0297929Y0163742D01*
X0298728Y0161814D01*
X0300203Y0160339D01*
X0302131Y0159540D01*
X0304218Y0159540D01*
X0306146Y0160339D01*
X0307622Y0161814D01*
X0308420Y0163742D01*
X0308420Y0165829D01*
X0307622Y0167757D01*
X0306146Y0169233D01*
X0304218Y0170031D01*
X0302839Y0170031D01*
X0294184Y0178973D01*
X0294173Y0178999D01*
X0293714Y0179459D01*
X0293262Y0179926D01*
X0293235Y0179937D01*
X0293215Y0179958D01*
X0292615Y0180206D01*
X0292018Y0180465D01*
X0291989Y0180465D01*
X0291963Y0180476D01*
X0291313Y0180476D01*
X0290663Y0180487D01*
X0290636Y0180476D01*
X0267915Y0180476D01*
X0267315Y0181076D01*
X0263995Y0181076D01*
X0261831Y0178912D02*
X0252665Y0178912D01*
X0252768Y0177714D02*
X0261481Y0177714D01*
X0260283Y0176515D02*
X0252768Y0176515D01*
X0252756Y0175317D02*
X0259084Y0175317D01*
X0257886Y0174118D02*
X0251557Y0174118D01*
X0254290Y0170523D02*
X0236904Y0170523D01*
X0236960Y0169324D02*
X0253092Y0169324D01*
X0251893Y0168126D02*
X0236749Y0168126D01*
X0236202Y0166927D02*
X0250695Y0166927D01*
X0249496Y0165729D02*
X0234939Y0165729D01*
X0233429Y0163917D02*
X0235049Y0163246D01*
X0236289Y0162007D01*
X0236960Y0160387D01*
X0236960Y0158634D01*
X0236289Y0157014D01*
X0235049Y0155774D01*
X0233429Y0155103D01*
X0225676Y0155103D01*
X0224056Y0155774D01*
X0222817Y0157014D01*
X0222614Y0157503D01*
X0219597Y0157503D01*
X0214237Y0152143D01*
X0214237Y0099869D01*
X0217392Y0096714D01*
X0223116Y0096714D01*
X0222817Y0097014D01*
X0222146Y0098634D01*
X0222146Y0100387D01*
X0222817Y0102007D01*
X0224056Y0103246D01*
X0225676Y0103917D01*
X0233429Y0103917D01*
X0235049Y0103246D01*
X0236289Y0102007D01*
X0236960Y0100387D01*
X0236960Y0098634D01*
X0236289Y0097014D01*
X0235687Y0096412D01*
X0236560Y0095538D01*
X0243975Y0088124D01*
X0248540Y0088124D01*
X0250013Y0087514D01*
X0251140Y0086386D01*
X0251750Y0084914D01*
X0251750Y0083319D01*
X0251140Y0081847D01*
X0250013Y0080719D01*
X0248540Y0080109D01*
X0241746Y0080109D01*
X0240273Y0080719D01*
X0239146Y0081847D01*
X0238536Y0083319D01*
X0238536Y0084914D01*
X0239146Y0086386D01*
X0239591Y0086831D01*
X0236960Y0089462D01*
X0236960Y0088634D01*
X0236289Y0087014D01*
X0235049Y0085774D01*
X0233429Y0085103D01*
X0225676Y0085103D01*
X0224056Y0085774D01*
X0222817Y0087014D01*
X0222146Y0088634D01*
X0222146Y0090387D01*
X0222817Y0092007D01*
X0223510Y0092700D01*
X0215729Y0092700D01*
X0211399Y0097031D01*
X0210223Y0098206D01*
X0210223Y0153806D01*
X0216758Y0160342D01*
X0217934Y0161517D01*
X0222614Y0161517D01*
X0222817Y0162007D01*
X0224056Y0163246D01*
X0225676Y0163917D01*
X0233429Y0163917D01*
X0234843Y0163332D02*
X0239753Y0163332D01*
X0238901Y0162133D02*
X0236162Y0162133D01*
X0236733Y0160935D02*
X0238536Y0160935D01*
X0238536Y0159736D02*
X0236960Y0159736D01*
X0236920Y0158538D02*
X0239000Y0158538D01*
X0239993Y0157339D02*
X0236424Y0157339D01*
X0235416Y0156141D02*
X0334530Y0156141D01*
X0334528Y0157339D02*
X0280294Y0157339D01*
X0280013Y0157058D02*
X0281140Y0158185D01*
X0281750Y0159658D01*
X0281750Y0161252D01*
X0281140Y0162725D01*
X0280013Y0163852D01*
X0278540Y0164462D01*
X0271746Y0164462D01*
X0270273Y0163852D01*
X0269146Y0162725D01*
X0268536Y0161252D01*
X0268536Y0159658D01*
X0269146Y0158185D01*
X0270273Y0157058D01*
X0271746Y0156448D01*
X0278540Y0156448D01*
X0280013Y0157058D01*
X0281286Y0158538D02*
X0334526Y0158538D01*
X0334524Y0159736D02*
X0304691Y0159736D01*
X0306742Y0160935D02*
X0334522Y0160935D01*
X0334520Y0162133D02*
X0307754Y0162133D01*
X0308250Y0163332D02*
X0334518Y0163332D01*
X0334516Y0164530D02*
X0308420Y0164530D01*
X0308420Y0165729D02*
X0334514Y0165729D01*
X0334512Y0166927D02*
X0307966Y0166927D01*
X0307253Y0168126D02*
X0334510Y0168126D01*
X0334508Y0169324D02*
X0305926Y0169324D01*
X0302364Y0170523D02*
X0334506Y0170523D01*
X0334504Y0171721D02*
X0301203Y0171721D01*
X0300043Y0172920D02*
X0334502Y0172920D01*
X0334500Y0174118D02*
X0298883Y0174118D01*
X0297723Y0175317D02*
X0334498Y0175317D01*
X0334496Y0176515D02*
X0296563Y0176515D01*
X0295403Y0177714D02*
X0334494Y0177714D01*
X0334492Y0178912D02*
X0294243Y0178912D01*
X0292845Y0180111D02*
X0299923Y0180111D01*
X0298749Y0181309D02*
X0236578Y0181309D01*
X0236960Y0180111D02*
X0245670Y0180111D01*
X0244472Y0178912D02*
X0236960Y0178912D01*
X0236579Y0177714D02*
X0244369Y0177714D01*
X0244369Y0176515D02*
X0235790Y0176515D01*
X0233945Y0175317D02*
X0244381Y0175317D01*
X0235788Y0182508D02*
X0298094Y0182508D01*
X0297790Y0183706D02*
X0233939Y0183706D01*
X0236200Y0192096D02*
X0334470Y0192096D01*
X0334468Y0193294D02*
X0234933Y0193294D01*
X0223730Y0172920D02*
X0189828Y0172920D01*
X0189828Y0171721D02*
X0222698Y0171721D01*
X0222202Y0170523D02*
X0189828Y0170523D01*
X0189828Y0169324D02*
X0222146Y0169324D01*
X0222356Y0168126D02*
X0189828Y0168126D01*
X0189828Y0166927D02*
X0222903Y0166927D01*
X0224166Y0165729D02*
X0189828Y0165729D01*
X0189828Y0164530D02*
X0248298Y0164530D01*
X0253140Y0159736D02*
X0268536Y0159736D01*
X0268536Y0160935D02*
X0254339Y0160935D01*
X0255537Y0162133D02*
X0268901Y0162133D01*
X0269753Y0163332D02*
X0256736Y0163332D01*
X0257934Y0164530D02*
X0297929Y0164530D01*
X0298099Y0163332D02*
X0280534Y0163332D01*
X0281386Y0162133D02*
X0298596Y0162133D01*
X0299608Y0160935D02*
X0281750Y0160935D01*
X0281750Y0159736D02*
X0301658Y0159736D01*
X0297520Y0165729D02*
X0259133Y0165729D01*
X0260331Y0166927D02*
X0296360Y0166927D01*
X0295200Y0168126D02*
X0261530Y0168126D01*
X0262728Y0169324D02*
X0294040Y0169324D01*
X0292880Y0170523D02*
X0263927Y0170523D01*
X0265125Y0171721D02*
X0291720Y0171721D01*
X0290560Y0172920D02*
X0266324Y0172920D01*
X0269000Y0158538D02*
X0251942Y0158538D01*
X0250421Y0157339D02*
X0269993Y0157339D01*
X0271746Y0154462D02*
X0270273Y0153852D01*
X0269146Y0152725D01*
X0268536Y0151252D01*
X0268536Y0149658D01*
X0269146Y0148185D01*
X0270273Y0147058D01*
X0271746Y0146448D01*
X0278540Y0146448D01*
X0280013Y0147058D01*
X0281140Y0148185D01*
X0281750Y0149658D01*
X0281750Y0151252D01*
X0281140Y0152725D01*
X0280013Y0153852D01*
X0278540Y0154462D01*
X0271746Y0154462D01*
X0270165Y0153744D02*
X0250122Y0153744D01*
X0250013Y0153852D02*
X0248540Y0154462D01*
X0241746Y0154462D01*
X0240273Y0153852D01*
X0239146Y0152725D01*
X0238536Y0151252D01*
X0238536Y0149658D01*
X0239146Y0148185D01*
X0240273Y0147058D01*
X0241746Y0146448D01*
X0248540Y0146448D01*
X0250013Y0147058D01*
X0251140Y0148185D01*
X0251750Y0149658D01*
X0251750Y0151252D01*
X0251140Y0152725D01*
X0250013Y0153852D01*
X0251215Y0152545D02*
X0269072Y0152545D01*
X0268575Y0151346D02*
X0251711Y0151346D01*
X0251750Y0150148D02*
X0268536Y0150148D01*
X0268830Y0148949D02*
X0251457Y0148949D01*
X0250706Y0147751D02*
X0269581Y0147751D01*
X0271494Y0146552D02*
X0248792Y0146552D01*
X0248540Y0144462D02*
X0250013Y0143852D01*
X0251140Y0142725D01*
X0251750Y0141252D01*
X0251750Y0139658D01*
X0251140Y0138185D01*
X0250013Y0137058D01*
X0248540Y0136448D01*
X0241746Y0136448D01*
X0240273Y0137058D01*
X0239146Y0138185D01*
X0238536Y0139658D01*
X0238536Y0141252D01*
X0239146Y0142725D01*
X0240273Y0143852D01*
X0241746Y0144462D01*
X0248540Y0144462D01*
X0249281Y0144155D02*
X0271006Y0144155D01*
X0270273Y0143852D02*
X0269146Y0142725D01*
X0268536Y0141252D01*
X0268536Y0139658D01*
X0269146Y0138185D01*
X0270273Y0137058D01*
X0271746Y0136448D01*
X0278540Y0136448D01*
X0280013Y0137058D01*
X0281140Y0138185D01*
X0281750Y0139658D01*
X0281750Y0141252D01*
X0281140Y0142725D01*
X0280013Y0143852D01*
X0278540Y0144462D01*
X0271746Y0144462D01*
X0270273Y0143852D01*
X0269378Y0142957D02*
X0250908Y0142957D01*
X0251541Y0141758D02*
X0268746Y0141758D01*
X0268536Y0140560D02*
X0251750Y0140560D01*
X0251627Y0139361D02*
X0268659Y0139361D01*
X0269169Y0138163D02*
X0251118Y0138163D01*
X0249787Y0136964D02*
X0270500Y0136964D01*
X0271560Y0134552D02*
X0270931Y0134347D01*
X0270342Y0134047D01*
X0269807Y0133659D01*
X0269340Y0133191D01*
X0268951Y0132656D01*
X0268651Y0132067D01*
X0268447Y0131439D01*
X0268343Y0130786D01*
X0268343Y0130655D01*
X0274943Y0130655D01*
X0274943Y0130255D01*
X0268343Y0130255D01*
X0268343Y0130125D01*
X0268447Y0129472D01*
X0268651Y0128843D01*
X0268951Y0128254D01*
X0269340Y0127719D01*
X0269807Y0127252D01*
X0270342Y0126863D01*
X0270931Y0126563D01*
X0271560Y0126359D01*
X0272213Y0126255D01*
X0274943Y0126255D01*
X0274943Y0130255D01*
X0275343Y0130255D01*
X0275343Y0126255D01*
X0278074Y0126255D01*
X0278727Y0126359D01*
X0279356Y0126563D01*
X0279945Y0126863D01*
X0280479Y0127252D01*
X0280947Y0127719D01*
X0281335Y0128254D01*
X0281636Y0128843D01*
X0281840Y0129472D01*
X0281943Y0130125D01*
X0281943Y0130255D01*
X0275343Y0130255D01*
X0275343Y0130655D01*
X0274943Y0130655D01*
X0274943Y0134655D01*
X0272213Y0134655D01*
X0271560Y0134552D01*
X0271659Y0134567D02*
X0214237Y0134567D01*
X0214237Y0133369D02*
X0224352Y0133369D01*
X0224056Y0133246D02*
X0222817Y0132007D01*
X0222146Y0130387D01*
X0222146Y0128634D01*
X0222817Y0127014D01*
X0224056Y0125774D01*
X0225676Y0125103D01*
X0233429Y0125103D01*
X0235049Y0125774D01*
X0236289Y0127014D01*
X0236960Y0128634D01*
X0236960Y0130387D01*
X0236289Y0132007D01*
X0235049Y0133246D01*
X0233429Y0133917D01*
X0225676Y0133917D01*
X0224056Y0133246D01*
X0222980Y0132170D02*
X0214237Y0132170D01*
X0214237Y0130972D02*
X0222388Y0130972D01*
X0222146Y0129773D02*
X0214237Y0129773D01*
X0214237Y0128575D02*
X0222170Y0128575D01*
X0222666Y0127376D02*
X0214237Y0127376D01*
X0214237Y0126178D02*
X0223653Y0126178D01*
X0225346Y0123781D02*
X0214237Y0123781D01*
X0214237Y0124979D02*
X0253517Y0124979D01*
X0252319Y0126178D02*
X0235453Y0126178D01*
X0236439Y0127376D02*
X0239955Y0127376D01*
X0238985Y0128575D02*
X0236935Y0128575D01*
X0236960Y0129773D02*
X0238536Y0129773D01*
X0238536Y0130972D02*
X0236718Y0130972D01*
X0236125Y0132170D02*
X0238917Y0132170D01*
X0239790Y0133369D02*
X0234754Y0133369D01*
X0233429Y0135103D02*
X0235049Y0135774D01*
X0236289Y0137014D01*
X0236960Y0138634D01*
X0236960Y0140387D01*
X0236289Y0142007D01*
X0235049Y0143246D01*
X0233429Y0143917D01*
X0225676Y0143917D01*
X0224056Y0143246D01*
X0222817Y0142007D01*
X0222146Y0140387D01*
X0222146Y0138634D01*
X0222817Y0137014D01*
X0224056Y0135774D01*
X0225676Y0135103D01*
X0233429Y0135103D01*
X0235029Y0135766D02*
X0299579Y0135766D01*
X0300203Y0135142D02*
X0298728Y0136618D01*
X0297929Y0138546D01*
X0297929Y0140632D01*
X0298728Y0142560D01*
X0300203Y0144036D01*
X0302131Y0144835D01*
X0304218Y0144835D01*
X0306146Y0144036D01*
X0307622Y0142560D01*
X0308420Y0140632D01*
X0308420Y0138546D01*
X0307622Y0136618D01*
X0306146Y0135142D01*
X0304218Y0134343D01*
X0302131Y0134343D01*
X0300203Y0135142D01*
X0301591Y0134567D02*
X0278628Y0134567D01*
X0278727Y0134552D02*
X0278074Y0134655D01*
X0275343Y0134655D01*
X0275343Y0130655D01*
X0281943Y0130655D01*
X0281943Y0130786D01*
X0281840Y0131439D01*
X0281636Y0132067D01*
X0281335Y0132656D01*
X0280947Y0133191D01*
X0280479Y0133659D01*
X0279945Y0134047D01*
X0279356Y0134347D01*
X0278727Y0134552D01*
X0280769Y0133369D02*
X0334569Y0133369D01*
X0334567Y0134567D02*
X0304759Y0134567D01*
X0306770Y0135766D02*
X0334565Y0135766D01*
X0334563Y0136964D02*
X0307766Y0136964D01*
X0308262Y0138163D02*
X0334561Y0138163D01*
X0334559Y0139361D02*
X0308420Y0139361D01*
X0308420Y0140560D02*
X0334557Y0140560D01*
X0334555Y0141758D02*
X0307954Y0141758D01*
X0307225Y0142957D02*
X0334553Y0142957D01*
X0334551Y0144155D02*
X0305858Y0144155D01*
X0300492Y0144155D02*
X0279281Y0144155D01*
X0280908Y0142957D02*
X0299124Y0142957D01*
X0298396Y0141758D02*
X0281541Y0141758D01*
X0281750Y0140560D02*
X0297929Y0140560D01*
X0297929Y0139361D02*
X0281627Y0139361D01*
X0281118Y0138163D02*
X0298088Y0138163D01*
X0298584Y0136964D02*
X0279787Y0136964D01*
X0275343Y0134567D02*
X0274943Y0134567D01*
X0274943Y0133369D02*
X0275343Y0133369D01*
X0275343Y0132170D02*
X0274943Y0132170D01*
X0274943Y0130972D02*
X0275343Y0130972D01*
X0275343Y0129773D02*
X0274943Y0129773D01*
X0274943Y0128575D02*
X0275343Y0128575D01*
X0275343Y0127376D02*
X0274943Y0127376D01*
X0271746Y0124462D02*
X0270273Y0123852D01*
X0269146Y0122725D01*
X0268536Y0121252D01*
X0268536Y0119658D01*
X0269146Y0118185D01*
X0270273Y0117058D01*
X0271746Y0116448D01*
X0278540Y0116448D01*
X0280013Y0117058D01*
X0281140Y0118185D01*
X0281750Y0119658D01*
X0281750Y0121252D01*
X0281140Y0122725D01*
X0280013Y0123852D01*
X0278540Y0124462D01*
X0271746Y0124462D01*
X0270202Y0123781D02*
X0261700Y0123781D01*
X0261700Y0124979D02*
X0301720Y0124979D01*
X0302131Y0125150D02*
X0300203Y0124351D01*
X0298728Y0122875D01*
X0297929Y0120947D01*
X0297929Y0118860D01*
X0298728Y0116932D01*
X0300203Y0115457D01*
X0302131Y0114658D01*
X0304218Y0114658D01*
X0306146Y0115457D01*
X0307622Y0116932D01*
X0308420Y0118860D01*
X0308420Y0120947D01*
X0307622Y0122875D01*
X0306146Y0124351D01*
X0304218Y0125150D01*
X0302131Y0125150D01*
X0304630Y0124979D02*
X0334583Y0124979D01*
X0334585Y0123781D02*
X0306716Y0123781D01*
X0307743Y0122582D02*
X0334587Y0122582D01*
X0334589Y0121384D02*
X0308240Y0121384D01*
X0308420Y0120185D02*
X0334591Y0120185D01*
X0334593Y0118987D02*
X0308420Y0118987D01*
X0307976Y0117788D02*
X0334595Y0117788D01*
X0334597Y0116590D02*
X0307279Y0116590D01*
X0305988Y0115391D02*
X0334599Y0115391D01*
X0334601Y0114193D02*
X0279191Y0114193D01*
X0278540Y0114462D02*
X0280013Y0113852D01*
X0281140Y0112725D01*
X0281750Y0111252D01*
X0281750Y0109658D01*
X0281140Y0108185D01*
X0280013Y0107058D01*
X0278540Y0106448D01*
X0271746Y0106448D01*
X0270273Y0107058D01*
X0269146Y0108185D01*
X0268536Y0109658D01*
X0268536Y0111252D01*
X0269146Y0112725D01*
X0270273Y0113852D01*
X0271746Y0114462D01*
X0278540Y0114462D01*
X0278882Y0116590D02*
X0299071Y0116590D01*
X0298373Y0117788D02*
X0280743Y0117788D01*
X0281472Y0118987D02*
X0297929Y0118987D01*
X0297929Y0120185D02*
X0281750Y0120185D01*
X0281696Y0121384D02*
X0298110Y0121384D01*
X0298606Y0122582D02*
X0281199Y0122582D01*
X0280085Y0123781D02*
X0299633Y0123781D01*
X0300362Y0115391D02*
X0261700Y0115391D01*
X0261700Y0114193D02*
X0271095Y0114193D01*
X0269415Y0112994D02*
X0261700Y0112994D01*
X0261700Y0111796D02*
X0268761Y0111796D01*
X0268536Y0110597D02*
X0261700Y0110597D01*
X0261700Y0109399D02*
X0268644Y0109399D01*
X0269140Y0108200D02*
X0261700Y0108200D01*
X0261700Y0107002D02*
X0270410Y0107002D01*
X0271746Y0104462D02*
X0270273Y0103852D01*
X0269146Y0102725D01*
X0268536Y0101252D01*
X0268536Y0099658D01*
X0269146Y0098185D01*
X0270273Y0097058D01*
X0271746Y0096448D01*
X0278540Y0096448D01*
X0280013Y0097058D01*
X0281140Y0098185D01*
X0281750Y0099658D01*
X0281750Y0101252D01*
X0281140Y0102725D01*
X0280013Y0103852D01*
X0278540Y0104462D01*
X0271746Y0104462D01*
X0269827Y0103406D02*
X0261700Y0103406D01*
X0261700Y0102208D02*
X0268932Y0102208D01*
X0268536Y0101009D02*
X0261700Y0101009D01*
X0261700Y0099810D02*
X0268536Y0099810D01*
X0268970Y0098612D02*
X0261700Y0098612D01*
X0261700Y0097413D02*
X0269918Y0097413D01*
X0261700Y0096215D02*
X0334631Y0096215D01*
X0334629Y0097413D02*
X0280369Y0097413D01*
X0281317Y0098612D02*
X0334627Y0098612D01*
X0334625Y0099810D02*
X0281750Y0099810D01*
X0281750Y0101009D02*
X0334623Y0101009D01*
X0334621Y0102208D02*
X0281355Y0102208D01*
X0280459Y0103406D02*
X0334619Y0103406D01*
X0334617Y0104605D02*
X0261700Y0104605D01*
X0261700Y0105803D02*
X0334615Y0105803D01*
X0334613Y0107002D02*
X0279877Y0107002D01*
X0281146Y0108200D02*
X0334611Y0108200D01*
X0334609Y0109399D02*
X0281643Y0109399D01*
X0281750Y0110597D02*
X0334607Y0110597D01*
X0334605Y0111796D02*
X0281525Y0111796D01*
X0280871Y0112994D02*
X0334603Y0112994D01*
X0334581Y0126178D02*
X0261502Y0126178D01*
X0260757Y0127376D02*
X0269682Y0127376D01*
X0268788Y0128575D02*
X0259559Y0128575D01*
X0258360Y0129773D02*
X0268399Y0129773D01*
X0268373Y0130972D02*
X0257162Y0130972D01*
X0255963Y0132170D02*
X0268703Y0132170D01*
X0269517Y0133369D02*
X0254729Y0133369D01*
X0254716Y0123781D02*
X0250085Y0123781D01*
X0250013Y0123852D02*
X0248540Y0124462D01*
X0241746Y0124462D01*
X0240273Y0123852D01*
X0239146Y0122725D01*
X0238536Y0121252D01*
X0238536Y0119658D01*
X0239146Y0118185D01*
X0240273Y0117058D01*
X0241746Y0116448D01*
X0248540Y0116448D01*
X0250013Y0117058D01*
X0251140Y0118185D01*
X0251750Y0119658D01*
X0251750Y0121252D01*
X0251140Y0122725D01*
X0250013Y0123852D01*
X0251199Y0122582D02*
X0254886Y0122582D01*
X0254886Y0121384D02*
X0251696Y0121384D01*
X0251750Y0120185D02*
X0254886Y0120185D01*
X0254886Y0118987D02*
X0251472Y0118987D01*
X0250743Y0117788D02*
X0254886Y0117788D01*
X0254886Y0116590D02*
X0248882Y0116590D01*
X0248540Y0114462D02*
X0250013Y0113852D01*
X0251140Y0112725D01*
X0251750Y0111252D01*
X0251750Y0109658D01*
X0251140Y0108185D01*
X0250013Y0107058D01*
X0248540Y0106448D01*
X0241746Y0106448D01*
X0240273Y0107058D01*
X0239146Y0108185D01*
X0238536Y0109658D01*
X0238536Y0111252D01*
X0239146Y0112725D01*
X0240273Y0113852D01*
X0241746Y0114462D01*
X0248540Y0114462D01*
X0249191Y0114193D02*
X0254886Y0114193D01*
X0254886Y0115391D02*
X0234125Y0115391D01*
X0233429Y0115103D02*
X0235049Y0115774D01*
X0236289Y0117014D01*
X0236960Y0118634D01*
X0236960Y0120387D01*
X0236289Y0122007D01*
X0235049Y0123246D01*
X0233429Y0123917D01*
X0225676Y0123917D01*
X0224056Y0123246D01*
X0222817Y0122007D01*
X0222146Y0120387D01*
X0222146Y0118634D01*
X0222817Y0117014D01*
X0224056Y0115774D01*
X0225676Y0115103D01*
X0233429Y0115103D01*
X0233429Y0113917D02*
X0235049Y0113246D01*
X0236289Y0112007D01*
X0236960Y0110387D01*
X0236960Y0108634D01*
X0236289Y0107014D01*
X0235049Y0105774D01*
X0233429Y0105103D01*
X0225676Y0105103D01*
X0224056Y0105774D01*
X0222817Y0107014D01*
X0222146Y0108634D01*
X0222146Y0110387D01*
X0222817Y0112007D01*
X0224056Y0113246D01*
X0225676Y0113917D01*
X0233429Y0113917D01*
X0235301Y0112994D02*
X0239415Y0112994D01*
X0238761Y0111796D02*
X0236376Y0111796D01*
X0236873Y0110597D02*
X0238536Y0110597D01*
X0238644Y0109399D02*
X0236960Y0109399D01*
X0236780Y0108200D02*
X0239140Y0108200D01*
X0240410Y0107002D02*
X0236277Y0107002D01*
X0235078Y0105803D02*
X0254886Y0105803D01*
X0254886Y0104605D02*
X0214237Y0104605D01*
X0214237Y0105803D02*
X0224027Y0105803D01*
X0222829Y0107002D02*
X0214237Y0107002D01*
X0214237Y0108200D02*
X0222325Y0108200D01*
X0222146Y0109399D02*
X0214237Y0109399D01*
X0214237Y0110597D02*
X0222233Y0110597D01*
X0222729Y0111796D02*
X0214237Y0111796D01*
X0214237Y0112994D02*
X0223804Y0112994D01*
X0224981Y0115391D02*
X0214237Y0115391D01*
X0214237Y0114193D02*
X0241095Y0114193D01*
X0241404Y0116590D02*
X0235865Y0116590D01*
X0236610Y0117788D02*
X0239543Y0117788D01*
X0238814Y0118987D02*
X0236960Y0118987D01*
X0236960Y0120185D02*
X0238536Y0120185D01*
X0238591Y0121384D02*
X0236547Y0121384D01*
X0235713Y0122582D02*
X0239087Y0122582D01*
X0240202Y0123781D02*
X0233759Y0123781D01*
X0223392Y0122582D02*
X0214237Y0122582D01*
X0214237Y0121384D02*
X0222559Y0121384D01*
X0222146Y0120185D02*
X0214237Y0120185D01*
X0214237Y0118987D02*
X0222146Y0118987D01*
X0222496Y0117788D02*
X0214237Y0117788D01*
X0214237Y0116590D02*
X0223241Y0116590D01*
X0210223Y0108200D02*
X0206788Y0108200D01*
X0206490Y0107002D02*
X0210223Y0107002D01*
X0210223Y0105803D02*
X0205292Y0105803D01*
X0210223Y0104605D02*
X0189828Y0104605D01*
X0189828Y0105299D02*
X0191828Y0107299D01*
X0191828Y0110619D01*
X0189480Y0112966D01*
X0186161Y0112966D01*
X0183813Y0110619D01*
X0183813Y0107299D01*
X0185813Y0105299D01*
X0185813Y0084821D01*
X0186989Y0083645D01*
X0218525Y0052109D01*
X0222919Y0052109D01*
X0222817Y0052007D01*
X0222146Y0050387D01*
X0222146Y0048634D01*
X0222817Y0047014D01*
X0224056Y0045774D01*
X0225676Y0045103D01*
X0233429Y0045103D01*
X0235049Y0045774D01*
X0236289Y0047014D01*
X0236960Y0048634D01*
X0236960Y0050387D01*
X0236289Y0052007D01*
X0236186Y0052109D01*
X0239037Y0052109D01*
X0239146Y0051847D01*
X0240273Y0050719D01*
X0241746Y0050109D01*
X0248540Y0050109D01*
X0250013Y0050719D01*
X0251140Y0051847D01*
X0251750Y0053319D01*
X0251750Y0054914D01*
X0251140Y0056386D01*
X0250013Y0057514D01*
X0248540Y0058124D01*
X0241746Y0058124D01*
X0240273Y0057514D01*
X0239146Y0056386D01*
X0239037Y0056124D01*
X0235399Y0056124D01*
X0236289Y0057014D01*
X0236960Y0058634D01*
X0236960Y0060387D01*
X0236289Y0062007D01*
X0235049Y0063246D01*
X0233429Y0063917D01*
X0225676Y0063917D01*
X0224056Y0063246D01*
X0222817Y0062007D01*
X0222146Y0060387D01*
X0222146Y0058634D01*
X0222817Y0057014D01*
X0223707Y0056124D01*
X0220187Y0056124D01*
X0189828Y0086483D01*
X0189828Y0105299D01*
X0190331Y0105803D02*
X0200270Y0105803D01*
X0199072Y0107002D02*
X0191530Y0107002D01*
X0191828Y0108200D02*
X0198774Y0108200D01*
X0198637Y0109399D02*
X0191828Y0109399D01*
X0191828Y0110597D02*
X0197438Y0110597D01*
X0196240Y0111796D02*
X0190651Y0111796D01*
X0193843Y0114193D02*
X0065485Y0114193D01*
X0059902Y0112994D02*
X0056411Y0112994D01*
X0057344Y0111796D02*
X0058703Y0111796D01*
X0058543Y0110597D02*
X0057841Y0110597D01*
X0057850Y0109399D02*
X0058543Y0109399D01*
X0058543Y0108200D02*
X0057618Y0108200D01*
X0057953Y0107002D02*
X0059242Y0107002D01*
X0059152Y0105803D02*
X0060440Y0105803D01*
X0060350Y0104605D02*
X0185813Y0104605D01*
X0185813Y0103406D02*
X0134270Y0103406D01*
X0134655Y0103246D02*
X0133036Y0103917D01*
X0125282Y0103917D01*
X0123663Y0103246D01*
X0122423Y0102007D01*
X0121752Y0100387D01*
X0121752Y0098634D01*
X0122423Y0097014D01*
X0123663Y0095774D01*
X0125282Y0095103D01*
X0133036Y0095103D01*
X0134655Y0095774D01*
X0135895Y0097014D01*
X0136566Y0098634D01*
X0136566Y0100387D01*
X0135895Y0102007D01*
X0134655Y0103246D01*
X0135694Y0102208D02*
X0185813Y0102208D01*
X0185813Y0101009D02*
X0136308Y0101009D01*
X0136566Y0099810D02*
X0185813Y0099810D01*
X0185813Y0098612D02*
X0136557Y0098612D01*
X0136061Y0097413D02*
X0185813Y0097413D01*
X0185813Y0096215D02*
X0135096Y0096215D01*
X0134655Y0093246D02*
X0133036Y0093917D01*
X0125282Y0093917D01*
X0123663Y0093246D01*
X0122423Y0092007D01*
X0121752Y0090387D01*
X0121752Y0088634D01*
X0122423Y0087014D01*
X0123663Y0085774D01*
X0125282Y0085103D01*
X0133036Y0085103D01*
X0134655Y0085774D01*
X0135895Y0087014D01*
X0136566Y0088634D01*
X0136566Y0090387D01*
X0135895Y0092007D01*
X0134655Y0093246D01*
X0135282Y0092619D02*
X0185813Y0092619D01*
X0185813Y0091421D02*
X0136138Y0091421D01*
X0136566Y0090222D02*
X0185813Y0090222D01*
X0185813Y0089024D02*
X0136566Y0089024D01*
X0136231Y0087825D02*
X0185813Y0087825D01*
X0185813Y0086627D02*
X0135508Y0086627D01*
X0133821Y0085428D02*
X0185813Y0085428D01*
X0186404Y0084230D02*
X0076394Y0084230D01*
X0075196Y0085428D02*
X0124497Y0085428D01*
X0125082Y0083997D02*
X0124393Y0083773D01*
X0123748Y0083445D01*
X0123162Y0083019D01*
X0122650Y0082507D01*
X0122225Y0081921D01*
X0121896Y0081276D01*
X0121672Y0080587D01*
X0121565Y0079910D01*
X0128759Y0079910D01*
X0128759Y0079110D01*
X0129559Y0079110D01*
X0129559Y0074910D01*
X0132521Y0074910D01*
X0133236Y0075023D01*
X0133925Y0075247D01*
X0134570Y0075576D01*
X0135156Y0076002D01*
X0135668Y0076514D01*
X0136093Y0077099D01*
X0136422Y0077744D01*
X0136646Y0078433D01*
X0136753Y0079110D01*
X0129559Y0079110D01*
X0129559Y0079910D01*
X0136753Y0079910D01*
X0136646Y0080587D01*
X0136422Y0081276D01*
X0136093Y0081921D01*
X0135668Y0082507D01*
X0135156Y0083019D01*
X0134570Y0083445D01*
X0133925Y0083773D01*
X0133236Y0083997D01*
X0132521Y0084110D01*
X0129559Y0084110D01*
X0129559Y0079910D01*
X0128759Y0079910D01*
X0128759Y0084110D01*
X0125797Y0084110D01*
X0125082Y0083997D01*
X0123179Y0083031D02*
X0105596Y0083031D01*
X0106794Y0081833D02*
X0122180Y0081833D01*
X0121688Y0080634D02*
X0107591Y0080634D01*
X0108088Y0079436D02*
X0128759Y0079436D01*
X0128759Y0079110D02*
X0121565Y0079110D01*
X0121672Y0078433D01*
X0121896Y0077744D01*
X0122225Y0077099D01*
X0122650Y0076514D01*
X0123162Y0076002D01*
X0123748Y0075576D01*
X0124393Y0075247D01*
X0125082Y0075023D01*
X0125797Y0074910D01*
X0128759Y0074910D01*
X0128759Y0079110D01*
X0129559Y0079436D02*
X0191198Y0079436D01*
X0190000Y0080634D02*
X0136631Y0080634D01*
X0136138Y0081833D02*
X0188801Y0081833D01*
X0187603Y0083031D02*
X0135139Y0083031D01*
X0136582Y0078237D02*
X0192397Y0078237D01*
X0193595Y0077039D02*
X0136049Y0077039D01*
X0134934Y0075840D02*
X0194794Y0075840D01*
X0195992Y0074642D02*
X0107548Y0074642D01*
X0108044Y0075840D02*
X0123384Y0075840D01*
X0122269Y0077039D02*
X0108283Y0077039D01*
X0108283Y0078237D02*
X0121736Y0078237D01*
X0123663Y0073246D02*
X0125282Y0073917D01*
X0133036Y0073917D01*
X0134655Y0073246D01*
X0135895Y0072007D01*
X0136566Y0070387D01*
X0136566Y0068634D01*
X0135895Y0067014D01*
X0134655Y0065774D01*
X0133036Y0065103D01*
X0125282Y0065103D01*
X0123663Y0065774D01*
X0122423Y0067014D01*
X0121752Y0068634D01*
X0121752Y0070387D01*
X0122423Y0072007D01*
X0123663Y0073246D01*
X0124138Y0073443D02*
X0106689Y0073443D01*
X0105471Y0072245D02*
X0122661Y0072245D01*
X0122025Y0071046D02*
X0089578Y0071046D01*
X0090776Y0069848D02*
X0121752Y0069848D01*
X0121752Y0068649D02*
X0104086Y0068649D01*
X0103736Y0068794D02*
X0102142Y0068794D01*
X0100669Y0068184D01*
X0099542Y0067057D01*
X0098931Y0065584D01*
X0098931Y0058790D01*
X0099542Y0057318D01*
X0100669Y0056190D01*
X0102142Y0055580D01*
X0103736Y0055580D01*
X0105208Y0056190D01*
X0106336Y0057318D01*
X0106946Y0058790D01*
X0106946Y0065584D01*
X0106336Y0067057D01*
X0105208Y0068184D01*
X0103736Y0068794D01*
X0101791Y0068649D02*
X0094086Y0068649D01*
X0095942Y0067451D02*
X0099935Y0067451D01*
X0099208Y0066252D02*
X0096669Y0066252D01*
X0096946Y0065054D02*
X0098931Y0065054D01*
X0098931Y0063855D02*
X0096946Y0063855D01*
X0096946Y0062657D02*
X0098931Y0062657D01*
X0098931Y0061458D02*
X0096946Y0061458D01*
X0096946Y0060260D02*
X0098931Y0060260D01*
X0098931Y0059061D02*
X0096946Y0059061D01*
X0096561Y0057863D02*
X0099316Y0057863D01*
X0100195Y0056664D02*
X0095682Y0056664D01*
X0095546Y0055466D02*
X0124407Y0055466D01*
X0123663Y0055774D02*
X0125282Y0055103D01*
X0133036Y0055103D01*
X0134655Y0055774D01*
X0135895Y0057014D01*
X0136566Y0058634D01*
X0136566Y0060387D01*
X0135895Y0062007D01*
X0134655Y0063246D01*
X0133036Y0063917D01*
X0125282Y0063917D01*
X0123663Y0063246D01*
X0122423Y0062007D01*
X0121752Y0060387D01*
X0121752Y0058634D01*
X0122423Y0057014D01*
X0123663Y0055774D01*
X0122773Y0056664D02*
X0105682Y0056664D01*
X0106561Y0057863D02*
X0122071Y0057863D01*
X0121752Y0059061D02*
X0106946Y0059061D01*
X0106946Y0060260D02*
X0121752Y0060260D01*
X0122196Y0061458D02*
X0106946Y0061458D01*
X0106946Y0062657D02*
X0123073Y0062657D01*
X0125132Y0063855D02*
X0106946Y0063855D01*
X0106946Y0065054D02*
X0205580Y0065054D01*
X0204382Y0066252D02*
X0135134Y0066252D01*
X0136076Y0067451D02*
X0203183Y0067451D01*
X0201985Y0068649D02*
X0136566Y0068649D01*
X0136566Y0069848D02*
X0200786Y0069848D01*
X0199588Y0071046D02*
X0136293Y0071046D01*
X0135657Y0072245D02*
X0198389Y0072245D01*
X0197191Y0073443D02*
X0134180Y0073443D01*
X0129559Y0075840D02*
X0128759Y0075840D01*
X0128759Y0077039D02*
X0129559Y0077039D01*
X0129559Y0078237D02*
X0128759Y0078237D01*
X0128759Y0080634D02*
X0129559Y0080634D01*
X0129559Y0081833D02*
X0128759Y0081833D01*
X0128759Y0083031D02*
X0129559Y0083031D01*
X0122810Y0086627D02*
X0073997Y0086627D01*
X0073892Y0087825D02*
X0122087Y0087825D01*
X0121752Y0089024D02*
X0073892Y0089024D01*
X0073892Y0090222D02*
X0121752Y0090222D01*
X0122180Y0091421D02*
X0073511Y0091421D01*
X0072335Y0092619D02*
X0123036Y0092619D01*
X0125043Y0093818D02*
X0071137Y0093818D01*
X0069938Y0095016D02*
X0185813Y0095016D01*
X0185813Y0093818D02*
X0133276Y0093818D01*
X0123222Y0096215D02*
X0068740Y0096215D01*
X0067541Y0097413D02*
X0122257Y0097413D01*
X0121761Y0098612D02*
X0066343Y0098612D01*
X0065144Y0099810D02*
X0121752Y0099810D01*
X0122010Y0101009D02*
X0063946Y0101009D01*
X0062747Y0102208D02*
X0122624Y0102208D01*
X0124048Y0103406D02*
X0061549Y0103406D01*
X0057770Y0099810D02*
X0006828Y0099810D01*
X0032066Y0098612D02*
X0032866Y0098612D01*
X0032866Y0097413D02*
X0032066Y0097413D01*
X0032066Y0096215D02*
X0032866Y0096215D01*
X0032866Y0093818D02*
X0032066Y0093818D01*
X0032066Y0092619D02*
X0032866Y0092619D01*
X0032866Y0091421D02*
X0032066Y0091421D01*
X0032066Y0090222D02*
X0032866Y0090222D01*
X0038685Y0091421D02*
X0066160Y0091421D01*
X0061366Y0096215D02*
X0039813Y0096215D01*
X0039186Y0097413D02*
X0060167Y0097413D01*
X0058969Y0098612D02*
X0037917Y0098612D01*
X0038001Y0101009D02*
X0056572Y0101009D01*
X0055373Y0102208D02*
X0049110Y0102208D01*
X0050718Y0103406D02*
X0054175Y0103406D01*
X0052976Y0104605D02*
X0051917Y0104605D01*
X0048138Y0108200D02*
X0038206Y0108200D01*
X0077593Y0083031D02*
X0088155Y0083031D01*
X0086957Y0081833D02*
X0078791Y0081833D01*
X0079990Y0080634D02*
X0086160Y0080634D01*
X0085664Y0079436D02*
X0081188Y0079436D01*
X0082387Y0078237D02*
X0085469Y0078237D01*
X0085469Y0077039D02*
X0083585Y0077039D01*
X0084784Y0075840D02*
X0085707Y0075840D01*
X0085982Y0074642D02*
X0086203Y0074642D01*
X0082204Y0071046D02*
X0056306Y0071046D01*
X0056306Y0069848D02*
X0083402Y0069848D01*
X0084086Y0068649D02*
X0084601Y0068649D01*
X0081791Y0068649D02*
X0056306Y0068649D01*
X0056306Y0067451D02*
X0079935Y0067451D01*
X0079208Y0066252D02*
X0056306Y0066252D01*
X0056306Y0065054D02*
X0078931Y0065054D01*
X0078931Y0063855D02*
X0056306Y0063855D01*
X0056306Y0062657D02*
X0078931Y0062657D01*
X0078931Y0061458D02*
X0055926Y0061458D01*
X0054924Y0060260D02*
X0078931Y0060260D01*
X0078931Y0059061D02*
X0053725Y0059061D01*
X0052527Y0057863D02*
X0079316Y0057863D01*
X0080195Y0056664D02*
X0061884Y0056664D01*
X0062126Y0056626D02*
X0061452Y0056733D01*
X0061452Y0051921D01*
X0066263Y0051921D01*
X0066157Y0052595D01*
X0065892Y0053409D01*
X0065503Y0054172D01*
X0065000Y0054864D01*
X0064395Y0055470D01*
X0063702Y0055973D01*
X0062940Y0056361D01*
X0062126Y0056626D01*
X0061452Y0056664D02*
X0060252Y0056664D01*
X0060252Y0056733D02*
X0059578Y0056626D01*
X0058764Y0056361D01*
X0058002Y0055973D01*
X0057309Y0055470D01*
X0056704Y0054864D01*
X0056200Y0054172D01*
X0055812Y0053409D01*
X0055547Y0052595D01*
X0055441Y0051921D01*
X0060252Y0051921D01*
X0060252Y0050721D01*
X0061452Y0050721D01*
X0061452Y0045910D01*
X0062126Y0046017D01*
X0062940Y0046281D01*
X0063702Y0046670D01*
X0064395Y0047173D01*
X0065000Y0047778D01*
X0065503Y0048471D01*
X0065892Y0049234D01*
X0066157Y0050048D01*
X0066263Y0050721D01*
X0061452Y0050721D01*
X0061452Y0051921D01*
X0060252Y0051921D01*
X0060252Y0056733D01*
X0059819Y0056664D02*
X0051328Y0056664D01*
X0050130Y0055466D02*
X0057305Y0055466D01*
X0056270Y0054267D02*
X0048931Y0054267D01*
X0047733Y0053069D02*
X0055701Y0053069D01*
X0055441Y0050721D02*
X0055547Y0050048D01*
X0055812Y0049234D01*
X0056200Y0048471D01*
X0056704Y0047778D01*
X0057309Y0047173D01*
X0058002Y0046670D01*
X0058764Y0046281D01*
X0059578Y0046017D01*
X0060252Y0045910D01*
X0060252Y0050721D01*
X0055441Y0050721D01*
X0055448Y0050672D02*
X0046635Y0050672D01*
X0046534Y0051870D02*
X0060252Y0051870D01*
X0060252Y0050672D02*
X0061452Y0050672D01*
X0061452Y0051870D02*
X0090331Y0051870D01*
X0090331Y0050672D02*
X0066255Y0050672D01*
X0065970Y0049473D02*
X0090331Y0049473D01*
X0090331Y0048275D02*
X0084991Y0048275D01*
X0085208Y0048184D02*
X0083736Y0048794D01*
X0082142Y0048794D01*
X0080669Y0048184D01*
X0079542Y0047057D01*
X0078931Y0045584D01*
X0078931Y0038790D01*
X0079542Y0037318D01*
X0080669Y0036190D01*
X0082142Y0035580D01*
X0083736Y0035580D01*
X0085208Y0036190D01*
X0086336Y0037318D01*
X0086946Y0038790D01*
X0086946Y0045584D01*
X0086336Y0047057D01*
X0085208Y0048184D01*
X0086317Y0047076D02*
X0089560Y0047076D01*
X0089053Y0045877D02*
X0086824Y0045877D01*
X0086946Y0044679D02*
X0088931Y0044679D01*
X0088931Y0043480D02*
X0086946Y0043480D01*
X0086946Y0042282D02*
X0088931Y0042282D01*
X0088931Y0041083D02*
X0086946Y0041083D01*
X0086946Y0039885D02*
X0088931Y0039885D01*
X0088975Y0038686D02*
X0086903Y0038686D01*
X0086406Y0037488D02*
X0089471Y0037488D01*
X0090570Y0036289D02*
X0085307Y0036289D01*
X0080570Y0036289D02*
X0061017Y0036289D01*
X0062216Y0035091D02*
X0248583Y0035091D01*
X0249781Y0036289D02*
X0235564Y0036289D01*
X0235049Y0035774D02*
X0236289Y0037014D01*
X0236960Y0038634D01*
X0236960Y0040387D01*
X0236289Y0042007D01*
X0235049Y0043246D01*
X0233429Y0043917D01*
X0225676Y0043917D01*
X0224056Y0043246D01*
X0222817Y0042007D01*
X0222146Y0040387D01*
X0222146Y0038634D01*
X0222817Y0037014D01*
X0224056Y0035774D01*
X0225676Y0035103D01*
X0233429Y0035103D01*
X0235049Y0035774D01*
X0236485Y0037488D02*
X0250980Y0037488D01*
X0252178Y0038686D02*
X0236960Y0038686D01*
X0236960Y0039885D02*
X0253377Y0039885D01*
X0254575Y0041083D02*
X0236671Y0041083D01*
X0236014Y0042282D02*
X0254886Y0042282D01*
X0254886Y0043480D02*
X0234484Y0043480D01*
X0235153Y0045877D02*
X0254886Y0045877D01*
X0254886Y0044679D02*
X0106946Y0044679D01*
X0106946Y0045584D02*
X0106336Y0047057D01*
X0105208Y0048184D01*
X0103736Y0048794D01*
X0102142Y0048794D01*
X0100669Y0048184D01*
X0099542Y0047057D01*
X0098931Y0045584D01*
X0098931Y0038790D01*
X0099542Y0037318D01*
X0100669Y0036190D01*
X0102142Y0035580D01*
X0103736Y0035580D01*
X0105208Y0036190D01*
X0106336Y0037318D01*
X0106946Y0038790D01*
X0106946Y0045584D01*
X0106824Y0045877D02*
X0123559Y0045877D01*
X0123663Y0045774D02*
X0125282Y0045103D01*
X0133036Y0045103D01*
X0134655Y0045774D01*
X0135895Y0047014D01*
X0136566Y0048634D01*
X0136566Y0050387D01*
X0135895Y0052007D01*
X0134655Y0053246D01*
X0133036Y0053917D01*
X0125282Y0053917D01*
X0123663Y0053246D01*
X0122423Y0052007D01*
X0121752Y0050387D01*
X0121752Y0048634D01*
X0122423Y0047014D01*
X0123663Y0045774D01*
X0122397Y0047076D02*
X0106317Y0047076D01*
X0104991Y0048275D02*
X0121901Y0048275D01*
X0121752Y0049473D02*
X0095546Y0049473D01*
X0095546Y0048275D02*
X0100886Y0048275D01*
X0099560Y0047076D02*
X0096317Y0047076D01*
X0096824Y0045877D02*
X0099053Y0045877D01*
X0098931Y0044679D02*
X0096946Y0044679D01*
X0096946Y0043480D02*
X0098931Y0043480D01*
X0098931Y0042282D02*
X0096946Y0042282D01*
X0096946Y0041083D02*
X0098931Y0041083D01*
X0098931Y0039885D02*
X0096946Y0039885D01*
X0096903Y0038686D02*
X0098975Y0038686D01*
X0099471Y0037488D02*
X0096406Y0037488D01*
X0095307Y0036289D02*
X0100570Y0036289D01*
X0105307Y0036289D02*
X0123147Y0036289D01*
X0123663Y0035774D02*
X0125282Y0035103D01*
X0133036Y0035103D01*
X0134655Y0035774D01*
X0135895Y0037014D01*
X0136566Y0038634D01*
X0136566Y0040387D01*
X0135895Y0042007D01*
X0134655Y0043246D01*
X0133036Y0043917D01*
X0125282Y0043917D01*
X0123663Y0043246D01*
X0122423Y0042007D01*
X0121752Y0040387D01*
X0121752Y0038634D01*
X0122423Y0037014D01*
X0123663Y0035774D01*
X0122227Y0037488D02*
X0106406Y0037488D01*
X0106903Y0038686D02*
X0121752Y0038686D01*
X0121752Y0039885D02*
X0106946Y0039885D01*
X0106946Y0041083D02*
X0122041Y0041083D01*
X0122698Y0042282D02*
X0106946Y0042282D01*
X0106946Y0043480D02*
X0124228Y0043480D01*
X0121870Y0050672D02*
X0095546Y0050672D01*
X0095546Y0051870D02*
X0122366Y0051870D01*
X0123485Y0053069D02*
X0095546Y0053069D01*
X0095546Y0054267D02*
X0216367Y0054267D01*
X0217565Y0053069D02*
X0134833Y0053069D01*
X0135952Y0051870D02*
X0222760Y0051870D01*
X0222264Y0050672D02*
X0136448Y0050672D01*
X0136566Y0049473D02*
X0222146Y0049473D01*
X0222294Y0048275D02*
X0136417Y0048275D01*
X0135921Y0047076D02*
X0222791Y0047076D01*
X0223953Y0045877D02*
X0134759Y0045877D01*
X0134090Y0043480D02*
X0224621Y0043480D01*
X0223092Y0042282D02*
X0135620Y0042282D01*
X0136278Y0041083D02*
X0222434Y0041083D01*
X0222146Y0039885D02*
X0136566Y0039885D01*
X0136566Y0038686D02*
X0222146Y0038686D01*
X0222620Y0037488D02*
X0136092Y0037488D01*
X0135171Y0036289D02*
X0223541Y0036289D01*
X0224056Y0033246D02*
X0225676Y0033917D01*
X0233429Y0033917D01*
X0235049Y0033246D01*
X0236289Y0032007D01*
X0236960Y0030387D01*
X0236960Y0028634D01*
X0236289Y0027014D01*
X0235049Y0025774D01*
X0233429Y0025103D01*
X0225676Y0025103D01*
X0224056Y0025774D01*
X0222817Y0027014D01*
X0222146Y0028634D01*
X0222146Y0030387D01*
X0222817Y0032007D01*
X0224056Y0033246D01*
X0223504Y0032694D02*
X0135208Y0032694D01*
X0134655Y0033246D02*
X0133036Y0033917D01*
X0125282Y0033917D01*
X0123663Y0033246D01*
X0122423Y0032007D01*
X0121752Y0030387D01*
X0121752Y0028634D01*
X0122423Y0027014D01*
X0123663Y0025774D01*
X0125282Y0025103D01*
X0133036Y0025103D01*
X0134655Y0025774D01*
X0135895Y0027014D01*
X0136566Y0028634D01*
X0136566Y0030387D01*
X0135895Y0032007D01*
X0134655Y0033246D01*
X0133096Y0033892D02*
X0225616Y0033892D01*
X0222605Y0031495D02*
X0136107Y0031495D01*
X0136566Y0030297D02*
X0222146Y0030297D01*
X0222146Y0029098D02*
X0136566Y0029098D01*
X0136262Y0027900D02*
X0222450Y0027900D01*
X0223129Y0026701D02*
X0135583Y0026701D01*
X0134000Y0025503D02*
X0224711Y0025503D01*
X0234394Y0025503D02*
X0238995Y0025503D01*
X0240193Y0026701D02*
X0235976Y0026701D01*
X0236656Y0027900D02*
X0241392Y0027900D01*
X0242590Y0029098D02*
X0236960Y0029098D01*
X0236960Y0030297D02*
X0243789Y0030297D01*
X0244987Y0031495D02*
X0236501Y0031495D01*
X0235602Y0032694D02*
X0246186Y0032694D01*
X0247384Y0033892D02*
X0233490Y0033892D01*
X0237796Y0024304D02*
X0073002Y0024304D01*
X0071804Y0025503D02*
X0124318Y0025503D01*
X0122735Y0026701D02*
X0070605Y0026701D01*
X0069407Y0027900D02*
X0122056Y0027900D01*
X0121752Y0029098D02*
X0068208Y0029098D01*
X0067010Y0030297D02*
X0121752Y0030297D01*
X0122211Y0031495D02*
X0065811Y0031495D01*
X0064613Y0032694D02*
X0123110Y0032694D01*
X0125222Y0033892D02*
X0063414Y0033892D01*
X0059819Y0037488D02*
X0079471Y0037488D01*
X0078975Y0038686D02*
X0058620Y0038686D01*
X0057422Y0039885D02*
X0078931Y0039885D01*
X0078931Y0041083D02*
X0056223Y0041083D01*
X0055025Y0042282D02*
X0078931Y0042282D01*
X0078931Y0043480D02*
X0053826Y0043480D01*
X0052628Y0044679D02*
X0078931Y0044679D01*
X0079053Y0045877D02*
X0051429Y0045877D01*
X0050231Y0047076D02*
X0057442Y0047076D01*
X0056343Y0048275D02*
X0049032Y0048275D01*
X0047834Y0049473D02*
X0055734Y0049473D01*
X0060252Y0049473D02*
X0061452Y0049473D01*
X0061452Y0048275D02*
X0060252Y0048275D01*
X0060252Y0047076D02*
X0061452Y0047076D01*
X0064262Y0047076D02*
X0079560Y0047076D01*
X0080886Y0048275D02*
X0065361Y0048275D01*
X0066003Y0053069D02*
X0090331Y0053069D01*
X0090331Y0054267D02*
X0065434Y0054267D01*
X0064399Y0055466D02*
X0090331Y0055466D01*
X0090195Y0056664D02*
X0085682Y0056664D01*
X0086561Y0057863D02*
X0089316Y0057863D01*
X0088931Y0059061D02*
X0086946Y0059061D01*
X0086946Y0060260D02*
X0088931Y0060260D01*
X0088931Y0061458D02*
X0086946Y0061458D01*
X0086946Y0062657D02*
X0088931Y0062657D01*
X0088931Y0063855D02*
X0086946Y0063855D01*
X0086946Y0065054D02*
X0088196Y0065054D01*
X0086998Y0066252D02*
X0086669Y0066252D01*
X0081005Y0072245D02*
X0056306Y0072245D01*
X0056306Y0073443D02*
X0079807Y0073443D01*
X0078608Y0074642D02*
X0056306Y0074642D01*
X0056306Y0075840D02*
X0077410Y0075840D01*
X0076211Y0077039D02*
X0056306Y0077039D01*
X0056306Y0078237D02*
X0075013Y0078237D01*
X0061452Y0055466D02*
X0060252Y0055466D01*
X0060252Y0054267D02*
X0061452Y0054267D01*
X0061452Y0053069D02*
X0060252Y0053069D01*
X0105942Y0067451D02*
X0122242Y0067451D01*
X0123185Y0066252D02*
X0106669Y0066252D01*
X0133186Y0063855D02*
X0206779Y0063855D01*
X0207977Y0062657D02*
X0135245Y0062657D01*
X0136122Y0061458D02*
X0209176Y0061458D01*
X0210374Y0060260D02*
X0136566Y0060260D01*
X0136566Y0059061D02*
X0211573Y0059061D01*
X0212771Y0057863D02*
X0136247Y0057863D01*
X0135545Y0056664D02*
X0213970Y0056664D01*
X0215168Y0055466D02*
X0133911Y0055466D01*
X0187820Y0085652D02*
X0187820Y0108959D01*
X0185310Y0105803D02*
X0134684Y0105803D01*
X0135883Y0107002D02*
X0184111Y0107002D01*
X0183813Y0108200D02*
X0136387Y0108200D01*
X0136566Y0109399D02*
X0183813Y0109399D01*
X0183813Y0110597D02*
X0136479Y0110597D01*
X0135983Y0111796D02*
X0184990Y0111796D01*
X0192644Y0115391D02*
X0133731Y0115391D01*
X0135471Y0116590D02*
X0192506Y0116590D01*
X0192506Y0117788D02*
X0136216Y0117788D01*
X0136566Y0118987D02*
X0192506Y0118987D01*
X0192506Y0120185D02*
X0136566Y0120185D01*
X0136153Y0121384D02*
X0192506Y0121384D01*
X0192506Y0122582D02*
X0135320Y0122582D01*
X0134908Y0112994D02*
X0195041Y0112994D01*
X0189828Y0103406D02*
X0210223Y0103406D01*
X0210223Y0102208D02*
X0189828Y0102208D01*
X0189828Y0101009D02*
X0210223Y0101009D01*
X0210223Y0099810D02*
X0189828Y0099810D01*
X0189828Y0098612D02*
X0210223Y0098612D01*
X0211016Y0097413D02*
X0189828Y0097413D01*
X0189828Y0096215D02*
X0212214Y0096215D01*
X0213413Y0095016D02*
X0189828Y0095016D01*
X0189828Y0093818D02*
X0214611Y0093818D01*
X0216561Y0094707D02*
X0212230Y0099038D01*
X0212230Y0152975D01*
X0218765Y0159510D01*
X0229553Y0159510D01*
X0224262Y0163332D02*
X0189828Y0163332D01*
X0189828Y0162133D02*
X0222943Y0162133D01*
X0222682Y0157339D02*
X0219433Y0157339D01*
X0218234Y0156141D02*
X0223690Y0156141D01*
X0224787Y0153773D02*
X0224142Y0153445D01*
X0223556Y0153019D01*
X0223044Y0152507D01*
X0222618Y0151921D01*
X0222290Y0151276D01*
X0222066Y0150587D01*
X0221959Y0149910D01*
X0229153Y0149910D01*
X0229153Y0149110D01*
X0229953Y0149110D01*
X0229953Y0149910D01*
X0237147Y0149910D01*
X0237039Y0150587D01*
X0236816Y0151276D01*
X0236487Y0151921D01*
X0236061Y0152507D01*
X0235549Y0153019D01*
X0234964Y0153445D01*
X0234319Y0153773D01*
X0233630Y0153997D01*
X0232915Y0154110D01*
X0229953Y0154110D01*
X0229953Y0149910D01*
X0229153Y0149910D01*
X0229153Y0154110D01*
X0226191Y0154110D01*
X0225476Y0153997D01*
X0224787Y0153773D01*
X0224729Y0153744D02*
X0215837Y0153744D01*
X0217036Y0154942D02*
X0334532Y0154942D01*
X0334534Y0153744D02*
X0280122Y0153744D01*
X0281215Y0152545D02*
X0334537Y0152545D01*
X0334539Y0151346D02*
X0281711Y0151346D01*
X0281750Y0150148D02*
X0334541Y0150148D01*
X0334543Y0148949D02*
X0281457Y0148949D01*
X0280706Y0147751D02*
X0334545Y0147751D01*
X0334547Y0146552D02*
X0278792Y0146552D01*
X0281583Y0132170D02*
X0334571Y0132170D01*
X0334573Y0130972D02*
X0281914Y0130972D01*
X0281888Y0129773D02*
X0334575Y0129773D01*
X0334577Y0128575D02*
X0281499Y0128575D01*
X0280604Y0127376D02*
X0334579Y0127376D01*
X0334549Y0145354D02*
X0234528Y0145354D01*
X0234319Y0145247D02*
X0234964Y0145576D01*
X0235549Y0146002D01*
X0236061Y0146514D01*
X0236487Y0147099D01*
X0236816Y0147744D01*
X0237039Y0148433D01*
X0237147Y0149110D01*
X0229953Y0149110D01*
X0229953Y0144910D01*
X0232915Y0144910D01*
X0233630Y0145023D01*
X0234319Y0145247D01*
X0236090Y0146552D02*
X0241494Y0146552D01*
X0239581Y0147751D02*
X0236818Y0147751D01*
X0237121Y0148949D02*
X0238830Y0148949D01*
X0238536Y0150148D02*
X0237109Y0150148D01*
X0236780Y0151346D02*
X0238575Y0151346D01*
X0239072Y0152545D02*
X0236023Y0152545D01*
X0234377Y0153744D02*
X0240165Y0153744D01*
X0229953Y0153744D02*
X0229153Y0153744D01*
X0229153Y0152545D02*
X0229953Y0152545D01*
X0229953Y0151346D02*
X0229153Y0151346D01*
X0229153Y0150148D02*
X0229953Y0150148D01*
X0229953Y0148949D02*
X0229153Y0148949D01*
X0229153Y0149110D02*
X0229153Y0144910D01*
X0226191Y0144910D01*
X0225476Y0145023D01*
X0224787Y0145247D01*
X0224142Y0145576D01*
X0223556Y0146002D01*
X0223044Y0146514D01*
X0222618Y0147099D01*
X0222290Y0147744D01*
X0222066Y0148433D01*
X0221959Y0149110D01*
X0229153Y0149110D01*
X0229153Y0147751D02*
X0229953Y0147751D01*
X0229953Y0146552D02*
X0229153Y0146552D01*
X0229153Y0145354D02*
X0229953Y0145354D01*
X0235339Y0142957D02*
X0239378Y0142957D01*
X0238746Y0141758D02*
X0236392Y0141758D01*
X0236888Y0140560D02*
X0238536Y0140560D01*
X0238659Y0139361D02*
X0236960Y0139361D01*
X0236765Y0138163D02*
X0239169Y0138163D01*
X0240500Y0136964D02*
X0236239Y0136964D01*
X0241006Y0144155D02*
X0214237Y0144155D01*
X0214237Y0142957D02*
X0223767Y0142957D01*
X0222714Y0141758D02*
X0214237Y0141758D01*
X0214237Y0140560D02*
X0222217Y0140560D01*
X0222146Y0139361D02*
X0214237Y0139361D01*
X0214237Y0138163D02*
X0222341Y0138163D01*
X0222866Y0136964D02*
X0214237Y0136964D01*
X0214237Y0135766D02*
X0224076Y0135766D01*
X0224578Y0145354D02*
X0214237Y0145354D01*
X0214237Y0146552D02*
X0223016Y0146552D01*
X0222288Y0147751D02*
X0214237Y0147751D01*
X0214237Y0148949D02*
X0221984Y0148949D01*
X0221996Y0150148D02*
X0214237Y0150148D01*
X0214237Y0151346D02*
X0222326Y0151346D01*
X0223082Y0152545D02*
X0214639Y0152545D01*
X0211359Y0154942D02*
X0189828Y0154942D01*
X0189828Y0153744D02*
X0210223Y0153744D01*
X0210223Y0152545D02*
X0205135Y0152545D01*
X0206333Y0151346D02*
X0210223Y0151346D01*
X0210223Y0150148D02*
X0206981Y0150148D01*
X0202981Y0150148D02*
X0202581Y0150148D01*
X0202581Y0151346D02*
X0202981Y0151346D01*
X0202981Y0152545D02*
X0202581Y0152545D01*
X0200427Y0152545D02*
X0189901Y0152545D01*
X0191100Y0151346D02*
X0199229Y0151346D01*
X0198581Y0150148D02*
X0191828Y0150148D01*
X0189828Y0156141D02*
X0212557Y0156141D01*
X0213756Y0157339D02*
X0189828Y0157339D01*
X0189828Y0158538D02*
X0214954Y0158538D01*
X0216153Y0159736D02*
X0189828Y0159736D01*
X0189828Y0160935D02*
X0217351Y0160935D01*
X0261700Y0122582D02*
X0269087Y0122582D01*
X0268591Y0121384D02*
X0261700Y0121384D01*
X0261700Y0120185D02*
X0268536Y0120185D01*
X0268814Y0118987D02*
X0261700Y0118987D01*
X0261700Y0117788D02*
X0269543Y0117788D01*
X0271404Y0116590D02*
X0261700Y0116590D01*
X0254886Y0112994D02*
X0250871Y0112994D01*
X0251525Y0111796D02*
X0254886Y0111796D01*
X0254886Y0110597D02*
X0251750Y0110597D01*
X0251643Y0109399D02*
X0254886Y0109399D01*
X0254886Y0108200D02*
X0251146Y0108200D01*
X0249877Y0107002D02*
X0254886Y0107002D01*
X0254886Y0103406D02*
X0250459Y0103406D01*
X0250013Y0103852D02*
X0248540Y0104462D01*
X0241746Y0104462D01*
X0240273Y0103852D01*
X0239146Y0102725D01*
X0238536Y0101252D01*
X0238536Y0099658D01*
X0239146Y0098185D01*
X0240273Y0097058D01*
X0241746Y0096448D01*
X0248540Y0096448D01*
X0250013Y0097058D01*
X0251140Y0098185D01*
X0251750Y0099658D01*
X0251750Y0101252D01*
X0251140Y0102725D01*
X0250013Y0103852D01*
X0251355Y0102208D02*
X0254886Y0102208D01*
X0254886Y0101009D02*
X0251750Y0101009D01*
X0251750Y0099810D02*
X0254886Y0099810D01*
X0254886Y0098612D02*
X0251317Y0098612D01*
X0250369Y0097413D02*
X0254886Y0097413D01*
X0254886Y0096215D02*
X0235883Y0096215D01*
X0236454Y0097413D02*
X0239918Y0097413D01*
X0238970Y0098612D02*
X0236951Y0098612D01*
X0236960Y0099810D02*
X0238536Y0099810D01*
X0238536Y0101009D02*
X0236702Y0101009D01*
X0236088Y0102208D02*
X0238932Y0102208D01*
X0239827Y0103406D02*
X0234664Y0103406D01*
X0224442Y0103406D02*
X0214237Y0103406D01*
X0214237Y0102208D02*
X0223017Y0102208D01*
X0222403Y0101009D02*
X0214237Y0101009D01*
X0214296Y0099810D02*
X0222146Y0099810D01*
X0222155Y0098612D02*
X0215494Y0098612D01*
X0216693Y0097413D02*
X0222651Y0097413D01*
X0223429Y0092619D02*
X0189828Y0092619D01*
X0189828Y0091421D02*
X0222574Y0091421D01*
X0222146Y0090222D02*
X0189828Y0090222D01*
X0189828Y0089024D02*
X0222146Y0089024D01*
X0222480Y0087825D02*
X0189828Y0087825D01*
X0189828Y0086627D02*
X0223204Y0086627D01*
X0224891Y0085428D02*
X0190883Y0085428D01*
X0192081Y0084230D02*
X0238536Y0084230D01*
X0238656Y0083031D02*
X0235264Y0083031D01*
X0235049Y0083246D02*
X0233429Y0083917D01*
X0225676Y0083917D01*
X0224056Y0083246D01*
X0222817Y0082007D01*
X0222146Y0080387D01*
X0222146Y0078634D01*
X0222817Y0077014D01*
X0224056Y0075774D01*
X0225676Y0075103D01*
X0233429Y0075103D01*
X0235049Y0075774D01*
X0236289Y0077014D01*
X0236960Y0078634D01*
X0236960Y0080387D01*
X0236289Y0082007D01*
X0235049Y0083246D01*
X0236361Y0081833D02*
X0239160Y0081833D01*
X0240479Y0080634D02*
X0236857Y0080634D01*
X0236960Y0079436D02*
X0254886Y0079436D01*
X0254886Y0080634D02*
X0249807Y0080634D01*
X0251126Y0081833D02*
X0254886Y0081833D01*
X0254886Y0083031D02*
X0251631Y0083031D01*
X0251750Y0084230D02*
X0254886Y0084230D01*
X0254886Y0085428D02*
X0251537Y0085428D01*
X0250900Y0086627D02*
X0254886Y0086627D01*
X0254886Y0087825D02*
X0249260Y0087825D01*
X0254886Y0089024D02*
X0243074Y0089024D01*
X0241876Y0090222D02*
X0254886Y0090222D01*
X0254886Y0091421D02*
X0240677Y0091421D01*
X0239479Y0092619D02*
X0254886Y0092619D01*
X0254886Y0093818D02*
X0238280Y0093818D01*
X0237082Y0095016D02*
X0254886Y0095016D01*
X0261700Y0095016D02*
X0300003Y0095016D01*
X0300203Y0095217D02*
X0298728Y0093742D01*
X0297929Y0091814D01*
X0297929Y0089727D01*
X0298353Y0088704D01*
X0286069Y0076124D01*
X0281249Y0076124D01*
X0281140Y0076386D01*
X0280013Y0077514D01*
X0278540Y0078124D01*
X0271746Y0078124D01*
X0270273Y0077514D01*
X0269146Y0076386D01*
X0268536Y0074914D01*
X0268536Y0073319D01*
X0269146Y0071847D01*
X0270273Y0070719D01*
X0271746Y0070109D01*
X0278540Y0070109D01*
X0280013Y0070719D01*
X0281140Y0071847D01*
X0281249Y0072109D01*
X0286098Y0072109D01*
X0286108Y0072100D01*
X0286927Y0072109D01*
X0287746Y0072109D01*
X0287756Y0072119D01*
X0287770Y0072120D01*
X0288342Y0072706D01*
X0288922Y0073285D01*
X0288922Y0073299D01*
X0301225Y0085900D01*
X0302131Y0085524D01*
X0304218Y0085524D01*
X0306146Y0086323D01*
X0307622Y0087799D01*
X0308420Y0089727D01*
X0308420Y0091814D01*
X0307622Y0093742D01*
X0306146Y0095217D01*
X0304218Y0096016D01*
X0302131Y0096016D01*
X0300203Y0095217D01*
X0298804Y0093818D02*
X0261700Y0093818D01*
X0261700Y0092619D02*
X0298263Y0092619D01*
X0297929Y0091421D02*
X0261700Y0091421D01*
X0261700Y0090222D02*
X0297929Y0090222D01*
X0298220Y0089024D02*
X0261700Y0089024D01*
X0261700Y0087825D02*
X0270571Y0087825D01*
X0270342Y0087709D02*
X0269807Y0087320D01*
X0269340Y0086853D01*
X0268951Y0086318D01*
X0268651Y0085729D01*
X0268447Y0085100D01*
X0268343Y0084447D01*
X0268343Y0084317D01*
X0274943Y0084317D01*
X0274943Y0088317D01*
X0272213Y0088317D01*
X0271560Y0088213D01*
X0270931Y0088009D01*
X0270342Y0087709D01*
X0269176Y0086627D02*
X0261700Y0086627D01*
X0261700Y0085428D02*
X0268553Y0085428D01*
X0268343Y0083917D02*
X0268343Y0083786D01*
X0268447Y0083133D01*
X0268651Y0082504D01*
X0268951Y0081915D01*
X0269340Y0081380D01*
X0269807Y0080913D01*
X0270342Y0080524D01*
X0270931Y0080224D01*
X0271560Y0080020D01*
X0272213Y0079917D01*
X0274943Y0079917D01*
X0274943Y0083916D01*
X0275343Y0083916D01*
X0275343Y0079917D01*
X0278074Y0079917D01*
X0278727Y0080020D01*
X0279356Y0080224D01*
X0279945Y0080524D01*
X0280479Y0080913D01*
X0280947Y0081380D01*
X0281335Y0081915D01*
X0281636Y0082504D01*
X0281840Y0083133D01*
X0281943Y0083786D01*
X0281943Y0083917D01*
X0275343Y0083917D01*
X0275343Y0084317D01*
X0274943Y0084317D01*
X0274943Y0083917D01*
X0268343Y0083917D01*
X0268480Y0083031D02*
X0261700Y0083031D01*
X0261700Y0081833D02*
X0269011Y0081833D01*
X0270191Y0080634D02*
X0261700Y0080634D01*
X0261700Y0079436D02*
X0289303Y0079436D01*
X0288133Y0078237D02*
X0261700Y0078237D01*
X0261700Y0077039D02*
X0269799Y0077039D01*
X0268920Y0075840D02*
X0261700Y0075840D01*
X0261700Y0074642D02*
X0268536Y0074642D01*
X0268536Y0073443D02*
X0261700Y0073443D01*
X0261700Y0072245D02*
X0268981Y0072245D01*
X0269947Y0071046D02*
X0261700Y0071046D01*
X0261700Y0069848D02*
X0298009Y0069848D01*
X0297929Y0070042D02*
X0298387Y0068936D01*
X0295734Y0066124D01*
X0281249Y0066124D01*
X0281140Y0066386D01*
X0280013Y0067514D01*
X0278540Y0068124D01*
X0271746Y0068124D01*
X0270273Y0067514D01*
X0269146Y0066386D01*
X0268536Y0064914D01*
X0268536Y0063319D01*
X0269146Y0061847D01*
X0270273Y0060719D01*
X0271746Y0060109D01*
X0278540Y0060109D01*
X0280013Y0060719D01*
X0281140Y0061847D01*
X0281249Y0062109D01*
X0295803Y0062109D01*
X0295827Y0062086D01*
X0296629Y0062109D01*
X0297431Y0062109D01*
X0297455Y0062133D01*
X0297489Y0062134D01*
X0298040Y0062718D01*
X0298607Y0063285D01*
X0298607Y0063319D01*
X0301307Y0066181D01*
X0302131Y0065839D01*
X0304218Y0065839D01*
X0306146Y0066638D01*
X0307622Y0068114D01*
X0308420Y0070042D01*
X0308420Y0072128D01*
X0307622Y0074056D01*
X0306146Y0075532D01*
X0304218Y0076331D01*
X0302131Y0076331D01*
X0300203Y0075532D01*
X0298728Y0074056D01*
X0297929Y0072128D01*
X0297929Y0070042D01*
X0297929Y0071046D02*
X0280340Y0071046D01*
X0280076Y0067451D02*
X0296986Y0067451D01*
X0295856Y0066252D02*
X0281196Y0066252D01*
X0280752Y0061458D02*
X0334690Y0061458D01*
X0334692Y0060260D02*
X0278903Y0060260D01*
X0278540Y0058124D02*
X0280013Y0057514D01*
X0281140Y0056386D01*
X0281750Y0054914D01*
X0281750Y0053319D01*
X0281140Y0051847D01*
X0280013Y0050719D01*
X0278540Y0050109D01*
X0271746Y0050109D01*
X0270273Y0050719D01*
X0269146Y0051847D01*
X0268536Y0053319D01*
X0268536Y0054914D01*
X0269146Y0056386D01*
X0270273Y0057514D01*
X0271746Y0058124D01*
X0278540Y0058124D01*
X0279171Y0057863D02*
X0334696Y0057863D01*
X0334694Y0059061D02*
X0261700Y0059061D01*
X0261700Y0057863D02*
X0271116Y0057863D01*
X0269424Y0056664D02*
X0261700Y0056664D01*
X0261700Y0055466D02*
X0268765Y0055466D01*
X0268536Y0054267D02*
X0261700Y0054267D01*
X0261700Y0053069D02*
X0268640Y0053069D01*
X0269137Y0051870D02*
X0261700Y0051870D01*
X0261700Y0050672D02*
X0270389Y0050672D01*
X0279897Y0050672D02*
X0297784Y0050672D01*
X0297763Y0050800D02*
X0297870Y0050126D01*
X0298135Y0049312D01*
X0298523Y0048550D01*
X0299026Y0047857D01*
X0299632Y0047252D01*
X0300324Y0046749D01*
X0301087Y0046360D01*
X0301901Y0046095D01*
X0302575Y0045989D01*
X0302575Y0050800D01*
X0303775Y0050800D01*
X0303775Y0052000D01*
X0308586Y0052000D01*
X0308479Y0052674D01*
X0308215Y0053488D01*
X0307826Y0054250D01*
X0307323Y0054943D01*
X0306718Y0055548D01*
X0306025Y0056051D01*
X0305262Y0056440D01*
X0304448Y0056705D01*
X0303775Y0056811D01*
X0303775Y0052000D01*
X0302575Y0052000D01*
X0302575Y0056811D01*
X0301901Y0056705D01*
X0301087Y0056440D01*
X0300324Y0056051D01*
X0299632Y0055548D01*
X0299026Y0054943D01*
X0298523Y0054250D01*
X0298135Y0053488D01*
X0297870Y0052674D01*
X0297763Y0052000D01*
X0302575Y0052000D01*
X0302575Y0050800D01*
X0297763Y0050800D01*
X0298082Y0049473D02*
X0261700Y0049473D01*
X0261700Y0048275D02*
X0298723Y0048275D01*
X0299874Y0047076D02*
X0261700Y0047076D01*
X0261700Y0045877D02*
X0334716Y0045877D01*
X0334718Y0044679D02*
X0261700Y0044679D01*
X0261700Y0043480D02*
X0334720Y0043480D01*
X0334722Y0042282D02*
X0261700Y0042282D01*
X0261700Y0041083D02*
X0334724Y0041083D01*
X0334726Y0039885D02*
X0261700Y0039885D01*
X0261444Y0038686D02*
X0334728Y0038686D01*
X0334730Y0037488D02*
X0325704Y0037488D01*
X0328166Y0036289D02*
X0334732Y0036289D01*
X0334734Y0035091D02*
X0330242Y0035091D01*
X0331504Y0033892D02*
X0334736Y0033892D01*
X0334738Y0032694D02*
X0332702Y0032694D01*
X0333786Y0031495D02*
X0334740Y0031495D01*
X0334742Y0030297D02*
X0334478Y0030297D01*
X0313716Y0037488D02*
X0260616Y0037488D01*
X0259418Y0036289D02*
X0311254Y0036289D01*
X0309179Y0035091D02*
X0258219Y0035091D01*
X0257021Y0033892D02*
X0307917Y0033892D01*
X0306718Y0032694D02*
X0255822Y0032694D01*
X0254624Y0031495D02*
X0305634Y0031495D01*
X0304942Y0030297D02*
X0253425Y0030297D01*
X0252227Y0029098D02*
X0304250Y0029098D01*
X0303558Y0027900D02*
X0251028Y0027900D01*
X0249830Y0026701D02*
X0303206Y0026701D01*
X0302885Y0025503D02*
X0248631Y0025503D01*
X0247433Y0024304D02*
X0302564Y0024304D01*
X0302315Y0023106D02*
X0246234Y0023106D01*
X0245036Y0021907D02*
X0302315Y0021907D01*
X0302315Y0020709D02*
X0243837Y0020709D01*
X0242639Y0019510D02*
X0302315Y0019510D01*
X0302444Y0018312D02*
X0241440Y0018312D01*
X0240242Y0017113D02*
X0302766Y0017113D01*
X0303775Y0045989D02*
X0304448Y0046095D01*
X0305262Y0046360D01*
X0306025Y0046749D01*
X0306718Y0047252D01*
X0307323Y0047857D01*
X0307826Y0048550D01*
X0308215Y0049312D01*
X0308479Y0050126D01*
X0308586Y0050800D01*
X0303775Y0050800D01*
X0303775Y0045989D01*
X0303775Y0047076D02*
X0302575Y0047076D01*
X0302575Y0048275D02*
X0303775Y0048275D01*
X0303775Y0049473D02*
X0302575Y0049473D01*
X0302575Y0050672D02*
X0303775Y0050672D01*
X0303775Y0051870D02*
X0334706Y0051870D01*
X0334708Y0050672D02*
X0308566Y0050672D01*
X0308267Y0049473D02*
X0334710Y0049473D01*
X0334712Y0048275D02*
X0307626Y0048275D01*
X0306476Y0047076D02*
X0334714Y0047076D01*
X0334704Y0053069D02*
X0308351Y0053069D01*
X0307814Y0054267D02*
X0334702Y0054267D01*
X0334700Y0055466D02*
X0306801Y0055466D01*
X0304573Y0056664D02*
X0334698Y0056664D01*
X0334688Y0062657D02*
X0297982Y0062657D01*
X0299113Y0063855D02*
X0334686Y0063855D01*
X0334684Y0065054D02*
X0300244Y0065054D01*
X0296600Y0064117D02*
X0303175Y0071085D01*
X0306959Y0067451D02*
X0334680Y0067451D01*
X0334678Y0068649D02*
X0307844Y0068649D01*
X0308340Y0069848D02*
X0334676Y0069848D01*
X0334674Y0071046D02*
X0308420Y0071046D01*
X0308372Y0072245D02*
X0334672Y0072245D01*
X0334670Y0073443D02*
X0307876Y0073443D01*
X0307037Y0074642D02*
X0334668Y0074642D01*
X0334666Y0075840D02*
X0305402Y0075840D01*
X0300947Y0075840D02*
X0291403Y0075840D01*
X0290233Y0074642D02*
X0299313Y0074642D01*
X0298474Y0073443D02*
X0289063Y0073443D01*
X0287892Y0072245D02*
X0297977Y0072245D01*
X0298117Y0068649D02*
X0261700Y0068649D01*
X0261700Y0067451D02*
X0270211Y0067451D01*
X0269091Y0066252D02*
X0261700Y0066252D01*
X0261700Y0065054D02*
X0268594Y0065054D01*
X0268536Y0063855D02*
X0261700Y0063855D01*
X0261700Y0062657D02*
X0268811Y0062657D01*
X0269535Y0061458D02*
X0261700Y0061458D01*
X0261700Y0060260D02*
X0271384Y0060260D01*
X0275143Y0064117D02*
X0296600Y0064117D01*
X0305215Y0066252D02*
X0334682Y0066252D01*
X0334664Y0077039D02*
X0292573Y0077039D01*
X0293743Y0078237D02*
X0334662Y0078237D01*
X0334660Y0079436D02*
X0294914Y0079436D01*
X0296084Y0080634D02*
X0334658Y0080634D01*
X0334656Y0081833D02*
X0297254Y0081833D01*
X0298424Y0083031D02*
X0334654Y0083031D01*
X0334652Y0084230D02*
X0299594Y0084230D01*
X0300764Y0085428D02*
X0334649Y0085428D01*
X0334647Y0086627D02*
X0306450Y0086627D01*
X0307633Y0087825D02*
X0334645Y0087825D01*
X0334643Y0089024D02*
X0308129Y0089024D01*
X0308420Y0090222D02*
X0334641Y0090222D01*
X0334639Y0091421D02*
X0308420Y0091421D01*
X0308087Y0092619D02*
X0334637Y0092619D01*
X0334635Y0093818D02*
X0307545Y0093818D01*
X0306347Y0095016D02*
X0334633Y0095016D01*
X0303175Y0090770D02*
X0286915Y0074117D01*
X0275143Y0074117D01*
X0280488Y0077039D02*
X0286963Y0077039D01*
X0290474Y0080634D02*
X0280096Y0080634D01*
X0281276Y0081833D02*
X0291644Y0081833D01*
X0292814Y0083031D02*
X0281807Y0083031D01*
X0281943Y0084317D02*
X0281943Y0084447D01*
X0281840Y0085100D01*
X0281636Y0085729D01*
X0281335Y0086318D01*
X0280947Y0086853D01*
X0280479Y0087320D01*
X0279945Y0087709D01*
X0279356Y0088009D01*
X0278727Y0088213D01*
X0278074Y0088317D01*
X0275343Y0088317D01*
X0275343Y0084317D01*
X0281943Y0084317D01*
X0281733Y0085428D02*
X0295154Y0085428D01*
X0293984Y0084230D02*
X0275343Y0084230D01*
X0274943Y0084230D02*
X0261700Y0084230D01*
X0254886Y0078237D02*
X0248574Y0078237D01*
X0248727Y0078213D02*
X0248074Y0078317D01*
X0245343Y0078317D01*
X0245343Y0074317D01*
X0244943Y0074317D01*
X0244943Y0078317D01*
X0242213Y0078317D01*
X0241560Y0078213D01*
X0240931Y0078009D01*
X0240342Y0077709D01*
X0239807Y0077320D01*
X0239340Y0076853D01*
X0238951Y0076318D01*
X0238651Y0075729D01*
X0238447Y0075100D01*
X0238343Y0074447D01*
X0238343Y0074317D01*
X0244943Y0074317D01*
X0244943Y0073917D01*
X0238343Y0073917D01*
X0238343Y0073786D01*
X0238447Y0073133D01*
X0238651Y0072504D01*
X0238951Y0071915D01*
X0239340Y0071380D01*
X0239807Y0070913D01*
X0240342Y0070524D01*
X0240931Y0070224D01*
X0241560Y0070020D01*
X0242213Y0069917D01*
X0244943Y0069917D01*
X0244943Y0073916D01*
X0245343Y0073916D01*
X0245343Y0069917D01*
X0248074Y0069917D01*
X0248727Y0070020D01*
X0249356Y0070224D01*
X0249945Y0070524D01*
X0250479Y0070913D01*
X0250947Y0071380D01*
X0251335Y0071915D01*
X0251636Y0072504D01*
X0251840Y0073133D01*
X0251943Y0073786D01*
X0251943Y0073917D01*
X0245343Y0073917D01*
X0245343Y0074317D01*
X0251943Y0074317D01*
X0251943Y0074447D01*
X0251840Y0075100D01*
X0251636Y0075729D01*
X0251335Y0076318D01*
X0250947Y0076853D01*
X0250479Y0077320D01*
X0249945Y0077709D01*
X0249356Y0078009D01*
X0248727Y0078213D01*
X0250761Y0077039D02*
X0254886Y0077039D01*
X0254886Y0075840D02*
X0251579Y0075840D01*
X0251912Y0074642D02*
X0254886Y0074642D01*
X0254886Y0073443D02*
X0251889Y0073443D01*
X0251503Y0072245D02*
X0254886Y0072245D01*
X0254886Y0071046D02*
X0250613Y0071046D01*
X0250013Y0067514D02*
X0248540Y0068124D01*
X0241746Y0068124D01*
X0240273Y0067514D01*
X0239146Y0066386D01*
X0238536Y0064914D01*
X0238536Y0063319D01*
X0239146Y0061847D01*
X0240273Y0060719D01*
X0241746Y0060109D01*
X0248540Y0060109D01*
X0250013Y0060719D01*
X0251140Y0061847D01*
X0251750Y0063319D01*
X0251750Y0064914D01*
X0251140Y0066386D01*
X0250013Y0067514D01*
X0250076Y0067451D02*
X0254886Y0067451D01*
X0254886Y0068649D02*
X0236960Y0068649D01*
X0236960Y0068634D02*
X0236960Y0070387D01*
X0236289Y0072007D01*
X0235049Y0073246D01*
X0233429Y0073917D01*
X0225676Y0073917D01*
X0224056Y0073246D01*
X0222817Y0072007D01*
X0222146Y0070387D01*
X0222146Y0068634D01*
X0222817Y0067014D01*
X0224056Y0065774D01*
X0225676Y0065103D01*
X0233429Y0065103D01*
X0235049Y0065774D01*
X0236289Y0067014D01*
X0236960Y0068634D01*
X0236960Y0069848D02*
X0254886Y0069848D01*
X0254886Y0066252D02*
X0251196Y0066252D01*
X0251692Y0065054D02*
X0254886Y0065054D01*
X0254886Y0063855D02*
X0251750Y0063855D01*
X0251476Y0062657D02*
X0254886Y0062657D01*
X0254886Y0061458D02*
X0250752Y0061458D01*
X0248903Y0060260D02*
X0254886Y0060260D01*
X0254886Y0059061D02*
X0236960Y0059061D01*
X0236960Y0060260D02*
X0241384Y0060260D01*
X0239535Y0061458D02*
X0236516Y0061458D01*
X0235639Y0062657D02*
X0238811Y0062657D01*
X0238536Y0063855D02*
X0233579Y0063855D01*
X0235527Y0066252D02*
X0239091Y0066252D01*
X0238594Y0065054D02*
X0211257Y0065054D01*
X0210059Y0066252D02*
X0223578Y0066252D01*
X0222636Y0067451D02*
X0208860Y0067451D01*
X0207662Y0068649D02*
X0222146Y0068649D01*
X0222146Y0069848D02*
X0206463Y0069848D01*
X0205265Y0071046D02*
X0222419Y0071046D01*
X0223055Y0072245D02*
X0204066Y0072245D01*
X0202868Y0073443D02*
X0224532Y0073443D01*
X0223990Y0075840D02*
X0200471Y0075840D01*
X0201669Y0074642D02*
X0238374Y0074642D01*
X0238398Y0073443D02*
X0234574Y0073443D01*
X0236051Y0072245D02*
X0238783Y0072245D01*
X0239674Y0071046D02*
X0236687Y0071046D01*
X0236470Y0067451D02*
X0240211Y0067451D01*
X0244943Y0071046D02*
X0245343Y0071046D01*
X0245343Y0072245D02*
X0244943Y0072245D01*
X0244943Y0073443D02*
X0245343Y0073443D01*
X0245343Y0074642D02*
X0244943Y0074642D01*
X0244943Y0075840D02*
X0245343Y0075840D01*
X0245343Y0077039D02*
X0244943Y0077039D01*
X0244943Y0078237D02*
X0245343Y0078237D01*
X0241713Y0078237D02*
X0236796Y0078237D01*
X0236299Y0077039D02*
X0239526Y0077039D01*
X0238708Y0075840D02*
X0235115Y0075840D01*
X0222806Y0077039D02*
X0199272Y0077039D01*
X0198074Y0078237D02*
X0222310Y0078237D01*
X0222146Y0079436D02*
X0196875Y0079436D01*
X0195677Y0080634D02*
X0222248Y0080634D01*
X0222745Y0081833D02*
X0194478Y0081833D01*
X0193280Y0083031D02*
X0223841Y0083031D01*
X0234214Y0085428D02*
X0238749Y0085428D01*
X0239387Y0086627D02*
X0235902Y0086627D01*
X0236625Y0087825D02*
X0238596Y0087825D01*
X0237398Y0089024D02*
X0236960Y0089024D01*
X0234553Y0094707D02*
X0216561Y0094707D01*
X0234553Y0094707D02*
X0245143Y0084117D01*
X0225526Y0063855D02*
X0212456Y0063855D01*
X0213654Y0062657D02*
X0223467Y0062657D01*
X0222589Y0061458D02*
X0214853Y0061458D01*
X0216051Y0060260D02*
X0222146Y0060260D01*
X0222146Y0059061D02*
X0217250Y0059061D01*
X0218448Y0057863D02*
X0222465Y0057863D01*
X0223166Y0056664D02*
X0219647Y0056664D01*
X0219356Y0054117D02*
X0187820Y0085652D01*
X0219356Y0054117D02*
X0245143Y0054117D01*
X0240389Y0050672D02*
X0236842Y0050672D01*
X0236960Y0049473D02*
X0254886Y0049473D01*
X0254886Y0048275D02*
X0236811Y0048275D01*
X0236315Y0047076D02*
X0254886Y0047076D01*
X0254886Y0050672D02*
X0249897Y0050672D01*
X0251150Y0051870D02*
X0254886Y0051870D01*
X0254886Y0053069D02*
X0251646Y0053069D01*
X0251750Y0054267D02*
X0254886Y0054267D01*
X0254886Y0055466D02*
X0251522Y0055466D01*
X0250863Y0056664D02*
X0254886Y0056664D01*
X0254886Y0057863D02*
X0249171Y0057863D01*
X0241116Y0057863D02*
X0236640Y0057863D01*
X0235939Y0056664D02*
X0239424Y0056664D01*
X0239137Y0051870D02*
X0236345Y0051870D01*
X0274943Y0080634D02*
X0275343Y0080634D01*
X0275343Y0081833D02*
X0274943Y0081833D01*
X0274943Y0083031D02*
X0275343Y0083031D01*
X0275343Y0085428D02*
X0274943Y0085428D01*
X0274943Y0086627D02*
X0275343Y0086627D01*
X0275343Y0087825D02*
X0274943Y0087825D01*
X0279716Y0087825D02*
X0297495Y0087825D01*
X0296324Y0086627D02*
X0281111Y0086627D01*
X0280863Y0056664D02*
X0301776Y0056664D01*
X0302575Y0056664D02*
X0303775Y0056664D01*
X0303775Y0055466D02*
X0302575Y0055466D01*
X0302575Y0054267D02*
X0303775Y0054267D01*
X0303775Y0053069D02*
X0302575Y0053069D01*
X0302575Y0051870D02*
X0281150Y0051870D01*
X0281646Y0053069D02*
X0297998Y0053069D01*
X0298535Y0054267D02*
X0281750Y0054267D01*
X0281522Y0055466D02*
X0299549Y0055466D01*
X0129159Y0149510D02*
X0113293Y0165376D01*
X0131324Y0228051D02*
X0307588Y0228051D01*
X0308786Y0229250D02*
X0032209Y0229250D01*
X0055934Y0230448D02*
X0310684Y0230448D01*
X0333853Y0205279D02*
X0334448Y0205279D01*
X0334450Y0204081D02*
X0332819Y0204081D01*
X0331620Y0202882D02*
X0334452Y0202882D01*
X0334454Y0201684D02*
X0330422Y0201684D01*
X0328368Y0200485D02*
X0334456Y0200485D01*
X0334458Y0199287D02*
X0326139Y0199287D01*
X0012829Y0036289D02*
X0006935Y0036289D01*
X0006937Y0035091D02*
X0010753Y0035091D01*
X0009492Y0033892D02*
X0006939Y0033892D01*
X0006941Y0032694D02*
X0008293Y0032694D01*
X0007209Y0031495D02*
X0006943Y0031495D01*
D19*
X0071285Y0085652D02*
X0092939Y0063998D01*
X0092939Y0062187D01*
X0092939Y0042187D01*
X0071285Y0085652D02*
X0071285Y0089983D01*
X0053293Y0107975D01*
X0053293Y0109668D01*
X0048332Y0104707D01*
X0032466Y0104707D01*
X0040380Y0132896D02*
X0053481Y0132896D01*
X0096876Y0176291D01*
D20*
X0052899Y0085258D02*
X0033017Y0085258D01*
X0032466Y0084707D01*
X0052899Y0085258D02*
X0052899Y0063054D01*
X0041167Y0051321D01*
X0072584Y0019904D01*
X0238214Y0019904D01*
X0258293Y0039983D01*
X0258293Y0125022D01*
X0252860Y0130455D01*
X0245143Y0130455D01*
X0245143Y0160455D02*
X0249041Y0160455D01*
X0265655Y0177069D01*
X0291285Y0177069D01*
X0303175Y0164786D01*
M02*
