%
M48
M72
T01C0.03200
T02C0.04000
T03C0.05118
T04C0.05200
T05C0.25591
%
T01
X82939Y42187
X92939Y42187
X102939Y42187
X102939Y62187
X92939Y62187
X82939Y62187
X62899Y85258
X52899Y85258
X53293Y109668
X63293Y109668
X187820Y108959
X202781Y108959
X245143Y110455
X245143Y100455
X245143Y84117
X245143Y74117
X245143Y64117
X245143Y54117
X275143Y54117
X275143Y64117
X275143Y74117
X275143Y84117
X275143Y100455
X275143Y110455
X275143Y120455
X275143Y130455
X275143Y140455
X275143Y150455
X275143Y160455
X265655Y177069
X248569Y177069
X245143Y160455
X245143Y150455
X245143Y140455
X245143Y130455
X245143Y120455
X202781Y148959
X187820Y148959
X113293Y205731
X103293Y205731
X89474Y224235
X129474Y224235
X248569Y217069
X265655Y217069
T02
X229553Y209510
X229553Y199510
X229553Y189510
X229553Y179510
X229553Y169510
X229553Y159510
X229553Y149510
X229553Y139510
X229553Y129510
X229553Y119510
X229553Y109510
X229553Y99510
X229553Y89510
X229553Y79510
X229553Y69510
X229553Y59510
X229553Y49510
X229553Y39510
X229553Y29510
X129159Y29510
X129159Y39510
X129159Y49510
X129159Y59510
X129159Y69510
X129159Y79510
X129159Y89510
X129159Y99510
X129159Y109510
X129159Y119510
X129159Y129510
X129159Y139510
X129159Y149510
X129159Y159510
X129159Y169510
X129159Y179510
X129159Y189510
X129159Y199510
X129159Y209510
X32466Y104707
X32466Y94707
X32466Y84707
T03
X41167Y51321
X60852Y51321
X40380Y132896
X40380Y152581
X303175Y164786
X303175Y184471
X303175Y139589
X303175Y119904
X303175Y90770
X303175Y71085
X303175Y51400
T04
X96876Y77691
X96876Y176291
T05
X21285Y21085
X21285Y215573
X319710Y215573
X319710Y21085
M30
